<svg xmlns="http://www.w3.org/2000/svg" viewBox="0 0 180.863 134.865"><defs><style>.cls-1{fill:#212125;}.cls-2{fill:red;}.cls-3{fill:#fff;}</style></defs><g id="Ebene_2" data-name="Ebene 2"><g id="En_-_KENNZEICHNUNG_hoch_p_o_s_i_t_i_v" data-name="En - KENNZEICHNUNG  hoch / p o s i t i v"><path class="cls-1" d="M1.307.768H3.43c1.823,0,3.49.527,3.49,2.53,0,1.955-1.427,2.663-3.226,2.663H2.986V9.139H1.307ZM2.986,4.642h.588c.839,0,1.595-.276,1.595-1.247S4.438,2.087,3.574,2.087H2.986Z"/><path class="cls-1" d="M8.015,2.962H9.442v1.4h.024a1.892,1.892,0,0,1,1.691-1.547,1.755,1.755,0,0,1,.492.048V4.486a1.638,1.638,0,0,0-.72-.132c-1.307,0-1.307,1.631-1.307,2.519V9.139H8.015Z"/><path class="cls-1" d="M15.262,2.819A3.093,3.093,0,0,1,18.5,6.093a3.052,3.052,0,0,1-3.238,3.19,3.049,3.049,0,0,1-3.227-3.19A3.091,3.091,0,0,1,15.262,2.819Zm0,5.217c1.235,0,1.559-1.1,1.559-2.135a1.575,1.575,0,1,0-3.107,0C13.714,6.92,14.038,8.036,15.262,8.036Z"/><path class="cls-1" d="M18.815,10.554c.864-.048.984-.216.984-1.175V2.962h1.607V9.6c0,.875-.252,2.207-1.859,2.207a3.167,3.167,0,0,1-.791-.1ZM19.8.3h1.607V1.835H19.8Z"/><path class="cls-1" d="M28.052,8.792a4.248,4.248,0,0,1-2.122.491,2.935,2.935,0,0,1-3.227-3.2c0-1.787.948-3.262,2.867-3.262,2.29,0,2.938,1.571,2.938,3.729h-4.27A1.616,1.616,0,0,0,26,8.108a4.162,4.162,0,0,0,2.051-.624ZM26.973,5.445c-.048-.779-.408-1.451-1.307-1.451a1.4,1.4,0,0,0-1.428,1.451Z"/><path class="cls-1" d="M33.777,4.294a2.426,2.426,0,0,0-1.091-.228c-1,0-1.632.791-1.632,1.955,0,1.139.54,2.015,1.667,2.015a3.408,3.408,0,0,0,1.236-.288l.071,1.331a5.231,5.231,0,0,1-1.607.2c-2.026,0-3.046-1.379-3.046-3.262a2.922,2.922,0,0,1,2.986-3.2,5.257,5.257,0,0,1,1.559.2Z"/><path class="cls-1" d="M35.626,4.138H34.439V2.962h1.187V1.727l1.607-.516V2.962h1.428V4.138H37.233V7.016c0,.528.144,1.02.756,1.02a1.436,1.436,0,0,0,.732-.168l.048,1.271a4.231,4.231,0,0,1-1.188.144,1.817,1.817,0,0,1-1.955-2Z"/><path class="cls-1" d="M43.69,4.138H42.5V2.962H43.69V2.1A1.889,1.889,0,0,1,45.657,0a5.673,5.673,0,0,1,1.176.132L46.7,1.463a1.249,1.249,0,0,0-.7-.215c-.54,0-.708.467-.708.947v.767h1.4V4.138H45.3v5H43.69Z"/><path class="cls-1" d="M53.443,9.139H51.92V8.3H51.9a2.578,2.578,0,0,1-2.027.983c-1.463,0-2.1-1.032-2.1-2.423v-3.9h1.606v3.3c0,.755.013,1.775,1.044,1.775,1.163,0,1.415-1.26,1.415-2.051V2.962h1.607Z"/><path class="cls-1" d="M55.1,2.962h1.522V3.8h.024a2.307,2.307,0,0,1,2.027-.983c1.464,0,2.1,1.031,2.1,2.422v3.9H59.168v-3.3c0-.756-.012-1.775-1.043-1.775-1.164,0-1.416,1.259-1.416,2.051V9.139H55.1Z"/><path class="cls-1" d="M66.548,8.443h-.024a2.293,2.293,0,0,1-1.895.84c-1.9,0-2.59-1.559-2.59-3.25s.7-3.214,2.59-3.214a2.192,2.192,0,0,1,1.847.863H66.5V.144h1.607V9.139H66.548Zm-1.475-.407c1.068,0,1.415-1.128,1.415-2s-.407-1.967-1.439-1.967-1.331,1.14-1.331,1.967C63.718,6.884,64.018,8.036,65.073,8.036Z"/><path class="cls-1" d="M74.72,8.792a4.254,4.254,0,0,1-2.123.491,2.934,2.934,0,0,1-3.226-3.2c0-1.787.947-3.262,2.866-3.262,2.291,0,2.939,1.571,2.939,3.729h-4.27a1.615,1.615,0,0,0,1.763,1.56,4.169,4.169,0,0,0,2.051-.624ZM73.641,5.445c-.049-.779-.409-1.451-1.308-1.451a1.4,1.4,0,0,0-1.427,1.451Z"/><path class="cls-1" d="M80.552,8.443h-.024a2.293,2.293,0,0,1-1.9.84c-1.895,0-2.591-1.559-2.591-3.25s.7-3.214,2.591-3.214a2.193,2.193,0,0,1,1.847.863H80.5V.144h1.607V9.139H80.552Zm-1.475-.407c1.068,0,1.415-1.128,1.415-2s-.408-1.967-1.439-1.967-1.331,1.14-1.331,1.967C77.722,6.884,78.021,8.036,79.077,8.036Z"/><path class="cls-1" d="M87.106.144h1.608v3.61h.023a2.166,2.166,0,0,1,1.847-.935c1.895,0,2.591,1.511,2.591,3.214s-.7,3.25-2.591,3.25a2.259,2.259,0,0,1-1.9-.9h-.024v.755H87.106Zm3.035,7.892c1.055,0,1.355-1.152,1.355-2,0-.827-.288-1.967-1.331-1.967s-1.439,1.1-1.439,1.967S89.073,8.036,90.141,8.036Z"/><path class="cls-1" d="M97,7.472h.024l1.487-4.51h1.631L97.832,9.091c-.516,1.367-.888,2.711-2.567,2.711a4.089,4.089,0,0,1-1.139-.168l.108-1.188a2.34,2.34,0,0,0,.827.108,1,1,0,0,0,1.044-1.1L93.742,2.962h1.775Z"/><path d="M29.9,30.609a1.882,1.882,0,0,0,1.123.309,1.253,1.253,0,0,0,.813-.264,1.01,1.01,0,0,0,.327-.811A.8.8,0,0,0,31.8,29.2a2.447,2.447,0,0,0-.372-.257c-.14-.08-.283-.16-.43-.238s-.285-.176-.419-.271a2.3,2.3,0,0,1-.38-.3,1.079,1.079,0,0,1-.363-.818,1.242,1.242,0,0,1,.472-1.008,1.817,1.817,0,0,1,1.133-.359,4.211,4.211,0,0,1,.465.029,3.144,3.144,0,0,1,.532.142l-.081.469a2.211,2.211,0,0,0-1.309-.157,1.094,1.094,0,0,0-.358.157.78.78,0,0,0-.253.272.86.86,0,0,0-.1.436.615.615,0,0,0,.1.345,1.031,1.031,0,0,0,.259.278,3.346,3.346,0,0,0,.38.239q.2.121.423.249a2.925,2.925,0,0,1,.8.569,1.286,1.286,0,0,1,.27.392,1.34,1.34,0,0,1,.093.517,1.305,1.305,0,0,1-.529,1.133,1.955,1.955,0,0,1-1.135.349,2.724,2.724,0,0,1-1.146-.226Z"/><path d="M36.734,27.954a1.915,1.915,0,0,0-.8-.2,1.263,1.263,0,0,0-1.022.441,1.742,1.742,0,0,0-.373,1.16,1.718,1.718,0,0,0,.366,1.12,1.174,1.174,0,0,0,.979.482,2.14,2.14,0,0,0,.839-.173l.042.441a2.982,2.982,0,0,1-.951.135,1.592,1.592,0,0,1-1.33-.609,2.229,2.229,0,0,1-.443-1.4,2.069,2.069,0,0,1,.507-1.447,1.72,1.72,0,0,1,1.323-.557,2.656,2.656,0,0,1,.568.051,1.916,1.916,0,0,1,.2.047,1.115,1.115,0,0,1,.124.051Z"/><path d="M38.24,25.645h.454v2.444h.014a1.366,1.366,0,0,1,.45-.532,1.308,1.308,0,0,1,.7-.2,1.1,1.1,0,0,1,1.011.451,2.272,2.272,0,0,1,.255,1.176v2.29h-.453V28.988a3.879,3.879,0,0,0-.028-.481,1.123,1.123,0,0,0-.125-.382.739.739,0,0,0-.728-.366.926.926,0,0,0-.853.473,1.967,1.967,0,0,0-.245.991v2.05H38.24Z"/><path d="M46.808,31.273h-.554L45.247,27.96h-.018l-1.008,3.313h-.554l-1.192-3.825h.5l.972,3.312h.014L45,27.448h.554l.979,3.312h.014l1.026-3.312h.458Z"/><path d="M51.9,31.154a3.047,3.047,0,0,1-1.076.211,1.522,1.522,0,0,1-1.3-.579,2.361,2.361,0,0,1-.383-1.426,2.318,2.318,0,0,1,.436-1.447,1.353,1.353,0,0,1,1.124-.557,1.288,1.288,0,0,1,1.135.564,2.45,2.45,0,0,1,.341,1.334V29.5H49.64a1.627,1.627,0,0,0,.313,1.028,1.058,1.058,0,0,0,.909.438,1.809,1.809,0,0,0,.569-.1,1.848,1.848,0,0,0,.473-.188Zm-.222-2.061a1.91,1.91,0,0,0-.214-.921.807.807,0,0,0-.736-.413.963.963,0,0,0-.793.42,1.516,1.516,0,0,0-.3.914Z"/><path d="M54.211,26.425h-.453V25.8h.453Zm-.453,1.023h.453v3.825h-.453Z"/><path d="M55.666,30.877,57.9,27.851H55.682v-.4h2.746v.4l-2.3,3.019h2.3v.4H55.666Z"/><path d="M62.409,31.154a3.039,3.039,0,0,1-1.076.211,1.522,1.522,0,0,1-1.3-.579,2.375,2.375,0,0,1-.383-1.426,2.324,2.324,0,0,1,.436-1.447,1.356,1.356,0,0,1,1.124-.557,1.289,1.289,0,0,1,1.136.564,2.45,2.45,0,0,1,.341,1.334V29.5H60.146a1.632,1.632,0,0,0,.312,1.028,1.061,1.061,0,0,0,.91.438,1.814,1.814,0,0,0,.569-.1,1.839,1.839,0,0,0,.472-.188Zm-.222-2.061a1.909,1.909,0,0,0-.213-.921.809.809,0,0,0-.737-.413.966.966,0,0,0-.793.42,1.515,1.515,0,0,0-.3.914Z"/><path d="M64.263,28.3q0-.531-.029-.853h.454v.732H64.7a1.643,1.643,0,0,1,.369-.575.8.8,0,0,1,.582-.249,1.48,1.48,0,0,1,.32.044v.491a1.184,1.184,0,0,0-.334-.044.77.77,0,0,0-.444.135,1,1,0,0,0-.284.367,1.916,1.916,0,0,0-.145.488,3.014,3.014,0,0,0-.05.543v1.893h-.454Z"/><path d="M67.8,26.425h-.454V25.8H67.8Zm-.454,1.023H67.8v3.825h-.454Z"/><path d="M69.315,30.719a2.006,2.006,0,0,0,.964.243.916.916,0,0,0,.582-.187.6.6,0,0,0,.241-.495.649.649,0,0,0-.27-.536,3.222,3.222,0,0,0-.617-.337c-.111-.054-.217-.112-.319-.173a2.683,2.683,0,0,1-.291-.2,1.1,1.1,0,0,1-.206-.279.759.759,0,0,1-.078-.353.905.905,0,0,1,.376-.81,1.482,1.482,0,0,1,.829-.235,3.928,3.928,0,0,1,.415.029,2.629,2.629,0,0,1,.5.142l-.042.411a2.189,2.189,0,0,0-.824-.179,1.052,1.052,0,0,0-.565.132.47.47,0,0,0-.17.191.654.654,0,0,0-.064.315.363.363,0,0,0,.081.224.788.788,0,0,0,.21.18c.087.051.187.1.3.157s.22.107.326.166a2.062,2.062,0,0,1,.632.421,1,1,0,0,1,.277.73.98.98,0,0,1-.117.5,1.04,1.04,0,0,1-.311.337,1.633,1.633,0,0,1-.864.25,3,3,0,0,1-1.034-.182Z"/><path d="M75.515,27.954a1.923,1.923,0,0,0-.8-.2A1.265,1.265,0,0,0,73.7,28.2a1.742,1.742,0,0,0-.373,1.16,1.718,1.718,0,0,0,.366,1.12,1.174,1.174,0,0,0,.979.482,2.14,2.14,0,0,0,.839-.173l.042.441a2.98,2.98,0,0,1-.95.135,1.591,1.591,0,0,1-1.33-.609,2.223,2.223,0,0,1-.443-1.4,2.064,2.064,0,0,1,.506-1.447,1.721,1.721,0,0,1,1.323-.557,2.65,2.65,0,0,1,.568.051,1.859,1.859,0,0,1,.2.047,1.115,1.115,0,0,1,.124.051Z"/><path d="M77.021,25.645h.454v2.444h.014a1.358,1.358,0,0,1,.45-.532,1.308,1.308,0,0,1,.7-.2,1.1,1.1,0,0,1,1.011.451,2.272,2.272,0,0,1,.255,1.176v2.29h-.453V28.988a3.874,3.874,0,0,0-.029-.481,1.1,1.1,0,0,0-.124-.382.739.739,0,0,0-.728-.366.925.925,0,0,0-.853.473,1.956,1.956,0,0,0-.245.991v2.05h-.454Z"/><path d="M84.262,31.154a3.038,3.038,0,0,1-1.075.211,1.523,1.523,0,0,1-1.3-.579A2.375,2.375,0,0,1,81.5,29.36a2.324,2.324,0,0,1,.436-1.447,1.357,1.357,0,0,1,1.125-.557,1.289,1.289,0,0,1,1.135.564,2.45,2.45,0,0,1,.341,1.334V29.5H82a1.632,1.632,0,0,0,.312,1.028,1.061,1.061,0,0,0,.91.438,1.814,1.814,0,0,0,.569-.1,1.839,1.839,0,0,0,.472-.188Zm-.222-2.061a1.909,1.909,0,0,0-.213-.921.809.809,0,0,0-.737-.413.966.966,0,0,0-.793.42,1.515,1.515,0,0,0-.3.914Z"/><path d="M88.613,26.037h2.479v.447H89.11v1.873h1.883V28.8H89.11v2.023h2.071v.447H88.613Z"/><path d="M93.353,26.425H92.9V25.8h.454ZM92.9,27.448h.454v3.825H92.9Z"/><path d="M98.082,31.273h-.455v-.608h-.013a1.2,1.2,0,0,1-1.157.7,1.322,1.322,0,0,1-1.139-.579,2.464,2.464,0,0,1-.387-1.426,2.5,2.5,0,0,1,.359-1.44,1.3,1.3,0,0,1,1.167-.564,1.279,1.279,0,0,1,.483.084,1.1,1.1,0,0,1,.348.208,1.041,1.041,0,0,1,.326.441h.013V25.645h.455ZM95.429,29.36a3.094,3.094,0,0,0,.05.548,2.161,2.161,0,0,0,.174.529A1.145,1.145,0,0,0,96,30.8a.853.853,0,0,0,.533.158.865.865,0,0,0,.523-.158,1.109,1.109,0,0,0,.338-.382,2.358,2.358,0,0,0,.238-1.062,3.274,3.274,0,0,0-.049-.558,2.02,2.02,0,0,0-.189-.51,1.128,1.128,0,0,0-.338-.39.93.93,0,0,0-.523-.143A.917.917,0,0,0,96,27.9a.988.988,0,0,0-.342.375,1.851,1.851,0,0,0-.174.511A3.349,3.349,0,0,0,95.429,29.36Z"/><path d="M102.839,30.958a2.337,2.337,0,0,1-.382,1.367,1.594,1.594,0,0,1-1.352.568,3.146,3.146,0,0,1-.671-.081c-.2-.051-.349-.091-.45-.12l.039-.47a2.339,2.339,0,0,0,1.091.268,1.354,1.354,0,0,0,.7-.165.909.909,0,0,0,.388-.421,1.828,1.828,0,0,0,.167-.622q.029-.351.029-.757h-.015a1.2,1.2,0,0,1-1.125.748,1.319,1.319,0,0,1-1.22-.645,1.855,1.855,0,0,1-.256-.615,2.862,2.862,0,0,1,.27-2.093,1.3,1.3,0,0,1,1.167-.564,2.228,2.228,0,0,1,.643.084,1.214,1.214,0,0,1,.514.436h.014v-.429h.453Zm-2.652-1.6a1.976,1.976,0,0,0,.246,1.029.891.891,0,0,0,.825.481.946.946,0,0,0,.879-.5,2.124,2.124,0,0,0,.249-1.015,2.473,2.473,0,0,0-.231-1.153.916.916,0,0,0-.868-.448.926.926,0,0,0-.535.143.992.992,0,0,0-.34.375,1.863,1.863,0,0,0-.175.511A3.349,3.349,0,0,0,100.187,29.36Z"/><path d="M107.151,31.154a3.047,3.047,0,0,1-1.076.211,1.521,1.521,0,0,1-1.3-.579,2.368,2.368,0,0,1-.384-1.426,2.331,2.331,0,0,1,.437-1.447,1.353,1.353,0,0,1,1.124-.557,1.289,1.289,0,0,1,1.135.564,2.45,2.45,0,0,1,.341,1.334V29.5h-2.539a1.627,1.627,0,0,0,.313,1.028,1.059,1.059,0,0,0,.909.438,1.8,1.8,0,0,0,.569-.1,1.848,1.848,0,0,0,.473-.188Zm-.223-2.061a1.909,1.909,0,0,0-.213-.921.807.807,0,0,0-.736-.413.963.963,0,0,0-.793.42,1.516,1.516,0,0,0-.3.914Z"/><path d="M109.005,28.345c0-.293-.009-.592-.029-.9h.443v.681h.014a2.462,2.462,0,0,1,.152-.271,1.042,1.042,0,0,1,.217-.245,1.008,1.008,0,0,1,.34-.191,1.593,1.593,0,0,1,.485-.066,1.141,1.141,0,0,1,.981.421,1.785,1.785,0,0,1,.283,1.048v2.448h-.453V28.944a1.679,1.679,0,0,0-.2-.87.793.793,0,0,0-.686-.315.937.937,0,0,0-.86.448,1.424,1.424,0,0,0-.182.443,2.322,2.322,0,0,0-.057.506v2.117h-.453Z"/><path d="M113.477,29.36a2.312,2.312,0,0,1,.423-1.4,1.521,1.521,0,0,1,1.3-.608,1.548,1.548,0,0,1,1.323.608,2.58,2.58,0,0,1,0,2.785,1.55,1.55,0,0,1-1.323.616,1.524,1.524,0,0,1-1.3-.616A2.316,2.316,0,0,1,113.477,29.36Zm.5,0a1.884,1.884,0,0,0,.32,1.128,1.037,1.037,0,0,0,.912.474,1.071,1.071,0,0,0,.925-.474,1.944,1.944,0,0,0,.306-1.128,2,2,0,0,0-.306-1.142,1.083,1.083,0,0,0-.925-.459,1.047,1.047,0,0,0-.912.459A1.939,1.939,0,0,0,113.975,29.36Z"/><path d="M118.238,30.719a2,2,0,0,0,.964.243.918.918,0,0,0,.582-.187.6.6,0,0,0,.24-.495.644.644,0,0,0-.27-.536,3.163,3.163,0,0,0-.617-.337c-.111-.054-.217-.112-.319-.173a2.67,2.67,0,0,1-.29-.2,1.074,1.074,0,0,1-.206-.279.759.759,0,0,1-.078-.353.905.905,0,0,1,.376-.81,1.478,1.478,0,0,1,.829-.235,3.946,3.946,0,0,1,.415.029,2.629,2.629,0,0,1,.5.142l-.042.411a2.189,2.189,0,0,0-.824-.179,1.05,1.05,0,0,0-.565.132.465.465,0,0,0-.171.191.655.655,0,0,0-.063.315.357.357,0,0,0,.081.224.788.788,0,0,0,.21.18c.087.051.186.1.3.157s.219.107.326.166a2.074,2.074,0,0,1,.632.421,1.115,1.115,0,0,1,.16,1.233,1.043,1.043,0,0,1-.312.337,1.628,1.628,0,0,1-.864.25,3,3,0,0,1-1.033-.182Z"/><path d="M121.744,30.719a2,2,0,0,0,.964.243.915.915,0,0,0,.581-.187.6.6,0,0,0,.241-.495.649.649,0,0,0-.27-.536,3.222,3.222,0,0,0-.617-.337c-.111-.054-.218-.112-.319-.173a2.683,2.683,0,0,1-.291-.2,1.074,1.074,0,0,1-.206-.279.759.759,0,0,1-.077-.353.9.9,0,0,1,.375-.81,1.482,1.482,0,0,1,.829-.235,3.928,3.928,0,0,1,.415.029,2.638,2.638,0,0,1,.5.142l-.043.411a2.186,2.186,0,0,0-.825-.179,1.051,1.051,0,0,0-.564.132.47.47,0,0,0-.17.191.654.654,0,0,0-.064.315.358.358,0,0,0,.082.224.767.767,0,0,0,.209.18c.088.051.187.1.3.157s.22.107.327.166a2.069,2.069,0,0,1,.631.421,1.119,1.119,0,0,1,.161,1.233,1.054,1.054,0,0,1-.312.337,1.628,1.628,0,0,1-.864.25,3,3,0,0,1-1.034-.182Z"/><path d="M128.016,31.154a3.047,3.047,0,0,1-1.076.211,1.521,1.521,0,0,1-1.3-.579,2.375,2.375,0,0,1-.384-1.426,2.331,2.331,0,0,1,.437-1.447,1.353,1.353,0,0,1,1.124-.557,1.292,1.292,0,0,1,1.136.564,2.459,2.459,0,0,1,.341,1.334V29.5h-2.54a1.627,1.627,0,0,0,.313,1.028,1.059,1.059,0,0,0,.909.438,1.8,1.8,0,0,0,.569-.1,1.833,1.833,0,0,0,.473-.188Zm-.223-2.061a1.921,1.921,0,0,0-.212-.921.81.81,0,0,0-.737-.413.964.964,0,0,0-.793.42,1.516,1.516,0,0,0-.3.914Z"/><path d="M129.871,28.345q0-.439-.03-.9h.444v.681h.013a2.319,2.319,0,0,1,.153-.271,1.037,1.037,0,0,1,.216-.245,1.018,1.018,0,0,1,.34-.191,1.6,1.6,0,0,1,.486-.066,1.14,1.14,0,0,1,.98.421,1.778,1.778,0,0,1,.283,1.048v2.448H132.3V28.944a1.679,1.679,0,0,0-.195-.87.793.793,0,0,0-.686-.315.937.937,0,0,0-.86.448,1.449,1.449,0,0,0-.182.443,2.322,2.322,0,0,0-.056.506v2.117h-.453Z"/><path d="M134.344,30.719a2,2,0,0,0,.964.243.916.916,0,0,0,.582-.187.6.6,0,0,0,.24-.495.643.643,0,0,0-.269-.536,3.222,3.222,0,0,0-.617-.337c-.112-.054-.217-.112-.32-.173a2.771,2.771,0,0,1-.29-.2,1.1,1.1,0,0,1-.206-.279.759.759,0,0,1-.078-.353.905.905,0,0,1,.376-.81,1.48,1.48,0,0,1,.829-.235,3.928,3.928,0,0,1,.415.029,2.629,2.629,0,0,1,.5.142l-.042.411a2.185,2.185,0,0,0-.824-.179,1.046,1.046,0,0,0-.564.132.458.458,0,0,0-.171.191.654.654,0,0,0-.064.315.363.363,0,0,0,.081.224.788.788,0,0,0,.21.18c.087.051.187.1.3.157s.22.107.326.166a2.074,2.074,0,0,1,.632.421,1.115,1.115,0,0,1,.16,1.233,1.04,1.04,0,0,1-.311.337,1.634,1.634,0,0,1-.865.25,3,3,0,0,1-1.033-.182Z"/><path d="M140.543,27.954a1.914,1.914,0,0,0-.794-.2,1.264,1.264,0,0,0-1.023.441,1.742,1.742,0,0,0-.373,1.16,1.718,1.718,0,0,0,.366,1.12,1.176,1.176,0,0,0,.98.482,2.139,2.139,0,0,0,.838-.173l.043.441a2.992,2.992,0,0,1-.952.135,1.592,1.592,0,0,1-1.33-.609,2.229,2.229,0,0,1-.442-1.4,2.06,2.06,0,0,1,.507-1.447,1.718,1.718,0,0,1,1.322-.557,2.643,2.643,0,0,1,.568.051,1.939,1.939,0,0,1,.2.047,1.307,1.307,0,0,1,.124.051Z"/><path d="M142.05,25.645h.453v2.444h.015a1.366,1.366,0,0,1,.45-.532,1.308,1.308,0,0,1,.7-.2,1.1,1.1,0,0,1,1.012.451,2.272,2.272,0,0,1,.254,1.176v2.29h-.453V28.988a4.083,4.083,0,0,0-.028-.481,1.145,1.145,0,0,0-.124-.382.742.742,0,0,0-.729-.366.926.926,0,0,0-.853.473,1.978,1.978,0,0,0-.246.991v2.05h-.453Z"/><path d="M148.935,30.661h-.014a1.116,1.116,0,0,1-.489.514,1.462,1.462,0,0,1-.688.19,1.439,1.439,0,0,1-.625-.129.973.973,0,0,1-.38-.285,1.258,1.258,0,0,1,.008-1.423,1.221,1.221,0,0,1,.56-.4,3.1,3.1,0,0,1,.741-.164q.394-.023.756-.022h.089v-.2q.022-.99-.846-.989a1.964,1.964,0,0,0-1.09.317v-.459a2.653,2.653,0,0,1,1.088-.261q1.317-.014,1.3,1.425v1.69a4.982,4.982,0,0,0,.038.8h-.45Zm-.042-1.316h-.131q-.3,0-.6.015a2.108,2.108,0,0,0-.569.129.882.882,0,0,0-.409.275.747.747,0,0,0-.167.507.586.586,0,0,0,.234.525.86.86,0,0,0,.538.166,1.063,1.063,0,0,0,.632-.166.949.949,0,0,0,.33-.374,1.284,1.284,0,0,0,.121-.46c.012-.156.018-.285.018-.385Z"/><path d="M151.457,27.851h-.749v-.4h.749v-.279q0-.308.028-.6a1.48,1.48,0,0,1,.11-.509.771.771,0,0,1,.3-.37.959.959,0,0,1,.542-.132c.078,0,.158,0,.241.007a.5.5,0,0,1,.188.066l-.029.414a.737.737,0,0,0-.362-.084.5.5,0,0,0-.345.106.611.611,0,0,0-.167.293,1.545,1.545,0,0,0-.043.367c0,.134-.006.264-.006.388v.334h.835v.4h-.835v3.422h-.454Z"/><path d="M155.824,27.851h-.843v2.48a.8.8,0,0,0,.117.444.4.4,0,0,0,.377.187.9.9,0,0,0,.423-.092l.028.389c-.053.02-.13.041-.226.066a1.345,1.345,0,0,1-.333.04.893.893,0,0,1-.471-.107.681.681,0,0,1-.252-.278,1.409,1.409,0,0,1-.1-.4c-.013-.152-.021-.315-.021-.491V27.851H153.8v-.4h.727v-.924l.454-.165v1.089h.843Z"/><path d="M33.456,36.966a1.744,1.744,0,0,0-.547-.187,4.941,4.941,0,0,0-.586-.037,1.924,1.924,0,0,0-1.52.639,2.73,2.73,0,0,0-.007,3.248,1.887,1.887,0,0,0,1.527.639,3.531,3.531,0,0,0,.586-.055,1.512,1.512,0,0,0,.547-.172l.028.448a1.734,1.734,0,0,1-.557.171,3.979,3.979,0,0,1-.6.055,2.469,2.469,0,0,1-1.877-.752A2.754,2.754,0,0,1,29.766,39a2.809,2.809,0,0,1,.688-1.956,2.459,2.459,0,0,1,1.87-.751q.245,0,.6.036a1.729,1.729,0,0,1,.557.156Z"/><path d="M35.044,39.71a2.311,2.311,0,0,1,.422-1.4,1.522,1.522,0,0,1,1.3-.608,1.547,1.547,0,0,1,1.323.608,2.58,2.58,0,0,1,0,2.785,1.549,1.549,0,0,1-1.323.616,1.525,1.525,0,0,1-1.3-.616A2.315,2.315,0,0,1,35.044,39.71Zm.5,0a1.877,1.877,0,0,0,.32,1.128,1.035,1.035,0,0,0,.911.474,1.072,1.072,0,0,0,.926-.474,1.944,1.944,0,0,0,.306-1.128,2,2,0,0,0-.306-1.142,1.083,1.083,0,0,0-.926-.459,1.046,1.046,0,0,0-.911.459A1.934,1.934,0,0,0,35.542,39.71Z"/><path d="M40.088,38.7q0-.44-.028-.9H40.5v.681h.015a2.172,2.172,0,0,1,.152-.271,1.06,1.06,0,0,1,.216-.245,1.008,1.008,0,0,1,.34-.191,1.625,1.625,0,0,1,.485-.066,1.143,1.143,0,0,1,.981.421,1.786,1.786,0,0,1,.284,1.048v2.448h-.454V39.294a1.679,1.679,0,0,0-.2-.87.792.792,0,0,0-.686-.315.937.937,0,0,0-.86.448A1.4,1.4,0,0,0,40.6,39a2.269,2.269,0,0,0-.057.506v2.117h-.454Z"/><path d="M45.158,38.2H44.41v-.4h.748V37.52a5.922,5.922,0,0,1,.029-.6,1.458,1.458,0,0,1,.109-.509.767.767,0,0,1,.3-.37.955.955,0,0,1,.541-.132c.078,0,.158,0,.241.008a.482.482,0,0,1,.188.065l-.028.414a.743.743,0,0,0-.363-.084.494.494,0,0,0-.344.106.6.6,0,0,0-.167.293,1.5,1.5,0,0,0-.043.367c-.005.134-.007.264-.007.388V37.8h.835v.4h-.835v3.422h-.454Z"/><path d="M50.414,41.5a3.043,3.043,0,0,1-1.076.211,1.522,1.522,0,0,1-1.3-.579,2.359,2.359,0,0,1-.383-1.426,2.324,2.324,0,0,1,.436-1.447,1.356,1.356,0,0,1,1.124-.557,1.289,1.289,0,0,1,1.136.565,2.444,2.444,0,0,1,.34,1.333v.242H48.15a1.631,1.631,0,0,0,.313,1.029,1.063,1.063,0,0,0,.91.437,1.8,1.8,0,0,0,.568-.1,1.833,1.833,0,0,0,.473-.188Zm-.222-2.061a1.909,1.909,0,0,0-.213-.921.81.81,0,0,0-.737-.413.966.966,0,0,0-.793.42,1.516,1.516,0,0,0-.3.914Zm-.713-3.121h.573L49.139,37.4h-.332Z"/><path d="M55.2,41.623h-.453v-.608H54.73a1.2,1.2,0,0,1-1.156.7,1.321,1.321,0,0,1-1.139-.579,2.464,2.464,0,0,1-.387-1.426,2.5,2.5,0,0,1,.359-1.439,1.3,1.3,0,0,1,1.167-.565,1.279,1.279,0,0,1,.483.084A1.082,1.082,0,0,1,54.4,38a1.023,1.023,0,0,1,.326.441h.015V35.995H55.2ZM52.546,39.71a3.094,3.094,0,0,0,.05.548,2.12,2.12,0,0,0,.174.529,1.143,1.143,0,0,0,.341.367.858.858,0,0,0,.534.158.867.867,0,0,0,.523-.158,1.1,1.1,0,0,0,.338-.382,2.359,2.359,0,0,0,.239-1.062,3.277,3.277,0,0,0-.05-.558,2.02,2.02,0,0,0-.189-.51,1.128,1.128,0,0,0-.338-.39.933.933,0,0,0-.523-.143.922.922,0,0,0-.534.143.994.994,0,0,0-.341.375,1.819,1.819,0,0,0-.174.511A3.358,3.358,0,0,0,52.546,39.71Z"/><path d="M59.51,41.5a3.047,3.047,0,0,1-1.076.211,1.522,1.522,0,0,1-1.3-.579,2.359,2.359,0,0,1-.383-1.426,2.318,2.318,0,0,1,.436-1.447,1.353,1.353,0,0,1,1.124-.557,1.286,1.286,0,0,1,1.135.565,2.444,2.444,0,0,1,.341,1.333v.242H57.246a1.631,1.631,0,0,0,.313,1.029,1.06,1.06,0,0,0,.909.437,1.809,1.809,0,0,0,.569-.1,1.848,1.848,0,0,0,.473-.188Zm-.222-2.061a1.91,1.91,0,0,0-.214-.921.807.807,0,0,0-.736-.413.963.963,0,0,0-.793.42,1.516,1.516,0,0,0-.3.914Zm-.713-3.121h.572L58.235,37.4H57.9Z"/><path d="M61.364,38.651q0-.531-.029-.853h.454v.732H61.8a1.658,1.658,0,0,1,.369-.574.8.8,0,0,1,.582-.25,1.526,1.526,0,0,1,.32.044v.491a1.179,1.179,0,0,0-.334-.044.767.767,0,0,0-.444.136,1,1,0,0,0-.283.366,1.953,1.953,0,0,0-.146.489,3.088,3.088,0,0,0-.05.542v1.893h-.453Z"/><path d="M66.575,41.011h-.014a1.124,1.124,0,0,1-.49.514,1.463,1.463,0,0,1-.689.19,1.441,1.441,0,0,1-.624-.129.966.966,0,0,1-.38-.285,1.26,1.26,0,0,1,.007-1.423,1.229,1.229,0,0,1,.561-.4,3.087,3.087,0,0,1,.742-.164q.394-.023.756-.022h.088v-.2q.022-.99-.845-.989a1.965,1.965,0,0,0-1.091.317v-.459a2.657,2.657,0,0,1,1.089-.261q1.315-.014,1.3,1.425v1.69a5.223,5.223,0,0,0,.038.8h-.449ZM66.532,39.7H66.4q-.3,0-.6.015a2.1,2.1,0,0,0-.569.129.869.869,0,0,0-.408.275.742.742,0,0,0-.167.507.585.585,0,0,0,.234.525.855.855,0,0,0,.537.166,1.063,1.063,0,0,0,.632-.166.946.946,0,0,0,.331-.374,1.327,1.327,0,0,0,.121-.46c.011-.156.017-.285.017-.385Z"/><path d="M70.378,38.2h-.842v2.48a.8.8,0,0,0,.117.444.4.4,0,0,0,.377.187.9.9,0,0,0,.423-.092l.028.389c-.054.02-.129.041-.227.066a1.333,1.333,0,0,1-.333.04.9.9,0,0,1-.471-.107.672.672,0,0,1-.251-.278,1.377,1.377,0,0,1-.1-.4c-.014-.152-.021-.315-.021-.491V38.2h-.727v-.4h.727v-.923l.454-.166V37.8h.842Z"/><path d="M72.323,36.775h-.454v-.629h.454ZM71.869,37.8h.454v3.825h-.454Z"/><path d="M73.835,39.71a2.312,2.312,0,0,1,.423-1.4,1.522,1.522,0,0,1,1.305-.608,1.548,1.548,0,0,1,1.323.608,2.58,2.58,0,0,1,0,2.785,1.55,1.55,0,0,1-1.323.616,1.525,1.525,0,0,1-1.305-.616A2.316,2.316,0,0,1,73.835,39.71Zm.5,0a1.877,1.877,0,0,0,.321,1.128,1.033,1.033,0,0,0,.911.474,1.071,1.071,0,0,0,.925-.474A1.944,1.944,0,0,0,76.8,39.71a2,2,0,0,0-.306-1.142,1.083,1.083,0,0,0-.925-.459,1.043,1.043,0,0,0-.911.459A1.934,1.934,0,0,0,74.333,39.71Z"/><path d="M78.88,38.7q0-.44-.029-.9h.443v.681h.014a2.308,2.308,0,0,1,.152-.271,1.042,1.042,0,0,1,.217-.245,1.008,1.008,0,0,1,.34-.191,1.616,1.616,0,0,1,.485-.066,1.143,1.143,0,0,1,.981.421,1.785,1.785,0,0,1,.283,1.048v2.448h-.453V39.294a1.669,1.669,0,0,0-.2-.87.79.79,0,0,0-.685-.315.938.938,0,0,0-.861.448A1.422,1.422,0,0,0,79.39,39a2.329,2.329,0,0,0-.057.506v2.117H78.88Z"/><path d="M85.949,41.069a2,2,0,0,0,.964.243.91.91,0,0,0,.582-.187.6.6,0,0,0,.24-.495.646.646,0,0,0-.269-.536,3.222,3.222,0,0,0-.617-.337c-.112-.054-.218-.111-.32-.173a2.771,2.771,0,0,1-.29-.2,1.074,1.074,0,0,1-.206-.279.759.759,0,0,1-.078-.353.9.9,0,0,1,.376-.81,1.48,1.48,0,0,1,.829-.235,3.946,3.946,0,0,1,.415.029,2.629,2.629,0,0,1,.5.142l-.042.412a2.171,2.171,0,0,0-.824-.18,1.052,1.052,0,0,0-.565.132.463.463,0,0,0-.17.191.654.654,0,0,0-.064.315.363.363,0,0,0,.081.224.788.788,0,0,0,.21.18c.087.051.187.1.3.158s.22.106.326.165a2.059,2.059,0,0,1,.632.422,1.114,1.114,0,0,1,.16,1.232,1.04,1.04,0,0,1-.311.337,1.634,1.634,0,0,1-.865.25,3,3,0,0,1-1.033-.182Z"/><path d="M92.625,40.722c0,.291.006.591.032.9h-.444v-.681H92.2a1.245,1.245,0,0,1-.138.253,1.171,1.171,0,0,1-.223.256,1.027,1.027,0,0,1-.344.179,1.266,1.266,0,0,1-.493.085,1.131,1.131,0,0,1-.971-.422,1.7,1.7,0,0,1-.291-1.051V37.8h.454v2.326a1.52,1.52,0,0,0,.209.858.733.733,0,0,0,.672.33.976.976,0,0,0,.53-.136.89.89,0,0,0,.334-.33,1.383,1.383,0,0,0,.181-.451,2.227,2.227,0,0,0,.053-.48V37.8h.453Z"/><path d="M94.951,36.775H94.5v-.629h.453ZM94.5,37.8h.453v3.825H94.5Z"/><path d="M96.465,41.069a2.006,2.006,0,0,0,.964.243.91.91,0,0,0,.582-.187.59.59,0,0,0,.24-.495.641.641,0,0,0-.269-.536,3.222,3.222,0,0,0-.617-.337c-.112-.054-.217-.111-.32-.173a2.771,2.771,0,0,1-.29-.2,1.1,1.1,0,0,1-.206-.279.772.772,0,0,1-.078-.353.905.905,0,0,1,.376-.81,1.48,1.48,0,0,1,.829-.235,3.928,3.928,0,0,1,.415.029,2.629,2.629,0,0,1,.5.142l-.042.412a2.167,2.167,0,0,0-.824-.18,1.046,1.046,0,0,0-.564.132.458.458,0,0,0-.171.191.654.654,0,0,0-.064.315.363.363,0,0,0,.081.224.788.788,0,0,0,.21.18c.087.051.187.1.3.158s.22.106.326.165a2.047,2.047,0,0,1,.632.422,1.109,1.109,0,0,1,.16,1.232,1.04,1.04,0,0,1-.311.337,1.633,1.633,0,0,1-.864.25,3,3,0,0,1-1.034-.182Z"/><path d="M99.971,41.069a2,2,0,0,0,.964.243.906.906,0,0,0,.581-.187.6.6,0,0,0,.241-.495.649.649,0,0,0-.269-.536,3.222,3.222,0,0,0-.617-.337c-.112-.054-.218-.111-.32-.173a2.785,2.785,0,0,1-.291-.2,1.1,1.1,0,0,1-.206-.279.759.759,0,0,1-.077-.353.9.9,0,0,1,.375-.81,1.485,1.485,0,0,1,.829-.235,3.911,3.911,0,0,1,.415.029,2.638,2.638,0,0,1,.5.142l-.043.412a2.163,2.163,0,0,0-.824-.18,1.049,1.049,0,0,0-.564.132.463.463,0,0,0-.17.191.654.654,0,0,0-.065.315.364.364,0,0,0,.082.224.782.782,0,0,0,.209.18c.088.051.188.1.3.158s.221.106.327.165a2.071,2.071,0,0,1,.632.422,1.119,1.119,0,0,1,.16,1.232,1.051,1.051,0,0,1-.311.337,1.634,1.634,0,0,1-.865.25,3.007,3.007,0,0,1-1.034-.182Z"/><path d="M106.244,41.5a3.048,3.048,0,0,1-1.077.211,1.519,1.519,0,0,1-1.3-.579,2.366,2.366,0,0,1-.384-1.426,2.331,2.331,0,0,1,.436-1.447,1.356,1.356,0,0,1,1.124-.557,1.288,1.288,0,0,1,1.136.565,2.444,2.444,0,0,1,.341,1.333v.242H103.98a1.631,1.631,0,0,0,.312,1.029,1.063,1.063,0,0,0,.91.437,1.809,1.809,0,0,0,.569-.1,1.863,1.863,0,0,0,.473-.188Zm-.223-2.061a1.909,1.909,0,0,0-.213-.921.807.807,0,0,0-.736-.413.963.963,0,0,0-.793.42,1.516,1.516,0,0,0-.3.914Z"/><path d="M33.456,47.316a1.8,1.8,0,0,0-.547-.187,4.941,4.941,0,0,0-.586-.037,1.924,1.924,0,0,0-1.52.639,2.73,2.73,0,0,0-.007,3.248,1.887,1.887,0,0,0,1.527.639,3.531,3.531,0,0,0,.586-.055,1.512,1.512,0,0,0,.547-.172l.028.448a1.709,1.709,0,0,1-.557.171,3.979,3.979,0,0,1-.6.055,2.469,2.469,0,0,1-1.877-.752,2.753,2.753,0,0,1-.681-1.959,2.812,2.812,0,0,1,.688-1.957,2.459,2.459,0,0,1,1.87-.751q.245,0,.6.036a1.729,1.729,0,0,1,.557.156Z"/><path d="M35.044,50.061a2.307,2.307,0,0,1,.422-1.4,1.52,1.52,0,0,1,1.3-.609,1.545,1.545,0,0,1,1.323.609,2.579,2.579,0,0,1,0,2.784,1.549,1.549,0,0,1-1.323.616,1.525,1.525,0,0,1-1.3-.616A2.312,2.312,0,0,1,35.044,50.061Zm.5,0a1.876,1.876,0,0,0,.32,1.127,1.035,1.035,0,0,0,.911.474,1.072,1.072,0,0,0,.926-.474,1.943,1.943,0,0,0,.306-1.127,2.008,2.008,0,0,0-.306-1.143,1.083,1.083,0,0,0-.926-.459,1.046,1.046,0,0,0-.911.459A1.937,1.937,0,0,0,35.542,50.061Z"/><path d="M40.088,49.045q0-.439-.028-.9H40.5v.681h.015a2.172,2.172,0,0,1,.152-.271,1.06,1.06,0,0,1,.216-.245,1.008,1.008,0,0,1,.34-.191,1.625,1.625,0,0,1,.485-.066,1.144,1.144,0,0,1,.981.422,1.782,1.782,0,0,1,.284,1.047v2.448h-.454V49.644a1.679,1.679,0,0,0-.2-.87.792.792,0,0,0-.686-.315.937.937,0,0,0-.86.448,1.4,1.4,0,0,0-.181.444,2.26,2.26,0,0,0-.057.505v2.117h-.454Z"/><path d="M45.158,48.551H44.41v-.4h.748V47.87a5.9,5.9,0,0,1,.029-.6,1.458,1.458,0,0,1,.109-.51.767.767,0,0,1,.3-.37.955.955,0,0,1,.541-.132c.078,0,.158,0,.241.008a.465.465,0,0,1,.188.066l-.028.413a.743.743,0,0,0-.363-.084.494.494,0,0,0-.344.106.6.6,0,0,0-.167.294,1.481,1.481,0,0,0-.043.366c-.005.135-.007.264-.007.388v.334h.835v.4h-.835v3.422h-.454Z"/><path d="M50.414,51.854a3.043,3.043,0,0,1-1.076.211,1.522,1.522,0,0,1-1.3-.579,2.356,2.356,0,0,1-.383-1.425,2.325,2.325,0,0,1,.436-1.448,1.359,1.359,0,0,1,1.124-.557,1.289,1.289,0,0,1,1.136.565,2.444,2.444,0,0,1,.34,1.333V50.2H48.15a1.631,1.631,0,0,0,.313,1.029,1.063,1.063,0,0,0,.91.437,1.8,1.8,0,0,0,.568-.1,1.833,1.833,0,0,0,.473-.188Zm-.222-2.061a1.909,1.909,0,0,0-.213-.921.81.81,0,0,0-.737-.413.966.966,0,0,0-.793.42,1.516,1.516,0,0,0-.3.914Z"/><path d="M55.2,51.973h-.453v-.608H54.73a1.2,1.2,0,0,1-1.156.7,1.321,1.321,0,0,1-1.139-.579,2.463,2.463,0,0,1-.387-1.425,2.505,2.505,0,0,1,.359-1.44,1.307,1.307,0,0,1,1.167-.565,1.279,1.279,0,0,1,.483.084,1.082,1.082,0,0,1,.347.208,1.019,1.019,0,0,1,.326.442h.015V46.345H55.2Zm-2.652-1.912a3.092,3.092,0,0,0,.05.547,2.12,2.12,0,0,0,.174.529,1.143,1.143,0,0,0,.341.367.858.858,0,0,0,.534.158.867.867,0,0,0,.523-.158,1.1,1.1,0,0,0,.338-.382,2.358,2.358,0,0,0,.239-1.061,3.279,3.279,0,0,0-.05-.559,2.02,2.02,0,0,0-.189-.51,1.116,1.116,0,0,0-.338-.389.925.925,0,0,0-.523-.144.915.915,0,0,0-.534.144.984.984,0,0,0-.341.374,1.819,1.819,0,0,0-.174.511A3.361,3.361,0,0,0,52.546,50.061Z"/><path d="M59.51,51.854a3.047,3.047,0,0,1-1.076.211,1.522,1.522,0,0,1-1.3-.579,2.356,2.356,0,0,1-.383-1.425,2.319,2.319,0,0,1,.436-1.448,1.356,1.356,0,0,1,1.124-.557,1.286,1.286,0,0,1,1.135.565,2.444,2.444,0,0,1,.341,1.333V50.2H57.246a1.631,1.631,0,0,0,.313,1.029,1.06,1.06,0,0,0,.909.437,1.809,1.809,0,0,0,.569-.1,1.848,1.848,0,0,0,.473-.188Zm-.222-2.061a1.91,1.91,0,0,0-.214-.921.807.807,0,0,0-.736-.413.963.963,0,0,0-.793.42,1.516,1.516,0,0,0-.3.914Z"/><path d="M61.364,49q0-.531-.029-.853h.454v.732H61.8a1.658,1.658,0,0,1,.369-.574.81.81,0,0,1,.582-.25,1.526,1.526,0,0,1,.32.044v.491a1.216,1.216,0,0,0-.334-.044.767.767,0,0,0-.444.136,1.006,1.006,0,0,0-.283.366,1.953,1.953,0,0,0-.146.489,3.088,3.088,0,0,0-.05.542v1.893h-.453Z"/><path d="M66.575,51.361h-.014a1.124,1.124,0,0,1-.49.514,1.447,1.447,0,0,1-1.313.062.977.977,0,0,1-.38-.286,1.258,1.258,0,0,1,.007-1.422,1.215,1.215,0,0,1,.561-.4,3.04,3.04,0,0,1,.742-.165q.394-.023.756-.022h.088v-.2q.022-.988-.845-.989a1.965,1.965,0,0,0-1.091.317v-.459a2.657,2.657,0,0,1,1.089-.261q1.315-.014,1.3,1.425v1.69a5.223,5.223,0,0,0,.038.8h-.449Zm-.043-1.316H66.4q-.3,0-.6.015a2.138,2.138,0,0,0-.569.129.877.877,0,0,0-.408.275.742.742,0,0,0-.167.507.588.588,0,0,0,.234.526.861.861,0,0,0,.537.165,1.07,1.07,0,0,0,.632-.165.956.956,0,0,0,.331-.375,1.328,1.328,0,0,0,.121-.459c.011-.157.017-.286.017-.386Z"/><path d="M68.44,51.578l2.23-3.027H68.457v-.4H71.2v.4L68.9,51.57H71.2v.4H68.44Z"/><path d="M73.154,47.125H72.7V46.5h.453ZM72.7,48.148h.453v3.825H72.7Z"/><path d="M74.667,50.061a2.307,2.307,0,0,1,.422-1.4,1.521,1.521,0,0,1,1.306-.609,1.544,1.544,0,0,1,1.322.609,2.579,2.579,0,0,1,0,2.784,1.549,1.549,0,0,1-1.322.616,1.526,1.526,0,0,1-1.306-.616A2.312,2.312,0,0,1,74.667,50.061Zm.5,0a1.876,1.876,0,0,0,.32,1.127,1.035,1.035,0,0,0,.911.474,1.072,1.072,0,0,0,.926-.474,1.943,1.943,0,0,0,.306-1.127,2.008,2.008,0,0,0-.306-1.143,1.083,1.083,0,0,0-.926-.459,1.046,1.046,0,0,0-.911.459A1.937,1.937,0,0,0,75.165,50.061Z"/><path d="M79.712,49.045q0-.439-.029-.9h.443v.681h.014a2.308,2.308,0,0,1,.152-.271,1.042,1.042,0,0,1,.217-.245,1.008,1.008,0,0,1,.34-.191,1.616,1.616,0,0,1,.485-.066,1.144,1.144,0,0,1,.981.422,1.782,1.782,0,0,1,.283,1.047v2.448h-.453V49.644a1.669,1.669,0,0,0-.2-.87.79.79,0,0,0-.685-.315.938.938,0,0,0-.861.448,1.418,1.418,0,0,0-.181.444,2.319,2.319,0,0,0-.056.505v2.117h-.454Z"/><path d="M86.953,51.854a3.043,3.043,0,0,1-1.076.211,1.522,1.522,0,0,1-1.3-.579,2.363,2.363,0,0,1-.383-1.425,2.325,2.325,0,0,1,.436-1.448,1.359,1.359,0,0,1,1.124-.557,1.288,1.288,0,0,1,1.136.565,2.444,2.444,0,0,1,.341,1.333V50.2h-2.54A1.631,1.631,0,0,0,85,51.225a1.063,1.063,0,0,0,.91.437,1.8,1.8,0,0,0,.568-.1,1.833,1.833,0,0,0,.473-.188Zm-.222-2.061a1.909,1.909,0,0,0-.213-.921.809.809,0,0,0-.737-.413.966.966,0,0,0-.793.42,1.516,1.516,0,0,0-.3.914Z"/><path d="M91.312,51.31a1.889,1.889,0,0,0,1.123.308,1.253,1.253,0,0,0,.813-.264,1.01,1.01,0,0,0,.327-.811.8.8,0,0,0-.363-.645,2.374,2.374,0,0,0-.372-.256q-.21-.122-.43-.239c-.144-.085-.285-.175-.419-.271a2.249,2.249,0,0,1-.38-.3,1.074,1.074,0,0,1-.362-.817,1.239,1.239,0,0,1,.471-1.009,1.824,1.824,0,0,1,1.133-.359,4.211,4.211,0,0,1,.465.029,3.241,3.241,0,0,1,.532.142l-.081.47a2.2,2.2,0,0,0-1.309-.158,1.076,1.076,0,0,0-.358.158.787.787,0,0,0-.253.271.862.862,0,0,0-.1.437.614.614,0,0,0,.1.344,1.05,1.05,0,0,0,.259.279,3.491,3.491,0,0,0,.38.238c.136.081.276.164.423.249a2.925,2.925,0,0,1,.8.569,1.3,1.3,0,0,1,.27.392,1.34,1.34,0,0,1,.093.517,1.305,1.305,0,0,1-.529,1.133,1.955,1.955,0,0,1-1.135.349,2.712,2.712,0,0,1-1.146-.226Z"/><path d="M97.022,51.973h-.535L95.23,48.148h.5l1.02,3.312h.018l1.072-3.312h.479Z"/><path d="M100.109,47.125h-.454V46.5h.454Zm-.454,1.023h.454v3.825h-.454Z"/><path d="M101.563,51.578l2.229-3.027H101.58v-.4h2.745v.4L102.02,51.57h2.305v.4h-2.762Z"/><path d="M105.479,51.578l2.229-3.027H105.5v-.4h2.745v.4l-2.3,3.019h2.3v.4h-2.762Z"/><path d="M112.222,51.854a3.043,3.043,0,0,1-1.076.211,1.522,1.522,0,0,1-1.3-.579,2.37,2.37,0,0,1-.384-1.425,2.332,2.332,0,0,1,.437-1.448,1.356,1.356,0,0,1,1.124-.557,1.289,1.289,0,0,1,1.136.565,2.453,2.453,0,0,1,.341,1.333V50.2h-2.54a1.631,1.631,0,0,0,.313,1.029,1.061,1.061,0,0,0,.909.437,1.815,1.815,0,0,0,.57-.1,1.839,1.839,0,0,0,.472-.188ZM112,49.793a1.921,1.921,0,0,0-.213-.921.81.81,0,0,0-.737-.413.964.964,0,0,0-.793.42,1.516,1.516,0,0,0-.3.914Z"/><path d="M114.077,49q0-.531-.03-.853h.454v.732h.015a1.63,1.63,0,0,1,.369-.574.81.81,0,0,1,.582-.25,1.535,1.535,0,0,1,.32.044v.491a1.216,1.216,0,0,0-.334-.044.763.763,0,0,0-.444.136,1,1,0,0,0-.284.366,1.952,1.952,0,0,0-.145.489,3,3,0,0,0-.05.542v1.893h-.453Z"/><path d="M119.288,51.361h-.015a1.121,1.121,0,0,1-.489.514,1.449,1.449,0,0,1-1.314.062.973.973,0,0,1-.379-.286,1.258,1.258,0,0,1,.007-1.422,1.215,1.215,0,0,1,.561-.4,3.04,3.04,0,0,1,.742-.165q.395-.023.756-.022h.088v-.2q.021-.988-.846-.989a1.97,1.97,0,0,0-1.091.317v-.459a2.661,2.661,0,0,1,1.089-.261q1.317-.014,1.3,1.425v1.69a5.1,5.1,0,0,0,.038.8h-.449Zm-.043-1.316h-.131c-.2,0-.4,0-.6.015a2.139,2.139,0,0,0-.568.129.877.877,0,0,0-.408.275.742.742,0,0,0-.167.507.588.588,0,0,0,.234.526.858.858,0,0,0,.536.165,1.071,1.071,0,0,0,.633-.165.964.964,0,0,0,.331-.375,1.325,1.325,0,0,0,.12-.459c.012-.157.018-.286.018-.386Z"/><path d="M33.456,57.666a1.8,1.8,0,0,0-.547-.188,5.391,5.391,0,0,0-.586-.036,1.924,1.924,0,0,0-1.52.639A2.732,2.732,0,0,0,30.8,61.33a1.892,1.892,0,0,0,1.527.638,3.642,3.642,0,0,0,.586-.055,1.512,1.512,0,0,0,.547-.173l.028.449a1.734,1.734,0,0,1-.557.171,3.979,3.979,0,0,1-.6.055,2.475,2.475,0,0,1-1.877-.751,2.76,2.76,0,0,1-.681-1.961,2.807,2.807,0,0,1,.688-1.956A2.452,2.452,0,0,1,32.324,57a5.9,5.9,0,0,1,.6.036,1.7,1.7,0,0,1,.557.156Z"/><path d="M35.044,60.41a2.309,2.309,0,0,1,.422-1.4,1.522,1.522,0,0,1,1.3-.608,1.547,1.547,0,0,1,1.323.608,2.579,2.579,0,0,1,0,2.784,1.55,1.55,0,0,1-1.323.617,1.526,1.526,0,0,1-1.3-.617A2.312,2.312,0,0,1,35.044,60.41Zm.5,0a1.877,1.877,0,0,0,.32,1.128,1.032,1.032,0,0,0,.911.473,1.069,1.069,0,0,0,.926-.473,1.944,1.944,0,0,0,.306-1.128,2.006,2.006,0,0,0-.306-1.142,1.084,1.084,0,0,0-.926-.46,1.046,1.046,0,0,0-.911.46A1.936,1.936,0,0,0,35.542,60.41Z"/><path d="M40.088,59.4c0-.293-.009-.593-.028-.9H40.5v.681h.015a2.1,2.1,0,0,1,.152-.271,1.06,1.06,0,0,1,.216-.245,1.008,1.008,0,0,1,.34-.191,1.593,1.593,0,0,1,.485-.066,1.141,1.141,0,0,1,.981.422,1.778,1.778,0,0,1,.284,1.047v2.448h-.454V59.994a1.667,1.667,0,0,0-.2-.869.793.793,0,0,0-.686-.317.939.939,0,0,0-.86.448,1.409,1.409,0,0,0-.181.445,2.256,2.256,0,0,0-.057.506v2.116h-.454Z"/><path d="M45.158,58.9H44.41v-.4h.748v-.279a5.882,5.882,0,0,1,.029-.6,1.448,1.448,0,0,1,.109-.51.771.771,0,0,1,.3-.37.955.955,0,0,1,.541-.132c.078,0,.158,0,.241.008a.466.466,0,0,1,.188.065l-.028.413a.754.754,0,0,0-.363-.084.489.489,0,0,0-.344.107.6.6,0,0,0-.167.294,1.478,1.478,0,0,0-.043.365c-.005.135-.007.265-.007.389V58.5h.835v.4h-.835v3.423h-.454Z"/><path d="M50.414,62.205a3.087,3.087,0,0,1-1.076.21,1.525,1.525,0,0,1-1.3-.58,2.356,2.356,0,0,1-.383-1.425,2.327,2.327,0,0,1,.436-1.448,1.36,1.36,0,0,1,1.124-.556,1.291,1.291,0,0,1,1.136.564,2.453,2.453,0,0,1,.34,1.334v.241H48.15a1.629,1.629,0,0,0,.313,1.029,1.058,1.058,0,0,0,.91.437,2.621,2.621,0,0,0,1.041-.286Zm-.222-2.062a1.907,1.907,0,0,0-.213-.921.812.812,0,0,0-.737-.414.964.964,0,0,0-.793.421,1.512,1.512,0,0,0-.3.914Z"/><path d="M55.2,62.323h-.453v-.609H54.73a1.2,1.2,0,0,1-1.156.7,1.324,1.324,0,0,1-1.139-.58,2.463,2.463,0,0,1-.387-1.425,2.505,2.505,0,0,1,.359-1.44,1.306,1.306,0,0,1,1.167-.564,1.279,1.279,0,0,1,.483.084,1.065,1.065,0,0,1,.347.208,1.023,1.023,0,0,1,.326.441h.015V56.7H55.2ZM52.546,60.41a3.1,3.1,0,0,0,.05.548,2.112,2.112,0,0,0,.174.528,1.132,1.132,0,0,0,.341.367.858.858,0,0,0,.534.158.867.867,0,0,0,.523-.158,1.106,1.106,0,0,0,.338-.381,2.362,2.362,0,0,0,.239-1.062,3.268,3.268,0,0,0-.05-.558,2.027,2.027,0,0,0-.189-.511,1.112,1.112,0,0,0-.338-.388.926.926,0,0,0-.523-.145.915.915,0,0,0-.534.145,1,1,0,0,0-.341.374,1.823,1.823,0,0,0-.174.51A3.369,3.369,0,0,0,52.546,60.41Z"/><path d="M59.51,62.205a3.091,3.091,0,0,1-1.076.21,1.525,1.525,0,0,1-1.3-.58,2.356,2.356,0,0,1-.383-1.425,2.321,2.321,0,0,1,.436-1.448,1.358,1.358,0,0,1,1.124-.556,1.288,1.288,0,0,1,1.135.564,2.453,2.453,0,0,1,.341,1.334v.241H57.246a1.629,1.629,0,0,0,.313,1.029,1.055,1.055,0,0,0,.909.437,2.619,2.619,0,0,0,1.042-.286Zm-.222-2.062a1.907,1.907,0,0,0-.214-.921.81.81,0,0,0-.736-.414.961.961,0,0,0-.793.421,1.512,1.512,0,0,0-.3.914Z"/><path d="M61.364,59.351c0-.353-.01-.639-.029-.853h.454v.732H61.8a1.649,1.649,0,0,1,.369-.574.806.806,0,0,1,.582-.25,1.463,1.463,0,0,1,.32.044v.491a1.215,1.215,0,0,0-.334-.045.775.775,0,0,0-.444.137,1.006,1.006,0,0,0-.283.366,1.934,1.934,0,0,0-.146.488,3.1,3.1,0,0,0-.05.542v1.894h-.453Z"/><path d="M66.575,61.71h-.014a1.119,1.119,0,0,1-.49.514,1.443,1.443,0,0,1-1.313.063.987.987,0,0,1-.38-.286,1.26,1.26,0,0,1,.007-1.423,1.215,1.215,0,0,1,.561-.4,3.087,3.087,0,0,1,.742-.164q.394-.023.756-.022h.088v-.2q.022-.989-.845-.989a1.974,1.974,0,0,0-1.091.318v-.459a2.657,2.657,0,0,1,1.089-.261q1.315-.015,1.3,1.426v1.689a5.223,5.223,0,0,0,.038.8h-.449ZM66.532,60.4H66.4q-.3,0-.6.015a2.063,2.063,0,0,0-.569.129.869.869,0,0,0-.408.275.74.74,0,0,0-.167.507.585.585,0,0,0,.234.525.855.855,0,0,0,.537.165,1.063,1.063,0,0,0,.632-.165.946.946,0,0,0,.331-.374,1.327,1.327,0,0,0,.121-.46c.011-.157.017-.285.017-.386Z"/><path d="M68.44,61.927,70.67,58.9H68.457v-.4H71.2v.4L68.9,61.919H71.2v.4H68.44Z"/><path d="M73.154,57.475H72.7v-.63h.453ZM72.7,58.5h.453v3.825H72.7Z"/><path d="M77.839,61.421a8.963,8.963,0,0,0,.032.9h-.444v-.681h-.014a1.29,1.29,0,0,1-.138.252,1.175,1.175,0,0,1-.223.257,1.036,1.036,0,0,1-.344.179,1.285,1.285,0,0,1-.493.085,1.132,1.132,0,0,1-.971-.421,1.7,1.7,0,0,1-.291-1.053V58.5h.454v2.326a1.514,1.514,0,0,0,.209.857.731.731,0,0,0,.672.33.978.978,0,0,0,.529-.135.875.875,0,0,0,.334-.33,1.38,1.38,0,0,0,.182-.451,2.241,2.241,0,0,0,.053-.48V58.5h.453Z"/><path d="M79.712,59.4c0-.293-.01-.593-.029-.9h.443v.681h.014a2.23,2.23,0,0,1,.152-.271,1.042,1.042,0,0,1,.217-.245,1.008,1.008,0,0,1,.34-.191,1.584,1.584,0,0,1,.485-.066,1.141,1.141,0,0,1,.981.422,1.778,1.778,0,0,1,.283,1.047v2.448h-.453V59.994a1.657,1.657,0,0,0-.2-.869.791.791,0,0,0-.685-.317.94.94,0,0,0-.861.448,1.433,1.433,0,0,0-.181.445,2.315,2.315,0,0,0-.056.506v2.116h-.454Z"/><path d="M86.781,61.769a2.005,2.005,0,0,0,.964.242.916.916,0,0,0,.582-.186.6.6,0,0,0,.24-.5.645.645,0,0,0-.269-.536,3.168,3.168,0,0,0-.617-.337c-.112-.054-.218-.112-.32-.172a2.941,2.941,0,0,1-.29-.2,1.091,1.091,0,0,1-.206-.279.762.762,0,0,1-.078-.353.908.908,0,0,1,.376-.811,1.479,1.479,0,0,1,.829-.234,3.946,3.946,0,0,1,.415.029,2.429,2.429,0,0,1,.5.143l-.042.41a2.21,2.21,0,0,0-.824-.18,1.052,1.052,0,0,0-.565.133.46.46,0,0,0-.17.19.661.661,0,0,0-.064.316.367.367,0,0,0,.081.224.806.806,0,0,0,.21.18c.087.051.187.1.3.157s.22.107.326.165a2.1,2.1,0,0,1,.632.422,1.115,1.115,0,0,1,.16,1.233,1.064,1.064,0,0,1-.311.338,1.633,1.633,0,0,1-.865.249,3,3,0,0,1-1.033-.182Z"/><path d="M91.854,62.323h-.536L90.062,58.5h.5l1.02,3.312H91.6L92.675,58.5h.478Z"/><path d="M94.94,57.475h-.453v-.63h.453ZM94.487,58.5h.453v3.825h-.453Z"/><path d="M96.394,61.927l2.23-3.027H96.411v-.4h2.745v.4l-2.305,3.019h2.305v.4H96.394Z"/><path d="M100.655,59.351c0-.353-.01-.639-.03-.853h.455v.732h.014a1.621,1.621,0,0,1,.369-.574.806.806,0,0,1,.582-.25,1.463,1.463,0,0,1,.32.044v.491a1.215,1.215,0,0,0-.334-.045.773.773,0,0,0-.444.137,1,1,0,0,0-.284.366,1.932,1.932,0,0,0-.145.488,3.1,3.1,0,0,0-.05.542v1.894h-.453Z"/><path d="M105.866,61.71h-.015a1.112,1.112,0,0,1-.489.514,1.445,1.445,0,0,1-1.314.063.983.983,0,0,1-.379-.286,1.26,1.26,0,0,1,.007-1.423,1.215,1.215,0,0,1,.561-.4,3.087,3.087,0,0,1,.742-.164q.395-.023.756-.022h.088v-.2q.021-.989-.846-.989a1.979,1.979,0,0,0-1.091.318v-.459a2.661,2.661,0,0,1,1.089-.261q1.317-.015,1.3,1.426v1.689a5.1,5.1,0,0,0,.038.8h-.449Zm-.043-1.315h-.131c-.2,0-.4,0-.6.015a2.064,2.064,0,0,0-.568.129.869.869,0,0,0-.408.275.74.74,0,0,0-.167.507.585.585,0,0,0,.234.525.854.854,0,0,0,.536.165,1.064,1.064,0,0,0,.633-.165.954.954,0,0,0,.331-.374,1.325,1.325,0,0,0,.12-.46c.012-.157.018-.285.018-.386Z"/><path d="M29.837,82.359a1.881,1.881,0,0,0,1.122.308,1.253,1.253,0,0,0,.814-.263,1.01,1.01,0,0,0,.327-.811.794.794,0,0,0-.363-.644,2.379,2.379,0,0,0-.372-.258c-.14-.08-.283-.16-.43-.238s-.285-.176-.419-.272a2.153,2.153,0,0,1-.38-.3,1.075,1.075,0,0,1-.363-.816,1.243,1.243,0,0,1,.472-1.009,1.817,1.817,0,0,1,1.132-.359,4.445,4.445,0,0,1,.466.028,3.271,3.271,0,0,1,.532.143l-.082.469a2.207,2.207,0,0,0-1.308-.157,1.108,1.108,0,0,0-.359.157.8.8,0,0,0-.252.272.86.86,0,0,0-.1.436.615.615,0,0,0,.1.345,1.031,1.031,0,0,0,.259.278,3.346,3.346,0,0,0,.38.239q.2.121.423.25a2.88,2.88,0,0,1,.8.568,1.266,1.266,0,0,1,.27.393,1.327,1.327,0,0,1,.093.516,1.305,1.305,0,0,1-.529,1.133,1.957,1.957,0,0,1-1.135.349,2.724,2.724,0,0,1-1.146-.226Z"/><path d="M38.074,83.023H37.52L36.512,79.71h-.017l-1.008,3.313h-.554L33.741,79.2h.5l.972,3.312h.014L36.264,79.2h.553l.98,3.312h.014L38.836,79.2h.458Z"/><path d="M41.14,78.175h-.453v-.629h.453ZM40.687,79.2h.453v3.825h-.453Z"/><path d="M42.655,82.469a2,2,0,0,0,.964.243.908.908,0,0,0,.581-.187.593.593,0,0,0,.241-.5.644.644,0,0,0-.27-.536,3.163,3.163,0,0,0-.617-.337c-.111-.054-.217-.112-.319-.173a2.683,2.683,0,0,1-.291-.2,1.085,1.085,0,0,1-.206-.28.757.757,0,0,1-.077-.351.905.905,0,0,1,.375-.811,1.482,1.482,0,0,1,.829-.235,3.911,3.911,0,0,1,.415.029,2.638,2.638,0,0,1,.5.142l-.043.412a2.145,2.145,0,0,0-.824-.18,1.037,1.037,0,0,0-.564.132.459.459,0,0,0-.171.191.654.654,0,0,0-.064.315.358.358,0,0,0,.082.224.746.746,0,0,0,.209.179c.088.052.187.105.3.158s.22.107.327.166a2.068,2.068,0,0,1,.632.421,1.121,1.121,0,0,1,.16,1.233,1.054,1.054,0,0,1-.312.337,1.628,1.628,0,0,1-.864.25,3.007,3.007,0,0,1-1.034-.182Z"/><path d="M46.16,82.469a2,2,0,0,0,.964.243.91.91,0,0,0,.582-.187.6.6,0,0,0,.24-.5.646.646,0,0,0-.269-.536,3.222,3.222,0,0,0-.617-.337c-.112-.054-.218-.112-.32-.173a2.771,2.771,0,0,1-.29-.2,1.062,1.062,0,0,1-.206-.28.745.745,0,0,1-.078-.351.9.9,0,0,1,.376-.811,1.48,1.48,0,0,1,.829-.235,3.946,3.946,0,0,1,.415.029,2.629,2.629,0,0,1,.5.142l-.042.412a2.154,2.154,0,0,0-.825-.18,1.042,1.042,0,0,0-.564.132.457.457,0,0,0-.17.191.654.654,0,0,0-.064.315.357.357,0,0,0,.081.224.751.751,0,0,0,.21.179c.087.052.187.105.3.158s.221.107.327.166a2.056,2.056,0,0,1,.632.421,1.115,1.115,0,0,1,.16,1.233,1.04,1.04,0,0,1-.311.337,1.634,1.634,0,0,1-.865.25,3,3,0,0,1-1.033-.182Z"/><path d="M56.148,78.367a1.712,1.712,0,0,0-.547-.188,4.928,4.928,0,0,0-.586-.037,1.921,1.921,0,0,0-1.519.639,2.728,2.728,0,0,0-.008,3.248,1.877,1.877,0,0,0,1.527.638,3.521,3.521,0,0,0,.586-.054,1.525,1.525,0,0,0,.547-.172l.028.448a1.709,1.709,0,0,1-.557.171,3.968,3.968,0,0,1-.6.055,2.465,2.465,0,0,1-1.876-.752,2.755,2.755,0,0,1-.682-1.959,2.812,2.812,0,0,1,.688-1.957,2.459,2.459,0,0,1,1.87-.751q.245,0,.6.036a1.722,1.722,0,0,1,.557.156Z"/><path d="M57.924,81.111a2.312,2.312,0,0,1,.422-1.4,1.525,1.525,0,0,1,1.305-.608,1.549,1.549,0,0,1,1.323.608,2.582,2.582,0,0,1,0,2.786,1.551,1.551,0,0,1-1.323.615,1.527,1.527,0,0,1-1.305-.615A2.317,2.317,0,0,1,57.924,81.111Zm.5,0a1.876,1.876,0,0,0,.32,1.127,1.037,1.037,0,0,0,.911.474,1.074,1.074,0,0,0,.926-.474,1.943,1.943,0,0,0,.306-1.127,2,2,0,0,0-.306-1.143,1.081,1.081,0,0,0-.926-.459,1.043,1.043,0,0,0-.911.459A1.933,1.933,0,0,0,58.422,81.111Z"/><path d="M62.968,80.1q0-.439-.029-.9h.443v.68H63.4a2.483,2.483,0,0,1,.153-.27,1.078,1.078,0,0,1,.556-.437,1.627,1.627,0,0,1,.485-.065,1.141,1.141,0,0,1,.981.421,1.787,1.787,0,0,1,.283,1.049v2.447H65.4V80.694a1.679,1.679,0,0,0-.195-.87.791.791,0,0,0-.686-.315.935.935,0,0,0-.86.448,1.408,1.408,0,0,0-.181.443,2.269,2.269,0,0,0-.057.506v2.117h-.454Z"/><path d="M68.039,79.6H67.29v-.4h.749v-.279c0-.2.009-.406.028-.6a1.457,1.457,0,0,1,.11-.509.765.765,0,0,1,.3-.37.959.959,0,0,1,.542-.132c.078,0,.158,0,.241.007a.509.509,0,0,1,.187.066l-.028.414a.742.742,0,0,0-.362-.084.5.5,0,0,0-.345.106.6.6,0,0,0-.167.293,1.5,1.5,0,0,0-.043.367c0,.135-.007.264-.007.389V79.2h.835v.4h-.835v3.422h-.453Z"/><path d="M73.294,82.9a3.047,3.047,0,0,1-1.076.211,1.519,1.519,0,0,1-1.3-.579,2.358,2.358,0,0,1-.383-1.425,2.32,2.32,0,0,1,.436-1.447,1.352,1.352,0,0,1,1.124-.558,1.293,1.293,0,0,1,1.136.564A2.449,2.449,0,0,1,73.569,81v.243H71.03a1.631,1.631,0,0,0,.313,1.029,1.061,1.061,0,0,0,.909.437,1.8,1.8,0,0,0,.569-.1,1.869,1.869,0,0,0,.473-.188Zm-.222-2.061a1.917,1.917,0,0,0-.214-.922.808.808,0,0,0-.736-.412.964.964,0,0,0-.793.42,1.516,1.516,0,0,0-.3.914Z"/><path d="M78.079,83.023h-.454v-.607h-.014a1.2,1.2,0,0,1-1.157.7,1.32,1.32,0,0,1-1.139-.579,2.47,2.47,0,0,1-.386-1.425,2.5,2.5,0,0,1,.358-1.441,1.3,1.3,0,0,1,1.167-.564,1.271,1.271,0,0,1,.483.084,1.1,1.1,0,0,1,.348.208,1.029,1.029,0,0,1,.326.441h.014V77.4h.454Zm-2.653-1.912a3.092,3.092,0,0,0,.05.547,2.2,2.2,0,0,0,.174.529,1.155,1.155,0,0,0,.342.367.849.849,0,0,0,.533.158.864.864,0,0,0,.524-.158,1.1,1.1,0,0,0,.338-.383,2.347,2.347,0,0,0,.238-1.06,3.288,3.288,0,0,0-.05-.559,2.056,2.056,0,0,0-.188-.51,1.128,1.128,0,0,0-.338-.39.928.928,0,0,0-.524-.143.912.912,0,0,0-.533.143.988.988,0,0,0-.342.375,1.885,1.885,0,0,0-.174.511A3.343,3.343,0,0,0,75.426,81.111Z"/><path d="M82.39,82.9a3.047,3.047,0,0,1-1.076.211,1.517,1.517,0,0,1-1.3-.579,2.365,2.365,0,0,1-.384-1.425,2.326,2.326,0,0,1,.436-1.447,1.352,1.352,0,0,1,1.125-.558,1.291,1.291,0,0,1,1.135.564A2.449,2.449,0,0,1,82.665,81v.243H80.126a1.637,1.637,0,0,0,.312,1.029,1.063,1.063,0,0,0,.91.437,1.809,1.809,0,0,0,.569-.1,1.9,1.9,0,0,0,.473-.188Zm-.223-2.061a1.916,1.916,0,0,0-.213-.922.808.808,0,0,0-.736-.412.963.963,0,0,0-.793.42,1.516,1.516,0,0,0-.3.914Z"/><path d="M84.244,80.051q0-.531-.029-.853h.454v.732h.014a1.672,1.672,0,0,1,.369-.575.807.807,0,0,1,.582-.249,1.463,1.463,0,0,1,.32.044v.49a1.217,1.217,0,0,0-.334-.043.762.762,0,0,0-.444.135,1.019,1.019,0,0,0-.283.367,1.917,1.917,0,0,0-.146.488,3.117,3.117,0,0,0-.05.543v1.893h-.453Z"/><path d="M89.455,82.411h-.014a1.124,1.124,0,0,1-.49.514,1.462,1.462,0,0,1-.688.19,1.442,1.442,0,0,1-.625-.129.953.953,0,0,1-.379-.285,1.254,1.254,0,0,1,.007-1.422,1.224,1.224,0,0,1,.561-.4,3.089,3.089,0,0,1,.741-.165c.263-.013.515-.021.756-.021h.089V80.5q.021-.99-.846-.989a1.962,1.962,0,0,0-1.091.317v-.459a2.657,2.657,0,0,1,1.089-.261q1.315-.013,1.3,1.425V82.22a5.1,5.1,0,0,0,.039.8h-.45ZM89.413,81.1h-.132q-.3,0-.6.015a2.092,2.092,0,0,0-.568.129.877.877,0,0,0-.409.275.745.745,0,0,0-.167.507.586.586,0,0,0,.234.525.857.857,0,0,0,.537.166,1.064,1.064,0,0,0,.633-.166.953.953,0,0,0,.33-.375,1.3,1.3,0,0,0,.121-.459c.012-.156.018-.285.018-.385Z"/><path d="M93.258,79.6h-.842v2.48a.8.8,0,0,0,.117.444.4.4,0,0,0,.377.187.915.915,0,0,0,.423-.091l.028.388c-.054.02-.13.041-.227.066a1.333,1.333,0,0,1-.333.04.888.888,0,0,1-.471-.107.678.678,0,0,1-.251-.278,1.369,1.369,0,0,1-.1-.4q-.021-.228-.021-.492V79.6h-.727v-.4h.727v-.923l.454-.166V79.2h.842Z"/><path d="M95.2,78.175h-.454v-.629H95.2ZM94.749,79.2H95.2v3.825h-.454Z"/><path d="M96.715,81.111a2.312,2.312,0,0,1,.422-1.4,1.527,1.527,0,0,1,1.306-.608,1.548,1.548,0,0,1,1.322.608,2.582,2.582,0,0,1,0,2.786,1.55,1.55,0,0,1-1.322.615,1.529,1.529,0,0,1-1.306-.615A2.317,2.317,0,0,1,96.715,81.111Zm.5,0a1.876,1.876,0,0,0,.321,1.127,1.035,1.035,0,0,0,.911.474,1.074,1.074,0,0,0,.925-.474,1.943,1.943,0,0,0,.306-1.127,2,2,0,0,0-.306-1.143,1.08,1.08,0,0,0-.925-.459,1.041,1.041,0,0,0-.911.459A1.933,1.933,0,0,0,97.213,81.111Z"/><path d="M101.76,80.1q0-.439-.029-.9h.443v.68h.014a2.648,2.648,0,0,1,.152-.27,1.086,1.086,0,0,1,.557-.437,1.627,1.627,0,0,1,.485-.065,1.142,1.142,0,0,1,.981.421,1.787,1.787,0,0,1,.283,1.049v2.447h-.453V80.694a1.689,1.689,0,0,0-.195-.87.792.792,0,0,0-.686-.315.935.935,0,0,0-.86.448,1.434,1.434,0,0,0-.182.443,2.329,2.329,0,0,0-.057.506v2.117h-.453Z"/><path d="M29.913,98.488h2.41v.446H30.41v1.873h1.824v.446H30.41v2.47h-.5Z"/><path d="M36.326,103.605a3.06,3.06,0,0,1-1.076.21,1.524,1.524,0,0,1-1.3-.579,2.373,2.373,0,0,1-.383-1.426A2.322,2.322,0,0,1,34,100.363a1.361,1.361,0,0,1,1.124-.557,1.288,1.288,0,0,1,1.136.565,2.448,2.448,0,0,1,.341,1.334v.241H34.063a1.63,1.63,0,0,0,.312,1.028,1.059,1.059,0,0,0,.91.438,1.843,1.843,0,0,0,.569-.1,1.8,1.8,0,0,0,.472-.188Zm-.222-2.062a1.9,1.9,0,0,0-.213-.92.81.81,0,0,0-.737-.415.967.967,0,0,0-.793.421,1.515,1.515,0,0,0-.3.914Z"/><path d="M41.11,103.723h-.453v-.608h-.014a1.2,1.2,0,0,1-1.157.7,1.325,1.325,0,0,1-1.139-.579,2.466,2.466,0,0,1-.387-1.426,2.5,2.5,0,0,1,.359-1.439,1.307,1.307,0,0,1,1.167-.565,1.275,1.275,0,0,1,.483.084,1.082,1.082,0,0,1,.347.208,1.032,1.032,0,0,1,.327.442h.014V98.1h.453Zm-2.652-1.913a3.094,3.094,0,0,0,.05.548,2.154,2.154,0,0,0,.174.528,1.113,1.113,0,0,0,.341.367.852.852,0,0,0,.534.159.864.864,0,0,0,.524-.159,1.091,1.091,0,0,0,.337-.38,2.353,2.353,0,0,0,.239-1.063,3.277,3.277,0,0,0-.05-.558,2.034,2.034,0,0,0-.189-.51,1.122,1.122,0,0,0-.337-.389.929.929,0,0,0-.524-.145.915.915,0,0,0-.534.145,1,1,0,0,0-.341.374,1.851,1.851,0,0,0-.174.511A3.358,3.358,0,0,0,38.458,101.81Z"/><path d="M45.422,103.605a3.069,3.069,0,0,1-1.076.21,1.524,1.524,0,0,1-1.3-.579,2.359,2.359,0,0,1-.383-1.426,2.322,2.322,0,0,1,.436-1.447,1.361,1.361,0,0,1,1.124-.557,1.286,1.286,0,0,1,1.135.565,2.448,2.448,0,0,1,.341,1.334v.241H43.158a1.625,1.625,0,0,0,.313,1.028,1.057,1.057,0,0,0,.909.438,1.833,1.833,0,0,0,.569-.1,1.812,1.812,0,0,0,.473-.188Zm-.222-2.062a1.9,1.9,0,0,0-.214-.92.809.809,0,0,0-.736-.415.965.965,0,0,0-.793.421,1.516,1.516,0,0,0-.3.914Z"/><path d="M47.276,100.751c0-.353-.01-.638-.029-.853H47.7v.732h.014a1.658,1.658,0,0,1,.369-.574.808.808,0,0,1,.583-.25,1.525,1.525,0,0,1,.319.044v.491a1.215,1.215,0,0,0-.334-.045.775.775,0,0,0-.444.137,1.006,1.006,0,0,0-.283.366,1.953,1.953,0,0,0-.146.489,3.088,3.088,0,0,0-.05.542v1.893h-.453Z"/><path d="M52.487,103.111h-.014a1.128,1.128,0,0,1-.49.514,1.447,1.447,0,0,1-1.313.062.974.974,0,0,1-.379-.285,1.259,1.259,0,0,1,.006-1.424,1.213,1.213,0,0,1,.561-.4,3.05,3.05,0,0,1,.742-.164c.263-.016.515-.023.756-.023h.088v-.2q.023-.988-.845-.99a1.978,1.978,0,0,0-1.091.319v-.459a2.659,2.659,0,0,1,1.089-.262q1.315-.015,1.3,1.426v1.689a5.094,5.094,0,0,0,.039.8h-.45Zm-.043-1.316h-.131q-.3,0-.6.015a2.138,2.138,0,0,0-.569.129.882.882,0,0,0-.408.275.74.74,0,0,0-.167.507.588.588,0,0,0,.234.526.861.861,0,0,0,.537.165,1.076,1.076,0,0,0,.633-.165.965.965,0,0,0,.33-.374,1.339,1.339,0,0,0,.121-.46c.011-.158.017-.286.017-.386Z"/><path d="M54.7,98.1h.454v5.628H54.7Z"/><path d="M59.627,98.488h1.255a2.472,2.472,0,0,1,1.955.724,2.843,2.843,0,0,1,.581,1.884,2.407,2.407,0,0,1-.822,2.019,3.341,3.341,0,0,1-2.082.608h-.887Zm.5,4.789h.415a2.037,2.037,0,0,0,2.381-2.209,2.138,2.138,0,0,0-.6-1.676,2.26,2.26,0,0,0-1.464-.458h-.735Z"/><path d="M67.693,103.605a3.069,3.069,0,0,1-1.076.21,1.524,1.524,0,0,1-1.3-.579,2.359,2.359,0,0,1-.383-1.426,2.322,2.322,0,0,1,.436-1.447,1.361,1.361,0,0,1,1.124-.557,1.286,1.286,0,0,1,1.135.565,2.448,2.448,0,0,1,.341,1.334v.241H65.429a1.625,1.625,0,0,0,.313,1.028,1.057,1.057,0,0,0,.909.438,1.833,1.833,0,0,0,.569-.1,1.812,1.812,0,0,0,.473-.188Zm-.222-2.062a1.9,1.9,0,0,0-.214-.92.809.809,0,0,0-.736-.415.965.965,0,0,0-.793.421,1.516,1.516,0,0,0-.3.914Z"/><path d="M69.5,99.9h.454l-.032.7h.014l.131-.222a1.3,1.3,0,0,1,.221-.256,1.355,1.355,0,0,1,.341-.225,1.286,1.286,0,0,1,.493-.084,1.322,1.322,0,0,1,1.18.565,2.643,2.643,0,0,1,.348,1.439,2.518,2.518,0,0,1-.377,1.426,1.351,1.351,0,0,1-1.151.579,1.147,1.147,0,0,1-1.154-.741h-.014V105.3H69.5Zm2.652,1.912a4.586,4.586,0,0,0-.035-.572,1.6,1.6,0,0,0-.182-.511.862.862,0,0,0-.337-.374.968.968,0,0,0-.545-.145.877.877,0,0,0-.513.145,1.112,1.112,0,0,0-.341.389,1.718,1.718,0,0,0-.181.51,2.536,2.536,0,0,0-.064.558,2.247,2.247,0,0,0,.245,1.063,1.082,1.082,0,0,0,.341.38.817.817,0,0,0,.513.159.9.9,0,0,0,.545-.159.943.943,0,0,0,.337-.367,1.843,1.843,0,0,0,.182-.528A4.223,4.223,0,0,0,72.155,101.81Z"/><path d="M76.433,103.111h-.015a1.121,1.121,0,0,1-.489.514,1.447,1.447,0,0,1-1.313.062.985.985,0,0,1-.38-.285,1.261,1.261,0,0,1,.007-1.424,1.213,1.213,0,0,1,.561-.4,3.04,3.04,0,0,1,.742-.164c.263-.016.515-.023.756-.023h.088v-.2q.022-.988-.846-.99a1.975,1.975,0,0,0-1.09.319v-.459a2.658,2.658,0,0,1,1.088-.262q1.317-.015,1.3,1.426v1.689a5.1,5.1,0,0,0,.038.8h-.449ZM76.39,101.8h-.131q-.3,0-.6.015a2.138,2.138,0,0,0-.569.129.877.877,0,0,0-.408.275.74.74,0,0,0-.167.507.588.588,0,0,0,.234.526.859.859,0,0,0,.537.165,1.07,1.07,0,0,0,.632-.165.96.96,0,0,0,.331-.374,1.339,1.339,0,0,0,.121-.46c.011-.158.017-.286.017-.386Z"/><path d="M78.643,100.751c0-.353-.01-.638-.029-.853h.454v.732h.014a1.63,1.63,0,0,1,.369-.574.8.8,0,0,1,.582-.25,1.526,1.526,0,0,1,.32.044v.491a1.215,1.215,0,0,0-.334-.045.77.77,0,0,0-.444.137,1,1,0,0,0-.283.366,1.913,1.913,0,0,0-.146.489,3.088,3.088,0,0,0-.05.542v1.893h-.453Z"/><path d="M83.32,100.3h-.843v2.481a.8.8,0,0,0,.117.444.4.4,0,0,0,.377.187.9.9,0,0,0,.423-.092l.029.389c-.055.02-.13.041-.227.066a1.345,1.345,0,0,1-.333.04.9.9,0,0,1-.471-.107.688.688,0,0,1-.252-.278,1.417,1.417,0,0,1-.1-.4c-.014-.152-.021-.315-.021-.49V100.3H81.3v-.4h.726v-.924l.454-.164V99.9h.843Z"/><path d="M89.358,103.723v-2.546a2.392,2.392,0,0,0-.03-.392.809.809,0,0,0-.144-.3.617.617,0,0,0-.248-.209,1.036,1.036,0,0,0-.4-.067.957.957,0,0,0-.711.331,1.56,1.56,0,0,0-.326,1.068v2.116H87.05v-2.546a2.089,2.089,0,0,0-.034-.392.809.809,0,0,0-.144-.3.617.617,0,0,0-.248-.209,1.036,1.036,0,0,0-.4-.067.957.957,0,0,0-.711.331,1.56,1.56,0,0,0-.326,1.068v2.116h-.454V100.8c0-.294-.009-.593-.029-.9h.457v.644l.014.008a1.7,1.7,0,0,1,.143-.234.851.851,0,0,1,.208-.238,1.258,1.258,0,0,1,.336-.2,1.494,1.494,0,0,1,.5-.074,1.647,1.647,0,0,1,.292.029.913.913,0,0,1,.3.122.8.8,0,0,1,.262.24,1.1,1.1,0,0,1,.157.416h.015a1.326,1.326,0,0,1,.456-.572,1.288,1.288,0,0,1,.763-.235,1.158,1.158,0,0,1,.894.36,1.342,1.342,0,0,1,.307.923v2.634Z"/><path d="M94.13,103.605a3.069,3.069,0,0,1-1.076.21,1.524,1.524,0,0,1-1.3-.579,2.359,2.359,0,0,1-.383-1.426,2.322,2.322,0,0,1,.436-1.447,1.361,1.361,0,0,1,1.124-.557,1.286,1.286,0,0,1,1.135.565,2.439,2.439,0,0,1,.341,1.334v.241H91.866a1.625,1.625,0,0,0,.313,1.028,1.057,1.057,0,0,0,.909.438,1.833,1.833,0,0,0,.569-.1,1.812,1.812,0,0,0,.473-.188Zm-.222-2.062a1.9,1.9,0,0,0-.214-.92.809.809,0,0,0-.736-.415.965.965,0,0,0-.793.421,1.516,1.516,0,0,0-.3.914Z"/><path d="M95.984,100.8q0-.44-.029-.9H96.4v.682h.014a2.241,2.241,0,0,1,.152-.272,1.042,1.042,0,0,1,.217-.245.989.989,0,0,1,.34-.19,1.582,1.582,0,0,1,.485-.067,1.143,1.143,0,0,1,.98.422,1.773,1.773,0,0,1,.284,1.047v2.448h-.453v-2.329a1.672,1.672,0,0,0-.2-.869.8.8,0,0,0-.685-.317.94.94,0,0,0-.861.449,1.418,1.418,0,0,0-.181.444,2.316,2.316,0,0,0-.057.506v2.116h-.453Z"/><path d="M102.335,100.3h-.842v2.481a.8.8,0,0,0,.117.444.4.4,0,0,0,.377.187.9.9,0,0,0,.423-.092l.029.389c-.055.02-.13.041-.228.066a1.327,1.327,0,0,1-.333.04.891.891,0,0,1-.47-.107.674.674,0,0,1-.252-.278,1.417,1.417,0,0,1-.1-.4c-.014-.152-.02-.315-.02-.49V100.3h-.727v-.4h.727v-.924l.453-.164V99.9h.842Z"/><path d="M106.21,101.81a2.3,2.3,0,0,1,.422-1.395,1.522,1.522,0,0,1,1.306-.609,1.543,1.543,0,0,1,1.322.609,2.579,2.579,0,0,1,0,2.784,1.55,1.55,0,0,1-1.322.616,1.53,1.53,0,0,1-1.306-.616A2.317,2.317,0,0,1,106.21,101.81Zm.5,0a1.877,1.877,0,0,0,.321,1.128,1.029,1.029,0,0,0,.911.474,1.067,1.067,0,0,0,.925-.474,1.944,1.944,0,0,0,.306-1.128,2.006,2.006,0,0,0-.306-1.142,1.086,1.086,0,0,0-.925-.46,1.046,1.046,0,0,0-.911.46A1.936,1.936,0,0,0,106.708,101.81Z"/><path d="M111.567,100.3h-.749v-.4h.749V99.62c0-.2.009-.406.028-.6a1.458,1.458,0,0,1,.11-.51.769.769,0,0,1,.3-.37.958.958,0,0,1,.541-.132c.079,0,.159,0,.242.008a.455.455,0,0,1,.187.066l-.028.413a.742.742,0,0,0-.362-.084.5.5,0,0,0-.345.106.6.6,0,0,0-.167.294,1.528,1.528,0,0,0-.043.365c0,.135-.007.265-.007.389V99.9h.835v.4h-.835v3.423h-.453Z"/><path d="M117.06,98.488h2.48v.446h-1.982v1.873h1.882v.446h-1.882v2.024h2.07v.446H117.06Z"/><path d="M123.756,100.4a1.936,1.936,0,0,0-.8-.2,1.27,1.27,0,0,0-1.022.442,1.748,1.748,0,0,0-.372,1.16,1.723,1.723,0,0,0,.365,1.121,1.172,1.172,0,0,0,.98.481,2.139,2.139,0,0,0,.839-.172l.042.441a3.014,3.014,0,0,1-.951.134,1.6,1.6,0,0,1-1.33-.608,2.228,2.228,0,0,1-.443-1.4,2.071,2.071,0,0,1,.507-1.447,1.727,1.727,0,0,1,1.323-.557,2.705,2.705,0,0,1,.567.051,2.057,2.057,0,0,1,.2.047,1.147,1.147,0,0,1,.125.051Z"/><path d="M124.976,101.81a2.3,2.3,0,0,1,.422-1.395,1.521,1.521,0,0,1,1.306-.609,1.544,1.544,0,0,1,1.322.609,2.579,2.579,0,0,1,0,2.784,1.551,1.551,0,0,1-1.322.616,1.528,1.528,0,0,1-1.306-.616A2.317,2.317,0,0,1,124.976,101.81Zm.5,0a1.884,1.884,0,0,0,.32,1.128,1.03,1.03,0,0,0,.912.474,1.064,1.064,0,0,0,.924-.474,1.944,1.944,0,0,0,.307-1.128,2.007,2.007,0,0,0-.307-1.142,1.083,1.083,0,0,0-.924-.46,1.048,1.048,0,0,0-.912.46A1.943,1.943,0,0,0,125.474,101.81Z"/><path d="M130.021,100.8q0-.44-.029-.9h.443v.682h.014a2.241,2.241,0,0,1,.152-.272,1.042,1.042,0,0,1,.217-.245.989.989,0,0,1,.34-.19,1.587,1.587,0,0,1,.485-.067,1.146,1.146,0,0,1,.981.422,1.78,1.78,0,0,1,.283,1.047v2.448h-.453v-2.329a1.672,1.672,0,0,0-.2-.869.8.8,0,0,0-.685-.317.941.941,0,0,0-.861.449,1.418,1.418,0,0,0-.181.444,2.316,2.316,0,0,0-.057.506v2.116h-.453Z"/><path d="M134.493,101.81a2.3,2.3,0,0,1,.423-1.395,1.517,1.517,0,0,1,1.3-.609,1.545,1.545,0,0,1,1.323.609,2.573,2.573,0,0,1,0,2.784,1.552,1.552,0,0,1-1.323.616,1.524,1.524,0,0,1-1.3-.616A2.311,2.311,0,0,1,134.493,101.81Zm.5,0a1.877,1.877,0,0,0,.32,1.128,1.031,1.031,0,0,0,.911.474,1.068,1.068,0,0,0,.926-.474,1.944,1.944,0,0,0,.306-1.128,2.006,2.006,0,0,0-.306-1.142,1.088,1.088,0,0,0-.926-.46,1.049,1.049,0,0,0-.911.46A1.936,1.936,0,0,0,134.991,101.81Z"/><path d="M144.084,103.723v-2.546a2.4,2.4,0,0,0-.029-.392.809.809,0,0,0-.144-.3.624.624,0,0,0-.248-.209,1.045,1.045,0,0,0-.4-.067.956.956,0,0,0-.71.331,1.555,1.555,0,0,0-.326,1.068v2.116h-.453v-2.546a2.176,2.176,0,0,0-.034-.392.809.809,0,0,0-.144-.3.617.617,0,0,0-.248-.209,1.036,1.036,0,0,0-.4-.067.957.957,0,0,0-.711.331,1.56,1.56,0,0,0-.326,1.068v2.116h-.455V100.8c0-.294-.008-.593-.028-.9h.456v.644l.015.008a1.786,1.786,0,0,1,.142-.234.867.867,0,0,1,.208-.238,1.274,1.274,0,0,1,.336-.2,1.494,1.494,0,0,1,.5-.074,1.649,1.649,0,0,1,.293.029.9.9,0,0,1,.3.122.8.8,0,0,1,.263.24,1.1,1.1,0,0,1,.157.416h.015a1.319,1.319,0,0,1,.456-.572,1.288,1.288,0,0,1,.763-.235,1.162,1.162,0,0,1,.9.36,1.346,1.346,0,0,1,.307.923v2.634Z"/><path d="M146.828,98.875h-.454v-.629h.454Zm-.454,1.023h.454v3.825h-.454Z"/><path d="M151.036,100.4a1.939,1.939,0,0,0-.795-.2,1.269,1.269,0,0,0-1.023.442,1.947,1.947,0,0,0-.008,2.281,1.176,1.176,0,0,0,.981.481,2.138,2.138,0,0,0,.838-.172l.042.441a3.008,3.008,0,0,1-.95.134,1.6,1.6,0,0,1-1.33-.608,2.235,2.235,0,0,1-.444-1.4,2.067,2.067,0,0,1,.508-1.447,1.724,1.724,0,0,1,1.322-.557,2.716,2.716,0,0,1,.568.051c.078.015.145.03.2.047a1.2,1.2,0,0,1,.124.051Z"/><path d="M156.81,98.488h.567l2.015,5.235h-.522l-.547-1.4h-2.561l-.544,1.4h-.486Zm.248.49-1.1,2.9h2.2Z"/><path d="M161.114,100.3h-.748v-.4h.748V99.62c0-.2.01-.406.028-.6a1.481,1.481,0,0,1,.11-.51.781.781,0,0,1,.3-.37.959.959,0,0,1,.542-.132c.078,0,.159,0,.242.008a.46.46,0,0,1,.187.066l-.028.413a.743.743,0,0,0-.363-.084.5.5,0,0,0-.344.106.6.6,0,0,0-.167.294,1.478,1.478,0,0,0-.043.365c0,.135-.007.265-.007.389V99.9h.835v.4h-.835v3.423h-.454Z"/><path d="M164.062,100.3h-.748v-.4h.748V99.62c0-.2.01-.406.028-.6a1.458,1.458,0,0,1,.111-.51.769.769,0,0,1,.3-.37.954.954,0,0,1,.542-.132c.078,0,.158,0,.241.008a.46.46,0,0,1,.187.066l-.028.413a.742.742,0,0,0-.362-.084.5.5,0,0,0-.345.106.6.6,0,0,0-.167.294,1.528,1.528,0,0,0-.043.365c0,.135-.007.265-.007.389V99.9h.835v.4h-.835v3.423h-.454Z"/><path d="M168.961,103.111h-.013a1.128,1.128,0,0,1-.49.514,1.447,1.447,0,0,1-1.313.062.993.993,0,0,1-.38-.285,1.2,1.2,0,0,1-.216-.666,1.178,1.178,0,0,1,.224-.758,1.205,1.205,0,0,1,.56-.4,3.05,3.05,0,0,1,.742-.164c.262-.016.514-.023.756-.023h.088v-.2q.022-.988-.845-.99a1.978,1.978,0,0,0-1.091.319v-.459a2.659,2.659,0,0,1,1.089-.262q1.317-.015,1.3,1.426v1.689a4.869,4.869,0,0,0,.038.8h-.451Zm-.042-1.316h-.13q-.3,0-.6.015a2.13,2.13,0,0,0-.568.129.893.893,0,0,0-.41.275.745.745,0,0,0-.167.507.588.588,0,0,0,.235.526.861.861,0,0,0,.537.165,1.076,1.076,0,0,0,.633-.165.965.965,0,0,0,.33-.374,1.339,1.339,0,0,0,.121-.46c.012-.158.017-.286.017-.386Z"/><path d="M171.625,98.875h-.454v-.629h.454Zm-.454,1.023h.454v3.825h-.454Z"/><path d="M173.424,100.751c0-.353-.008-.638-.028-.853h.454v.732h.015a1.63,1.63,0,0,1,.369-.574.8.8,0,0,1,.582-.25,1.535,1.535,0,0,1,.319.044v.491a1.21,1.21,0,0,0-.334-.045.767.767,0,0,0-.443.137,1,1,0,0,0-.284.366,1.953,1.953,0,0,0-.146.489,3.088,3.088,0,0,0-.05.542v1.893h-.454Z"/><path d="M176.224,103.169a1.993,1.993,0,0,0,.965.243.915.915,0,0,0,.581-.187.6.6,0,0,0,.241-.495.645.645,0,0,0-.269-.535,3.254,3.254,0,0,0-.617-.338c-.112-.054-.218-.111-.32-.172a2.793,2.793,0,0,1-.291-.2,1.109,1.109,0,0,1-.206-.278.766.766,0,0,1-.078-.354.906.906,0,0,1,.376-.81,1.472,1.472,0,0,1,.829-.235,3.911,3.911,0,0,1,.415.029,2.57,2.57,0,0,1,.5.143l-.043.41a2.2,2.2,0,0,0-.824-.18,1.054,1.054,0,0,0-.565.133.47.47,0,0,0-.17.191.669.669,0,0,0-.064.315.37.37,0,0,0,.081.225.82.82,0,0,0,.21.179c.088.051.187.1.3.158s.221.106.327.165a2.1,2.1,0,0,1,.632.422,1.119,1.119,0,0,1,.16,1.232,1.057,1.057,0,0,1-.312.338,1.632,1.632,0,0,1-.864.249,3.007,3.007,0,0,1-1.034-.182Z"/><path d="M180.25,103.093h.613l-.573,1.633h-.459Z"/><path d="M29.979,108.837h2.479v.447H30.476v1.873h1.882v.446H30.476v2.023h2.07v.447H29.979Z"/><path d="M37.2,114.073h-.454v-.609h-.014a1.2,1.2,0,0,1-1.157.7,1.322,1.322,0,0,1-1.138-.58,2.463,2.463,0,0,1-.387-1.425,2.505,2.505,0,0,1,.358-1.44,1.308,1.308,0,0,1,1.167-.564,1.271,1.271,0,0,1,.483.084,1.07,1.07,0,0,1,.348.208,1.023,1.023,0,0,1,.326.441h.014v-2.444H37.2Zm-2.653-1.913a3.1,3.1,0,0,0,.05.548,2.155,2.155,0,0,0,.175.528,1.111,1.111,0,0,0,.341.367.858.858,0,0,0,.534.158.867.867,0,0,0,.523-.158,1.106,1.106,0,0,0,.338-.381,2.361,2.361,0,0,0,.238-1.062,3.17,3.17,0,0,0-.05-.558,2.063,2.063,0,0,0-.188-.511,1.112,1.112,0,0,0-.338-.388.926.926,0,0,0-.523-.145.915.915,0,0,0-.534.145.982.982,0,0,0-.341.374,1.856,1.856,0,0,0-.175.51A3.369,3.369,0,0,0,34.542,112.16Z"/><path d="M41.909,113.171c0,.291.006.592.031.9H41.5v-.681h-.014a1.29,1.29,0,0,1-.138.252,1.175,1.175,0,0,1-.223.257,1.036,1.036,0,0,1-.344.179,1.285,1.285,0,0,1-.493.085,1.135,1.135,0,0,1-.972-.421,1.708,1.708,0,0,1-.29-1.053v-2.443h.454v2.326a1.506,1.506,0,0,0,.209.857.73.73,0,0,0,.672.33.981.981,0,0,0,.529-.135.875.875,0,0,0,.334-.33,1.357,1.357,0,0,0,.181-.451,2.181,2.181,0,0,0,.054-.48v-2.117h.453Z"/><path d="M46.191,110.753a1.938,1.938,0,0,0-.8-.195,1.268,1.268,0,0,0-1.023.442A1.747,1.747,0,0,0,44,112.16a1.723,1.723,0,0,0,.366,1.121,1.174,1.174,0,0,0,.98.48,2.117,2.117,0,0,0,.838-.172l.043.442a3.047,3.047,0,0,1-.951.134,1.593,1.593,0,0,1-1.33-.609,2.225,2.225,0,0,1-.443-1.4,2.065,2.065,0,0,1,.507-1.448,1.726,1.726,0,0,1,1.323-.556,2.64,2.64,0,0,1,.567.051c.078.014.145.03.2.046s.095.038.124.051Z"/><path d="M49.824,113.46H49.81a1.109,1.109,0,0,1-.49.514,1.443,1.443,0,0,1-1.313.063.983.983,0,0,1-.379-.286,1.185,1.185,0,0,1-.217-.666,1.173,1.173,0,0,1,.224-.757,1.215,1.215,0,0,1,.561-.4,3.087,3.087,0,0,1,.742-.164q.393-.022.755-.022h.089v-.2q.021-.988-.846-.989a1.979,1.979,0,0,0-1.091.318v-.459a2.657,2.657,0,0,1,1.089-.261q1.317-.015,1.3,1.426v1.689a5.094,5.094,0,0,0,.039.8h-.45Zm-.042-1.315H49.65q-.3,0-.6.015a2.056,2.056,0,0,0-.568.129.877.877,0,0,0-.409.275.745.745,0,0,0-.167.507.583.583,0,0,0,.235.525.852.852,0,0,0,.536.165,1.064,1.064,0,0,0,.633-.165.954.954,0,0,0,.331-.374,1.325,1.325,0,0,0,.12-.46c.012-.157.018-.285.018-.386Z"/><path d="M53.627,110.65h-.842v2.48a.8.8,0,0,0,.117.445.4.4,0,0,0,.377.186.89.89,0,0,0,.423-.092l.028.39c-.054.02-.129.041-.227.066a1.333,1.333,0,0,1-.333.04.907.907,0,0,1-.471-.107.678.678,0,0,1-.251-.278,1.383,1.383,0,0,1-.1-.4c-.014-.151-.021-.314-.021-.49V110.65H51.6v-.4h.727v-.924l.454-.164v1.088h.842Z"/><path d="M55.572,109.225h-.453v-.63h.453Zm-.453,1.023h.453v3.825h-.453Z"/><path d="M57.085,112.16a2.309,2.309,0,0,1,.422-1.4,1.523,1.523,0,0,1,1.306-.608,1.546,1.546,0,0,1,1.322.608,2.579,2.579,0,0,1,0,2.784,1.549,1.549,0,0,1-1.322.617,1.526,1.526,0,0,1-1.306-.617A2.312,2.312,0,0,1,57.085,112.16Zm.5,0a1.877,1.877,0,0,0,.32,1.128,1.032,1.032,0,0,0,.911.473,1.069,1.069,0,0,0,.926-.473,1.944,1.944,0,0,0,.306-1.128,2.006,2.006,0,0,0-.306-1.142,1.084,1.084,0,0,0-.926-.46,1.046,1.046,0,0,0-.911.46A1.936,1.936,0,0,0,57.583,112.16Z"/><path d="M62.129,111.145c0-.293-.009-.593-.028-.9h.442v.681h.015a2.1,2.1,0,0,1,.152-.271,1.06,1.06,0,0,1,.216-.245,1.008,1.008,0,0,1,.34-.191,1.593,1.593,0,0,1,.485-.066,1.141,1.141,0,0,1,.981.422,1.778,1.778,0,0,1,.284,1.047v2.448h-.454v-2.329a1.667,1.667,0,0,0-.195-.869.793.793,0,0,0-.686-.317.939.939,0,0,0-.86.448,1.409,1.409,0,0,0-.181.445,2.256,2.256,0,0,0-.057.506v2.116h-.454Z"/><path d="M71.685,113.46h-.014a1.119,1.119,0,0,1-.49.514,1.443,1.443,0,0,1-1.313.063.983.983,0,0,1-.379-.286,1.255,1.255,0,0,1,.007-1.423,1.215,1.215,0,0,1,.561-.4,3.089,3.089,0,0,1,.741-.164q.395-.022.756-.022h.089v-.2q.021-.988-.846-.989a1.979,1.979,0,0,0-1.091.318v-.459a2.657,2.657,0,0,1,1.089-.261q1.316-.015,1.3,1.426v1.689a5.094,5.094,0,0,0,.039.8h-.45Zm-.042-1.315h-.132q-.3,0-.6.015a2.056,2.056,0,0,0-.568.129.877.877,0,0,0-.409.275.745.745,0,0,0-.167.507A.585.585,0,0,0,70,113.6a.857.857,0,0,0,.537.165,1.064,1.064,0,0,0,.633-.165.944.944,0,0,0,.33-.374,1.306,1.306,0,0,0,.121-.46c.012-.157.018-.285.018-.386Z"/><path d="M73.9,111.145c0-.293-.01-.593-.029-.9h.443v.681h.014a2.24,2.24,0,0,1,.153-.271,1.07,1.07,0,0,1,.556-.436,1.589,1.589,0,0,1,.485-.066,1.141,1.141,0,0,1,.981.422,1.778,1.778,0,0,1,.283,1.047v2.448h-.453v-2.329a1.657,1.657,0,0,0-.2-.869.791.791,0,0,0-.685-.317.94.94,0,0,0-.861.448,1.433,1.433,0,0,0-.181.445,2.315,2.315,0,0,0-.056.506v2.116H73.9Z"/><path d="M81.584,114.073H81.13v-.609h-.014a1.2,1.2,0,0,1-1.157.7,1.322,1.322,0,0,1-1.138-.58,2.463,2.463,0,0,1-.387-1.425,2.505,2.505,0,0,1,.358-1.44,1.308,1.308,0,0,1,1.167-.564,1.271,1.271,0,0,1,.483.084,1.059,1.059,0,0,1,.348.208,1.023,1.023,0,0,1,.326.441h.014v-2.444h.454Zm-2.652-1.913a3.1,3.1,0,0,0,.049.548,2.155,2.155,0,0,0,.175.528,1.122,1.122,0,0,0,.341.367.858.858,0,0,0,.534.158.867.867,0,0,0,.523-.158,1.106,1.106,0,0,0,.338-.381,2.361,2.361,0,0,0,.238-1.062,3.265,3.265,0,0,0-.049-.558,2.027,2.027,0,0,0-.189-.511,1.112,1.112,0,0,0-.338-.388.926.926,0,0,0-.523-.145.915.915,0,0,0-.534.145.99.99,0,0,0-.341.374,1.856,1.856,0,0,0-.175.51A3.368,3.368,0,0,0,78.932,112.16Z"/><path d="M86.148,108.837h1.307q1.449-.026,1.488,1.356a1.089,1.089,0,0,1-.329.816,1.418,1.418,0,0,1-.8.393v.015a.62.62,0,0,1,.422.194.718.718,0,0,1,.124.19c.038.074.075.156.111.245l.862,2.027h-.551L88.05,112.3a1.242,1.242,0,0,0-.423-.607.572.572,0,0,0-.249-.084c-.092-.006-.2-.008-.32-.008h-.412v2.47h-.5Zm.5,2.32h.53a1.688,1.688,0,0,0,.863-.21.813.813,0,0,0,.406-.752,1.089,1.089,0,0,0-.1-.511.623.623,0,0,0-.278-.272,1.138,1.138,0,0,0-.409-.11c-.155-.012-.32-.018-.5-.018h-.516Z"/><path d="M93.324,113.955a3.091,3.091,0,0,1-1.076.21,1.524,1.524,0,0,1-1.3-.58,2.356,2.356,0,0,1-.383-1.425A2.321,2.321,0,0,1,91,110.712a1.358,1.358,0,0,1,1.124-.556,1.288,1.288,0,0,1,1.135.564,2.453,2.453,0,0,1,.341,1.334v.241H91.06a1.629,1.629,0,0,0,.313,1.029,1.055,1.055,0,0,0,.909.437,2.619,2.619,0,0,0,1.042-.286Zm-.222-2.062a1.907,1.907,0,0,0-.214-.921.81.81,0,0,0-.736-.414.961.961,0,0,0-.793.421,1.512,1.512,0,0,0-.3.914Z"/><path d="M94.893,113.519a2,2,0,0,0,.964.242.918.918,0,0,0,.582-.186.6.6,0,0,0,.24-.5.645.645,0,0,0-.269-.536,3.149,3.149,0,0,0-.618-.337c-.111-.054-.216-.112-.319-.172a2.941,2.941,0,0,1-.29-.2,1.115,1.115,0,0,1-.206-.279.762.762,0,0,1-.078-.353.908.908,0,0,1,.376-.811,1.479,1.479,0,0,1,.829-.234,3.946,3.946,0,0,1,.415.029,2.429,2.429,0,0,1,.5.143l-.042.41a2.21,2.21,0,0,0-.824-.18,1.052,1.052,0,0,0-.565.133.46.46,0,0,0-.17.19.661.661,0,0,0-.064.316.361.361,0,0,0,.081.224.806.806,0,0,0,.21.18c.087.051.187.1.3.157s.22.107.326.165a2.1,2.1,0,0,1,.632.422,1.115,1.115,0,0,1,.16,1.233,1.064,1.064,0,0,1-.311.338,1.633,1.633,0,0,1-.865.249,3,3,0,0,1-1.033-.182Z"/><path d="M101.167,113.955a3.1,3.1,0,0,1-1.077.21,1.522,1.522,0,0,1-1.3-.58,2.363,2.363,0,0,1-.384-1.425,2.334,2.334,0,0,1,.436-1.448,1.36,1.36,0,0,1,1.124-.556,1.289,1.289,0,0,1,1.136.564,2.453,2.453,0,0,1,.341,1.334v.241H98.9a1.629,1.629,0,0,0,.312,1.029,1.057,1.057,0,0,0,.91.437,1.835,1.835,0,0,0,.569-.1,1.863,1.863,0,0,0,.473-.188Zm-.223-2.062a1.907,1.907,0,0,0-.213-.921.811.811,0,0,0-.736-.414.961.961,0,0,0-.793.421,1.505,1.505,0,0,0-.3.914Z"/><path d="M105.147,113.46h-.014a1.109,1.109,0,0,1-.49.514,1.441,1.441,0,0,1-1.312.063.987.987,0,0,1-.38-.286,1.255,1.255,0,0,1,.007-1.423,1.215,1.215,0,0,1,.561-.4,3.089,3.089,0,0,1,.741-.164q.394-.022.756-.022h.089v-.2q.022-.988-.846-.989a1.977,1.977,0,0,0-1.091.318v-.459a2.661,2.661,0,0,1,1.089-.261q1.315-.015,1.3,1.426v1.689a5.094,5.094,0,0,0,.039.8h-.45Zm-.042-1.315h-.132c-.2,0-.4.005-.6.015a2.048,2.048,0,0,0-.568.129.872.872,0,0,0-.409.275.745.745,0,0,0-.167.507.585.585,0,0,0,.234.525.857.857,0,0,0,.537.165,1.064,1.064,0,0,0,.633-.165.936.936,0,0,0,.33-.374,1.284,1.284,0,0,0,.121-.46c.012-.157.018-.285.018-.386Z"/><path d="M107.358,111.1c0-.353-.01-.639-.029-.853h.454v.732h.014a1.61,1.61,0,0,1,.37-.574.8.8,0,0,1,.582-.25,1.462,1.462,0,0,1,.319.044v.491a1.215,1.215,0,0,0-.334-.045.767.767,0,0,0-.443.137,1,1,0,0,0-.285.366,1.932,1.932,0,0,0-.145.488,3.1,3.1,0,0,0-.05.542v1.894h-.453Z"/><path d="M112.715,110.753a1.93,1.93,0,0,0-.8-.195A1.264,1.264,0,0,0,110.9,111a1.742,1.742,0,0,0-.373,1.16,1.723,1.723,0,0,0,.366,1.121,1.173,1.173,0,0,0,.98.48,2.112,2.112,0,0,0,.837-.172l.043.442a3.039,3.039,0,0,1-.951.134,1.6,1.6,0,0,1-1.33-.609,2.231,2.231,0,0,1-.442-1.4,2.065,2.065,0,0,1,.507-1.448,1.724,1.724,0,0,1,1.322-.556,2.65,2.65,0,0,1,.568.051c.077.014.145.03.2.046s.1.038.124.051Z"/><path d="M114.222,108.445h.453v2.444h.015a1.366,1.366,0,0,1,.45-.532,1.305,1.305,0,0,1,.7-.2,1.1,1.1,0,0,1,1.011.451,2.272,2.272,0,0,1,.255,1.176v2.29h-.453v-2.285a3.862,3.862,0,0,0-.029-.481,1.081,1.081,0,0,0-.125-.382.739.739,0,0,0-.727-.367.929.929,0,0,0-.854.474,1.962,1.962,0,0,0-.245.991v2.05h-.453Z"/><path d="M121.7,108.837h2.478v.447H122.2v1.873h1.883v.446H122.2v2.023h2.07v.447H121.7Z"/><path d="M127.585,108.837h.569l2.013,5.236h-.522l-.547-1.4h-2.56l-.544,1.4h-.487Zm.248.491-1.1,2.894h2.2Z"/><path d="M131.629,108.837h2.479v.447h-1.982v1.873h1.883v.446h-1.883v2.023H134.2v.447h-2.568Z"/><path d="M135.981,108.837h1.307q1.447-.026,1.488,1.356a1.089,1.089,0,0,1-.329.816,1.418,1.418,0,0,1-.8.393v.015a.622.622,0,0,1,.422.194.718.718,0,0,1,.124.19c.038.074.075.156.11.245l.862,2.027h-.55l-.737-1.771a1.23,1.23,0,0,0-.423-.607.563.563,0,0,0-.249-.084c-.091-.006-.2-.008-.319-.008h-.413v2.47h-.5Zm.5,2.32h.531a1.688,1.688,0,0,0,.863-.21.815.815,0,0,0,.406-.752,1.089,1.089,0,0,0-.1-.511.628.628,0,0,0-.278-.272,1.138,1.138,0,0,0-.409-.11c-.156-.012-.321-.018-.5-.018h-.517Z"/><path d="M32.668,120.144a2.557,2.557,0,0,0-1.033-.228,1.171,1.171,0,0,0-.263.029.794.794,0,0,0-.26.114.624.624,0,0,0-.2.228.74.74,0,0,0-.078.359.4.4,0,0,0,.1.278,1.131,1.131,0,0,0,.255.2,2.823,2.823,0,0,0,.363.165c.128.056.261.114.4.172a3.266,3.266,0,0,1,.409.2,1.48,1.48,0,0,1,.355.293,1.438,1.438,0,0,1,.256.4,1.711,1.711,0,0,1,.085.576,1.387,1.387,0,0,1-.558,1.217,2.343,2.343,0,0,1-1.346.371,3,3,0,0,1-.661-.062c-.184-.035-.4-.082-.642-.143l.095-.939a2.28,2.28,0,0,0,1.148.323,1.2,1.2,0,0,0,.6-.165.559.559,0,0,0,.3-.51.594.594,0,0,0-.085-.323.85.85,0,0,0-.256-.224,6.245,6.245,0,0,0-.763-.349,2.508,2.508,0,0,1-.4-.209,1.907,1.907,0,0,1-.367-.272,1.427,1.427,0,0,1-.255-.4,1.41,1.41,0,0,1-.1-.55,1.445,1.445,0,0,1,.558-1.248,2.123,2.123,0,0,1,1.215-.353,3.849,3.849,0,0,1,1.215.186Z"/><path d="M34.458,121.291h-.717v-.733h.717v-.773l.974-.323v1.1H36.3v.733h-.868V123.1a.841.841,0,0,0,.092.434.379.379,0,0,0,.367.2.806.806,0,0,0,.444-.107l.028.792a2.424,2.424,0,0,1-.72.092,1.1,1.1,0,0,1-1.185-1.252Z"/><path d="M37.335,120.763a3.194,3.194,0,0,1,1.3-.294,1.411,1.411,0,0,1,1.615,1.627v.495c0,.376.005.7.017.967.009.285.023.574.042.865h-.859a4.865,4.865,0,0,1-.043-.58H39.4a1.219,1.219,0,0,1-.487.489,1.342,1.342,0,0,1-.671.183,1.487,1.487,0,0,1-.9-.3,1,1,0,0,1-.412-.849,1.194,1.194,0,0,1,.189-.7,1.056,1.056,0,0,1,.45-.4,2.007,2.007,0,0,1,.619-.186,5.7,5.7,0,0,1,.639-.036h.539a.856.856,0,0,0-.206-.654.934.934,0,0,0-.639-.182,1.842,1.842,0,0,0-1.154.421Zm.525,2.545a.39.39,0,0,0,.182.353.723.723,0,0,0,.437.122.791.791,0,0,0,.681-.347,1.421,1.421,0,0,0,.206-.8h-.589a1,1,0,0,0-.174.015,1.34,1.34,0,0,0-.359.089.615.615,0,0,0-.266.2A.522.522,0,0,0,37.86,123.308Z"/><path d="M41.777,121.291H41.06v-.733h.717v-.773l.974-.323v1.1h.868v.733h-.868V123.1a.841.841,0,0,0,.092.434.379.379,0,0,0,.366.2.81.81,0,0,0,.445-.107l.028.792a2.424,2.424,0,0,1-.72.092,1.1,1.1,0,0,1-1.185-1.252Z"/><path d="M47.493,124.208a2.474,2.474,0,0,1-1.286.307,1.782,1.782,0,0,1-1.958-2,2.343,2.343,0,0,1,.437-1.447,1.56,1.56,0,0,1,1.3-.594,1.535,1.535,0,0,1,1.418.653,3.3,3.3,0,0,1,.366,1.681H45.179a.988.988,0,0,0,.327.714,1.061,1.061,0,0,0,.743.266,1.83,1.83,0,0,0,.668-.122,2.984,2.984,0,0,0,.576-.273Zm-.653-2.093a1.155,1.155,0,0,0-.2-.641.705.705,0,0,0-.594-.271.817.817,0,0,0-.623.256,1.116,1.116,0,0,0-.245.656Z"/><path d="M53.789,120.144a2.565,2.565,0,0,0-1.034-.228,1.178,1.178,0,0,0-.263.029.794.794,0,0,0-.26.114.624.624,0,0,0-.2.228.74.74,0,0,0-.078.359.4.4,0,0,0,.1.278,1.137,1.137,0,0,0,.256.2,2.748,2.748,0,0,0,.362.165c.128.056.262.114.4.172a3.2,3.2,0,0,1,.409.2,1.48,1.48,0,0,1,.355.293,1.438,1.438,0,0,1,.256.4,1.711,1.711,0,0,1,.085.576,1.389,1.389,0,0,1-.557,1.217,2.348,2.348,0,0,1-1.347.371,3,3,0,0,1-.661-.062c-.184-.035-.4-.082-.642-.143l.095-.939a2.28,2.28,0,0,0,1.148.323,1.2,1.2,0,0,0,.6-.165.559.559,0,0,0,.3-.51.594.594,0,0,0-.085-.323.85.85,0,0,0-.256-.224,6.245,6.245,0,0,0-.763-.349,2.551,2.551,0,0,1-.4-.209,1.87,1.87,0,0,1-.366-.272,1.43,1.43,0,0,1-.256-.4,1.41,1.41,0,0,1-.1-.55,1.442,1.442,0,0,1,.557-1.248,2.125,2.125,0,0,1,1.215-.353,3.849,3.849,0,0,1,1.215.186Z"/><path d="M58.261,124.208a2.471,2.471,0,0,1-1.286.307,1.782,1.782,0,0,1-1.957-2,2.343,2.343,0,0,1,.437-1.447,1.559,1.559,0,0,1,1.3-.594,1.533,1.533,0,0,1,1.417.653,3.279,3.279,0,0,1,.366,1.681h-2.59a.988.988,0,0,0,.327.714,1.061,1.061,0,0,0,.743.266,1.834,1.834,0,0,0,.668-.122,3,3,0,0,0,.575-.273Zm-.653-2.093a1.147,1.147,0,0,0-.2-.641.705.705,0,0,0-.594-.271.815.815,0,0,0-.622.256,1.109,1.109,0,0,0-.245.656Z"/><path d="M61.972,121.389a1.091,1.091,0,0,0-.277-.106,1.708,1.708,0,0,0-.383-.037.89.89,0,0,0-.714.331,1.355,1.355,0,0,0-.277.9,1.49,1.49,0,0,0,.256.893.87.87,0,0,0,.756.371,1.335,1.335,0,0,0,.422-.071,1.614,1.614,0,0,0,.327-.113l.043.832a1.934,1.934,0,0,1-.437.088,3.155,3.155,0,0,1-.537.041,1.67,1.67,0,0,1-1.375-.587,2.186,2.186,0,0,1-.473-1.454,2.154,2.154,0,0,1,.473-1.43,1.653,1.653,0,0,1,1.339-.575,3.012,3.012,0,0,1,.946.128Z"/><path d="M63.011,120.558h.865v.879h.014a1.29,1.29,0,0,1,.319-.623.915.915,0,0,1,.706-.345,1.529,1.529,0,0,1,.3.031v1.012a.945.945,0,0,0-.436-.081.6.6,0,0,0-.451.165.979.979,0,0,0-.238.413,2.076,2.076,0,0,0-.088.51q-.015.264-.015.486v1.418h-.973Z"/><path d="M68.887,124.208a2.471,2.471,0,0,1-1.286.307,1.782,1.782,0,0,1-1.957-2,2.343,2.343,0,0,1,.437-1.447,1.559,1.559,0,0,1,1.3-.594,1.533,1.533,0,0,1,1.417.653,3.279,3.279,0,0,1,.366,1.681h-2.59a.988.988,0,0,0,.327.714,1.061,1.061,0,0,0,.743.266,1.834,1.834,0,0,0,.668-.122,3,3,0,0,0,.575-.273Zm-.653-2.093a1.147,1.147,0,0,0-.2-.641.705.705,0,0,0-.594-.271.815.815,0,0,0-.622.256,1.109,1.109,0,0,0-.245.656Z"/><path d="M70.49,121.291h-.718v-.733h.718v-.773l.974-.323v1.1h.868v.733h-.868V123.1a.841.841,0,0,0,.092.434.379.379,0,0,0,.366.2.812.812,0,0,0,.445-.107l.028.792a2.429,2.429,0,0,1-.72.092,1.1,1.1,0,0,1-1.185-1.252Z"/><path d="M73.367,120.763a3.193,3.193,0,0,1,1.3-.294,1.412,1.412,0,0,1,1.616,1.627v.495c0,.376.005.7.016.967.01.285.024.574.043.865h-.86a5.052,5.052,0,0,1-.042-.58h-.015a1.217,1.217,0,0,1-.486.489,1.342,1.342,0,0,1-.671.183,1.485,1.485,0,0,1-.9-.3,1,1,0,0,1-.412-.849,1.2,1.2,0,0,1,.188-.7,1.064,1.064,0,0,1,.451-.4,1.993,1.993,0,0,1,.618-.186,5.716,5.716,0,0,1,.639-.036h.54a.856.856,0,0,0-.206-.654.934.934,0,0,0-.639-.182,1.839,1.839,0,0,0-1.154.421Zm.525,2.545a.392.392,0,0,0,.181.353.727.727,0,0,0,.437.122.792.792,0,0,0,.682-.347,1.421,1.421,0,0,0,.206-.8h-.589a1.008,1.008,0,0,0-.175.015,1.333,1.333,0,0,0-.358.089.624.624,0,0,0-.267.2A.526.526,0,0,0,73.892,123.308Z"/><path d="M77.512,120.558h.865v.879h.015a1.279,1.279,0,0,1,.318-.623.915.915,0,0,1,.706-.345,1.547,1.547,0,0,1,.3.031v1.012a.95.95,0,0,0-.437-.081.6.6,0,0,0-.45.165.959.959,0,0,0-.238.413,2.076,2.076,0,0,0-.089.51c-.009.176-.014.338-.014.486v1.418h-.974Z"/><path d="M80.545,118.894h.974v.96h-.974Zm0,1.664h.974v3.865h-.974Z"/><path d="M82.883,120.763a3.194,3.194,0,0,1,1.3-.294A1.411,1.411,0,0,1,85.8,122.1v.495c0,.376,0,.7.016.967.01.285.024.574.043.865H85a5.052,5.052,0,0,1-.042-.58h-.015a1.211,1.211,0,0,1-.486.489,1.342,1.342,0,0,1-.671.183,1.485,1.485,0,0,1-.9-.3,1,1,0,0,1-.412-.849,1.194,1.194,0,0,1,.189-.7,1.056,1.056,0,0,1,.45-.4,2.01,2.01,0,0,1,.618-.186,5.734,5.734,0,0,1,.64-.036h.539a.856.856,0,0,0-.206-.654.934.934,0,0,0-.639-.182,1.842,1.842,0,0,0-1.154.421Zm.525,2.545a.392.392,0,0,0,.181.353.727.727,0,0,0,.437.122.792.792,0,0,0,.682-.347,1.421,1.421,0,0,0,.206-.8h-.589a1.017,1.017,0,0,0-.175.015,1.333,1.333,0,0,0-.358.089.624.624,0,0,0-.267.2A.526.526,0,0,0,83.408,123.308Z"/><path d="M87.325,121.291h-.718v-.733h.718v-.773l.973-.323v1.1h.868v.733H88.3V123.1a.831.831,0,0,0,.093.434.379.379,0,0,0,.366.2.806.806,0,0,0,.444-.107l.028.792a2.42,2.42,0,0,1-.72.092,1.1,1.1,0,0,1-1.184-1.252Z"/><path d="M92.591,121.291h-.719v-.733h.719v-.539a1.4,1.4,0,0,1,.313-.953,1.107,1.107,0,0,1,.877-.359,3.408,3.408,0,0,1,.714.081l-.078.828a.89.89,0,0,0-.16-.095.74.74,0,0,0-.262-.037.354.354,0,0,0-.334.18.861.861,0,0,0-.1.412v.482h.852v.733h-.852v3.132h-.974Z"/><path d="M95.026,122.517a2.031,2.031,0,0,1,.565-1.509,2.08,2.08,0,0,1,2.794,0,2.061,2.061,0,0,1,.561,1.509,2.02,2.02,0,0,1-.511,1.411,2.076,2.076,0,0,1-2.893,0A2.01,2.01,0,0,1,95.026,122.517Zm1.018-.121a1.482,1.482,0,0,0,.018.229c.01.083.021.162.035.238a1.442,1.442,0,0,0,.146.437.809.809,0,0,0,.291.309.737.737,0,0,0,.451.129.819.819,0,0,0,.763-.43,1.372,1.372,0,0,0,.145-.437,3.1,3.1,0,0,0,.035-.475,1.414,1.414,0,0,0-.227-.805.835.835,0,0,0-.716-.345.8.8,0,0,0-.7.353A1.335,1.335,0,0,0,96.044,122.4Z"/><path d="M99.987,120.558h.865v.879h.014a1.282,1.282,0,0,1,.319-.623.914.914,0,0,1,.7-.345,1.539,1.539,0,0,1,.3.031v1.012a.95.95,0,0,0-.437-.081.6.6,0,0,0-.45.165.979.979,0,0,0-.238.413,2.076,2.076,0,0,0-.089.51c-.009.176-.014.338-.014.486v1.418h-.973Z"/><path d="M105.279,119.187h3v.82H106.3v1.3h1.811v.82H106.3V123.6h2v.82h-3.013Z"/><path d="M111.971,123.99h-.014a1.425,1.425,0,0,1-1.15.525,1.342,1.342,0,0,1-1.214-.623,2.614,2.614,0,0,1-.355-1.411,2.579,2.579,0,0,1,.355-1.411,1.345,1.345,0,0,1,1.214-.6,1.33,1.33,0,0,1,1.117.539h.018v-2.214h.975v5.629h-.946Zm-1.715-1.509a1.9,1.9,0,0,0,.177.827.876.876,0,0,0,.252.3.587.587,0,0,0,.393.129.641.641,0,0,0,.415-.129.84.84,0,0,0,.258-.3,1.377,1.377,0,0,0,.145-.408,2.671,2.671,0,0,0,.035-.419,1.8,1.8,0,0,0-.194-.823.953.953,0,0,0-.27-.3.714.714,0,0,0-.4-.11.669.669,0,0,0-.638.412,1.481,1.481,0,0,0-.124.4A2.081,2.081,0,0,0,110.256,122.481Z"/><path d="M117.613,124.423h-.922V123.9h-.015a1.519,1.519,0,0,1-1.226.616,1.1,1.1,0,0,1-.961-.436,1.773,1.773,0,0,1-.313-1.081v-2.44h.974v2.068a1.053,1.053,0,0,0,.015.172c0,.059,0,.121.006.188a1.911,1.911,0,0,0,.064.367.724.724,0,0,0,.191.272.513.513,0,0,0,.355.113.672.672,0,0,0,.443-.143.823.823,0,0,0,.251-.323,1.265,1.265,0,0,0,.132-.415,2.964,2.964,0,0,0,.031-.406v-1.893h.975Z"/><path d="M121.3,121.389a1.077,1.077,0,0,0-.277-.106,1.7,1.7,0,0,0-.383-.037.89.89,0,0,0-.714.331,1.355,1.355,0,0,0-.276.9,1.49,1.49,0,0,0,.255.893.87.87,0,0,0,.757.371,1.339,1.339,0,0,0,.422-.071,1.6,1.6,0,0,0,.326-.113l.043.832a1.923,1.923,0,0,1-.437.088,3.138,3.138,0,0,1-.537.041,1.671,1.671,0,0,1-1.375-.587,2.192,2.192,0,0,1-.473-1.454,2.159,2.159,0,0,1,.473-1.43,1.655,1.655,0,0,1,1.34-.575,3.006,3.006,0,0,1,.945.128Z"/><path d="M122.478,120.763a3.2,3.2,0,0,1,1.3-.294A1.411,1.411,0,0,1,125.4,122.1v.495c0,.376.006.7.017.967.009.285.024.574.043.865h-.86a5.086,5.086,0,0,1-.043-.58h-.014a1.219,1.219,0,0,1-.487.489,1.339,1.339,0,0,1-.671.183,1.482,1.482,0,0,1-.895-.3,1,1,0,0,1-.412-.849,1.194,1.194,0,0,1,.188-.7,1.056,1.056,0,0,1,.45-.4,2.007,2.007,0,0,1,.619-.186,5.7,5.7,0,0,1,.639-.036h.539a.853.853,0,0,0-.206-.654.932.932,0,0,0-.638-.182,1.844,1.844,0,0,0-1.155.421Zm.525,2.545a.39.39,0,0,0,.182.353.725.725,0,0,0,.437.122.79.79,0,0,0,.681-.347,1.413,1.413,0,0,0,.206-.8h-.589a1,1,0,0,0-.174.015,1.35,1.35,0,0,0-.359.089.615.615,0,0,0-.266.2A.522.522,0,0,0,123,123.308Z"/><path d="M126.92,121.291H126.2v-.733h.717v-.773l.974-.323v1.1h.867v.733h-.867V123.1a.831.831,0,0,0,.092.434.379.379,0,0,0,.366.2.8.8,0,0,0,.444-.107l.029.792a2.429,2.429,0,0,1-.72.092,1.1,1.1,0,0,1-1.185-1.252Z"/><path d="M129.656,118.894h.973v.96h-.973Zm0,1.664h.973v3.865h-.973Z"/><path d="M131.589,122.517a2.032,2.032,0,0,1,.566-1.509,2.08,2.08,0,0,1,2.794,0,2.06,2.06,0,0,1,.56,1.509,2.024,2.024,0,0,1-.51,1.411,1.908,1.908,0,0,1-1.453.587,1.889,1.889,0,0,1-1.441-.587A2.01,2.01,0,0,1,131.589,122.517Zm1.019-.121a1.615,1.615,0,0,0,.017.229c.01.083.022.162.036.238a1.469,1.469,0,0,0,.145.437.809.809,0,0,0,.291.309.739.739,0,0,0,.451.129.819.819,0,0,0,.763-.43,1.4,1.4,0,0,0,.146-.437,3.228,3.228,0,0,0,.035-.475,1.407,1.407,0,0,0-.228-.805.833.833,0,0,0-.716-.345.806.806,0,0,0-.7.353A1.334,1.334,0,0,0,132.608,122.4Z"/><path d="M136.528,120.558h.922v.527h.013a1.449,1.449,0,0,1,1.231-.616,1.148,1.148,0,0,1,.972.429,1.834,1.834,0,0,1,.3,1.085v2.44h-.973v-2.066c0-.124,0-.252-.011-.385a1.02,1.02,0,0,0-.071-.351.538.538,0,0,0-.181-.28.757.757,0,0,0-.79.034.974.974,0,0,0-.262.322,1.508,1.508,0,0,0-.132.411,2.326,2.326,0,0,0-.042.422v1.893h-.973Z"/><path d="M141.354,123.372h1.053l-.659,1.876h-.858Z"/><path d="M29.854,129.537h1.1c.279,0,.559,0,.84.007a2.594,2.594,0,0,1,.77.151,1.1,1.1,0,0,1,.568.418,1.511,1.511,0,0,1,.209.842,1.22,1.22,0,0,1-.277.8,1.162,1.162,0,0,1-.771.41v.016a.494.494,0,0,1,.338.19,1.439,1.439,0,0,1,.2.351l.814,2.049H32.515l-.611-1.635a.935.935,0,0,0-.241-.421.739.739,0,0,0-.465-.121h-.326v2.177H29.854Zm1.018,2.24h.333a2.643,2.643,0,0,0,.394-.03,1,1,0,0,0,.34-.1.651.651,0,0,0,.255-.218.771.771,0,0,0,.085-.387.741.741,0,0,0-.085-.382.657.657,0,0,0-.255-.207,1.256,1.256,0,0,0-.34-.088c-.133,0-.264-.008-.394-.008h-.333Z"/><path d="M37.552,134.558a2.474,2.474,0,0,1-1.286.307,1.782,1.782,0,0,1-1.958-2,2.341,2.341,0,0,1,.437-1.447,1.555,1.555,0,0,1,1.3-.594,1.535,1.535,0,0,1,1.418.652,3.3,3.3,0,0,1,.366,1.682H35.238a.99.99,0,0,0,.327.713,1.06,1.06,0,0,0,.743.265,1.847,1.847,0,0,0,.668-.121,2.984,2.984,0,0,0,.576-.273Zm-.653-2.094a1.154,1.154,0,0,0-.2-.64.711.711,0,0,0-.594-.272.826.826,0,0,0-.623.258,1.115,1.115,0,0,0-.245.654Z"/><path d="M41.06,131.72a2.987,2.987,0,0,0-.424-.128,2.579,2.579,0,0,0-.482-.04.918.918,0,0,0-.391.084.367.367,0,0,0-.206.345c0,.146.1.249.278.308.086.034.181.067.286.1s.21.063.315.1a2.282,2.282,0,0,1,.33.135,1.456,1.456,0,0,1,.271.213.873.873,0,0,1,.2.308,1.33,1.33,0,0,1,.069.458,1.1,1.1,0,0,1-.493.968,2.079,2.079,0,0,1-1.113.293,4.432,4.432,0,0,1-1.128-.164l.059-.826a2.064,2.064,0,0,0,1,.257.957.957,0,0,0,.426-.106.375.375,0,0,0,.236-.367.423.423,0,0,0-.07-.249.53.53,0,0,0-.2-.143,5.889,5.889,0,0,0-.6-.195,2.259,2.259,0,0,1-.316-.129,1.083,1.083,0,0,1-.286-.193.847.847,0,0,1-.2-.3,1.145,1.145,0,0,1,.388-1.344,1.838,1.838,0,0,1,1.031-.285,4.478,4.478,0,0,1,.61.036c.17.03.328.065.476.106Z"/><path d="M45.28,134.558a2.471,2.471,0,0,1-1.286.307,1.781,1.781,0,0,1-1.957-2,2.341,2.341,0,0,1,.437-1.447,1.553,1.553,0,0,1,1.3-.594,1.533,1.533,0,0,1,1.417.652,3.283,3.283,0,0,1,.366,1.682h-2.59a.99.99,0,0,0,.327.713,1.06,1.06,0,0,0,.743.265,1.854,1.854,0,0,0,.668-.121,3,3,0,0,0,.575-.273Zm-.653-2.094a1.146,1.146,0,0,0-.2-.64.711.711,0,0,0-.594-.272.823.823,0,0,0-.622.258,1.108,1.108,0,0,0-.245.654Z"/><path d="M46.728,131.113a3.189,3.189,0,0,1,1.3-.293,1.41,1.41,0,0,1,1.616,1.627v.494q0,.566.016.967.015.429.043.865h-.86a5.067,5.067,0,0,1-.042-.579h-.015a1.218,1.218,0,0,1-.486.487,1.336,1.336,0,0,1-.672.184,1.484,1.484,0,0,1-.9-.3,1,1,0,0,1-.412-.85,1.2,1.2,0,0,1,.188-.7,1.058,1.058,0,0,1,.451-.4,2.02,2.02,0,0,1,.618-.186,5.725,5.725,0,0,1,.639-.037h.54a.853.853,0,0,0-.206-.652.929.929,0,0,0-.639-.184,1.858,1.858,0,0,0-1.154.422Zm.525,2.545a.387.387,0,0,0,.181.353.732.732,0,0,0,.437.121.791.791,0,0,0,.682-.345,1.427,1.427,0,0,0,.206-.8h-.59A1.114,1.114,0,0,0,48,133a1.332,1.332,0,0,0-.358.088.627.627,0,0,0-.267.206A.524.524,0,0,0,47.253,133.658Z"/><path d="M50.873,130.908h.865v.879h.014a1.286,1.286,0,0,1,.319-.623.912.912,0,0,1,.705-.344,1.608,1.608,0,0,1,.3.029v1.014a.932.932,0,0,0-.436-.081.594.594,0,0,0-.451.165.957.957,0,0,0-.238.413,2.076,2.076,0,0,0-.089.509c-.009.175-.014.338-.014.487v1.417h-.973Z"/><path d="M56.174,131.74a1.117,1.117,0,0,0-.277-.108,1.826,1.826,0,0,0-.383-.036.887.887,0,0,0-.714.331,1.359,1.359,0,0,0-.277.9,1.481,1.481,0,0,0,.256.892.87.87,0,0,0,.756.372,1.344,1.344,0,0,0,.423-.07,1.619,1.619,0,0,0,.326-.114l.043.833a2.051,2.051,0,0,1-.437.088,3.261,3.261,0,0,1-.537.04,1.669,1.669,0,0,1-1.375-.586,2.193,2.193,0,0,1-.473-1.455,2.151,2.151,0,0,1,.473-1.429,1.652,1.652,0,0,1,1.339-.575,3.044,3.044,0,0,1,.946.127Z"/><path d="M57.191,129.145h.974v2.29h.014a1.344,1.344,0,0,1,1.178-.615,1.146,1.146,0,0,1,.972.428,1.832,1.832,0,0,1,.3,1.085v2.44h-.974v-2.065c0-.125,0-.253-.011-.386a1.012,1.012,0,0,0-.071-.352.537.537,0,0,0-.18-.279.651.651,0,0,0-.372-.095.642.642,0,0,0-.418.128.988.988,0,0,0-.263.323,1.472,1.472,0,0,0-.131.411,2.335,2.335,0,0,0-.042.422v1.893h-.974Z"/><path d="M64.247,131.113a3.193,3.193,0,0,1,1.3-.293,1.41,1.41,0,0,1,1.615,1.627v.494c0,.377,0,.7.017.967.009.286.024.574.042.865h-.859a4.879,4.879,0,0,1-.043-.579h-.014a1.214,1.214,0,0,1-.487.487,1.333,1.333,0,0,1-.671.184,1.487,1.487,0,0,1-.9-.3,1,1,0,0,1-.412-.85,1.191,1.191,0,0,1,.189-.7,1.056,1.056,0,0,1,.45-.4,2.035,2.035,0,0,1,.619-.186,5.711,5.711,0,0,1,.639-.037h.539a.853.853,0,0,0-.206-.652.927.927,0,0,0-.639-.184,1.862,1.862,0,0,0-1.154.422Zm.525,2.545a.388.388,0,0,0,.182.353.73.73,0,0,0,.437.121.789.789,0,0,0,.681-.345,1.427,1.427,0,0,0,.206-.8h-.589a1.1,1.1,0,0,0-.174.015,1.339,1.339,0,0,0-.359.088.624.624,0,0,0-.266.206A.525.525,0,0,0,64.772,133.658Z"/><path d="M68.37,130.908h.922v.527h.014a1.445,1.445,0,0,1,1.231-.615,1.146,1.146,0,0,1,.971.428,1.825,1.825,0,0,1,.3,1.085v2.44h-.974v-2.065c0-.125,0-.253-.011-.386a1.012,1.012,0,0,0-.071-.352.537.537,0,0,0-.18-.279.649.649,0,0,0-.372-.095.642.642,0,0,0-.418.128.973.973,0,0,0-.262.323,1.474,1.474,0,0,0-.132.411,2.335,2.335,0,0,0-.042.422v1.893H68.37Z"/><path d="M75.557,134.339h-.015a1.414,1.414,0,0,1-1.149.526,1.34,1.34,0,0,1-1.214-.623,2.612,2.612,0,0,1-.355-1.41,2.58,2.58,0,0,1,.355-1.412,1.479,1.479,0,0,1,2.332-.061h.017v-2.214H76.5v5.628h-.945Zm-1.715-1.507a1.889,1.889,0,0,0,.178.826.862.862,0,0,0,.251.3.587.587,0,0,0,.393.129.641.641,0,0,0,.415-.129.84.84,0,0,0,.258-.3,1.367,1.367,0,0,0,.145-.408,2.558,2.558,0,0,0,.036-.418,1.808,1.808,0,0,0-.2-.825.955.955,0,0,0-.269-.3.7.7,0,0,0-.4-.111.673.673,0,0,0-.638.411,1.477,1.477,0,0,0-.124.4A2.083,2.083,0,0,0,73.842,132.832Z"/><path d="M79.959,129.537h1.018v5.236H79.959Z"/><path d="M82.157,130.908h.922v.527h.014a1.445,1.445,0,0,1,1.231-.615,1.146,1.146,0,0,1,.971.428,1.825,1.825,0,0,1,.3,1.085v2.44h-.974v-2.065c0-.125,0-.253-.011-.386a1.035,1.035,0,0,0-.07-.352.545.545,0,0,0-.181-.279.76.76,0,0,0-.79.033.973.973,0,0,0-.262.323,1.474,1.474,0,0,0-.132.411,2.335,2.335,0,0,0-.042.422v1.893h-.974Z"/><path d="M86.853,130.908h.922v.527h.014a1.445,1.445,0,0,1,1.231-.615,1.146,1.146,0,0,1,.971.428,1.832,1.832,0,0,1,.3,1.085v2.44h-.974v-2.065c0-.125,0-.253-.011-.386a1.012,1.012,0,0,0-.071-.352.537.537,0,0,0-.18-.279.651.651,0,0,0-.372-.095.642.642,0,0,0-.418.128.988.988,0,0,0-.263.323,1.506,1.506,0,0,0-.131.411,2.335,2.335,0,0,0-.042.422v1.893h-.974Z"/><path d="M91.307,132.868a2.028,2.028,0,0,1,.565-1.509,2.08,2.08,0,0,1,2.794,0,2.052,2.052,0,0,1,.561,1.509,2.025,2.025,0,0,1-.512,1.411,2.078,2.078,0,0,1-2.893,0A2.018,2.018,0,0,1,91.307,132.868Zm1.018-.121a1.457,1.457,0,0,0,.018.227c.01.084.021.163.035.239a1.486,1.486,0,0,0,.146.438.813.813,0,0,0,.291.308.737.737,0,0,0,.451.129.855.855,0,0,0,.471-.122.83.83,0,0,0,.291-.308,1.346,1.346,0,0,0,.146-.438,3.2,3.2,0,0,0,.035-.473,1.416,1.416,0,0,0-.227-.806.834.834,0,0,0-.716-.345.807.807,0,0,0-.7.353A1.344,1.344,0,0,0,92.325,132.747Z"/><path d="M95.75,130.908h1.077l.964,2.818h.014l.918-2.818H99.7l-1.382,3.865H97.182Z"/><path d="M100.694,131.113a3.19,3.19,0,0,1,1.3-.293,1.41,1.41,0,0,1,1.615,1.627v.494q0,.566.016.967.015.429.042.865h-.859a5.067,5.067,0,0,1-.042-.579h-.015a1.218,1.218,0,0,1-.486.487,1.336,1.336,0,0,1-.672.184,1.482,1.482,0,0,1-.9-.3,1,1,0,0,1-.412-.85,1.2,1.2,0,0,1,.188-.7,1.064,1.064,0,0,1,.451-.4,2.037,2.037,0,0,1,.618-.186,5.725,5.725,0,0,1,.639-.037h.54a.853.853,0,0,0-.206-.652.932.932,0,0,0-.64-.184,1.86,1.86,0,0,0-1.153.422Zm.525,2.545a.389.389,0,0,0,.181.353.732.732,0,0,0,.437.121.791.791,0,0,0,.682-.345,1.427,1.427,0,0,0,.206-.8h-.59a1.114,1.114,0,0,0-.174.015,1.323,1.323,0,0,0-.358.088.633.633,0,0,0-.267.206A.524.524,0,0,0,101.219,133.658Z"/><path d="M105.135,131.64h-.718v-.732h.718v-.774l.974-.322v1.1h.868v.732h-.868v1.809a.823.823,0,0,0,.093.433.377.377,0,0,0,.366.206.826.826,0,0,0,.444-.106l.029.791a2.47,2.47,0,0,1-.721.092,1.1,1.1,0,0,1-1.185-1.251Z"/><path d="M107.872,129.244h.973v.961h-.973Zm0,1.664h.973v3.865h-.973Z"/><path d="M109.8,132.868a2.029,2.029,0,0,1,.566-1.509,2.08,2.08,0,0,1,2.794,0,2.056,2.056,0,0,1,.56,1.509,2.024,2.024,0,0,1-.511,1.411,2.078,2.078,0,0,1-2.893,0A2.014,2.014,0,0,1,109.8,132.868Zm1.019-.121a1.587,1.587,0,0,0,.017.227c.01.084.022.163.035.239a1.516,1.516,0,0,0,.146.438.813.813,0,0,0,.291.308.739.739,0,0,0,.451.129.856.856,0,0,0,.472-.122.838.838,0,0,0,.291-.308,1.37,1.37,0,0,0,.145-.438,3.071,3.071,0,0,0,.036-.473,1.416,1.416,0,0,0-.228-.806.833.833,0,0,0-.716-.345.8.8,0,0,0-.7.353A1.337,1.337,0,0,0,110.823,132.747Z"/><path d="M114.743,130.908h.922v.527h.014a1.445,1.445,0,0,1,1.231-.615,1.146,1.146,0,0,1,.971.428,1.825,1.825,0,0,1,.3,1.085v2.44h-.974v-2.065c0-.125,0-.253-.011-.386a1.035,1.035,0,0,0-.07-.352.552.552,0,0,0-.181-.279.651.651,0,0,0-.372-.095.642.642,0,0,0-.418.128.976.976,0,0,0-.263.323,1.506,1.506,0,0,0-.131.411,2.341,2.341,0,0,0-.043.422v1.893h-.973Z"/><path d="M124.451,130.494a2.565,2.565,0,0,0-1.034-.228,1.246,1.246,0,0,0-.263.029.791.791,0,0,0-.259.115.608.608,0,0,0-.2.226.746.746,0,0,0-.078.36.411.411,0,0,0,.1.279,1.188,1.188,0,0,0,.256.2,2.808,2.808,0,0,0,.362.165c.128.056.262.114.4.173a3.546,3.546,0,0,1,.408.193,1.512,1.512,0,0,1,.355.294,1.416,1.416,0,0,1,.256.4,1.715,1.715,0,0,1,.085.576,1.388,1.388,0,0,1-.557,1.217,2.34,2.34,0,0,1-1.346.371,2.985,2.985,0,0,1-.661-.063c-.185-.033-.4-.081-.643-.141l.1-.941a2.275,2.275,0,0,0,1.147.324,1.175,1.175,0,0,0,.6-.166.56.56,0,0,0,.3-.509.6.6,0,0,0-.085-.323.863.863,0,0,0-.256-.224,6.333,6.333,0,0,0-.764-.349,2.512,2.512,0,0,1-.4-.209,1.906,1.906,0,0,1-.366-.271,1.466,1.466,0,0,1-.256-.4,1.41,1.41,0,0,1-.1-.55,1.44,1.44,0,0,1,.558-1.248,2.128,2.128,0,0,1,1.215-.352,3.819,3.819,0,0,1,1.214.185Z"/><path d="M126.006,129.537h3v.82h-1.981v1.3h1.81v.819h-1.81v1.478h2v.82h-3.013Z"/><path d="M130.208,129.537h1.1c.279,0,.56,0,.841.007a2.607,2.607,0,0,1,.77.151,1.1,1.1,0,0,1,.568.418,1.511,1.511,0,0,1,.209.842,1.22,1.22,0,0,1-.277.8,1.162,1.162,0,0,1-.771.41v.016a.494.494,0,0,1,.338.19,1.472,1.472,0,0,1,.2.351l.813,2.049h-1.131l-.611-1.635a.935.935,0,0,0-.241-.421.739.739,0,0,0-.465-.121h-.327v2.177h-1.017Zm1.017,2.24h.334a2.643,2.643,0,0,0,.394-.03.992.992,0,0,0,.339-.1.654.654,0,0,0,.256-.218.771.771,0,0,0,.085-.387.741.741,0,0,0-.085-.382.66.66,0,0,0-.256-.207,1.239,1.239,0,0,0-.339-.088c-.133,0-.264-.008-.394-.008h-.334Z"/><path d="M134.9,129.537h1.017v5.236H134.9Z"/><path class="cls-2" d="M21.266,25.807a28.69,28.69,0,0,0-10.613-1.739h0A28.693,28.693,0,0,0,.037,25.807s-.356,7.7,1.151,12.047a16.087,16.087,0,0,0,9.462,9.8h0a16.09,16.09,0,0,0,9.462-9.8C21.622,33.5,21.266,25.807,21.266,25.807Z"/><polygon class="cls-3" points="17.705 32.441 17.705 36.682 12.758 36.682 12.758 41.629 8.518 41.629 8.518 36.682 3.571 36.682 3.571 32.441 8.518 32.441 8.518 27.495 12.757 27.495 12.758 32.441 17.705 32.441"/></g></g></svg>