<?xml version="1.0" encoding="UTF-8" standalone="no"?>
<svg
   id="Icon"
   viewBox="0 0 500 500"
   version="1.1"
   sodipodi:docname="FutuRaM_Mining-ICON.svg"
   inkscape:export-filename="FutuRaM_Mining-ICON.png"
   inkscape:export-xdpi="600"
   inkscape:export-ydpi="600"
   inkscape:version="1.2.2 (b0a8486541, 2022-12-01)"
   xmlns:inkscape="http://www.inkscape.org/namespaces/inkscape"
   xmlns:sodipodi="http://sodipodi.sourceforge.net/DTD/sodipodi-0.dtd"
   xmlns="http://www.w3.org/2000/svg"
   xmlns:svg="http://www.w3.org/2000/svg">
  <defs
     id="defs18" />
  <sodipodi:namedview
     id="namedview16"
     pagecolor="#ffffff"
     bordercolor="#666666"
     borderopacity="1.0"
     inkscape:showpageshadow="2"
     inkscape:pageopacity="0.0"
     inkscape:pagecheckerboard="0"
     inkscape:deskcolor="#d1d1d1"
     showgrid="false"
     inkscape:zoom="1.3350176"
     inkscape:cx="268.16126"
     inkscape:cy="247.93681"
     inkscape:window-width="1920"
     inkscape:window-height="1043"
     inkscape:window-x="0"
     inkscape:window-y="0"
     inkscape:window-maximized="1"
     inkscape:current-layer="Icon" />
  <g
     id="g10">
    <circle
       cx="216.84"
       cy="235.00999"
       r="12.15"
       id="circle2" />
    <circle
       cx="163.44"
       cy="235.00999"
       r="12.15"
       id="circle4" />
    <path
       d="m 122.77,164.47 13.87,70.54 h 9.26 c 0,-9.68 7.85,-17.53 17.53,-17.53 9.68,0 17.53,7.85 17.53,17.53 h 18.33 c 0,-9.68 7.85,-17.53 17.53,-17.53 9.68,0 17.53,7.85 17.53,17.53 h 9.52 l 13.87,-70.54 z"
       id="path6" />
    <path
       d="m 136.29,158.32 h 106.23 c 2.62,0 4.61,-2.35 4.18,-4.94 l -1.54,-9.15 c -0.12,-0.73 -0.43,-1.41 -0.9,-1.99 l -9.52,-11.58 c -1.14,-1.38 -3.01,-1.9 -4.7,-1.3 l -19.11,6.84 c -2.02,0.72 -4.26,-0.18 -5.22,-2.1 v 0 c -0.91,-1.82 -2.99,-2.74 -4.95,-2.19 l -8.42,2.39 c -1.24,0.35 -2.58,0.12 -3.63,-0.64 l -10.13,-7.31 c -0.56,-0.4 -1.2,-0.66 -1.88,-0.76 l -15.45,-2.2 c -2.23,-0.32 -4.32,1.17 -4.75,3.38 l -1.06,5.4 c -0.25,1.28 -1.08,2.38 -2.25,2.97 l -14.99,7.55 c -0.81,0.41 -1.47,1.07 -1.88,1.88 l -3.81,7.59 c -1.41,2.82 0.63,6.13 3.78,6.13 z"
       id="path8" />
  </g>
  <path
     d="M 298.94218,91.427554 V 298.94218 H 91.427554 V 91.427554 H 298.94218 M 315.36973,75 H 75 v 240.36973 h 240.36973 z"
     id="path12"
     style="stroke-width:0.686771" />
</svg>
