<?xml version="1.0" encoding="UTF-8" standalone="no"?>
<svg
   id="Icon"
   viewBox="0 0 500 500"
   version="1.1"
   sodipodi:docname="FutuRaM_Slags-ICON.svg"
   inkscape:version="1.2.2 (b0a8486541, 2022-12-01)"
   inkscape:export-filename="FutuRaM_Slags-ICON.png"
   inkscape:export-xdpi="600"
   inkscape:export-ydpi="600"
   xmlns:inkscape="http://www.inkscape.org/namespaces/inkscape"
   xmlns:sodipodi="http://sodipodi.sourceforge.net/DTD/sodipodi-0.dtd"
   xmlns="http://www.w3.org/2000/svg"
   xmlns:svg="http://www.w3.org/2000/svg">
  <defs
     id="defs18" />
  <sodipodi:namedview
     id="namedview16"
     pagecolor="#ffffff"
     bordercolor="#666666"
     borderopacity="1.0"
     inkscape:showpageshadow="2"
     inkscape:pageopacity="0.0"
     inkscape:pagecheckerboard="0"
     inkscape:deskcolor="#d1d1d1"
     showgrid="false"
     inkscape:zoom="0.944"
     inkscape:cx="329.44915"
     inkscape:cy="401.48305"
     inkscape:window-width="1920"
     inkscape:window-height="1043"
     inkscape:window-x="0"
     inkscape:window-y="0"
     inkscape:window-maximized="1"
     inkscape:current-layer="Icon" />
  <g
     id="g10">
    <g
       id="g6">
      <path
         d="m 244.25,168.66 c -7.92,-5.58 -19,-2.35 -22.84,6.55 v 0 c 0,0 10.48,6.19 10.48,6.19 5.38,3.18 8.58,9.05 8.32,15.3 l -1.94,47.13 -0.11,0.8 c -0.11,0.8 -0.11,1.6 -0.02,2.36 v 0.03 c 0,0 0,0 0,0 0.54,4.87 4.68,8.78 9.84,8.74 5.46,-0.04 9.77,-4.72 9.77,-10.18 v -50.64 c 0,-10.89 -5.36,-20.52 -13.52,-26.27 z"
         id="path2" />
      <path
         d="m 194.63,122.84 -10.96,30.79 c -5.1,2.57 -9.1,7.22 -10.64,13.16 -2.84,10.98 3.83,22.2 14.88,25.05 11.06,2.86 22.32,-3.73 25.15,-14.71 1.53,-5.94 0.28,-11.95 -2.94,-16.67 l 6.09,-37.62 z"
         id="path4" />
    </g>
    <path
       d="m 219.21,179.74 c -0.64,2.01 -1.51,3.97 -2.65,5.85 -7.79,12.85 -24.59,16.91 -37.53,9.07 -12.94,-7.84 -17.11,-24.62 -9.32,-37.47 1.14,-1.88 2.47,-3.56 3.96,-5.06 l -16.57,-10.04 -34.32,75.61 62.77,38.04 46.88,-59.94 c 2.27,-2.91 1.5,-7.15 -1.66,-9.06 l -11.55,-7 z"
       id="path8" />
  </g>
  <path
     d="M 318.25143,92.844008 V 318.25143 H 92.844008 V 92.844008 H 318.25143 M 336.09544,75 H 75 v 261.09544 h 261.09544 z"
     id="path12"
     style="stroke-width:0.745987" />
</svg>
