<?xml version="1.0" encoding="UTF-8" standalone="no"?>
<svg
   id="Icon"
   viewBox="0 0 500 500"
   version="1.1"
   sodipodi:docname="FutuRaM_Construction-ICON.svg"
   inkscape:export-filename="FutuRaM_Construction-ICON.png"
   inkscape:export-xdpi="600"
   inkscape:export-ydpi="600"
   inkscape:version="1.2.2 (b0a8486541, 2022-12-01)"
   xmlns:inkscape="http://www.inkscape.org/namespaces/inkscape"
   xmlns:sodipodi="http://sodipodi.sourceforge.net/DTD/sodipodi-0.dtd"
   xmlns="http://www.w3.org/2000/svg"
   xmlns:svg="http://www.w3.org/2000/svg">
  <defs
     id="defs14" />
  <sodipodi:namedview
     id="namedview12"
     pagecolor="#ffffff"
     bordercolor="#666666"
     borderopacity="1.0"
     inkscape:showpageshadow="2"
     inkscape:pageopacity="0.0"
     inkscape:pagecheckerboard="0"
     inkscape:deskcolor="#d1d1d1"
     showgrid="false"
     inkscape:zoom="0.944"
     inkscape:cx="-179.02542"
     inkscape:cy="111.22881"
     inkscape:window-width="1920"
     inkscape:window-height="1043"
     inkscape:window-x="0"
     inkscape:window-y="0"
     inkscape:window-maximized="1"
     inkscape:current-layer="Icon" />
  <g
     id="g6">
    <rect
       x="122.77"
       y="218.69"
       width="76.730003"
       height="16.6"
       rx="8.1400003"
       ry="8.1400003"
       id="rect2" />
    <path
       d="m 232.01,177.45 v -46.77 c 0,0 -0.06,0 -0.06,0 l -0.03,-2.62 c -0.43,-4.79 -6.37,-7.04 -9.86,-3.49 l -38.27,38.84 -0.84,-6.95 h -29.61 v 25.96 h -20.67 v 29.28 h 56.92 l -1.83,-15.26 38.83,-52.38 v 33.45 c -14.09,1.53 -25.05,13.46 -25.05,27.94 0,15.53 12.59,28.11 28.11,28.11 15.52,0 28.11,-12.59 28.11,-28.11 0,-15.52 -11.34,-26.81 -25.76,-28.01 z"
       id="path4" />
  </g>
  <path
     d="M 298.99833,91.431673 V 298.99833 H 91.431673 V 91.431673 H 298.99833 M 315.43,75 H 75 v 240.43 h 240.43 z"
     id="path8"
     style="stroke-width:0.686943" />
</svg>
