<svg xmlns="http://www.w3.org/2000/svg" viewBox="0 0 328.167 82.967"><defs><style>.cls-1{fill:#212125;}.cls-2{fill:red;}.cls-3{fill:#fff;}</style></defs><g id="Ebene_2" data-name="Ebene 2"><g id="EN_-_KENNZEICHNUNG_quer_p_o_s_i_t_i_v" data-name="EN - KENNZEICHNUNG quer / p o s i t i v"><path class="cls-1" d="M1.314.768H3.437c1.823,0,3.49.527,3.49,2.53C6.927,5.253,5.5,5.961,3.7,5.961H2.994V9.139H1.314Zm1.68,3.874h.587c.839,0,1.6-.276,1.6-1.247s-.731-1.308-1.6-1.308H2.994Z"/><path class="cls-1" d="M8.022,2.962H9.449v1.4h.025a1.89,1.89,0,0,1,1.691-1.547,1.752,1.752,0,0,1,.491.048V4.486a1.633,1.633,0,0,0-.719-.132c-1.308,0-1.308,1.631-1.308,2.519V9.139H8.022Z"/><path class="cls-1" d="M15.269,2.819a3.093,3.093,0,0,1,3.238,3.274,3.052,3.052,0,0,1-3.238,3.19,3.049,3.049,0,0,1-3.227-3.19A3.091,3.091,0,0,1,15.269,2.819Zm0,5.217c1.235,0,1.559-1.1,1.559-2.135a1.575,1.575,0,1,0-3.106,0C13.722,6.92,14.045,8.036,15.269,8.036Z"/><path class="cls-1" d="M18.823,10.554c.864-.048.983-.216.983-1.175V2.962h1.608V9.6c0,.875-.252,2.207-1.859,2.207a3.182,3.182,0,0,1-.792-.1ZM19.806.3h1.608V1.835H19.806Z"/><path class="cls-1" d="M28.06,8.792a4.254,4.254,0,0,1-2.123.491,2.935,2.935,0,0,1-3.227-3.2c0-1.787.948-3.262,2.867-3.262,2.291,0,2.938,1.571,2.938,3.729H24.246a1.615,1.615,0,0,0,1.763,1.56,4.165,4.165,0,0,0,2.051-.624ZM26.98,5.445c-.048-.779-.408-1.451-1.307-1.451a1.4,1.4,0,0,0-1.427,1.451Z"/><path class="cls-1" d="M33.784,4.294a2.423,2.423,0,0,0-1.091-.228c-1,0-1.631.791-1.631,1.955,0,1.139.539,2.015,1.667,2.015a3.4,3.4,0,0,0,1.235-.288l.072,1.331a5.239,5.239,0,0,1-1.607.2c-2.027,0-3.047-1.379-3.047-3.262a2.923,2.923,0,0,1,2.987-3.2,5.262,5.262,0,0,1,1.559.2Z"/><path class="cls-1" d="M35.634,4.138H34.446V2.962h1.188V1.727l1.607-.516V2.962h1.427V4.138H37.241V7.016c0,.528.144,1.02.755,1.02a1.436,1.436,0,0,0,.732-.168l.048,1.271a4.231,4.231,0,0,1-1.188.144,1.816,1.816,0,0,1-1.954-2Z"/><path class="cls-1" d="M43.7,4.138H42.51V2.962H43.7V2.1A1.889,1.889,0,0,1,45.665,0,5.671,5.671,0,0,1,46.84.132l-.132,1.331a1.249,1.249,0,0,0-.7-.215c-.539,0-.707.467-.707.947v.767h1.4V4.138h-1.4v5H43.7Z"/><path class="cls-1" d="M53.451,9.139H51.927V8.3H51.9a2.576,2.576,0,0,1-2.027.983c-1.462,0-2.1-1.032-2.1-2.423v-3.9h1.607v3.3c0,.755.012,1.775,1.043,1.775,1.164,0,1.415-1.26,1.415-2.051V2.962h1.608Z"/><path class="cls-1" d="M55.11,2.962h1.523V3.8h.024a2.306,2.306,0,0,1,2.027-.983c1.463,0,2.1,1.031,2.1,2.422v3.9H59.175v-3.3c0-.756-.011-1.775-1.043-1.775-1.163,0-1.415,1.259-1.415,2.051V9.139H55.11Z"/><path class="cls-1" d="M66.556,8.443h-.024a2.294,2.294,0,0,1-1.895.84c-1.9,0-2.591-1.559-2.591-3.25s.7-3.214,2.591-3.214a2.191,2.191,0,0,1,1.846.863h.024V.144h1.608V9.139H66.556Zm-1.475-.407c1.067,0,1.415-1.128,1.415-2s-.408-1.967-1.44-1.967-1.331,1.14-1.331,1.967C63.725,6.884,64.025,8.036,65.081,8.036Z"/><path class="cls-1" d="M74.727,8.792a4.249,4.249,0,0,1-2.123.491,2.934,2.934,0,0,1-3.226-3.2c0-1.787.948-3.262,2.867-3.262,2.29,0,2.938,1.571,2.938,3.729h-4.27a1.615,1.615,0,0,0,1.763,1.56,4.165,4.165,0,0,0,2.051-.624ZM73.648,5.445c-.048-.779-.408-1.451-1.308-1.451a1.4,1.4,0,0,0-1.427,1.451Z"/><path class="cls-1" d="M80.56,8.443h-.024a2.294,2.294,0,0,1-1.895.84c-1.9,0-2.591-1.559-2.591-3.25s.7-3.214,2.591-3.214a2.191,2.191,0,0,1,1.846.863h.024V.144h1.608V9.139H80.56Zm-1.476-.407c1.068,0,1.416-1.128,1.416-2s-.408-1.967-1.44-1.967-1.331,1.14-1.331,1.967C77.729,6.884,78.029,8.036,79.084,8.036Z"/><path class="cls-1" d="M87.114.144h1.607v3.61h.024a2.163,2.163,0,0,1,1.846-.935c1.9,0,2.591,1.511,2.591,3.214s-.7,3.25-2.591,3.25a2.258,2.258,0,0,1-1.894-.9h-.025v.755H87.114Zm3.034,7.892c1.056,0,1.355-1.152,1.355-2,0-.827-.288-1.967-1.331-1.967s-1.439,1.1-1.439,1.967S89.081,8.036,90.148,8.036Z"/><path class="cls-1" d="M97.012,7.472h.024l1.487-4.51h1.631L97.839,9.091c-.515,1.367-.887,2.711-2.566,2.711a4.1,4.1,0,0,1-1.14-.168l.109-1.188a2.337,2.337,0,0,0,.827.108,1,1,0,0,0,1.044-1.1L93.75,2.962h1.775Z"/><path d="M29.9,30.461a1.882,1.882,0,0,0,1.123.309,1.253,1.253,0,0,0,.814-.264,1.01,1.01,0,0,0,.327-.811.8.8,0,0,0-.363-.645,2.509,2.509,0,0,0-.373-.257c-.139-.08-.283-.16-.43-.238s-.284-.176-.419-.271a2.342,2.342,0,0,1-.38-.3,1.077,1.077,0,0,1-.362-.817,1.237,1.237,0,0,1,.472-1.009,1.815,1.815,0,0,1,1.132-.359,4.182,4.182,0,0,1,.465.029,3.155,3.155,0,0,1,.533.142l-.082.469a1.982,1.982,0,0,0-.924-.194,1.953,1.953,0,0,0-.384.037,1.1,1.1,0,0,0-.359.157.787.787,0,0,0-.252.272.86.86,0,0,0-.1.436.615.615,0,0,0,.1.345,1.05,1.05,0,0,0,.259.279,3.4,3.4,0,0,0,.38.238q.2.122.423.249a2.94,2.94,0,0,1,.8.569,1.3,1.3,0,0,1,.27.392,1.359,1.359,0,0,1,.092.517,1.305,1.305,0,0,1-.529,1.133,1.953,1.953,0,0,1-1.135.349,2.727,2.727,0,0,1-1.146-.226Z"/><path d="M36.734,27.806a1.923,1.923,0,0,0-.8-.2,1.266,1.266,0,0,0-1.022.441,1.742,1.742,0,0,0-.373,1.16,1.723,1.723,0,0,0,.366,1.121,1.178,1.178,0,0,0,.98.481,2.135,2.135,0,0,0,.838-.173l.043.442a3.018,3.018,0,0,1-.951.134,1.591,1.591,0,0,1-1.33-.609,2.223,2.223,0,0,1-.443-1.4,2.06,2.06,0,0,1,.507-1.447,1.719,1.719,0,0,1,1.322-.557,2.643,2.643,0,0,1,.568.051,1.939,1.939,0,0,1,.2.047,1.2,1.2,0,0,1,.124.051Z"/><path d="M38.24,25.5h.453v2.444h.015a1.357,1.357,0,0,1,.45-.532,1.3,1.3,0,0,1,.7-.2,1.1,1.1,0,0,1,1.011.451,2.272,2.272,0,0,1,.255,1.176v2.29h-.454V28.84a3.879,3.879,0,0,0-.028-.481,1.089,1.089,0,0,0-.124-.381.738.738,0,0,0-.728-.367.928.928,0,0,0-.854.473,1.967,1.967,0,0,0-.245.991v2.05H38.24Z"/><path d="M46.808,31.125h-.554l-1.008-3.313h-.017l-1.008,3.313h-.554L42.475,27.3h.5l.972,3.312h.014L45,27.3h.553l.98,3.312h.014L47.57,27.3h.458Z"/><path d="M51.9,31.006a3.038,3.038,0,0,1-1.075.211,1.523,1.523,0,0,1-1.3-.579,2.375,2.375,0,0,1-.383-1.426,2.324,2.324,0,0,1,.436-1.447,1.357,1.357,0,0,1,1.125-.557,1.289,1.289,0,0,1,1.135.564,2.45,2.45,0,0,1,.341,1.334v.242H49.64a1.632,1.632,0,0,0,.312,1.028,1.061,1.061,0,0,0,.91.438,1.814,1.814,0,0,0,.569-.1,1.839,1.839,0,0,0,.472-.188Zm-.222-2.061a1.909,1.909,0,0,0-.213-.921.809.809,0,0,0-.737-.413.966.966,0,0,0-.793.42,1.515,1.515,0,0,0-.3.914Z"/><path d="M54.211,26.277h-.454v-.629h.454ZM53.757,27.3h.454v3.825h-.454Z"/><path d="M55.665,30.729,57.9,27.7H55.682v-.4h2.745v.4l-2.3,3.019h2.3v.4H55.665Z"/><path d="M62.409,31.006a3.047,3.047,0,0,1-1.076.211,1.521,1.521,0,0,1-1.3-.579,2.368,2.368,0,0,1-.384-1.426,2.325,2.325,0,0,1,.437-1.447,1.353,1.353,0,0,1,1.124-.557,1.289,1.289,0,0,1,1.135.564,2.45,2.45,0,0,1,.341,1.334v.242H60.145a1.627,1.627,0,0,0,.313,1.028,1.058,1.058,0,0,0,.909.438,1.809,1.809,0,0,0,.569-.1,1.863,1.863,0,0,0,.473-.188Zm-.222-2.061a1.91,1.91,0,0,0-.214-.921.807.807,0,0,0-.736-.413.963.963,0,0,0-.793.42,1.516,1.516,0,0,0-.3.914Z"/><path d="M64.263,28.153q0-.531-.029-.853h.454v.732H64.7a1.658,1.658,0,0,1,.369-.574.8.8,0,0,1,.582-.25,1.526,1.526,0,0,1,.32.044v.491a1.179,1.179,0,0,0-.334-.044.772.772,0,0,0-.444.135,1.01,1.01,0,0,0-.283.367,1.917,1.917,0,0,0-.146.488,3.108,3.108,0,0,0-.05.543v1.893h-.453Z"/><path d="M67.8,26.277h-.453v-.629H67.8ZM67.347,27.3H67.8v3.825h-.453Z"/><path d="M69.315,30.571a2,2,0,0,0,.964.243.913.913,0,0,0,.581-.187.593.593,0,0,0,.241-.495.646.646,0,0,0-.269-.536,3.2,3.2,0,0,0-.618-.337c-.111-.054-.217-.112-.319-.173a2.683,2.683,0,0,1-.291-.2,1.1,1.1,0,0,1-.206-.279.771.771,0,0,1-.077-.353.9.9,0,0,1,.375-.81,1.482,1.482,0,0,1,.829-.235,3.911,3.911,0,0,1,.415.029,2.638,2.638,0,0,1,.5.142l-.043.412a2.163,2.163,0,0,0-.824-.18,1.046,1.046,0,0,0-.564.132.465.465,0,0,0-.171.191.654.654,0,0,0-.064.315.358.358,0,0,0,.082.224.8.8,0,0,0,.209.18c.088.051.187.1.3.158s.221.106.327.165a2.074,2.074,0,0,1,.632.421,1.115,1.115,0,0,1,.16,1.233,1.054,1.054,0,0,1-.312.337,1.628,1.628,0,0,1-.864.25,3.007,3.007,0,0,1-1.034-.182Z"/><path d="M75.514,27.806a1.922,1.922,0,0,0-.8-.2,1.267,1.267,0,0,0-1.023.441,1.746,1.746,0,0,0-.372,1.16,1.723,1.723,0,0,0,.365,1.121,1.178,1.178,0,0,0,.98.481,2.132,2.132,0,0,0,.838-.173l.043.442a3.01,3.01,0,0,1-.951.134,1.591,1.591,0,0,1-1.33-.609,2.229,2.229,0,0,1-.443-1.4,2.069,2.069,0,0,1,.507-1.447,1.72,1.72,0,0,1,1.323-.557,2.656,2.656,0,0,1,.568.051,1.916,1.916,0,0,1,.2.047,1.2,1.2,0,0,1,.124.051Z"/><path d="M77.021,25.5h.453v2.444h.014a1.373,1.373,0,0,1,.45-.532,1.309,1.309,0,0,1,.7-.2,1.1,1.1,0,0,1,1.01.451,2.262,2.262,0,0,1,.256,1.176v2.29h-.454V28.84a3.879,3.879,0,0,0-.028-.481,1.11,1.11,0,0,0-.125-.381.737.737,0,0,0-.728-.367.927.927,0,0,0-.853.473,1.967,1.967,0,0,0-.245.991v2.05h-.453Z"/><path d="M84.262,31.006a3.047,3.047,0,0,1-1.076.211,1.521,1.521,0,0,1-1.3-.579,2.368,2.368,0,0,1-.384-1.426,2.325,2.325,0,0,1,.437-1.447,1.353,1.353,0,0,1,1.124-.557,1.288,1.288,0,0,1,1.135.564,2.45,2.45,0,0,1,.341,1.334v.242H82a1.627,1.627,0,0,0,.313,1.028,1.058,1.058,0,0,0,.909.438,1.809,1.809,0,0,0,.569-.1,1.848,1.848,0,0,0,.473-.188Zm-.222-2.061a1.91,1.91,0,0,0-.214-.921.807.807,0,0,0-.736-.413.963.963,0,0,0-.793.42,1.516,1.516,0,0,0-.3.914Z"/><path d="M88.612,25.889h2.479v.447H89.11v1.873h1.882v.446H89.11v2.023h2.07v.447H88.612Z"/><path d="M93.352,26.277H92.9v-.629h.454ZM92.9,27.3h.454v3.825H92.9Z"/><path d="M98.081,31.125h-.454v-.608h-.014a1.2,1.2,0,0,1-1.156.7,1.32,1.32,0,0,1-1.139-.579,2.464,2.464,0,0,1-.387-1.426,2.5,2.5,0,0,1,.359-1.44,1.3,1.3,0,0,1,1.167-.564,1.27,1.27,0,0,1,.482.084,1.077,1.077,0,0,1,.348.208,1.023,1.023,0,0,1,.326.441h.014V25.5h.454Zm-2.652-1.913a3,3,0,0,0,.05.548,2.12,2.12,0,0,0,.174.529,1.132,1.132,0,0,0,.341.367.858.858,0,0,0,.534.158.867.867,0,0,0,.523-.158,1.1,1.1,0,0,0,.338-.382,2.358,2.358,0,0,0,.238-1.062,3.274,3.274,0,0,0-.049-.558,2.02,2.02,0,0,0-.189-.51,1.128,1.128,0,0,0-.338-.39.933.933,0,0,0-.523-.143.922.922,0,0,0-.534.143.986.986,0,0,0-.341.375,1.819,1.819,0,0,0-.174.511A3.251,3.251,0,0,0,95.429,29.212Z"/><path d="M102.839,30.81a2.337,2.337,0,0,1-.382,1.367,1.6,1.6,0,0,1-1.353.568,3.212,3.212,0,0,1-.67-.08c-.2-.052-.349-.092-.451-.121l.04-.47a2.336,2.336,0,0,0,1.091.268,1.354,1.354,0,0,0,.7-.165.915.915,0,0,0,.388-.421,1.852,1.852,0,0,0,.167-.622q.029-.351.029-.757h-.015a1.2,1.2,0,0,1-1.125.748,1.319,1.319,0,0,1-1.221-.645,1.832,1.832,0,0,1-.255-.615,2.846,2.846,0,0,1,.27-2.093,1.3,1.3,0,0,1,1.167-.564,2.211,2.211,0,0,1,.642.084,1.212,1.212,0,0,1,.515.437h.014V27.3h.453Zm-2.652-1.6a1.976,1.976,0,0,0,.246,1.029.891.891,0,0,0,.825.481.946.946,0,0,0,.879-.5,2.121,2.121,0,0,0,.249-1.015,2.473,2.473,0,0,0-.231-1.153,1.067,1.067,0,0,0-1.4-.3.994.994,0,0,0-.341.375,1.863,1.863,0,0,0-.174.511A3.349,3.349,0,0,0,100.187,29.212Z"/><path d="M107.15,31.006a3.038,3.038,0,0,1-1.075.211,1.523,1.523,0,0,1-1.3-.579,2.375,2.375,0,0,1-.383-1.426,2.331,2.331,0,0,1,.436-1.447,1.357,1.357,0,0,1,1.125-.557,1.289,1.289,0,0,1,1.135.564,2.45,2.45,0,0,1,.341,1.334v.242h-2.539a1.632,1.632,0,0,0,.312,1.028,1.061,1.061,0,0,0,.91.438,1.809,1.809,0,0,0,.569-.1,1.839,1.839,0,0,0,.472-.188Zm-.222-2.061a1.909,1.909,0,0,0-.213-.921.808.808,0,0,0-.736-.413.963.963,0,0,0-.793.42,1.51,1.51,0,0,0-.3.914Z"/><path d="M109.005,28.2q0-.439-.029-.9h.443v.681h.014a2.308,2.308,0,0,1,.152-.271,1.042,1.042,0,0,1,.217-.245,1.008,1.008,0,0,1,.34-.191,1.584,1.584,0,0,1,.485-.066,1.143,1.143,0,0,1,.981.421,1.785,1.785,0,0,1,.283,1.048v2.448h-.453V28.8a1.669,1.669,0,0,0-.2-.87.79.79,0,0,0-.685-.315.938.938,0,0,0-.861.448,1.422,1.422,0,0,0-.181.443,2.322,2.322,0,0,0-.056.506v2.117h-.454Z"/><path d="M113.477,29.212a2.311,2.311,0,0,1,.422-1.4,1.523,1.523,0,0,1,1.306-.608,1.546,1.546,0,0,1,1.322.608,2.575,2.575,0,0,1,0,2.785,1.549,1.549,0,0,1-1.322.616A1.526,1.526,0,0,1,113.9,30.6,2.315,2.315,0,0,1,113.477,29.212Zm.5,0a1.884,1.884,0,0,0,.32,1.128,1.036,1.036,0,0,0,.912.474,1.071,1.071,0,0,0,.925-.474,1.944,1.944,0,0,0,.306-1.128,2,2,0,0,0-.306-1.142,1.083,1.083,0,0,0-.925-.459,1.046,1.046,0,0,0-.912.459A1.941,1.941,0,0,0,113.975,29.212Z"/><path d="M118.238,30.571a2,2,0,0,0,.964.243.913.913,0,0,0,.581-.187.593.593,0,0,0,.241-.495.644.644,0,0,0-.27-.536,3.163,3.163,0,0,0-.617-.337c-.111-.054-.217-.112-.319-.173a2.683,2.683,0,0,1-.291-.2,1.1,1.1,0,0,1-.206-.279.771.771,0,0,1-.077-.353.9.9,0,0,1,.375-.81,1.482,1.482,0,0,1,.829-.235,3.911,3.911,0,0,1,.415.029,2.638,2.638,0,0,1,.5.142l-.043.412a2.163,2.163,0,0,0-.824-.18,1.046,1.046,0,0,0-.564.132.465.465,0,0,0-.171.191.654.654,0,0,0-.064.315.358.358,0,0,0,.082.224.782.782,0,0,0,.209.18c.088.051.187.1.3.158s.22.106.327.165a2.086,2.086,0,0,1,.632.421,1.121,1.121,0,0,1,.16,1.233,1.054,1.054,0,0,1-.312.337,1.628,1.628,0,0,1-.864.25,3.007,3.007,0,0,1-1.034-.182Z"/><path d="M121.743,30.571a2,2,0,0,0,.964.243.916.916,0,0,0,.582-.187.6.6,0,0,0,.24-.495.646.646,0,0,0-.269-.536,3.222,3.222,0,0,0-.617-.337c-.112-.054-.218-.112-.32-.173a2.771,2.771,0,0,1-.29-.2,1.074,1.074,0,0,1-.206-.279.759.759,0,0,1-.078-.353.9.9,0,0,1,.376-.81,1.48,1.48,0,0,1,.829-.235,3.946,3.946,0,0,1,.415.029,2.629,2.629,0,0,1,.5.142l-.042.412a2.172,2.172,0,0,0-.825-.18,1.051,1.051,0,0,0-.564.132.463.463,0,0,0-.17.191.654.654,0,0,0-.064.315.357.357,0,0,0,.081.224.788.788,0,0,0,.21.18c.087.051.187.1.3.158s.22.106.326.165a2.074,2.074,0,0,1,.632.421,1.115,1.115,0,0,1,.16,1.233,1.04,1.04,0,0,1-.311.337,1.634,1.634,0,0,1-.865.25,3,3,0,0,1-1.033-.182Z"/><path d="M128.016,31.006a3.047,3.047,0,0,1-1.076.211,1.519,1.519,0,0,1-1.3-.579,2.368,2.368,0,0,1-.384-1.426,2.331,2.331,0,0,1,.436-1.447,1.357,1.357,0,0,1,1.125-.557,1.289,1.289,0,0,1,1.135.564,2.45,2.45,0,0,1,.341,1.334v.242h-2.539a1.632,1.632,0,0,0,.312,1.028,1.061,1.061,0,0,0,.91.438,1.809,1.809,0,0,0,.569-.1,1.863,1.863,0,0,0,.473-.188Zm-.223-2.061a1.909,1.909,0,0,0-.213-.921.807.807,0,0,0-.736-.413.963.963,0,0,0-.793.42,1.516,1.516,0,0,0-.3.914Z"/><path d="M129.87,28.2q0-.439-.029-.9h.443v.681h.014a2.319,2.319,0,0,1,.153-.271,1.037,1.037,0,0,1,.216-.245,1.008,1.008,0,0,1,.34-.191,1.593,1.593,0,0,1,.485-.066,1.143,1.143,0,0,1,.981.421,1.785,1.785,0,0,1,.283,1.048v2.448H132.3V28.8a1.669,1.669,0,0,0-.2-.87.79.79,0,0,0-.685-.315.937.937,0,0,0-.86.448,1.424,1.424,0,0,0-.182.443,2.322,2.322,0,0,0-.056.506v2.117h-.454Z"/><path d="M134.344,30.571a2,2,0,0,0,.964.243.916.916,0,0,0,.582-.187.6.6,0,0,0,.24-.495.646.646,0,0,0-.269-.536,3.222,3.222,0,0,0-.617-.337c-.112-.054-.218-.112-.32-.173a2.771,2.771,0,0,1-.29-.2,1.074,1.074,0,0,1-.206-.279.759.759,0,0,1-.078-.353.9.9,0,0,1,.376-.81,1.48,1.48,0,0,1,.829-.235,3.946,3.946,0,0,1,.415.029,2.629,2.629,0,0,1,.5.142l-.042.412a2.171,2.171,0,0,0-.824-.18,1.052,1.052,0,0,0-.565.132.463.463,0,0,0-.17.191.654.654,0,0,0-.064.315.363.363,0,0,0,.081.224.788.788,0,0,0,.21.18c.087.051.187.1.3.158s.22.106.326.165a2.074,2.074,0,0,1,.632.421,1.115,1.115,0,0,1,.16,1.233,1.04,1.04,0,0,1-.311.337,1.634,1.634,0,0,1-.865.25,3,3,0,0,1-1.033-.182Z"/><path d="M140.543,27.806a1.915,1.915,0,0,0-.8-.2,1.263,1.263,0,0,0-1.022.441,1.742,1.742,0,0,0-.373,1.16,1.723,1.723,0,0,0,.366,1.121,1.176,1.176,0,0,0,.979.481,2.14,2.14,0,0,0,.839-.173l.042.442a3.01,3.01,0,0,1-.951.134,1.592,1.592,0,0,1-1.33-.609,2.229,2.229,0,0,1-.443-1.4,2.069,2.069,0,0,1,.507-1.447,1.72,1.72,0,0,1,1.323-.557,2.65,2.65,0,0,1,.568.051,1.859,1.859,0,0,1,.2.047,1.115,1.115,0,0,1,.124.051Z"/><path d="M142.05,25.5h.453v2.444h.015a1.365,1.365,0,0,1,.45-.532,1.305,1.305,0,0,1,.7-.2,1.1,1.1,0,0,1,1.012.451,2.292,2.292,0,0,1,.254,1.176v2.29h-.454V28.84a3.879,3.879,0,0,0-.028-.481,1.089,1.089,0,0,0-.124-.381.738.738,0,0,0-.728-.367.925.925,0,0,0-.853.473,1.968,1.968,0,0,0-.246.991v2.05h-.453Z"/><path d="M148.935,30.513h-.014a1.126,1.126,0,0,1-.489.514,1.466,1.466,0,0,1-.689.19,1.439,1.439,0,0,1-.625-.129.973.973,0,0,1-.38-.285,1.2,1.2,0,0,1-.216-.665,1.178,1.178,0,0,1,.224-.758,1.224,1.224,0,0,1,.561-.4,3.078,3.078,0,0,1,.741-.164q.394-.023.756-.022h.089v-.2q.021-.99-.846-.989a1.968,1.968,0,0,0-1.091.317v-.459a2.657,2.657,0,0,1,1.089-.261q1.317-.013,1.3,1.425v1.69a4.982,4.982,0,0,0,.038.8h-.45Zm-.042-1.316h-.131c-.2,0-.4.005-.6.015a2.1,2.1,0,0,0-.568.129.877.877,0,0,0-.409.275.742.742,0,0,0-.167.507.586.586,0,0,0,.234.525.855.855,0,0,0,.537.166,1.064,1.064,0,0,0,.633-.166.957.957,0,0,0,.33-.374,1.327,1.327,0,0,0,.121-.46c.012-.156.018-.285.018-.385Z"/><path d="M151.456,27.7h-.748v-.4h.748v-.279c0-.205.01-.405.028-.6a1.457,1.457,0,0,1,.111-.509.765.765,0,0,1,.3-.37.954.954,0,0,1,.542-.132c.078,0,.158,0,.241.008a.476.476,0,0,1,.187.065l-.028.414a.742.742,0,0,0-.362-.084.5.5,0,0,0-.345.106.6.6,0,0,0-.167.293,1.545,1.545,0,0,0-.043.367c0,.134-.007.264-.007.388V27.3h.835v.4h-.835v3.422h-.454Z"/><path d="M155.823,27.7h-.843v2.48a.8.8,0,0,0,.118.444.4.4,0,0,0,.377.187.9.9,0,0,0,.422-.092l.029.389c-.054.02-.13.041-.227.066a1.339,1.339,0,0,1-.333.04.891.891,0,0,1-.47-.107.668.668,0,0,1-.252-.278,1.409,1.409,0,0,1-.1-.4c-.014-.152-.022-.315-.022-.491V27.7H153.8v-.4h.726v-.924l.454-.165V27.3h.843Z"/><path d="M33.455,36.818a1.787,1.787,0,0,0-.547-.187,4.928,4.928,0,0,0-.586-.037,1.921,1.921,0,0,0-1.519.639,2.728,2.728,0,0,0-.008,3.248,1.888,1.888,0,0,0,1.527.639,3.531,3.531,0,0,0,.586-.055,1.5,1.5,0,0,0,.547-.172l.028.448a1.709,1.709,0,0,1-.557.171,3.957,3.957,0,0,1-.6.055,2.467,2.467,0,0,1-1.876-.752,2.754,2.754,0,0,1-.681-1.96,2.806,2.806,0,0,1,.688-1.956,2.456,2.456,0,0,1,1.869-.751c.163,0,.365.012.6.036a1.722,1.722,0,0,1,.557.156Z"/><path d="M35.043,39.562a2.307,2.307,0,0,1,.423-1.395,1.52,1.52,0,0,1,1.3-.609,1.545,1.545,0,0,1,1.323.609,2.579,2.579,0,0,1,0,2.784,1.549,1.549,0,0,1-1.323.616,1.525,1.525,0,0,1-1.3-.616A2.314,2.314,0,0,1,35.043,39.562Zm.5,0a1.877,1.877,0,0,0,.32,1.128,1.033,1.033,0,0,0,.911.474,1.071,1.071,0,0,0,.925-.474A1.944,1.944,0,0,0,38,39.562,2,2,0,0,0,37.7,38.42a1.083,1.083,0,0,0-.925-.459,1.043,1.043,0,0,0-.911.459A1.934,1.934,0,0,0,35.542,39.562Z"/><path d="M40.088,38.547q0-.439-.029-.9H40.5v.681h.014a2.308,2.308,0,0,1,.152-.271,1.042,1.042,0,0,1,.217-.245,1.008,1.008,0,0,1,.34-.191,1.616,1.616,0,0,1,.485-.066,1.143,1.143,0,0,1,.981.421,1.788,1.788,0,0,1,.283,1.048v2.448h-.453V39.146a1.669,1.669,0,0,0-.2-.87.79.79,0,0,0-.685-.315.938.938,0,0,0-.861.448,1.418,1.418,0,0,0-.181.444,2.319,2.319,0,0,0-.056.5v2.117h-.454Z"/><path d="M45.158,38.053h-.749v-.4h.749v-.278c0-.2.009-.406.028-.6a1.458,1.458,0,0,1,.11-.51.765.765,0,0,1,.3-.37.959.959,0,0,1,.542-.132c.078,0,.158,0,.241.008a.455.455,0,0,1,.187.066l-.028.413a.739.739,0,0,0-.362-.084.5.5,0,0,0-.345.106.6.6,0,0,0-.167.294,1.481,1.481,0,0,0-.043.366c-.005.134-.007.264-.007.388v.334h.835v.4h-.835v3.422h-.453Z"/><path d="M50.414,41.356a3.047,3.047,0,0,1-1.076.211,1.519,1.519,0,0,1-1.3-.579,2.366,2.366,0,0,1-.384-1.426,2.331,2.331,0,0,1,.436-1.447,1.357,1.357,0,0,1,1.125-.557,1.287,1.287,0,0,1,1.135.565,2.444,2.444,0,0,1,.341,1.333V39.7H48.15a1.637,1.637,0,0,0,.312,1.029,1.063,1.063,0,0,0,.91.437,1.809,1.809,0,0,0,.569-.1,1.863,1.863,0,0,0,.473-.188ZM50.191,39.3a1.909,1.909,0,0,0-.213-.921.807.807,0,0,0-.736-.413.963.963,0,0,0-.793.42,1.516,1.516,0,0,0-.3.914Zm-.712-3.121h.572l-.912,1.076h-.333Z"/><path d="M55.2,41.475h-.454v-.608H54.73a1.2,1.2,0,0,1-1.157.7,1.319,1.319,0,0,1-1.138-.579,2.464,2.464,0,0,1-.387-1.426,2.5,2.5,0,0,1,.358-1.439,1.3,1.3,0,0,1,1.167-.565,1.271,1.271,0,0,1,.483.084,1.088,1.088,0,0,1,.348.208,1.019,1.019,0,0,1,.326.442h.014V35.847H55.2Zm-2.653-1.913a3.094,3.094,0,0,0,.05.548,2.163,2.163,0,0,0,.175.529,1.121,1.121,0,0,0,.341.367.858.858,0,0,0,.534.158.867.867,0,0,0,.523-.158,1.1,1.1,0,0,0,.338-.382,2.358,2.358,0,0,0,.238-1.062,3.178,3.178,0,0,0-.05-.558,2.056,2.056,0,0,0-.188-.51,1.128,1.128,0,0,0-.338-.39.933.933,0,0,0-.523-.143.922.922,0,0,0-.534.143.978.978,0,0,0-.341.375,1.852,1.852,0,0,0-.175.511A3.358,3.358,0,0,0,52.545,39.562Z"/><path d="M59.509,41.356a3.038,3.038,0,0,1-1.075.211,1.523,1.523,0,0,1-1.3-.579,2.373,2.373,0,0,1-.383-1.426,2.324,2.324,0,0,1,.436-1.447,1.357,1.357,0,0,1,1.125-.557,1.287,1.287,0,0,1,1.135.565,2.444,2.444,0,0,1,.341,1.333V39.7H57.246a1.637,1.637,0,0,0,.312,1.029,1.063,1.063,0,0,0,.91.437,1.814,1.814,0,0,0,.569-.1,1.839,1.839,0,0,0,.472-.188ZM59.287,39.3a1.909,1.909,0,0,0-.213-.921.809.809,0,0,0-.737-.413.966.966,0,0,0-.793.42,1.515,1.515,0,0,0-.3.914Zm-.713-3.121h.573l-.913,1.076H57.9Z"/><path d="M61.363,38.5c0-.354-.009-.638-.029-.853h.455v.732H61.8a1.63,1.63,0,0,1,.369-.574.8.8,0,0,1,.582-.25,1.535,1.535,0,0,1,.32.044v.491a1.184,1.184,0,0,0-.334-.044.763.763,0,0,0-.444.136.989.989,0,0,0-.284.366,1.911,1.911,0,0,0-.145.489,3.088,3.088,0,0,0-.05.542v1.893h-.454Z"/><path d="M66.574,40.863H66.56a1.114,1.114,0,0,1-.49.514,1.443,1.443,0,0,1-1.313.061.962.962,0,0,1-.379-.285,1.255,1.255,0,0,1,.007-1.423,1.22,1.22,0,0,1,.561-.4,3.04,3.04,0,0,1,.742-.165q.393-.023.755-.022h.089v-.2q.021-.989-.846-.989a1.97,1.97,0,0,0-1.091.317v-.459a2.657,2.657,0,0,1,1.089-.261q1.317-.014,1.3,1.425v1.69a5.094,5.094,0,0,0,.039.8h-.45Zm-.042-1.316H66.4q-.3,0-.6.015a2.13,2.13,0,0,0-.568.129.885.885,0,0,0-.409.275.747.747,0,0,0-.167.507.586.586,0,0,0,.235.526.858.858,0,0,0,.536.165A1.071,1.071,0,0,0,66.063,41a.964.964,0,0,0,.331-.375,1.325,1.325,0,0,0,.12-.459c.012-.157.018-.286.018-.386Z"/><path d="M70.378,38.053h-.843v2.48a.8.8,0,0,0,.117.444.4.4,0,0,0,.377.187.9.9,0,0,0,.423-.092l.029.389c-.055.02-.13.041-.227.066a1.339,1.339,0,0,1-.333.04.9.9,0,0,1-.471-.107.681.681,0,0,1-.252-.278,1.377,1.377,0,0,1-.095-.4c-.015-.152-.021-.315-.021-.491V38.053h-.727v-.4h.727v-.923l.453-.165V37.65h.843Z"/><path d="M72.322,36.627h-.453V36h.453Zm-.453,1.023h.453v3.825h-.453Z"/><path d="M73.835,39.562a2.306,2.306,0,0,1,.422-1.395,1.521,1.521,0,0,1,1.306-.609,1.544,1.544,0,0,1,1.322.609,2.579,2.579,0,0,1,0,2.784,1.549,1.549,0,0,1-1.322.616,1.526,1.526,0,0,1-1.306-.616A2.313,2.313,0,0,1,73.835,39.562Zm.5,0a1.877,1.877,0,0,0,.32,1.128,1.035,1.035,0,0,0,.911.474,1.072,1.072,0,0,0,.926-.474,1.944,1.944,0,0,0,.306-1.128,2,2,0,0,0-.306-1.142,1.083,1.083,0,0,0-.926-.459,1.046,1.046,0,0,0-.911.459A1.934,1.934,0,0,0,74.333,39.562Z"/><path d="M78.879,38.547q0-.439-.028-.9h.442v.681h.015a2.172,2.172,0,0,1,.152-.271,1.06,1.06,0,0,1,.216-.245,1.008,1.008,0,0,1,.34-.191,1.625,1.625,0,0,1,.485-.066,1.143,1.143,0,0,1,.981.421,1.788,1.788,0,0,1,.284,1.048v2.448h-.454V39.146a1.679,1.679,0,0,0-.195-.87.792.792,0,0,0-.686-.315.937.937,0,0,0-.86.448,1.4,1.4,0,0,0-.181.444,2.26,2.26,0,0,0-.057.5v2.117h-.454Z"/><path d="M85.949,40.921a2,2,0,0,0,.964.243.91.91,0,0,0,.581-.187.6.6,0,0,0,.241-.495.647.647,0,0,0-.27-.536,3.192,3.192,0,0,0-.617-.337c-.111-.054-.217-.111-.319-.172a2.841,2.841,0,0,1-.291-.2,1.1,1.1,0,0,1-.206-.279.758.758,0,0,1-.077-.352.9.9,0,0,1,.375-.811,1.482,1.482,0,0,1,.829-.235,3.911,3.911,0,0,1,.415.029,2.638,2.638,0,0,1,.5.142l-.043.412a2.163,2.163,0,0,0-.824-.18,1.046,1.046,0,0,0-.564.132.465.465,0,0,0-.171.191.654.654,0,0,0-.064.315.358.358,0,0,0,.082.224A.782.782,0,0,0,86.7,39c.088.051.187.1.3.158s.22.106.327.165a2.071,2.071,0,0,1,.632.422,1.119,1.119,0,0,1,.16,1.232,1.054,1.054,0,0,1-.312.337,1.628,1.628,0,0,1-.864.25,3.007,3.007,0,0,1-1.034-.182Z"/><path d="M92.625,40.574a8.936,8.936,0,0,0,.031.9h-.443v-.681H92.2a1.3,1.3,0,0,1-.138.253,1.15,1.15,0,0,1-.224.256,1.031,1.031,0,0,1-.343.179,1.271,1.271,0,0,1-.494.085,1.135,1.135,0,0,1-.971-.421,1.707,1.707,0,0,1-.29-1.052V37.65h.453v2.326a1.512,1.512,0,0,0,.21.858.732.732,0,0,0,.672.33.972.972,0,0,0,.529-.136.875.875,0,0,0,.334-.33,1.361,1.361,0,0,0,.181-.451,2.166,2.166,0,0,0,.053-.48V37.65h.454Z"/><path d="M94.951,36.627H94.5V36h.454ZM94.5,37.65h.454v3.825H94.5Z"/><path d="M96.465,40.921a2.006,2.006,0,0,0,.964.243.91.91,0,0,0,.582-.187.592.592,0,0,0,.24-.495.646.646,0,0,0-.269-.536,3.222,3.222,0,0,0-.617-.337c-.112-.054-.218-.111-.32-.172a2.941,2.941,0,0,1-.29-.2,1.1,1.1,0,0,1-.206-.279.758.758,0,0,1-.078-.352.906.906,0,0,1,.376-.811,1.48,1.48,0,0,1,.829-.235,3.946,3.946,0,0,1,.415.029,2.629,2.629,0,0,1,.5.142l-.042.412a2.171,2.171,0,0,0-.824-.18,1.052,1.052,0,0,0-.565.132.463.463,0,0,0-.17.191.654.654,0,0,0-.064.315.363.363,0,0,0,.081.224.788.788,0,0,0,.21.18c.087.051.187.1.3.158s.22.106.326.165a2.059,2.059,0,0,1,.632.422,1.114,1.114,0,0,1,.16,1.232,1.04,1.04,0,0,1-.311.337,1.633,1.633,0,0,1-.864.25,3,3,0,0,1-1.034-.182Z"/><path d="M99.971,40.921a2,2,0,0,0,.964.243.91.91,0,0,0,.581-.187.6.6,0,0,0,.241-.495.647.647,0,0,0-.27-.536,3.192,3.192,0,0,0-.617-.337c-.111-.054-.217-.111-.319-.172a2.841,2.841,0,0,1-.291-.2,1.1,1.1,0,0,1-.206-.279.758.758,0,0,1-.077-.352.9.9,0,0,1,.375-.811,1.482,1.482,0,0,1,.829-.235,3.911,3.911,0,0,1,.415.029,2.638,2.638,0,0,1,.5.142l-.043.412a2.163,2.163,0,0,0-.824-.18,1.046,1.046,0,0,0-.564.132.465.465,0,0,0-.171.191.654.654,0,0,0-.064.315.358.358,0,0,0,.082.224.767.767,0,0,0,.209.18c.088.051.187.1.3.158s.22.106.327.165a2.071,2.071,0,0,1,.632.422,1.119,1.119,0,0,1,.16,1.232,1.054,1.054,0,0,1-.312.337,1.628,1.628,0,0,1-.864.25,3,3,0,0,1-1.034-.182Z"/><path d="M106.243,41.356a3.039,3.039,0,0,1-1.076.211,1.522,1.522,0,0,1-1.3-.579,2.366,2.366,0,0,1-.383-1.426,2.324,2.324,0,0,1,.436-1.447,1.356,1.356,0,0,1,1.124-.557,1.288,1.288,0,0,1,1.136.565,2.444,2.444,0,0,1,.341,1.333V39.7h-2.54a1.637,1.637,0,0,0,.313,1.029,1.063,1.063,0,0,0,.91.437,1.814,1.814,0,0,0,.569-.1,1.839,1.839,0,0,0,.472-.188Zm-.222-2.061a1.909,1.909,0,0,0-.213-.921.809.809,0,0,0-.737-.413.966.966,0,0,0-.793.42,1.516,1.516,0,0,0-.3.914Z"/><path d="M33.455,47.168a1.787,1.787,0,0,0-.547-.187,5.148,5.148,0,0,0-.586-.037,1.921,1.921,0,0,0-1.519.639,2.73,2.73,0,0,0-.008,3.249,1.891,1.891,0,0,0,1.527.638,3.531,3.531,0,0,0,.586-.055,1.5,1.5,0,0,0,.547-.172l.028.448a1.709,1.709,0,0,1-.557.171,3.957,3.957,0,0,1-.6.055,2.47,2.47,0,0,1-1.876-.751,2.757,2.757,0,0,1-.681-1.96,2.807,2.807,0,0,1,.688-1.957,2.456,2.456,0,0,1,1.869-.751c.163,0,.365.012.6.036a1.722,1.722,0,0,1,.557.156Z"/><path d="M35.043,49.913a2.308,2.308,0,0,1,.423-1.4,1.52,1.52,0,0,1,1.3-.609,1.545,1.545,0,0,1,1.323.609,2.579,2.579,0,0,1,0,2.784,1.549,1.549,0,0,1-1.323.616,1.525,1.525,0,0,1-1.3-.616A2.313,2.313,0,0,1,35.043,49.913Zm.5,0a1.876,1.876,0,0,0,.32,1.127,1.033,1.033,0,0,0,.911.474,1.071,1.071,0,0,0,.925-.474A1.943,1.943,0,0,0,38,49.913a2,2,0,0,0-.306-1.142,1.081,1.081,0,0,0-.925-.46,1.042,1.042,0,0,0-.911.46A1.932,1.932,0,0,0,35.542,49.913Z"/><path d="M40.088,48.9q0-.44-.029-.9H40.5v.681h.014a2.308,2.308,0,0,1,.152-.271,1.042,1.042,0,0,1,.217-.245,1.008,1.008,0,0,1,.34-.191,1.616,1.616,0,0,1,.485-.066,1.144,1.144,0,0,1,.981.422,1.782,1.782,0,0,1,.283,1.047v2.448h-.453V49.5a1.669,1.669,0,0,0-.2-.87.79.79,0,0,0-.685-.315.938.938,0,0,0-.861.448,1.428,1.428,0,0,0-.181.444,2.319,2.319,0,0,0-.056.5v2.117h-.454Z"/><path d="M45.158,48.4h-.749V48h.749v-.278c0-.2.009-.406.028-.6a1.458,1.458,0,0,1,.11-.51.769.769,0,0,1,.3-.37.959.959,0,0,1,.542-.132c.078,0,.158,0,.241.008a.455.455,0,0,1,.187.066l-.028.413a.739.739,0,0,0-.362-.084.5.5,0,0,0-.345.106.6.6,0,0,0-.167.294,1.481,1.481,0,0,0-.043.366c-.005.135-.007.264-.007.389V48h.835v.4h-.835v3.422h-.453Z"/><path d="M50.414,51.707a3.069,3.069,0,0,1-1.076.21,1.519,1.519,0,0,1-1.3-.579,2.363,2.363,0,0,1-.384-1.425,2.332,2.332,0,0,1,.436-1.448,1.359,1.359,0,0,1,1.125-.557,1.287,1.287,0,0,1,1.135.565,2.447,2.447,0,0,1,.341,1.333v.242H48.15a1.637,1.637,0,0,0,.312,1.029,1.063,1.063,0,0,0,.91.437,1.809,1.809,0,0,0,.569-.1,1.9,1.9,0,0,0,.473-.187Zm-.223-2.061a1.911,1.911,0,0,0-.213-.922.807.807,0,0,0-.736-.413.963.963,0,0,0-.793.42,1.517,1.517,0,0,0-.3.915Z"/><path d="M55.2,51.825h-.454v-.608H54.73a1.2,1.2,0,0,1-1.157.7,1.319,1.319,0,0,1-1.138-.579,2.463,2.463,0,0,1-.387-1.425,2.5,2.5,0,0,1,.358-1.44,1.308,1.308,0,0,1,1.167-.565,1.291,1.291,0,0,1,.483.084,1.088,1.088,0,0,1,.348.208,1.019,1.019,0,0,1,.326.442h.014V46.2H55.2Zm-2.653-1.912a3.092,3.092,0,0,0,.05.547,2.163,2.163,0,0,0,.175.529,1.121,1.121,0,0,0,.341.367.858.858,0,0,0,.534.158.867.867,0,0,0,.523-.158,1.1,1.1,0,0,0,.338-.382,2.357,2.357,0,0,0,.238-1.061,3.181,3.181,0,0,0-.05-.559,2.056,2.056,0,0,0-.188-.51,1.116,1.116,0,0,0-.338-.389.925.925,0,0,0-.523-.144.915.915,0,0,0-.534.144.968.968,0,0,0-.341.374,1.863,1.863,0,0,0-.175.511A3.361,3.361,0,0,0,52.545,49.913Z"/><path d="M59.509,51.707a3.059,3.059,0,0,1-1.075.21,1.523,1.523,0,0,1-1.3-.579,2.37,2.37,0,0,1-.383-1.425,2.325,2.325,0,0,1,.436-1.448,1.359,1.359,0,0,1,1.125-.557,1.287,1.287,0,0,1,1.135.565,2.447,2.447,0,0,1,.341,1.333v.242H57.246a1.637,1.637,0,0,0,.312,1.029,1.063,1.063,0,0,0,.91.437,1.814,1.814,0,0,0,.569-.1,1.878,1.878,0,0,0,.472-.187Zm-.222-2.061a1.911,1.911,0,0,0-.213-.922.809.809,0,0,0-.737-.413.966.966,0,0,0-.793.42,1.516,1.516,0,0,0-.3.915Z"/><path d="M61.363,48.854c0-.354-.009-.639-.029-.854h.455v.732H61.8a1.63,1.63,0,0,1,.369-.574.808.808,0,0,1,.582-.25,1.535,1.535,0,0,1,.32.044v.491a1.221,1.221,0,0,0-.334-.044.763.763,0,0,0-.444.136,1,1,0,0,0-.284.366,1.911,1.911,0,0,0-.145.489,3.088,3.088,0,0,0-.05.542v1.893h-.454Z"/><path d="M66.574,51.213H66.56a1.109,1.109,0,0,1-.49.514,1.447,1.447,0,0,1-1.313.062.973.973,0,0,1-.379-.286,1.254,1.254,0,0,1,.007-1.422,1.215,1.215,0,0,1,.561-.4,3.04,3.04,0,0,1,.742-.165q.393-.023.755-.022h.089v-.2q.021-.989-.846-.989a1.97,1.97,0,0,0-1.091.317v-.459a2.657,2.657,0,0,1,1.089-.261q1.317-.014,1.3,1.425v1.69a5.094,5.094,0,0,0,.039.8h-.45ZM66.532,49.9H66.4q-.3,0-.6.015a2.13,2.13,0,0,0-.568.129.885.885,0,0,0-.409.275.747.747,0,0,0-.167.507.586.586,0,0,0,.235.526.858.858,0,0,0,.536.165,1.071,1.071,0,0,0,.633-.165.964.964,0,0,0,.331-.375,1.325,1.325,0,0,0,.12-.459c.012-.157.018-.286.018-.386Z"/><path d="M68.44,51.43,70.669,48.4H68.457V48H71.2v.4l-2.3,3.019h2.3v.4H68.44Z"/><path d="M73.154,46.978H72.7v-.63h.454ZM72.7,48h.454v3.825H72.7Z"/><path d="M74.667,49.913a2.307,2.307,0,0,1,.422-1.4,1.52,1.52,0,0,1,1.305-.609,1.545,1.545,0,0,1,1.323.609,2.579,2.579,0,0,1,0,2.784,1.549,1.549,0,0,1-1.323.616,1.525,1.525,0,0,1-1.305-.616A2.312,2.312,0,0,1,74.667,49.913Zm.5,0a1.876,1.876,0,0,0,.32,1.127,1.033,1.033,0,0,0,.911.474,1.071,1.071,0,0,0,.925-.474,1.943,1.943,0,0,0,.306-1.127,2,2,0,0,0-.306-1.142,1.081,1.081,0,0,0-.925-.46,1.042,1.042,0,0,0-.911.46A1.932,1.932,0,0,0,75.165,49.913Z"/><path d="M79.711,48.9q0-.44-.028-.9h.442v.681h.015a2.172,2.172,0,0,1,.152-.271,1.06,1.06,0,0,1,.216-.245,1.008,1.008,0,0,1,.34-.191,1.627,1.627,0,0,1,.486-.066,1.143,1.143,0,0,1,.98.422,1.782,1.782,0,0,1,.284,1.047v2.448h-.454V49.5a1.679,1.679,0,0,0-.2-.87.792.792,0,0,0-.686-.315.937.937,0,0,0-.86.448,1.4,1.4,0,0,0-.181.444,2.26,2.26,0,0,0-.057.5v2.117h-.454Z"/><path d="M86.953,51.707a3.069,3.069,0,0,1-1.076.21,1.519,1.519,0,0,1-1.3-.579,2.363,2.363,0,0,1-.384-1.425,2.332,2.332,0,0,1,.436-1.448,1.359,1.359,0,0,1,1.125-.557,1.287,1.287,0,0,1,1.135.565,2.447,2.447,0,0,1,.341,1.333v.242H84.689A1.637,1.637,0,0,0,85,51.077a1.063,1.063,0,0,0,.91.437,1.809,1.809,0,0,0,.569-.1,1.9,1.9,0,0,0,.473-.187Zm-.223-2.061a1.911,1.911,0,0,0-.213-.922.807.807,0,0,0-.736-.413.963.963,0,0,0-.793.42,1.517,1.517,0,0,0-.3.915Z"/><path d="M91.312,51.162a1.883,1.883,0,0,0,1.122.308,1.253,1.253,0,0,0,.814-.264,1.01,1.01,0,0,0,.327-.81.8.8,0,0,0-.363-.646,2.434,2.434,0,0,0-.373-.256c-.139-.081-.283-.161-.43-.239s-.284-.175-.419-.271a2.289,2.289,0,0,1-.38-.3,1.077,1.077,0,0,1-.362-.817,1.237,1.237,0,0,1,.472-1.009,1.823,1.823,0,0,1,1.132-.359,4.182,4.182,0,0,1,.465.029,3.252,3.252,0,0,1,.533.142l-.082.47a1.969,1.969,0,0,0-.924-.2,2.032,2.032,0,0,0-.384.037,1.08,1.08,0,0,0-.359.158.775.775,0,0,0-.252.271.862.862,0,0,0-.1.437.614.614,0,0,0,.1.344,1.05,1.05,0,0,0,.259.279,3.4,3.4,0,0,0,.38.238q.2.122.423.25a2.916,2.916,0,0,1,.8.568,1.316,1.316,0,0,1,.27.392,1.342,1.342,0,0,1,.092.518,1.3,1.3,0,0,1-.529,1.132,1.953,1.953,0,0,1-1.135.349,2.712,2.712,0,0,1-1.146-.226Z"/><path d="M97.022,51.825h-.535L95.23,48h.5l1.02,3.312h.018L97.843,48h.479Z"/><path d="M100.108,46.978h-.453v-.63h.453ZM99.655,48h.453v3.825h-.453Z"/><path d="M101.563,51.43l2.229-3.027h-2.213V48h2.746v.4l-2.305,3.019h2.305v.4h-2.762Z"/><path d="M105.479,51.43l2.229-3.027H105.5V48h2.746v.4l-2.3,3.019h2.3v.4h-2.762Z"/><path d="M112.222,51.707a3.069,3.069,0,0,1-1.076.21,1.521,1.521,0,0,1-1.3-.579,2.363,2.363,0,0,1-.384-1.425,2.332,2.332,0,0,1,.436-1.448,1.359,1.359,0,0,1,1.125-.557,1.287,1.287,0,0,1,1.135.565,2.447,2.447,0,0,1,.341,1.333v.242h-2.539a1.631,1.631,0,0,0,.313,1.029,1.06,1.06,0,0,0,.909.437,1.809,1.809,0,0,0,.569-.1,1.9,1.9,0,0,0,.473-.187ZM112,49.646a1.911,1.911,0,0,0-.214-.922.807.807,0,0,0-.736-.413.963.963,0,0,0-.793.42,1.517,1.517,0,0,0-.3.915Z"/><path d="M114.076,48.854q0-.531-.029-.854h.454v.732h.015a1.63,1.63,0,0,1,.369-.574.808.808,0,0,1,.582-.25,1.545,1.545,0,0,1,.32.044v.491a1.221,1.221,0,0,0-.334-.044.763.763,0,0,0-.444.136,1,1,0,0,0-.284.366,1.911,1.911,0,0,0-.145.489,3,3,0,0,0-.05.542v1.893h-.454Z"/><path d="M119.287,51.213h-.014a1.114,1.114,0,0,1-.49.514,1.447,1.447,0,0,1-1.313.062.973.973,0,0,1-.379-.286,1.254,1.254,0,0,1,.007-1.422,1.215,1.215,0,0,1,.561-.4,3.042,3.042,0,0,1,.741-.165q.394-.023.756-.022h.089v-.2q.021-.989-.846-.989a1.97,1.97,0,0,0-1.091.317v-.459a2.657,2.657,0,0,1,1.089-.261q1.316-.014,1.3,1.425v1.69a5.094,5.094,0,0,0,.039.8h-.45Zm-.042-1.316h-.132q-.3,0-.6.015a2.13,2.13,0,0,0-.568.129.885.885,0,0,0-.409.275.747.747,0,0,0-.167.507.588.588,0,0,0,.234.526.863.863,0,0,0,.537.165,1.071,1.071,0,0,0,.633-.165.953.953,0,0,0,.33-.375,1.306,1.306,0,0,0,.121-.459c.012-.157.018-.286.018-.386Z"/><path d="M33.455,57.518a1.789,1.789,0,0,0-.547-.188,5.376,5.376,0,0,0-.586-.036,1.921,1.921,0,0,0-1.519.639,2.73,2.73,0,0,0-.008,3.249,1.894,1.894,0,0,0,1.527.638,3.642,3.642,0,0,0,.586-.055,1.5,1.5,0,0,0,.547-.173l.028.449a1.734,1.734,0,0,1-.557.171,3.957,3.957,0,0,1-.6.055,2.473,2.473,0,0,1-1.876-.751,2.76,2.76,0,0,1-.681-1.961,2.8,2.8,0,0,1,.688-1.956,2.448,2.448,0,0,1,1.869-.751,5.888,5.888,0,0,1,.6.036,1.7,1.7,0,0,1,.557.156Z"/><path d="M35.043,60.262a2.31,2.31,0,0,1,.423-1.4,1.522,1.522,0,0,1,1.3-.608,1.547,1.547,0,0,1,1.323.608,2.579,2.579,0,0,1,0,2.784,1.55,1.55,0,0,1-1.323.617,1.526,1.526,0,0,1-1.3-.617A2.313,2.313,0,0,1,35.043,60.262Zm.5,0a1.877,1.877,0,0,0,.32,1.128,1.03,1.03,0,0,0,.911.473,1.068,1.068,0,0,0,.925-.473A1.944,1.944,0,0,0,38,60.262,2.006,2.006,0,0,0,37.7,59.12a1.084,1.084,0,0,0-.925-.46,1.044,1.044,0,0,0-.911.46A1.936,1.936,0,0,0,35.542,60.262Z"/><path d="M40.088,59.247c0-.293-.01-.593-.029-.9H40.5v.681h.014a2.23,2.23,0,0,1,.152-.271,1.042,1.042,0,0,1,.217-.245,1.008,1.008,0,0,1,.34-.191,1.584,1.584,0,0,1,.485-.066,1.141,1.141,0,0,1,.981.422,1.778,1.778,0,0,1,.283,1.047v2.448h-.453V59.846a1.657,1.657,0,0,0-.2-.869.791.791,0,0,0-.685-.317.94.94,0,0,0-.861.448,1.433,1.433,0,0,0-.181.445,2.315,2.315,0,0,0-.056.506v2.116h-.454Z"/><path d="M45.158,58.752h-.749v-.4h.749v-.279q0-.307.028-.6a1.448,1.448,0,0,1,.11-.51.769.769,0,0,1,.3-.37.959.959,0,0,1,.542-.132c.078,0,.158,0,.241.008a.455.455,0,0,1,.187.065l-.028.413a.75.75,0,0,0-.362-.084.492.492,0,0,0-.345.107.6.6,0,0,0-.167.294,1.478,1.478,0,0,0-.043.365c-.005.135-.007.265-.007.389v.334h.835v.4h-.835v3.423h-.453Z"/><path d="M50.414,62.057a3.091,3.091,0,0,1-1.076.21,1.522,1.522,0,0,1-1.3-.579,2.368,2.368,0,0,1-.384-1.426,2.334,2.334,0,0,1,.436-1.448,1.361,1.361,0,0,1,1.125-.556,1.289,1.289,0,0,1,1.135.564,2.453,2.453,0,0,1,.341,1.334V60.4H48.15a1.635,1.635,0,0,0,.312,1.029,1.058,1.058,0,0,0,.91.437,1.835,1.835,0,0,0,.569-.1,1.863,1.863,0,0,0,.473-.188ZM50.191,60a1.907,1.907,0,0,0-.213-.921.81.81,0,0,0-.736-.414.964.964,0,0,0-.793.421,1.514,1.514,0,0,0-.3.914Z"/><path d="M55.2,62.175h-.454v-.609H54.73a1.2,1.2,0,0,1-1.157.7,1.322,1.322,0,0,1-1.138-.579,2.466,2.466,0,0,1-.387-1.426,2.5,2.5,0,0,1,.358-1.44,1.307,1.307,0,0,1,1.167-.564,1.271,1.271,0,0,1,.483.084,1.088,1.088,0,0,1,.348.208,1.023,1.023,0,0,1,.326.441h.014V56.547H55.2Zm-2.653-1.913a3.1,3.1,0,0,0,.05.548,2.155,2.155,0,0,0,.175.528,1.111,1.111,0,0,0,.341.367.852.852,0,0,0,.534.158.861.861,0,0,0,.523-.158,1.106,1.106,0,0,0,.338-.381,2.361,2.361,0,0,0,.238-1.062,3.178,3.178,0,0,0-.05-.558,2.063,2.063,0,0,0-.188-.511,1.112,1.112,0,0,0-.338-.388.926.926,0,0,0-.523-.145.915.915,0,0,0-.534.145.982.982,0,0,0-.341.374,1.856,1.856,0,0,0-.175.51A3.369,3.369,0,0,0,52.545,60.262Z"/><path d="M59.509,62.057a3.081,3.081,0,0,1-1.075.21,1.525,1.525,0,0,1-1.3-.579,2.375,2.375,0,0,1-.383-1.426,2.327,2.327,0,0,1,.436-1.448,1.361,1.361,0,0,1,1.125-.556,1.289,1.289,0,0,1,1.135.564,2.453,2.453,0,0,1,.341,1.334V60.4H57.246a1.635,1.635,0,0,0,.312,1.029,1.058,1.058,0,0,0,.91.437,2.608,2.608,0,0,0,1.041-.286ZM59.287,60a1.907,1.907,0,0,0-.213-.921.811.811,0,0,0-.737-.414.967.967,0,0,0-.793.421,1.513,1.513,0,0,0-.3.914Z"/><path d="M61.363,59.2c0-.353-.009-.639-.029-.853h.455v.732H61.8a1.621,1.621,0,0,1,.369-.574.8.8,0,0,1,.582-.25,1.471,1.471,0,0,1,.32.044v.491a1.22,1.22,0,0,0-.334-.045.77.77,0,0,0-.444.137,1,1,0,0,0-.284.366,1.892,1.892,0,0,0-.145.488,3.1,3.1,0,0,0-.05.542v1.894h-.454Z"/><path d="M66.574,61.562H66.56a1.109,1.109,0,0,1-.49.514,1.443,1.443,0,0,1-1.313.063.991.991,0,0,1-.379-.285,1.19,1.19,0,0,1-.217-.666,1.174,1.174,0,0,1,.224-.758,1.215,1.215,0,0,1,.561-.4,3.087,3.087,0,0,1,.742-.164q.393-.023.755-.022h.089v-.2q.021-.989-.846-.989a1.972,1.972,0,0,0-1.091.319V58.52a2.643,2.643,0,0,1,1.089-.262q1.317-.015,1.3,1.426v1.689a5.094,5.094,0,0,0,.039.8h-.45Zm-.042-1.315H66.4q-.3,0-.6.015a2.056,2.056,0,0,0-.568.129.877.877,0,0,0-.409.275.745.745,0,0,0-.167.507.583.583,0,0,0,.235.525.852.852,0,0,0,.536.165,1.064,1.064,0,0,0,.633-.165.954.954,0,0,0,.331-.374,1.325,1.325,0,0,0,.12-.46c.012-.157.018-.285.018-.385Z"/><path d="M68.44,61.779l2.229-3.027H68.457v-.4H71.2v.4l-2.3,3.019h2.3v.4H68.44Z"/><path d="M73.154,57.327H72.7V56.7h.454ZM72.7,58.35h.454v3.825H72.7Z"/><path d="M77.839,61.273a8.956,8.956,0,0,0,.031.9h-.443v-.681h-.014a1.246,1.246,0,0,1-.139.252,1.124,1.124,0,0,1-.223.257,1.031,1.031,0,0,1-.343.179,1.29,1.29,0,0,1-.494.085,1.135,1.135,0,0,1-.971-.421,1.7,1.7,0,0,1-.29-1.053V58.35h.453v2.326a1.506,1.506,0,0,0,.21.857.729.729,0,0,0,.672.33.992.992,0,0,0,.529-.134.892.892,0,0,0,.334-.331,1.378,1.378,0,0,0,.181-.451,2.179,2.179,0,0,0,.053-.48V58.35h.454Z"/><path d="M79.711,59.247c0-.293-.009-.593-.028-.9h.442v.681h.015a2.1,2.1,0,0,1,.152-.271,1.06,1.06,0,0,1,.216-.245,1.008,1.008,0,0,1,.34-.191,1.6,1.6,0,0,1,.486-.066,1.14,1.14,0,0,1,.98.422,1.778,1.778,0,0,1,.284,1.047v2.448h-.454V59.846a1.667,1.667,0,0,0-.2-.869.793.793,0,0,0-.686-.317.939.939,0,0,0-.86.448,1.409,1.409,0,0,0-.181.445,2.256,2.256,0,0,0-.057.506v2.116h-.454Z"/><path d="M86.781,61.621a2,2,0,0,0,.964.242.915.915,0,0,0,.581-.186.6.6,0,0,0,.241-.495.643.643,0,0,0-.27-.536,3.111,3.111,0,0,0-.617-.337c-.111-.054-.217-.112-.319-.172a2.841,2.841,0,0,1-.291-.2,1.1,1.1,0,0,1-.206-.279.771.771,0,0,1-.077-.353.908.908,0,0,1,.375-.811,1.482,1.482,0,0,1,.829-.234,3.911,3.911,0,0,1,.415.029,2.437,2.437,0,0,1,.5.143l-.043.41a2.2,2.2,0,0,0-.824-.18,1.046,1.046,0,0,0-.564.133.463.463,0,0,0-.171.19.661.661,0,0,0-.064.316.363.363,0,0,0,.082.224.8.8,0,0,0,.209.18c.088.051.187.1.3.157s.22.107.327.165a2.107,2.107,0,0,1,.632.422,1.121,1.121,0,0,1,.16,1.233,1.079,1.079,0,0,1-.312.338,1.627,1.627,0,0,1-.864.249,3.007,3.007,0,0,1-1.034-.182Z"/><path d="M91.853,62.175h-.535L90.061,58.35h.5l1.02,3.312H91.6l1.072-3.312h.479Z"/><path d="M94.94,57.327h-.454V56.7h.454Zm-.454,1.023h.454v3.825h-.454Z"/><path d="M96.394,61.779l2.229-3.027H96.41v-.4h2.746v.4l-2.305,3.019h2.305v.4H96.394Z"/><path d="M100.654,59.2c0-.353-.009-.639-.029-.853h.455v.732h.014a1.621,1.621,0,0,1,.369-.574.8.8,0,0,1,.582-.25,1.471,1.471,0,0,1,.32.044v.491a1.22,1.22,0,0,0-.334-.045.77.77,0,0,0-.444.137,1,1,0,0,0-.284.366,1.892,1.892,0,0,0-.145.488,3.1,3.1,0,0,0-.05.542v1.894h-.454Z"/><path d="M105.865,61.562h-.014a1.109,1.109,0,0,1-.49.514,1.443,1.443,0,0,1-1.313.063.991.991,0,0,1-.379-.285,1.19,1.19,0,0,1-.217-.666,1.174,1.174,0,0,1,.224-.758,1.215,1.215,0,0,1,.561-.4,3.087,3.087,0,0,1,.742-.164q.393-.023.755-.022h.089v-.2q.021-.989-.846-.989a1.972,1.972,0,0,0-1.091.319V58.52a2.643,2.643,0,0,1,1.089-.262q1.317-.015,1.3,1.426v1.689a5.094,5.094,0,0,0,.039.8h-.45Zm-.042-1.315h-.132q-.3,0-.6.015a2.056,2.056,0,0,0-.568.129.877.877,0,0,0-.409.275.745.745,0,0,0-.167.507.583.583,0,0,0,.235.525.852.852,0,0,0,.536.165,1.064,1.064,0,0,0,.633-.165.954.954,0,0,0,.331-.374,1.325,1.325,0,0,0,.12-.46c.012-.157.018-.285.018-.385Z"/><path d="M29.836,82.211a1.882,1.882,0,0,0,1.123.309,1.249,1.249,0,0,0,.813-.264,1.006,1.006,0,0,0,.328-.811.794.794,0,0,0-.363-.644,2.439,2.439,0,0,0-.373-.258c-.139-.08-.283-.16-.43-.238s-.284-.176-.419-.272a2.19,2.19,0,0,1-.38-.3,1.07,1.07,0,0,1-.362-.816,1.237,1.237,0,0,1,.472-1.009,1.815,1.815,0,0,1,1.132-.359,4.412,4.412,0,0,1,.465.028,3.256,3.256,0,0,1,.533.143l-.082.469a1.982,1.982,0,0,0-.924-.194,1.953,1.953,0,0,0-.384.037,1.12,1.12,0,0,0-.359.157.8.8,0,0,0-.252.272.86.86,0,0,0-.1.436.615.615,0,0,0,.1.345,1.034,1.034,0,0,0,.259.279,3.257,3.257,0,0,0,.38.238q.2.122.423.25a2.9,2.9,0,0,1,.8.568,1.3,1.3,0,0,1,.27.393,1.347,1.347,0,0,1,.092.516,1.305,1.305,0,0,1-.529,1.133,1.953,1.953,0,0,1-1.135.349,2.727,2.727,0,0,1-1.146-.226Z"/><path d="M38.073,82.875H37.52l-1.008-3.313h-.018l-1.008,3.313h-.553L33.74,79.05h.5l.972,3.312h.014l1.033-3.312h.554l.979,3.312h.015l1.025-3.312h.458Z"/><path d="M41.14,78.027h-.454V77.4h.454Zm-.454,1.023h.454v3.825h-.454Z"/><path d="M42.654,82.321a2,2,0,0,0,.964.243.91.91,0,0,0,.582-.187.6.6,0,0,0,.24-.495.646.646,0,0,0-.269-.536,3.222,3.222,0,0,0-.617-.337c-.112-.054-.218-.112-.32-.173a2.771,2.771,0,0,1-.29-.2,1.062,1.062,0,0,1-.206-.28A.745.745,0,0,1,42.66,80a.906.906,0,0,1,.376-.811,1.48,1.48,0,0,1,.829-.235,3.946,3.946,0,0,1,.415.029,2.629,2.629,0,0,1,.5.142l-.042.412a2.153,2.153,0,0,0-.824-.18,1.043,1.043,0,0,0-.565.132.463.463,0,0,0-.17.191.654.654,0,0,0-.064.315.363.363,0,0,0,.081.224.751.751,0,0,0,.21.179c.087.052.187.105.3.159s.22.106.326.165a2.056,2.056,0,0,1,.632.421,1.115,1.115,0,0,1,.16,1.233,1.03,1.03,0,0,1-.311.337,1.633,1.633,0,0,1-.864.25,3,3,0,0,1-1.034-.182Z"/><path d="M46.16,82.321a1.989,1.989,0,0,0,.964.243.91.91,0,0,0,.581-.187.6.6,0,0,0,.241-.495.647.647,0,0,0-.27-.536,3.222,3.222,0,0,0-.617-.337c-.111-.054-.217-.112-.319-.173a2.683,2.683,0,0,1-.291-.2,1.085,1.085,0,0,1-.206-.28A.745.745,0,0,1,46.166,80a.9.9,0,0,1,.375-.811,1.482,1.482,0,0,1,.829-.235,3.911,3.911,0,0,1,.415.029,2.638,2.638,0,0,1,.5.142l-.043.412a2.145,2.145,0,0,0-.824-.18,1.037,1.037,0,0,0-.564.132.465.465,0,0,0-.171.191.654.654,0,0,0-.064.315.358.358,0,0,0,.082.224.732.732,0,0,0,.209.179c.088.052.187.105.3.159s.22.106.327.165a2.068,2.068,0,0,1,.632.421,1.121,1.121,0,0,1,.16,1.233,1.043,1.043,0,0,1-.312.337,1.628,1.628,0,0,1-.864.25,3,3,0,0,1-1.034-.182Z"/><path d="M56.147,78.219a1.715,1.715,0,0,0-.546-.188,4.941,4.941,0,0,0-.586-.037,1.923,1.923,0,0,0-1.52.639,2.73,2.73,0,0,0-.007,3.248,1.881,1.881,0,0,0,1.527.639,3.531,3.531,0,0,0,.586-.055,1.5,1.5,0,0,0,.546-.172l.029.448a1.709,1.709,0,0,1-.557.171,3.979,3.979,0,0,1-.6.055,2.467,2.467,0,0,1-1.877-.752,2.755,2.755,0,0,1-.681-1.959,2.807,2.807,0,0,1,.688-1.957,2.459,2.459,0,0,1,1.87-.751q.245,0,.6.036a1.729,1.729,0,0,1,.557.156Z"/><path d="M57.923,80.963a2.306,2.306,0,0,1,.423-1.4,1.525,1.525,0,0,1,1.305-.608,1.552,1.552,0,0,1,1.323.608,2.582,2.582,0,0,1,0,2.786,1.554,1.554,0,0,1-1.323.615,1.527,1.527,0,0,1-1.305-.615A2.311,2.311,0,0,1,57.923,80.963Zm.5,0a1.876,1.876,0,0,0,.321,1.127,1.035,1.035,0,0,0,.911.474,1.074,1.074,0,0,0,.925-.474,1.943,1.943,0,0,0,.306-1.127,2,2,0,0,0-.306-1.143,1.083,1.083,0,0,0-.925-.459,1.043,1.043,0,0,0-.911.459A1.933,1.933,0,0,0,58.421,80.963Z"/><path d="M62.968,79.947q0-.44-.029-.9h.443v.68H63.4a2.315,2.315,0,0,1,.152-.27,1.089,1.089,0,0,1,.556-.437,1.629,1.629,0,0,1,.486-.065,1.145,1.145,0,0,1,.981.421,1.787,1.787,0,0,1,.283,1.049v2.447H65.4V80.546a1.679,1.679,0,0,0-.2-.87.789.789,0,0,0-.685-.315.938.938,0,0,0-.861.448,1.432,1.432,0,0,0-.181.443,2.269,2.269,0,0,0-.057.506v2.117h-.453Z"/><path d="M68.038,79.453H67.29v-.4h.748v-.279c0-.2.009-.406.028-.6a1.485,1.485,0,0,1,.11-.509.761.761,0,0,1,.3-.37.955.955,0,0,1,.541-.132c.078,0,.158,0,.241.007a.515.515,0,0,1,.188.066l-.028.414a.746.746,0,0,0-.363-.084.5.5,0,0,0-.344.106.6.6,0,0,0-.167.293,1.5,1.5,0,0,0-.043.367c0,.135-.007.264-.007.389v.333h.835v.4h-.835v3.422h-.454Z"/><path d="M73.293,82.756a3.038,3.038,0,0,1-1.075.211,1.517,1.517,0,0,1-1.3-.579,2.365,2.365,0,0,1-.384-1.425,2.326,2.326,0,0,1,.436-1.447,1.352,1.352,0,0,1,1.125-.558,1.291,1.291,0,0,1,1.135.564,2.449,2.449,0,0,1,.341,1.333V81.1H71.03a1.637,1.637,0,0,0,.312,1.029,1.063,1.063,0,0,0,.91.437,1.809,1.809,0,0,0,.569-.1,1.876,1.876,0,0,0,.472-.188Zm-.222-2.061a1.916,1.916,0,0,0-.213-.922.808.808,0,0,0-.736-.412.963.963,0,0,0-.793.42,1.51,1.51,0,0,0-.3.914Z"/><path d="M78.078,82.875h-.453v-.607H77.61a1.2,1.2,0,0,1-1.156.7,1.317,1.317,0,0,1-1.139-.579,2.463,2.463,0,0,1-.387-1.425,2.5,2.5,0,0,1,.359-1.441,1.3,1.3,0,0,1,1.167-.564,1.279,1.279,0,0,1,.483.084,1.082,1.082,0,0,1,.347.208,1.029,1.029,0,0,1,.326.441h.015V77.247h.453Zm-2.652-1.912a3,3,0,0,0,.05.547,2.12,2.12,0,0,0,.174.529,1.143,1.143,0,0,0,.341.367.852.852,0,0,0,.534.158.861.861,0,0,0,.523-.158,1.086,1.086,0,0,0,.338-.383,2.361,2.361,0,0,0,.239-1.06,3.288,3.288,0,0,0-.05-.559,2.02,2.02,0,0,0-.189-.51,1.128,1.128,0,0,0-.338-.39.925.925,0,0,0-.523-.143.915.915,0,0,0-.534.143.994.994,0,0,0-.341.375,1.819,1.819,0,0,0-.174.511A3.245,3.245,0,0,0,75.426,80.963Z"/><path d="M82.389,82.756a3.039,3.039,0,0,1-1.076.211,1.519,1.519,0,0,1-1.3-.579,2.365,2.365,0,0,1-.383-1.425,2.32,2.32,0,0,1,.436-1.447,1.352,1.352,0,0,1,1.124-.558,1.292,1.292,0,0,1,1.136.564,2.449,2.449,0,0,1,.341,1.333V81.1h-2.54a1.631,1.631,0,0,0,.313,1.029,1.063,1.063,0,0,0,.91.437,1.814,1.814,0,0,0,.569-.1,1.876,1.876,0,0,0,.472-.188Zm-.222-2.061a1.916,1.916,0,0,0-.213-.922.81.81,0,0,0-.737-.412.966.966,0,0,0-.793.42,1.516,1.516,0,0,0-.3.914Z"/><path d="M84.243,79.9q0-.531-.029-.853h.454v.732h.015a1.643,1.643,0,0,1,.369-.575.807.807,0,0,1,.582-.249,1.545,1.545,0,0,1,.32.044v.49a1.222,1.222,0,0,0-.334-.043.762.762,0,0,0-.444.135,1.01,1.01,0,0,0-.284.367,1.928,1.928,0,0,0-.145.488,3.022,3.022,0,0,0-.05.543v1.893h-.454Z"/><path d="M89.455,82.263H89.44a1.116,1.116,0,0,1-.489.514,1.466,1.466,0,0,1-.689.19,1.434,1.434,0,0,1-.624-.129.956.956,0,0,1-.38-.285,1.258,1.258,0,0,1,.007-1.422,1.224,1.224,0,0,1,.561-.4,3.087,3.087,0,0,1,.742-.165c.263-.013.515-.021.756-.021h.088v-.2q.023-.99-.846-.989a1.956,1.956,0,0,0-1.09.317v-.459a2.657,2.657,0,0,1,1.088-.261q1.317-.013,1.3,1.425v1.689a5.106,5.106,0,0,0,.038.8h-.449Zm-.043-1.316h-.131q-.3,0-.6.015a2.1,2.1,0,0,0-.569.129.869.869,0,0,0-.408.275.74.74,0,0,0-.167.507.586.586,0,0,0,.234.525.853.853,0,0,0,.537.166,1.063,1.063,0,0,0,.632-.166.956.956,0,0,0,.331-.375,1.317,1.317,0,0,0,.121-.459c.011-.156.017-.285.017-.385Z"/><path d="M93.258,79.453h-.843v2.48a.8.8,0,0,0,.117.444.4.4,0,0,0,.377.187.912.912,0,0,0,.423-.091l.029.388c-.055.02-.13.041-.227.066a1.345,1.345,0,0,1-.333.04.886.886,0,0,1-.471-.107.688.688,0,0,1-.252-.278,1.4,1.4,0,0,1-.1-.4c-.014-.152-.021-.316-.021-.491V79.453h-.726v-.4h.726v-.923l.454-.166V79.05h.843Z"/><path d="M95.2,78.027h-.453V77.4H95.2Zm-.453,1.023H95.2v3.825h-.453Z"/><path d="M96.715,80.963a2.312,2.312,0,0,1,.422-1.4,1.525,1.525,0,0,1,1.3-.608,1.549,1.549,0,0,1,1.323.608,2.582,2.582,0,0,1,0,2.786,1.551,1.551,0,0,1-1.323.615,1.527,1.527,0,0,1-1.3-.615A2.317,2.317,0,0,1,96.715,80.963Zm.5,0a1.876,1.876,0,0,0,.32,1.127,1.037,1.037,0,0,0,.911.474,1.074,1.074,0,0,0,.926-.474,1.943,1.943,0,0,0,.306-1.127,2,2,0,0,0-.306-1.143,1.083,1.083,0,0,0-.926-.459,1.046,1.046,0,0,0-.911.459A1.933,1.933,0,0,0,97.213,80.963Z"/><path d="M101.76,79.947q0-.44-.029-.9h.443v.68h.014a2.315,2.315,0,0,1,.152-.27,1.089,1.089,0,0,1,.556-.437,1.629,1.629,0,0,1,.486-.065,1.145,1.145,0,0,1,.981.421,1.787,1.787,0,0,1,.283,1.049v2.447h-.454V80.546a1.679,1.679,0,0,0-.195-.87.789.789,0,0,0-.685-.315.938.938,0,0,0-.861.448,1.432,1.432,0,0,0-.181.443,2.269,2.269,0,0,0-.057.506v2.117h-.453Z"/><path class="cls-2" d="M21.267,25.659A28.693,28.693,0,0,0,10.653,23.92h0A28.693,28.693,0,0,0,.037,25.659s-.356,7.7,1.151,12.048a16.087,16.087,0,0,0,9.462,9.8h0a16.09,16.09,0,0,0,9.462-9.8C21.622,33.355,21.267,25.659,21.267,25.659Z"/><polygon class="cls-3" points="17.706 32.293 17.706 36.534 12.759 36.534 12.759 41.481 8.518 41.481 8.518 36.534 3.571 36.534 3.571 32.293 8.518 32.293 8.518 27.347 12.757 27.347 12.759 32.293 17.706 32.293"/><path d="M177.217,25.884h2.41v.446h-1.912V28.2h1.825v.446h-1.825v2.47h-.5Z"/><path d="M183.63,31a3.038,3.038,0,0,1-1.075.211,1.523,1.523,0,0,1-1.3-.579,2.372,2.372,0,0,1-.383-1.425,2.324,2.324,0,0,1,.436-1.447,1.355,1.355,0,0,1,1.125-.558,1.287,1.287,0,0,1,1.135.565,2.447,2.447,0,0,1,.341,1.333v.242h-2.539a1.635,1.635,0,0,0,.312,1.029,1.063,1.063,0,0,0,.91.437,2.63,2.63,0,0,0,1.041-.287Zm-.222-2.061a1.921,1.921,0,0,0-.213-.921.81.81,0,0,0-.736-.413.964.964,0,0,0-.793.42,1.51,1.51,0,0,0-.3.914Z"/><path d="M188.416,31.119h-.455v-.607h-.013a1.2,1.2,0,0,1-1.156.7,1.323,1.323,0,0,1-1.14-.579,2.465,2.465,0,0,1-.387-1.425,2.5,2.5,0,0,1,.359-1.44,1.3,1.3,0,0,1,1.168-.565,1.273,1.273,0,0,1,.482.084,1.088,1.088,0,0,1,.348.208,1.028,1.028,0,0,1,.326.442h.014V25.491h.454Zm-2.653-1.912a3.092,3.092,0,0,0,.05.547,2.2,2.2,0,0,0,.174.529,1.125,1.125,0,0,0,.342.367.961.961,0,0,0,1.056,0,1.1,1.1,0,0,0,.339-.381,2.377,2.377,0,0,0,.238-1.062,3.276,3.276,0,0,0-.049-.559,2.115,2.115,0,0,0-.189-.51,1.149,1.149,0,0,0-.339-.39,1.046,1.046,0,0,0-1.056,0,1,1,0,0,0-.342.375,1.885,1.885,0,0,0-.174.511A3.352,3.352,0,0,0,185.763,29.207Z"/><path d="M192.726,31a3.042,3.042,0,0,1-1.075.211,1.521,1.521,0,0,1-1.3-.579,2.365,2.365,0,0,1-.384-1.425,2.325,2.325,0,0,1,.437-1.447,1.352,1.352,0,0,1,1.125-.558,1.29,1.29,0,0,1,1.135.565A2.447,2.447,0,0,1,193,29.1v.242h-2.539a1.636,1.636,0,0,0,.313,1.029,1.063,1.063,0,0,0,.91.437,2.643,2.643,0,0,0,1.041-.287Zm-.223-2.061a1.921,1.921,0,0,0-.212-.921.811.811,0,0,0-.737-.413.966.966,0,0,0-.793.42,1.516,1.516,0,0,0-.3.914Z"/><path d="M194.58,28.147c0-.354-.009-.638-.029-.853h.454v.732h.015a1.643,1.643,0,0,1,.369-.575.8.8,0,0,1,.582-.249,1.545,1.545,0,0,1,.32.044v.491a1.216,1.216,0,0,0-.334-.044.76.76,0,0,0-.444.136,1,1,0,0,0-.284.366,1.965,1.965,0,0,0-.145.489,3,3,0,0,0-.05.543v1.892h-.454Z"/><path d="M199.792,30.507h-.014a1.126,1.126,0,0,1-.489.514,1.449,1.449,0,0,1-1.314.062.993.993,0,0,1-.38-.285,1.2,1.2,0,0,1-.216-.666,1.178,1.178,0,0,1,.224-.758,1.222,1.222,0,0,1,.561-.4,2.986,2.986,0,0,1,.741-.164q.393-.023.756-.023h.089v-.2q.021-.989-.846-.989a1.976,1.976,0,0,0-1.091.317v-.458A2.643,2.643,0,0,1,198.9,27.2q1.317-.015,1.3,1.426v1.688a4.989,4.989,0,0,0,.038.8h-.45Zm-.042-1.316h-.131q-.3,0-.6.015a2.139,2.139,0,0,0-.568.129.893.893,0,0,0-.41.275.745.745,0,0,0-.167.507.59.59,0,0,0,.235.526.861.861,0,0,0,.537.165,1.073,1.073,0,0,0,.633-.165.975.975,0,0,0,.33-.375,1.328,1.328,0,0,0,.121-.459c.012-.157.018-.286.018-.386Z"/><path d="M202,25.491h.455v5.628H202Z"/><path d="M206.932,25.884h1.256a2.471,2.471,0,0,1,1.954.724,2.838,2.838,0,0,1,.581,1.884,2.407,2.407,0,0,1-.822,2.019,3.347,3.347,0,0,1-2.082.608h-.887Zm.5,4.789h.416a2.036,2.036,0,0,0,2.381-2.208,2.138,2.138,0,0,0-.6-1.677,2.257,2.257,0,0,0-1.463-.458h-.737Z"/><path d="M215,31a3.043,3.043,0,0,1-1.076.211,1.519,1.519,0,0,1-1.3-.579,2.365,2.365,0,0,1-.384-1.425,2.324,2.324,0,0,1,.436-1.447A1.355,1.355,0,0,1,213.8,27.2a1.287,1.287,0,0,1,1.135.565,2.438,2.438,0,0,1,.341,1.333v.242h-2.539a1.635,1.635,0,0,0,.312,1.029,1.063,1.063,0,0,0,.911.437,1.808,1.808,0,0,0,.568-.1,1.827,1.827,0,0,0,.473-.188Zm-.223-2.061a1.909,1.909,0,0,0-.213-.921.809.809,0,0,0-.736-.413.964.964,0,0,0-.793.42,1.516,1.516,0,0,0-.3.914Z"/><path d="M216.807,27.294h.454l-.031.7h.014c.031-.053.074-.129.131-.223a1.323,1.323,0,0,1,.22-.257,1.4,1.4,0,0,1,.341-.224,1.3,1.3,0,0,1,.494-.084,1.319,1.319,0,0,1,1.18.565,2.653,2.653,0,0,1,.348,1.44,2.517,2.517,0,0,1-.376,1.425,1.354,1.354,0,0,1-1.152.579,1.149,1.149,0,0,1-1.155-.741h-.014v2.224h-.454Zm2.653,1.913a4.4,4.4,0,0,0-.036-.573,1.579,1.579,0,0,0-.181-.511.867.867,0,0,0-.338-.375.964.964,0,0,0-.544-.143.876.876,0,0,0-.513.143,1.147,1.147,0,0,0-.342.39,1.716,1.716,0,0,0-.18.51,2.54,2.54,0,0,0-.065.559,2.246,2.246,0,0,0,.245,1.062,1.1,1.1,0,0,0,.342.381.817.817,0,0,0,.513.158.9.9,0,0,0,.544-.158.959.959,0,0,0,.338-.367,1.818,1.818,0,0,0,.181-.529A4.052,4.052,0,0,0,219.46,29.207Z"/><path d="M223.737,30.507h-.014a1.116,1.116,0,0,1-.489.514,1.449,1.449,0,0,1-1.314.062.981.981,0,0,1-.379-.285,1.261,1.261,0,0,1,.007-1.424,1.222,1.222,0,0,1,.561-.4,3,3,0,0,1,.741-.164q.395-.023.756-.023h.089v-.2q.021-.989-.846-.989a1.976,1.976,0,0,0-1.091.317v-.458a2.643,2.643,0,0,1,1.089-.262q1.317-.015,1.3,1.426v1.688a4.989,4.989,0,0,0,.038.8h-.45Zm-.042-1.316h-.131q-.3,0-.6.015a2.139,2.139,0,0,0-.568.129.885.885,0,0,0-.409.275.74.74,0,0,0-.167.507.589.589,0,0,0,.234.526.863.863,0,0,0,.537.165,1.071,1.071,0,0,0,.633-.165.966.966,0,0,0,.33-.375,1.328,1.328,0,0,0,.121-.459c.012-.157.018-.286.018-.386Z"/><path d="M225.947,28.147c0-.354-.009-.638-.029-.853h.455v.732h.014a1.643,1.643,0,0,1,.369-.575.8.8,0,0,1,.582-.249,1.535,1.535,0,0,1,.32.044v.491a1.216,1.216,0,0,0-.334-.044.763.763,0,0,0-.444.136,1,1,0,0,0-.284.366,1.965,1.965,0,0,0-.145.489,3,3,0,0,0-.05.543v1.892h-.454Z"/><path d="M230.625,27.7h-.843v2.481a.8.8,0,0,0,.117.444.4.4,0,0,0,.377.187.912.912,0,0,0,.423-.091l.028.388c-.054.02-.13.041-.227.066a1.333,1.333,0,0,1-.333.04.882.882,0,0,1-.47-.107.68.68,0,0,1-.252-.278,1.409,1.409,0,0,1-.1-.4c-.014-.152-.021-.316-.021-.491V27.7H228.6v-.4h.727v-.923l.454-.165v1.088h.843Z"/><path d="M236.663,31.119V28.573a2.392,2.392,0,0,0-.03-.392.8.8,0,0,0-.144-.3.617.617,0,0,0-.248-.209,1.041,1.041,0,0,0-.4-.066.951.951,0,0,0-.711.331A1.556,1.556,0,0,0,234.808,29v2.116h-.453V28.573a2.275,2.275,0,0,0-.033-.392.819.819,0,0,0-.145-.3.617.617,0,0,0-.248-.209,1.037,1.037,0,0,0-.4-.066.951.951,0,0,0-.711.331A1.551,1.551,0,0,0,232.5,29v2.116h-.455V28.191c0-.293-.009-.591-.029-.9h.457v.644l.015.008a1.649,1.649,0,0,1,.141-.234.855.855,0,0,1,.209-.238,1.287,1.287,0,0,1,.336-.2,1.492,1.492,0,0,1,.5-.073,1.639,1.639,0,0,1,.292.029.91.91,0,0,1,.3.121.809.809,0,0,1,.263.241,1.1,1.1,0,0,1,.157.416h.015a1.335,1.335,0,0,1,.456-.573,1.289,1.289,0,0,1,.764-.234,1.158,1.158,0,0,1,.894.36,1.347,1.347,0,0,1,.307.922v2.635Z"/><path d="M241.435,31a3.042,3.042,0,0,1-1.075.211,1.521,1.521,0,0,1-1.3-.579,2.365,2.365,0,0,1-.384-1.425,2.325,2.325,0,0,1,.437-1.447,1.352,1.352,0,0,1,1.125-.558,1.29,1.29,0,0,1,1.135.565,2.447,2.447,0,0,1,.34,1.333v.242h-2.539a1.636,1.636,0,0,0,.313,1.029,1.063,1.063,0,0,0,.91.437,2.643,2.643,0,0,0,1.041-.287Zm-.223-2.061a1.921,1.921,0,0,0-.212-.921.811.811,0,0,0-.737-.413.966.966,0,0,0-.793.42,1.516,1.516,0,0,0-.3.914Z"/><path d="M243.289,28.191c0-.293-.009-.591-.029-.9h.444v.682h.013a2.33,2.33,0,0,1,.153-.272,1.055,1.055,0,0,1,.215-.245,1,1,0,0,1,.34-.19,1.6,1.6,0,0,1,.486-.067,1.141,1.141,0,0,1,.981.422,1.783,1.783,0,0,1,.283,1.048v2.447h-.453V28.79a1.672,1.672,0,0,0-.2-.869.792.792,0,0,0-.687-.316.936.936,0,0,0-.859.448,1.387,1.387,0,0,0-.182.443,2.27,2.27,0,0,0-.056.507v2.116h-.454Z"/><path d="M249.641,27.7H248.8v2.481a.788.788,0,0,0,.118.444.4.4,0,0,0,.376.187.909.909,0,0,0,.423-.091l.029.388c-.054.02-.13.041-.227.066a1.339,1.339,0,0,1-.333.04.888.888,0,0,1-.471-.107.694.694,0,0,1-.252-.278,1.409,1.409,0,0,1-.095-.4c-.014-.152-.022-.316-.022-.491V27.7h-.726v-.4h.726v-.923l.454-.165v1.088h.843Z"/><path d="M253.516,29.207a2.3,2.3,0,0,1,.422-1.4,1.52,1.52,0,0,1,1.305-.609,1.546,1.546,0,0,1,1.323.609,2.579,2.579,0,0,1,0,2.784,1.553,1.553,0,0,1-1.323.616,1.528,1.528,0,0,1-1.305-.616A2.316,2.316,0,0,1,253.516,29.207Zm.5,0a1.883,1.883,0,0,0,.321,1.127,1.032,1.032,0,0,0,.911.474,1.068,1.068,0,0,0,.925-.474,1.936,1.936,0,0,0,.306-1.127,2,2,0,0,0-.306-1.143,1.082,1.082,0,0,0-.925-.459,1.044,1.044,0,0,0-.911.459A1.945,1.945,0,0,0,254.013,29.207Z"/><path d="M258.872,27.7h-.748v-.4h.748v-.278c0-.2.009-.406.028-.6a1.486,1.486,0,0,1,.11-.51.775.775,0,0,1,.3-.37.959.959,0,0,1,.542-.132c.078,0,.158,0,.241.008a.481.481,0,0,1,.188.066l-.028.414a.732.732,0,0,0-.363-.085.5.5,0,0,0-.345.106.61.61,0,0,0-.167.294,1.531,1.531,0,0,0-.042.366c-.005.134-.007.264-.007.389v.333h.835v.4h-.835v3.423h-.454Z"/><path d="M264.366,25.884h2.479v.446h-1.982V28.2h1.883v.446h-1.883v2.024h2.071v.446h-2.568Z"/><path d="M271.062,27.8a1.918,1.918,0,0,0-.8-.2,1.263,1.263,0,0,0-1.022.441,1.947,1.947,0,0,0-.008,2.281,1.175,1.175,0,0,0,.98.481,2.134,2.134,0,0,0,.838-.172l.042.44a2.98,2.98,0,0,1-.95.135,1.593,1.593,0,0,1-1.33-.608,2.233,2.233,0,0,1-.443-1.4,2.059,2.059,0,0,1,.507-1.447A1.717,1.717,0,0,1,270.2,27.2a2.705,2.705,0,0,1,.567.051,1.787,1.787,0,0,1,.2.048.784.784,0,0,1,.124.051Z"/><path d="M272.282,29.207a2.3,2.3,0,0,1,.422-1.4,1.519,1.519,0,0,1,1.3-.609,1.548,1.548,0,0,1,1.324.609,2.579,2.579,0,0,1,0,2.784,1.555,1.555,0,0,1-1.324.616,1.526,1.526,0,0,1-1.3-.616A2.31,2.31,0,0,1,272.282,29.207Zm.5,0a1.882,1.882,0,0,0,.32,1.127,1.033,1.033,0,0,0,.911.474,1.069,1.069,0,0,0,.926-.474,1.943,1.943,0,0,0,.306-1.127,2.008,2.008,0,0,0-.306-1.143,1.083,1.083,0,0,0-.926-.459,1.046,1.046,0,0,0-.911.459A1.944,1.944,0,0,0,272.779,29.207Z"/><path d="M277.325,28.191c0-.293-.009-.591-.029-.9h.444v.682h.013a2.33,2.33,0,0,1,.153-.272,1.037,1.037,0,0,1,.216-.245.987.987,0,0,1,.339-.19,1.6,1.6,0,0,1,.486-.067,1.141,1.141,0,0,1,.981.422,1.783,1.783,0,0,1,.283,1.048v2.447h-.453V28.79a1.672,1.672,0,0,0-.195-.869.792.792,0,0,0-.687-.316.936.936,0,0,0-.859.448,1.41,1.41,0,0,0-.182.443,2.27,2.27,0,0,0-.056.507v2.116h-.454Z"/><path d="M281.8,29.207a2.3,2.3,0,0,1,.422-1.4,1.522,1.522,0,0,1,1.3-.609,1.546,1.546,0,0,1,1.323.609,2.579,2.579,0,0,1,0,2.784,1.553,1.553,0,0,1-1.323.616,1.529,1.529,0,0,1-1.3-.616A2.316,2.316,0,0,1,281.8,29.207Zm.5,0a1.883,1.883,0,0,0,.321,1.127,1.033,1.033,0,0,0,.911.474,1.071,1.071,0,0,0,.926-.474,1.943,1.943,0,0,0,.305-1.127,2.007,2.007,0,0,0-.305-1.143,1.085,1.085,0,0,0-.926-.459,1.046,1.046,0,0,0-.911.459A1.945,1.945,0,0,0,282.3,29.207Z"/><path d="M291.388,31.119V28.573a2.513,2.513,0,0,0-.029-.392.788.788,0,0,0-.145-.3.6.6,0,0,0-.248-.209,1.032,1.032,0,0,0-.395-.066.95.95,0,0,0-.711.331A1.556,1.556,0,0,0,289.534,29v2.116h-.453V28.573a2.176,2.176,0,0,0-.034-.392.833.833,0,0,0-.144-.3.63.63,0,0,0-.248-.209,1.042,1.042,0,0,0-.4-.066.953.953,0,0,0-.711.331A1.556,1.556,0,0,0,287.222,29v2.116h-.454V28.191c0-.293-.01-.591-.029-.9h.457v.644l.014.008a1.764,1.764,0,0,1,.142-.234.839.839,0,0,1,.209-.238,1.27,1.27,0,0,1,.336-.2,1.492,1.492,0,0,1,.5-.073,1.647,1.647,0,0,1,.292.029.918.918,0,0,1,.3.121.816.816,0,0,1,.262.241,1.1,1.1,0,0,1,.158.416h.014a1.335,1.335,0,0,1,.456-.573,1.291,1.291,0,0,1,.764-.234,1.159,1.159,0,0,1,.895.36,1.347,1.347,0,0,1,.306.922v2.635Z"/><path d="M294.132,26.271h-.454v-.629h.454Zm-.454,1.023h.454v3.825h-.454Z"/><path d="M298.34,27.8a1.915,1.915,0,0,0-.795-.2,1.263,1.263,0,0,0-1.022.441,1.947,1.947,0,0,0-.008,2.281,1.177,1.177,0,0,0,.981.481,2.138,2.138,0,0,0,.838-.172l.041.44a2.976,2.976,0,0,1-.95.135,1.594,1.594,0,0,1-1.33-.608,2.233,2.233,0,0,1-.443-1.4,2.064,2.064,0,0,1,.508-1.447,1.715,1.715,0,0,1,1.322-.558,2.705,2.705,0,0,1,.567.051,1.787,1.787,0,0,1,.2.048.784.784,0,0,1,.124.051Z"/><path d="M304.115,25.884h.567l2.015,5.235h-.523l-.547-1.4h-2.56l-.544,1.4h-.486Zm.248.49-1.105,2.9h2.2Z"/><path d="M308.417,27.7h-.748v-.4h.748v-.278c0-.2.01-.406.029-.6a1.486,1.486,0,0,1,.11-.51.775.775,0,0,1,.3-.37.959.959,0,0,1,.542-.132c.078,0,.158,0,.241.008a.481.481,0,0,1,.188.066l-.029.414a.726.726,0,0,0-.362-.085.5.5,0,0,0-.345.106.61.61,0,0,0-.167.294,1.53,1.53,0,0,0-.043.366c0,.134-.006.264-.006.389v.333h.835v.4h-.835v3.423h-.455Z"/><path d="M311.366,27.7h-.748v-.4h.748v-.278c0-.2.009-.406.028-.6a1.486,1.486,0,0,1,.11-.51.781.781,0,0,1,.3-.37.959.959,0,0,1,.542-.132c.078,0,.158,0,.241.008a.475.475,0,0,1,.188.066l-.028.414a.732.732,0,0,0-.363-.085.5.5,0,0,0-.344.106.6.6,0,0,0-.167.294,1.481,1.481,0,0,0-.043.366c0,.134-.007.264-.007.389v.333h.835v.4h-.835v3.423h-.454Z"/><path d="M316.266,30.507h-.014a1.116,1.116,0,0,1-.489.514,1.447,1.447,0,0,1-1.313.062.993.993,0,0,1-.38-.285,1.193,1.193,0,0,1-.216-.666,1.172,1.172,0,0,1,.224-.758,1.219,1.219,0,0,1,.56-.4,3.006,3.006,0,0,1,.741-.164q.394-.023.756-.023h.089v-.2q.022-.989-.846-.989a1.972,1.972,0,0,0-1.09.317v-.458a2.638,2.638,0,0,1,1.088-.262q1.317-.015,1.3,1.426v1.688a4.989,4.989,0,0,0,.038.8h-.45Zm-.042-1.316h-.131q-.3,0-.6.015a2.147,2.147,0,0,0-.569.129.89.89,0,0,0-.409.275.745.745,0,0,0-.167.507.589.589,0,0,0,.234.526.866.866,0,0,0,.538.165,1.07,1.07,0,0,0,.632-.165.958.958,0,0,0,.33-.375,1.308,1.308,0,0,0,.122-.459c.011-.157.017-.286.017-.386Z"/><path d="M318.93,26.271h-.454v-.629h.454Zm-.454,1.023h.454v3.825h-.454Z"/><path d="M320.728,28.147q0-.531-.028-.853h.454v.732h.014a1.632,1.632,0,0,1,.37-.575.8.8,0,0,1,.582-.249,1.535,1.535,0,0,1,.319.044v.491a1.216,1.216,0,0,0-.334-.044.757.757,0,0,0-.443.136,1,1,0,0,0-.285.366,1.965,1.965,0,0,0-.145.489,3.09,3.09,0,0,0-.05.543v1.892h-.454Z"/><path d="M323.529,30.565a1.99,1.99,0,0,0,.965.243.91.91,0,0,0,.581-.187.6.6,0,0,0,.241-.495.649.649,0,0,0-.27-.536,3.3,3.3,0,0,0-.617-.337c-.111-.054-.218-.111-.319-.173a2.549,2.549,0,0,1-.291-.2,1.074,1.074,0,0,1-.206-.279.755.755,0,0,1-.078-.352.9.9,0,0,1,.376-.81,1.463,1.463,0,0,1,.829-.236,3.928,3.928,0,0,1,.415.029,2.638,2.638,0,0,1,.5.142l-.043.411a2.185,2.185,0,0,0-.824-.179,1.052,1.052,0,0,0-.565.132.472.472,0,0,0-.171.191.667.667,0,0,0-.063.315.365.365,0,0,0,.081.224.783.783,0,0,0,.21.179c.088.052.186.105.3.159s.22.106.327.165a2.1,2.1,0,0,1,.632.422,1.119,1.119,0,0,1,.16,1.232,1.035,1.035,0,0,1-.313.337,1.618,1.618,0,0,1-.863.25,3.007,3.007,0,0,1-1.034-.182Z"/><path d="M327.555,30.489h.612l-.573,1.634h-.459Z"/><path d="M177.284,36.233h2.479v.447h-1.982v1.873h1.883V39h-1.883v2.023h2.071v.447h-2.568Z"/><path d="M184.5,41.469h-.455v-.608h-.013a1.2,1.2,0,0,1-1.157.7,1.323,1.323,0,0,1-1.139-.58,2.462,2.462,0,0,1-.387-1.424,2.507,2.507,0,0,1,.359-1.441,1.3,1.3,0,0,1,1.167-.564,1.275,1.275,0,0,1,.483.084,1.07,1.07,0,0,1,.348.208,1.032,1.032,0,0,1,.326.441h.014V35.841h.454Zm-2.653-1.912a3.1,3.1,0,0,0,.05.547,2.2,2.2,0,0,0,.174.529,1.145,1.145,0,0,0,.342.367.966.966,0,0,0,1.056,0,1.112,1.112,0,0,0,.339-.382,2.373,2.373,0,0,0,.238-1.061A3.267,3.267,0,0,0,184,39a2.107,2.107,0,0,0-.189-.511,1.137,1.137,0,0,0-.339-.389,1.046,1.046,0,0,0-1.056,0,1,1,0,0,0-.342.375,1.889,1.889,0,0,0-.174.51A3.363,3.363,0,0,0,181.847,39.557Z"/><path d="M189.214,40.567a8.973,8.973,0,0,0,.032.9H188.8v-.681h-.013a1.322,1.322,0,0,1-.139.252,1.154,1.154,0,0,1-.224.257,1.041,1.041,0,0,1-.343.18,1.305,1.305,0,0,1-.493.084,1.13,1.13,0,0,1-.971-.422,1.7,1.7,0,0,1-.291-1.051V37.644h.454v2.325a1.5,1.5,0,0,0,.21.858.727.727,0,0,0,.671.33.972.972,0,0,0,.529-.136.862.862,0,0,0,.334-.33,1.346,1.346,0,0,0,.182-.451,2.213,2.213,0,0,0,.053-.48V37.644h.453Z"/><path d="M193.5,38.149a1.92,1.92,0,0,0-.8-.194,1.262,1.262,0,0,0-1.023.441,1.947,1.947,0,0,0-.008,2.281,1.18,1.18,0,0,0,.981.48,2.12,2.12,0,0,0,.838-.172l.042.441a3.008,3.008,0,0,1-.95.135,1.594,1.594,0,0,1-1.331-.609,2.236,2.236,0,0,1-.443-1.395,2.066,2.066,0,0,1,.508-1.448,1.714,1.714,0,0,1,1.322-.557,2.65,2.65,0,0,1,.568.051,1.859,1.859,0,0,1,.2.047,1.2,1.2,0,0,1,.124.051Z"/><path d="M197.127,40.856h-.013a1.124,1.124,0,0,1-.489.515,1.449,1.449,0,0,1-1.314.062.994.994,0,0,1-.38-.286,1.2,1.2,0,0,1-.216-.666,1.175,1.175,0,0,1,.224-.757,1.219,1.219,0,0,1,.561-.4,3.031,3.031,0,0,1,.741-.164q.393-.023.756-.022h.088v-.2q.022-.989-.845-.988a1.975,1.975,0,0,0-1.091.316v-.458a2.642,2.642,0,0,1,1.089-.261q1.317-.015,1.3,1.426v1.688a4.876,4.876,0,0,0,.038.8h-.451Zm-.042-1.315h-.13q-.3,0-.6.015a2.056,2.056,0,0,0-.568.129.886.886,0,0,0-.41.275.745.745,0,0,0-.167.507.587.587,0,0,0,.235.525.855.855,0,0,0,.537.165,1.068,1.068,0,0,0,.633-.165.961.961,0,0,0,.33-.375,1.317,1.317,0,0,0,.121-.459c.012-.156.017-.285.017-.386Z"/><path d="M200.932,38.046h-.843v2.48a.791.791,0,0,0,.118.445.4.4,0,0,0,.377.186.9.9,0,0,0,.422-.091l.029.389c-.054.02-.13.041-.227.066a1.339,1.339,0,0,1-.333.04.9.9,0,0,1-.471-.107.694.694,0,0,1-.252-.278,1.408,1.408,0,0,1-.095-.4c-.014-.151-.022-.315-.022-.491V38.046h-.726v-.4h.726v-.923l.454-.165v1.088h.843Z"/><path d="M202.876,36.621h-.454v-.63h.454Zm-.454,1.023h.454v3.825h-.454Z"/><path d="M204.389,39.557a2.31,2.31,0,0,1,.422-1.4,1.522,1.522,0,0,1,1.305-.608,1.548,1.548,0,0,1,1.323.608,2.579,2.579,0,0,1,0,2.784,1.551,1.551,0,0,1-1.323.617,1.526,1.526,0,0,1-1.305-.617A2.311,2.311,0,0,1,204.389,39.557Zm.5,0a1.883,1.883,0,0,0,.321,1.127,1.033,1.033,0,0,0,.911.473,1.069,1.069,0,0,0,.925-.473,1.936,1.936,0,0,0,.306-1.127,2,2,0,0,0-.306-1.143,1.079,1.079,0,0,0-.925-.459,1.042,1.042,0,0,0-.911.459A1.945,1.945,0,0,0,204.886,39.557Z"/><path d="M209.433,38.541q0-.439-.028-.9h.443v.681h.014a2.462,2.462,0,0,1,.152-.271,1.06,1.06,0,0,1,.216-.245,1.01,1.01,0,0,1,.34-.191,1.6,1.6,0,0,1,.485-.066,1.142,1.142,0,0,1,.982.422,1.787,1.787,0,0,1,.283,1.047v2.448h-.453V39.14a1.667,1.667,0,0,0-.2-.869.788.788,0,0,0-.686-.316.938.938,0,0,0-.86.447,1.423,1.423,0,0,0-.181.444,2.271,2.271,0,0,0-.057.507v2.116h-.454Z"/><path d="M218.988,40.856h-.014a1.114,1.114,0,0,1-.489.515,1.449,1.449,0,0,1-1.314.062.983.983,0,0,1-.379-.286,1.26,1.26,0,0,1,.007-1.423,1.224,1.224,0,0,1,.561-.4,3.031,3.031,0,0,1,.741-.164q.394-.023.756-.022h.089v-.2q.021-.989-.846-.988a1.975,1.975,0,0,0-1.091.316v-.458a2.642,2.642,0,0,1,1.089-.261q1.317-.015,1.3,1.426v1.688a4.989,4.989,0,0,0,.038.8h-.45Zm-.042-1.315h-.131q-.3,0-.6.015a2.064,2.064,0,0,0-.568.129.877.877,0,0,0-.409.275.74.74,0,0,0-.167.507.586.586,0,0,0,.234.525.857.857,0,0,0,.537.165,1.064,1.064,0,0,0,.633-.165.953.953,0,0,0,.33-.375,1.317,1.317,0,0,0,.121-.459c.012-.156.018-.285.018-.386Z"/><path d="M221.2,38.541c0-.293-.009-.592-.029-.9h.444v.681h.013a2.319,2.319,0,0,1,.153-.271,1.037,1.037,0,0,1,.216-.245,1,1,0,0,1,.339-.191,1.6,1.6,0,0,1,.486-.066,1.139,1.139,0,0,1,.981.422,1.78,1.78,0,0,1,.283,1.047v2.448h-.453V39.14a1.667,1.667,0,0,0-.195-.869.79.79,0,0,0-.687-.316.935.935,0,0,0-.859.447,1.426,1.426,0,0,0-.182.444,2.27,2.27,0,0,0-.056.507v2.116H221.2Z"/><path d="M228.887,41.469h-.454v-.608h-.014a1.2,1.2,0,0,1-1.156.7,1.322,1.322,0,0,1-1.139-.58,2.462,2.462,0,0,1-.387-1.424,2.514,2.514,0,0,1,.358-1.441,1.305,1.305,0,0,1,1.168-.564,1.275,1.275,0,0,1,.483.084,1.075,1.075,0,0,1,.347.208,1.015,1.015,0,0,1,.326.441h.015V35.841h.453Zm-2.652-1.912a3.009,3.009,0,0,0,.05.547,2.161,2.161,0,0,0,.174.529A1.142,1.142,0,0,0,226.8,41a.968.968,0,0,0,1.057,0,1.112,1.112,0,0,0,.339-.382,2.373,2.373,0,0,0,.238-1.061,3.27,3.27,0,0,0-.05-.559,2.1,2.1,0,0,0-.188-.511,1.137,1.137,0,0,0-.339-.389,1.048,1.048,0,0,0-1.057,0,.993.993,0,0,0-.341.375,1.856,1.856,0,0,0-.174.51A3.265,3.265,0,0,0,226.235,39.557Z"/><path d="M233.452,36.233h1.306q1.449-.025,1.489,1.356a1.089,1.089,0,0,1-.33.816,1.415,1.415,0,0,1-.795.393v.014a.625.625,0,0,1,.422.2.753.753,0,0,1,.124.19c.038.074.075.156.11.245l.862,2.027h-.551l-.735-1.77a1.235,1.235,0,0,0-.424-.608.564.564,0,0,0-.249-.085c-.092-.005-.2-.007-.319-.007h-.413v2.47h-.5Zm.5,2.32h.531a1.694,1.694,0,0,0,.862-.209.814.814,0,0,0,.407-.753,1.1,1.1,0,0,0-.1-.511.614.614,0,0,0-.277-.271,1.135,1.135,0,0,0-.411-.111q-.231-.018-.5-.018h-.517Z"/><path d="M240.626,41.35a3.06,3.06,0,0,1-1.075.211,1.52,1.52,0,0,1-1.3-.58,2.362,2.362,0,0,1-.384-1.424,2.33,2.33,0,0,1,.436-1.448,1.354,1.354,0,0,1,1.125-.557,1.289,1.289,0,0,1,1.135.564,2.443,2.443,0,0,1,.341,1.333v.242h-2.539a1.64,1.64,0,0,0,.312,1.03,1.062,1.062,0,0,0,.91.436,1.806,1.806,0,0,0,.569-.1,1.839,1.839,0,0,0,.472-.188Zm-.222-2.061a1.916,1.916,0,0,0-.213-.922.81.81,0,0,0-.736-.412.962.962,0,0,0-.793.42,1.505,1.505,0,0,0-.3.914Z"/><path d="M242.2,40.915a2,2,0,0,0,.965.242.909.909,0,0,0,.581-.186.6.6,0,0,0,.241-.495.651.651,0,0,0-.27-.537,3.246,3.246,0,0,0-.617-.336c-.111-.054-.218-.112-.319-.173a2.683,2.683,0,0,1-.291-.2,1.079,1.079,0,0,1-.206-.28.751.751,0,0,1-.078-.351.9.9,0,0,1,.376-.811,1.47,1.47,0,0,1,.829-.235,3.928,3.928,0,0,1,.415.029,2.5,2.5,0,0,1,.5.142l-.043.411a2.185,2.185,0,0,0-.824-.179,1.052,1.052,0,0,0-.565.132.47.47,0,0,0-.171.19.671.671,0,0,0-.063.316.36.36,0,0,0,.081.223.785.785,0,0,0,.21.18c.088.052.186.1.3.158s.22.107.327.165a2.12,2.12,0,0,1,.632.422,1.121,1.121,0,0,1,.16,1.233,1.046,1.046,0,0,1-.313.337,1.618,1.618,0,0,1-.863.25,3.007,3.007,0,0,1-1.034-.182Z"/><path d="M248.469,41.35a3.06,3.06,0,0,1-1.075.211,1.523,1.523,0,0,1-1.3-.58,2.368,2.368,0,0,1-.383-1.424,2.323,2.323,0,0,1,.436-1.448,1.351,1.351,0,0,1,1.125-.557,1.289,1.289,0,0,1,1.135.564,2.452,2.452,0,0,1,.341,1.333v.242h-2.539a1.64,1.64,0,0,0,.312,1.03,1.062,1.062,0,0,0,.91.436,1.811,1.811,0,0,0,.569-.1,1.839,1.839,0,0,0,.472-.188Zm-.222-2.061a1.928,1.928,0,0,0-.213-.922.812.812,0,0,0-.737-.412.963.963,0,0,0-.793.42,1.511,1.511,0,0,0-.3.914Z"/><path d="M252.45,40.856h-.014a1.114,1.114,0,0,1-.489.515,1.449,1.449,0,0,1-1.314.062.994.994,0,0,1-.38-.286,1.189,1.189,0,0,1-.215-.666,1.175,1.175,0,0,1,.223-.757,1.224,1.224,0,0,1,.561-.4,3.031,3.031,0,0,1,.741-.164q.394-.023.756-.022h.089v-.2q.021-.989-.846-.988a1.975,1.975,0,0,0-1.091.316v-.458a2.642,2.642,0,0,1,1.089-.261q1.317-.015,1.3,1.426v1.688a4.989,4.989,0,0,0,.038.8h-.45Zm-.042-1.315h-.131c-.2,0-.4.005-.6.015a2.064,2.064,0,0,0-.568.129.877.877,0,0,0-.409.275.74.74,0,0,0-.167.507.586.586,0,0,0,.234.525.857.857,0,0,0,.537.165,1.064,1.064,0,0,0,.633-.165.953.953,0,0,0,.33-.375,1.317,1.317,0,0,0,.121-.459c.012-.156.018-.285.018-.386Z"/><path d="M254.66,38.5c0-.354-.009-.639-.029-.853h.454v.732h.015a1.634,1.634,0,0,1,.369-.575.8.8,0,0,1,.582-.249,1.48,1.48,0,0,1,.32.044v.491a1.216,1.216,0,0,0-.334-.044.763.763,0,0,0-.444.136,1,1,0,0,0-.284.366,1.945,1.945,0,0,0-.145.488,3.006,3.006,0,0,0-.05.543v1.893h-.454Z"/><path d="M260.019,38.149a1.917,1.917,0,0,0-.8-.194,1.26,1.26,0,0,0-1.022.441,1.947,1.947,0,0,0-.008,2.281,1.177,1.177,0,0,0,.98.48,2.117,2.117,0,0,0,.838-.172l.042.441a3.008,3.008,0,0,1-.95.135,1.591,1.591,0,0,1-1.33-.609,2.23,2.23,0,0,1-.443-1.395,2.061,2.061,0,0,1,.507-1.448,1.716,1.716,0,0,1,1.323-.557,2.64,2.64,0,0,1,.567.051,1.8,1.8,0,0,1,.2.047,1.038,1.038,0,0,1,.124.051Z"/><path d="M261.524,35.841h.454v2.444h.014a1.36,1.36,0,0,1,.451-.532,1.3,1.3,0,0,1,.7-.2,1.1,1.1,0,0,1,1.011.451,2.269,2.269,0,0,1,.255,1.176v2.29h-.453V39.184a3.862,3.862,0,0,0-.029-.481,1.1,1.1,0,0,0-.125-.382.738.738,0,0,0-.728-.366.927.927,0,0,0-.853.473,1.96,1.96,0,0,0-.245.99v2.051h-.454Z"/><path d="M269,36.233h2.48v.447H269.5v1.873h1.883V39H269.5v2.023h2.072v.447H269Z"/><path d="M274.888,36.233h.568l2.014,5.236h-.522l-.547-1.4H273.84l-.544,1.4h-.486Zm.248.491-1.1,2.9h2.2Z"/><path d="M278.931,36.233h2.48v.447h-1.983v1.873h1.883V39h-1.883v2.023H281.5v.447h-2.569Z"/><path d="M283.284,36.233h1.306q1.449-.025,1.489,1.356a1.092,1.092,0,0,1-.329.816,1.421,1.421,0,0,1-.8.393v.014a.625.625,0,0,1,.422.2.753.753,0,0,1,.124.19c.038.074.075.156.11.245l.862,2.027h-.551l-.735-1.77a1.235,1.235,0,0,0-.424-.608.564.564,0,0,0-.249-.085c-.092-.005-.2-.007-.319-.007h-.413v2.47h-.5Zm.5,2.32h.531a1.694,1.694,0,0,0,.862-.209.814.814,0,0,0,.407-.753,1.1,1.1,0,0,0-.1-.511.614.614,0,0,0-.277-.271,1.135,1.135,0,0,0-.411-.111q-.231-.018-.5-.018h-.517Z"/><path d="M179.974,47.54a2.585,2.585,0,0,0-1.034-.228,1.172,1.172,0,0,0-.263.03.771.771,0,0,0-.26.113.624.624,0,0,0-.2.228.751.751,0,0,0-.078.359.4.4,0,0,0,.1.278,1.11,1.11,0,0,0,.256.2,2.681,2.681,0,0,0,.362.166c.128.056.262.113.4.172a3.013,3.013,0,0,1,.409.2,1.457,1.457,0,0,1,.355.293,1.432,1.432,0,0,1,.256.4,1.743,1.743,0,0,1,.086.576,1.394,1.394,0,0,1-.559,1.218,2.35,2.35,0,0,1-1.346.37,2.944,2.944,0,0,1-.661-.062q-.276-.051-.642-.142l.095-.939a2.29,2.29,0,0,0,1.148.323,1.207,1.207,0,0,0,.6-.165.563.563,0,0,0,.3-.511.588.588,0,0,0-.085-.322.842.842,0,0,0-.256-.225,6.248,6.248,0,0,0-.763-.348,2.607,2.607,0,0,1-.4-.209,1.936,1.936,0,0,1-.365-.272,1.445,1.445,0,0,1-.256-.4,1.412,1.412,0,0,1-.1-.551,1.439,1.439,0,0,1,.557-1.247,2.125,2.125,0,0,1,1.215-.353,3.817,3.817,0,0,1,1.215.186Z"/><path d="M181.763,48.687h-.718v-.733h.718v-.773l.974-.323v1.1h.867v.733h-.867V50.5a.827.827,0,0,0,.093.434.379.379,0,0,0,.366.206.817.817,0,0,0,.444-.107l.028.791a2.4,2.4,0,0,1-.72.092,1.1,1.1,0,0,1-1.185-1.251Z"/><path d="M184.64,48.159a3.213,3.213,0,0,1,1.3-.293,1.41,1.41,0,0,1,1.615,1.627v.494q0,.564.017.968.014.428.043.864h-.861a5.052,5.052,0,0,1-.042-.579H186.7a1.229,1.229,0,0,1-.487.488,1.332,1.332,0,0,1-.672.183,1.477,1.477,0,0,1-.894-.3,1,1,0,0,1-.412-.849,1.2,1.2,0,0,1,.187-.7,1.058,1.058,0,0,1,.452-.4,1.968,1.968,0,0,1,.618-.187,5.7,5.7,0,0,1,.638-.036h.54a.85.85,0,0,0-.206-.653.925.925,0,0,0-.638-.183,1.843,1.843,0,0,0-1.155.422Zm.526,2.545a.389.389,0,0,0,.18.353.73.73,0,0,0,.438.122.788.788,0,0,0,.681-.346,1.417,1.417,0,0,0,.206-.8h-.589a1,1,0,0,0-.174.016,1.388,1.388,0,0,0-.359.088.617.617,0,0,0-.266.206A.523.523,0,0,0,185.166,50.7Z"/><path d="M189.082,48.687h-.718v-.733h.718v-.773l.973-.323v1.1h.867v.733h-.867V50.5a.837.837,0,0,0,.093.434.38.38,0,0,0,.366.206.821.821,0,0,0,.445-.107l.028.791a2.408,2.408,0,0,1-.721.092,1.1,1.1,0,0,1-1.184-1.251Z"/><path d="M194.8,51.6a2.471,2.471,0,0,1-1.286.307,1.78,1.78,0,0,1-1.957-2,2.343,2.343,0,0,1,.437-1.447,1.554,1.554,0,0,1,1.3-.594,1.535,1.535,0,0,1,1.417.652,3.284,3.284,0,0,1,.366,1.681h-2.591a.984.984,0,0,0,.327.714,1.058,1.058,0,0,0,.742.266,1.831,1.831,0,0,0,.669-.122,2.914,2.914,0,0,0,.575-.272Zm-.653-2.092a1.137,1.137,0,0,0-.2-.641.7.7,0,0,0-.594-.272.817.817,0,0,0-.622.257,1.109,1.109,0,0,0-.245.656Z"/><path d="M201.093,47.54a2.585,2.585,0,0,0-1.034-.228,1.172,1.172,0,0,0-.263.03.766.766,0,0,0-.259.113.626.626,0,0,0-.2.228.751.751,0,0,0-.078.359.4.4,0,0,0,.1.278,1.11,1.11,0,0,0,.256.2,2.681,2.681,0,0,0,.362.166c.128.056.262.113.4.172a3.084,3.084,0,0,1,.41.2,1.452,1.452,0,0,1,.354.293,1.388,1.388,0,0,1,.256.4,1.717,1.717,0,0,1,.086.576,1.392,1.392,0,0,1-.559,1.218,2.349,2.349,0,0,1-1.345.37,2.947,2.947,0,0,1-.662-.062q-.276-.051-.642-.142l.1-.939a2.284,2.284,0,0,0,1.147.323,1.213,1.213,0,0,0,.6-.165.562.562,0,0,0,.3-.511.588.588,0,0,0-.085-.322.85.85,0,0,0-.255-.225,6.337,6.337,0,0,0-.764-.348,2.607,2.607,0,0,1-.4-.209,1.969,1.969,0,0,1-.365-.272,1.445,1.445,0,0,1-.256-.4,1.412,1.412,0,0,1-.1-.551,1.441,1.441,0,0,1,.557-1.247,2.125,2.125,0,0,1,1.215-.353,3.817,3.817,0,0,1,1.215.186Z"/><path d="M205.565,51.6a2.476,2.476,0,0,1-1.286.307,1.78,1.78,0,0,1-1.957-2,2.343,2.343,0,0,1,.436-1.447,1.555,1.555,0,0,1,1.3-.594,1.534,1.534,0,0,1,1.417.652,3.284,3.284,0,0,1,.366,1.681h-2.591a.985.985,0,0,0,.328.714,1.058,1.058,0,0,0,.742.266,1.835,1.835,0,0,0,.669-.122,2.941,2.941,0,0,0,.575-.272Zm-.653-2.092a1.137,1.137,0,0,0-.2-.641.7.7,0,0,0-.593-.272.816.816,0,0,0-.622.257,1.11,1.11,0,0,0-.246.656Z"/><path d="M209.275,48.786a1.043,1.043,0,0,0-.277-.107,1.713,1.713,0,0,0-.383-.036.888.888,0,0,0-.714.331,1.347,1.347,0,0,0-.276.9,1.484,1.484,0,0,0,.255.894.87.87,0,0,0,.756.371,1.33,1.33,0,0,0,.422-.071,1.678,1.678,0,0,0,.327-.113l.042.832a2.029,2.029,0,0,1-.436.088,3.257,3.257,0,0,1-.536.04,1.66,1.66,0,0,1-1.375-.587,2.181,2.181,0,0,1-.473-1.454,2.146,2.146,0,0,1,.473-1.429,1.645,1.645,0,0,1,1.338-.575,3.015,3.015,0,0,1,.946.127Z"/><path d="M210.313,47.954h.865v.879h.014a1.3,1.3,0,0,1,.319-.623.91.91,0,0,1,.706-.344,1.537,1.537,0,0,1,.3.03v1.012a.949.949,0,0,0-.436-.08.6.6,0,0,0-.452.165.961.961,0,0,0-.237.413,2.022,2.022,0,0,0-.089.509c-.009.176-.014.339-.014.487v1.417h-.974Z"/><path d="M216.19,51.6a2.476,2.476,0,0,1-1.286.307,1.78,1.78,0,0,1-1.957-2,2.343,2.343,0,0,1,.436-1.447,1.555,1.555,0,0,1,1.3-.594,1.534,1.534,0,0,1,1.417.652,3.284,3.284,0,0,1,.366,1.681h-2.591a.985.985,0,0,0,.328.714,1.058,1.058,0,0,0,.742.266,1.835,1.835,0,0,0,.669-.122,2.941,2.941,0,0,0,.575-.272Zm-.653-2.092a1.137,1.137,0,0,0-.2-.641.7.7,0,0,0-.593-.272.816.816,0,0,0-.622.257,1.11,1.11,0,0,0-.246.656Z"/><path d="M217.792,48.687h-.717v-.733h.717v-.773l.974-.323v1.1h.867v.733h-.867V50.5a.827.827,0,0,0,.093.434.379.379,0,0,0,.366.206.815.815,0,0,0,.444-.107l.029.791a2.408,2.408,0,0,1-.721.092,1.1,1.1,0,0,1-1.185-1.251Z"/><path d="M220.668,48.159a3.213,3.213,0,0,1,1.3-.293,1.41,1.41,0,0,1,1.615,1.627v.494q0,.564.017.968c.01.285.023.573.043.864h-.86a4.833,4.833,0,0,1-.042-.579h-.015a1.221,1.221,0,0,1-.486.488,1.335,1.335,0,0,1-.672.183,1.478,1.478,0,0,1-.9-.3,1,1,0,0,1-.412-.849,1.2,1.2,0,0,1,.188-.7,1.049,1.049,0,0,1,.451-.4,1.968,1.968,0,0,1,.618-.187,5.729,5.729,0,0,1,.639-.036h.54a.854.854,0,0,0-.206-.653.929.929,0,0,0-.639-.183,1.838,1.838,0,0,0-1.154.422Zm.526,2.545a.387.387,0,0,0,.181.353.725.725,0,0,0,.437.122.79.79,0,0,0,.682-.346,1.425,1.425,0,0,0,.206-.8h-.59a1,1,0,0,0-.174.016,1.371,1.371,0,0,0-.358.088.614.614,0,0,0-.267.206A.523.523,0,0,0,221.194,50.7Z"/><path d="M224.813,47.954h.865v.879h.014a1.3,1.3,0,0,1,.319-.623.91.91,0,0,1,.706-.344,1.537,1.537,0,0,1,.3.03v1.012a.949.949,0,0,0-.436-.08.6.6,0,0,0-.452.165.961.961,0,0,0-.237.413,2.022,2.022,0,0,0-.089.509c-.009.176-.014.339-.014.487v1.417h-.974Z"/><path d="M227.846,46.29h.974v.96h-.974Zm0,1.664h.974v3.865h-.974Z"/><path d="M230.184,48.159a3.213,3.213,0,0,1,1.3-.293,1.41,1.41,0,0,1,1.615,1.627v.494q0,.564.017.968.013.428.043.864H232.3a5.052,5.052,0,0,1-.042-.579h-.014a1.229,1.229,0,0,1-.487.488,1.332,1.332,0,0,1-.672.183,1.477,1.477,0,0,1-.894-.3,1,1,0,0,1-.412-.849,1.2,1.2,0,0,1,.187-.7,1.061,1.061,0,0,1,.451-.4,1.982,1.982,0,0,1,.619-.187,5.7,5.7,0,0,1,.638-.036h.54a.85.85,0,0,0-.206-.653.925.925,0,0,0-.638-.183,1.843,1.843,0,0,0-1.155.422Zm.525,2.545a.389.389,0,0,0,.181.353.728.728,0,0,0,.438.122.788.788,0,0,0,.681-.346,1.417,1.417,0,0,0,.206-.8h-.59a.994.994,0,0,0-.173.016,1.388,1.388,0,0,0-.359.088.617.617,0,0,0-.266.206A.524.524,0,0,0,230.709,50.7Z"/><path d="M234.625,48.687h-.717v-.733h.717v-.773l.974-.323v1.1h.867v.733H235.6V50.5a.827.827,0,0,0,.093.434.379.379,0,0,0,.366.206.815.815,0,0,0,.444-.107l.029.791a2.408,2.408,0,0,1-.721.092,1.1,1.1,0,0,1-1.185-1.251Z"/><path d="M239.892,48.687h-.719v-.733h.719v-.539a1.4,1.4,0,0,1,.313-.952,1.106,1.106,0,0,1,.878-.359,3.344,3.344,0,0,1,.713.08l-.078.829a.917.917,0,0,0-.159-.1.772.772,0,0,0-.264-.037.358.358,0,0,0-.333.181.857.857,0,0,0-.095.411v.482h.851v.733h-.851v3.132h-.975Z"/><path d="M242.328,49.914a2.035,2.035,0,0,1,.564-1.51,2.083,2.083,0,0,1,2.794,0,2.064,2.064,0,0,1,.562,1.51,2.019,2.019,0,0,1-.512,1.41,2.077,2.077,0,0,1-2.894,0A2.011,2.011,0,0,1,242.328,49.914Zm1.017-.121a1.46,1.46,0,0,0,.018.228c.01.083.021.163.036.239a1.45,1.45,0,0,0,.145.437.814.814,0,0,0,.29.309.743.743,0,0,0,.452.129.872.872,0,0,0,.471-.121.851.851,0,0,0,.291-.31,1.349,1.349,0,0,0,.146-.437,3.215,3.215,0,0,0,.035-.474,1.4,1.4,0,0,0-.227-.8.833.833,0,0,0-.716-.345.8.8,0,0,0-.7.352A1.337,1.337,0,0,0,243.345,49.793Z"/><path d="M247.288,47.954h.865v.879h.014a1.294,1.294,0,0,1,.319-.623.91.91,0,0,1,.706-.344,1.545,1.545,0,0,1,.3.03v1.012a.954.954,0,0,0-.437-.08.6.6,0,0,0-.451.165.961.961,0,0,0-.237.413,2.022,2.022,0,0,0-.089.509c-.01.176-.015.339-.015.487v1.417h-.973Z"/><path d="M252.581,46.584h3v.82H253.6v1.3h1.811v.819H253.6V51h1.995v.82h-3.012Z"/><path d="M259.272,51.386h-.015a1.415,1.415,0,0,1-1.149.525,1.34,1.34,0,0,1-1.214-.623,2.61,2.61,0,0,1-.354-1.41,2.576,2.576,0,0,1,.354-1.411,1.478,1.478,0,0,1,2.331-.062h.019V46.191h.973v5.628h-.945Zm-1.715-1.509a1.914,1.914,0,0,0,.177.827.866.866,0,0,0,.252.3.585.585,0,0,0,.393.129.636.636,0,0,0,.414-.129.835.835,0,0,0,.259-.3,1.4,1.4,0,0,0,.145-.407,2.563,2.563,0,0,0,.036-.42,1.816,1.816,0,0,0-.195-.823.971.971,0,0,0-.269-.3.712.712,0,0,0-.4-.11.668.668,0,0,0-.638.411,1.454,1.454,0,0,0-.124.4A2.079,2.079,0,0,0,257.557,49.877Z"/><path d="M264.914,51.819h-.922V51.3h-.015a1.518,1.518,0,0,1-1.227.616,1.1,1.1,0,0,1-.96-.436,1.768,1.768,0,0,1-.313-1.08V47.954h.975v2.069a1.174,1.174,0,0,0,.013.172c0,.059,0,.121.007.188a1.759,1.759,0,0,0,.065.366.7.7,0,0,0,.191.272.513.513,0,0,0,.355.114.669.669,0,0,0,.442-.144.813.813,0,0,0,.252-.322,1.271,1.271,0,0,0,.131-.415,2.846,2.846,0,0,0,.032-.407V47.954h.974Z"/><path d="M268.6,48.786a1.043,1.043,0,0,0-.277-.107,1.713,1.713,0,0,0-.383-.036.888.888,0,0,0-.714.331,1.352,1.352,0,0,0-.276.9,1.485,1.485,0,0,0,.256.894.869.869,0,0,0,.755.371,1.33,1.33,0,0,0,.422-.071,1.678,1.678,0,0,0,.327-.113l.042.832a2.017,2.017,0,0,1-.436.088,3.248,3.248,0,0,1-.536.04,1.66,1.66,0,0,1-1.375-.587,2.181,2.181,0,0,1-.473-1.454,2.146,2.146,0,0,1,.473-1.429,1.648,1.648,0,0,1,1.339-.575,3.008,3.008,0,0,1,.945.127Z"/><path d="M269.78,48.159a3.209,3.209,0,0,1,1.3-.293,1.411,1.411,0,0,1,1.615,1.627v.494c0,.376.006.7.016.968q.015.428.043.864h-.86a5.052,5.052,0,0,1-.042-.579h-.015a1.221,1.221,0,0,1-.486.488,1.332,1.332,0,0,1-.672.183,1.472,1.472,0,0,1-.894-.3,1,1,0,0,1-.413-.849,1.2,1.2,0,0,1,.188-.7,1.055,1.055,0,0,1,.451-.4,1.984,1.984,0,0,1,.618-.187,5.729,5.729,0,0,1,.639-.036h.54a.85.85,0,0,0-.206-.653.929.929,0,0,0-.639-.183,1.843,1.843,0,0,0-1.154.422Zm.525,2.545a.389.389,0,0,0,.181.353.727.727,0,0,0,.437.122.788.788,0,0,0,.682-.346,1.417,1.417,0,0,0,.206-.8h-.59a1.015,1.015,0,0,0-.174.016,1.371,1.371,0,0,0-.358.088.626.626,0,0,0-.267.206A.523.523,0,0,0,270.305,50.7Z"/><path d="M274.221,48.687H273.5v-.733h.718v-.773l.974-.323v1.1h.867v.733H275.2V50.5a.827.827,0,0,0,.093.434.379.379,0,0,0,.366.206.817.817,0,0,0,.444-.107l.028.791a2.4,2.4,0,0,1-.72.092,1.1,1.1,0,0,1-1.185-1.251Z"/><path d="M276.957,46.29h.973v.96h-.973Zm0,1.664h.973v3.865h-.973Z"/><path d="M278.89,49.914a2.035,2.035,0,0,1,.565-1.51,2.083,2.083,0,0,1,2.794,0,2.063,2.063,0,0,1,.561,1.51,2.019,2.019,0,0,1-.512,1.41,2.076,2.076,0,0,1-2.893,0A2.007,2.007,0,0,1,278.89,49.914Zm1.018-.121a1.59,1.59,0,0,0,.017.228c.01.083.022.163.036.239a1.48,1.48,0,0,0,.146.437.806.806,0,0,0,.29.309.739.739,0,0,0,.451.129.873.873,0,0,0,.472-.121.851.851,0,0,0,.291-.31,1.348,1.348,0,0,0,.145-.437,3.084,3.084,0,0,0,.036-.474,1.41,1.41,0,0,0-.227-.8.835.835,0,0,0-.717-.345.8.8,0,0,0-.7.352A1.337,1.337,0,0,0,279.908,49.793Z"/><path d="M283.829,47.954h.921v.527h.015A1.448,1.448,0,0,1,286,47.866a1.146,1.146,0,0,1,.971.429,1.822,1.822,0,0,1,.3,1.084v2.44h-.973V49.754c0-.125,0-.253-.011-.385a1.025,1.025,0,0,0-.072-.352.54.54,0,0,0-.18-.28.763.763,0,0,0-.79.034.968.968,0,0,0-.263.323,1.5,1.5,0,0,0-.131.411,2.326,2.326,0,0,0-.042.422v1.892h-.974Z"/><path d="M288.656,50.769h1.053l-.66,1.875h-.857Z"/><path d="M177.159,56.934h1.1q.419,0,.841.006a2.607,2.607,0,0,1,.77.151,1.1,1.1,0,0,1,.567.418,1.5,1.5,0,0,1,.209.843,1.224,1.224,0,0,1-.276.8,1.166,1.166,0,0,1-.771.41v.015a.5.5,0,0,1,.337.192,1.434,1.434,0,0,1,.2.351l.815,2.048H179.82l-.611-1.635a.935.935,0,0,0-.241-.421.739.739,0,0,0-.465-.121h-.326v2.177h-1.018Zm1.018,2.238h.333a2.781,2.781,0,0,0,.394-.029,1.017,1.017,0,0,0,.341-.1.672.672,0,0,0,.255-.217.791.791,0,0,0,.084-.388.751.751,0,0,0-.084-.382.66.66,0,0,0-.255-.206,1.17,1.17,0,0,0-.341-.089c-.133-.005-.264-.007-.394-.007h-.333Z"/><path d="M184.857,61.954a2.486,2.486,0,0,1-1.286.307,1.781,1.781,0,0,1-1.957-2,2.341,2.341,0,0,1,.436-1.447,1.555,1.555,0,0,1,1.3-.594,1.536,1.536,0,0,1,1.417.651,3.288,3.288,0,0,1,.366,1.682h-2.591a.987.987,0,0,0,.328.714,1.062,1.062,0,0,0,.742.265,1.835,1.835,0,0,0,.669-.122,2.937,2.937,0,0,0,.575-.271Zm-.653-2.093a1.134,1.134,0,0,0-.2-.64.7.7,0,0,0-.593-.273.82.82,0,0,0-.622.258,1.109,1.109,0,0,0-.246.655Z"/><path d="M188.366,59.117a2.906,2.906,0,0,0-.424-.129,2.583,2.583,0,0,0-.483-.04.929.929,0,0,0-.39.084.367.367,0,0,0-.206.345c0,.146.1.249.278.308.085.034.181.067.286.1s.21.064.315.1a2.33,2.33,0,0,1,.33.135,1.524,1.524,0,0,1,.271.213.871.871,0,0,1,.2.308,1.329,1.329,0,0,1,.07.458,1.1,1.1,0,0,1-.493.968,2.083,2.083,0,0,1-1.114.293,4.388,4.388,0,0,1-1.128-.164l.059-.826a2.064,2.064,0,0,0,1,.257.978.978,0,0,0,.427-.106.373.373,0,0,0,.235-.367.416.416,0,0,0-.07-.249.531.531,0,0,0-.2-.144,6.248,6.248,0,0,0-.6-.194,2.462,2.462,0,0,1-.316-.128,1.086,1.086,0,0,1-.286-.194.847.847,0,0,1-.195-.3,1.015,1.015,0,0,1-.081-.43,1,1,0,0,1,.468-.913,1.824,1.824,0,0,1,1.032-.286,3.421,3.421,0,0,1,1.085.142Z"/><path d="M192.585,61.954a2.481,2.481,0,0,1-1.286.307,1.781,1.781,0,0,1-1.957-2,2.341,2.341,0,0,1,.437-1.447,1.554,1.554,0,0,1,1.3-.594,1.537,1.537,0,0,1,1.417.651,3.288,3.288,0,0,1,.366,1.682h-2.591a.986.986,0,0,0,.327.714,1.064,1.064,0,0,0,.742.265,1.831,1.831,0,0,0,.669-.122,2.91,2.91,0,0,0,.575-.271Zm-.653-2.093a1.134,1.134,0,0,0-.2-.64.7.7,0,0,0-.594-.273.823.823,0,0,0-.622.258,1.115,1.115,0,0,0-.245.655Z"/><path d="M194.032,58.509a3.192,3.192,0,0,1,1.3-.293,1.411,1.411,0,0,1,1.616,1.627v.494c0,.376.006.7.016.968q.015.428.043.864h-.86a5.067,5.067,0,0,1-.042-.579h-.015a1.212,1.212,0,0,1-.486.487,1.336,1.336,0,0,1-.672.184,1.479,1.479,0,0,1-.894-.3,1,1,0,0,1-.413-.85,1.2,1.2,0,0,1,.188-.7,1.059,1.059,0,0,1,.451-.4,2,2,0,0,1,.618-.188,5.979,5.979,0,0,1,.639-.036h.54a.849.849,0,0,0-.206-.652.929.929,0,0,0-.639-.184,1.854,1.854,0,0,0-1.154.422Zm.525,2.545a.387.387,0,0,0,.181.352.727.727,0,0,0,.437.122.79.79,0,0,0,.682-.345,1.419,1.419,0,0,0,.206-.8h-.59a1.125,1.125,0,0,0-.174.015,1.412,1.412,0,0,0-.358.088.633.633,0,0,0-.267.206A.524.524,0,0,0,194.557,61.054Z"/><path d="M198.176,58.3h.866v.879h.013a1.289,1.289,0,0,1,.32-.623.909.909,0,0,1,.706-.344,1.614,1.614,0,0,1,.3.029v1.013a.949.949,0,0,0-.436-.08.594.594,0,0,0-.451.165.947.947,0,0,0-.238.413,2.022,2.022,0,0,0-.088.509c-.01.175-.015.339-.015.487v1.417h-.974Z"/><path d="M203.478,59.136a1.08,1.08,0,0,0-.277-.108,1.774,1.774,0,0,0-.383-.036.891.891,0,0,0-.714.331,1.351,1.351,0,0,0-.276.9,1.479,1.479,0,0,0,.256.893.868.868,0,0,0,.755.371,1.329,1.329,0,0,0,.422-.07,1.678,1.678,0,0,0,.327-.113l.042.832a2.017,2.017,0,0,1-.436.088,3.248,3.248,0,0,1-.536.04,1.66,1.66,0,0,1-1.375-.587,2.183,2.183,0,0,1-.473-1.454,2.146,2.146,0,0,1,.473-1.429,1.648,1.648,0,0,1,1.339-.575,3.008,3.008,0,0,1,.945.127Z"/><path d="M204.494,56.541h.974v2.29h.014a1.345,1.345,0,0,1,1.178-.615,1.144,1.144,0,0,1,.972.429,1.819,1.819,0,0,1,.3,1.084v2.44h-.973V60.1c0-.125,0-.253-.011-.385a1.06,1.06,0,0,0-.071-.353.545.545,0,0,0-.181-.279.641.641,0,0,0-.372-.1.65.65,0,0,0-.418.128.978.978,0,0,0-.263.323,1.506,1.506,0,0,0-.131.411,2.335,2.335,0,0,0-.042.422v1.893h-.974Z"/><path d="M211.55,58.509a3.2,3.2,0,0,1,1.3-.293,1.41,1.41,0,0,1,1.615,1.627v.494c0,.376.006.7.017.968.01.285.023.573.043.864h-.861a5.067,5.067,0,0,1-.042-.579h-.014a1.212,1.212,0,0,1-.486.487,1.336,1.336,0,0,1-.672.184,1.484,1.484,0,0,1-.9-.3,1,1,0,0,1-.412-.85,1.2,1.2,0,0,1,.188-.7,1.054,1.054,0,0,1,.451-.4,2,2,0,0,1,.618-.188,5.951,5.951,0,0,1,.639-.036h.54a.849.849,0,0,0-.207-.652.924.924,0,0,0-.638-.184,1.85,1.85,0,0,0-1.154.422Zm.526,2.545a.386.386,0,0,0,.18.352.73.73,0,0,0,.438.122.788.788,0,0,0,.681-.345,1.427,1.427,0,0,0,.207-.8h-.59a1.114,1.114,0,0,0-.174.015,1.43,1.43,0,0,0-.359.088.624.624,0,0,0-.266.206A.524.524,0,0,0,212.076,61.054Z"/><path d="M215.673,58.3h.922v.527h.015a1.446,1.446,0,0,1,1.23-.615,1.144,1.144,0,0,1,.972.429,1.826,1.826,0,0,1,.3,1.084v2.44h-.974V60.1c0-.125,0-.253-.011-.385a1.013,1.013,0,0,0-.071-.353.544.544,0,0,0-.18-.279.76.76,0,0,0-.79.033.978.978,0,0,0-.263.323,1.44,1.44,0,0,0-.131.411,2.335,2.335,0,0,0-.042.422v1.893h-.975Z"/><path d="M222.861,61.735h-.015a1.414,1.414,0,0,1-1.149.526,1.338,1.338,0,0,1-1.214-.623,2.624,2.624,0,0,1-.355-1.41,2.591,2.591,0,0,1,.355-1.412,1.478,1.478,0,0,1,2.331-.061h.019V56.541h.973v5.628h-.945Zm-1.715-1.508a1.917,1.917,0,0,0,.177.827.863.863,0,0,0,.252.3.585.585,0,0,0,.393.129.636.636,0,0,0,.414-.129.832.832,0,0,0,.259-.3,1.425,1.425,0,0,0,.145-.408,2.551,2.551,0,0,0,.036-.419,1.808,1.808,0,0,0-.2-.824.964.964,0,0,0-.268-.3.7.7,0,0,0-.4-.111.671.671,0,0,0-.638.411,1.45,1.45,0,0,0-.124.4A2.071,2.071,0,0,0,221.146,60.227Z"/><path d="M227.263,56.934h1.019v5.235h-1.019Z"/><path d="M229.461,58.3h.922v.527h.015a1.446,1.446,0,0,1,1.23-.615,1.144,1.144,0,0,1,.972.429,1.826,1.826,0,0,1,.3,1.084v2.44h-.974V60.1c0-.125,0-.253-.01-.385a1.036,1.036,0,0,0-.072-.353.537.537,0,0,0-.18-.279.641.641,0,0,0-.372-.1.65.65,0,0,0-.418.128.978.978,0,0,0-.263.323,1.44,1.44,0,0,0-.131.411,2.335,2.335,0,0,0-.042.422v1.893h-.975Z"/><path d="M234.158,58.3h.922v.527h.014a1.448,1.448,0,0,1,1.231-.615,1.144,1.144,0,0,1,.971.429,1.819,1.819,0,0,1,.3,1.084v2.44h-.973V60.1c0-.125,0-.253-.011-.385a1.036,1.036,0,0,0-.071-.353.545.545,0,0,0-.181-.279.641.641,0,0,0-.372-.1.65.65,0,0,0-.418.128.991.991,0,0,0-.263.323,1.506,1.506,0,0,0-.131.411,2.335,2.335,0,0,0-.042.422v1.893h-.974Z"/><path d="M238.613,60.264a2.032,2.032,0,0,1,.564-1.51,2.083,2.083,0,0,1,2.794,0,2.061,2.061,0,0,1,.562,1.51,2.02,2.02,0,0,1-.512,1.41,2.077,2.077,0,0,1-2.894,0A2.013,2.013,0,0,1,238.613,60.264Zm1.017-.121a1.438,1.438,0,0,0,.018.227c.01.084.021.163.036.239a1.43,1.43,0,0,0,.146.438.8.8,0,0,0,.29.308.737.737,0,0,0,.451.129.87.87,0,0,0,.471-.121.85.85,0,0,0,.292-.309,1.353,1.353,0,0,0,.145-.438,3.191,3.191,0,0,0,.035-.473,1.407,1.407,0,0,0-.226-.8.837.837,0,0,0-.717-.346.8.8,0,0,0-.7.353A1.329,1.329,0,0,0,239.63,60.143Z"/><path d="M243.055,58.3h1.077l.963,2.817h.015l.918-2.817H247l-1.381,3.865h-1.132Z"/><path d="M248,58.509a3.189,3.189,0,0,1,1.3-.293,1.41,1.41,0,0,1,1.615,1.627v.494c0,.376.006.7.017.968q.015.428.043.864h-.86a4.847,4.847,0,0,1-.042-.579h-.015a1.212,1.212,0,0,1-.486.487,1.336,1.336,0,0,1-.672.184,1.484,1.484,0,0,1-.895-.3,1,1,0,0,1-.412-.85,1.2,1.2,0,0,1,.188-.7,1.054,1.054,0,0,1,.451-.4,2,2,0,0,1,.618-.188,5.979,5.979,0,0,1,.639-.036h.54a.853.853,0,0,0-.206-.652.929.929,0,0,0-.639-.184,1.852,1.852,0,0,0-1.154.422Zm.525,2.545a.385.385,0,0,0,.181.352.725.725,0,0,0,.437.122.791.791,0,0,0,.682-.345,1.427,1.427,0,0,0,.206-.8h-.59a1.114,1.114,0,0,0-.174.015,1.412,1.412,0,0,0-.358.088.627.627,0,0,0-.267.206A.524.524,0,0,0,248.525,61.054Z"/><path d="M252.441,59.036h-.718V58.3h.718V57.53l.974-.322v1.1h.867v.732h-.867v1.809a.833.833,0,0,0,.092.433.381.381,0,0,0,.367.206.826.826,0,0,0,.444-.106l.028.791a2.432,2.432,0,0,1-.721.092,1.1,1.1,0,0,1-1.184-1.251Z"/><path d="M255.176,56.64h.974v.96h-.974Zm0,1.664h.974v3.865h-.974Z"/><path d="M257.11,60.264a2.032,2.032,0,0,1,.564-1.51,2.083,2.083,0,0,1,2.794,0,2.061,2.061,0,0,1,.562,1.51,2.02,2.02,0,0,1-.512,1.41,2.076,2.076,0,0,1-2.893,0A2.009,2.009,0,0,1,257.11,60.264Zm1.017-.121a1.438,1.438,0,0,0,.018.227c.01.084.022.163.036.239a1.43,1.43,0,0,0,.146.438.8.8,0,0,0,.29.308.737.737,0,0,0,.451.129.876.876,0,0,0,.472-.121.856.856,0,0,0,.291-.309,1.353,1.353,0,0,0,.145-.438,3.062,3.062,0,0,0,.035-.473,1.407,1.407,0,0,0-.226-.8.837.837,0,0,0-.717-.346.8.8,0,0,0-.7.353A1.335,1.335,0,0,0,258.127,60.143Z"/><path d="M262.048,58.3h.922v.527h.015a1.446,1.446,0,0,1,1.23-.615,1.144,1.144,0,0,1,.972.429,1.826,1.826,0,0,1,.3,1.084v2.44h-.974V60.1c0-.125,0-.253-.011-.385a1.013,1.013,0,0,0-.071-.353.544.544,0,0,0-.18-.279.76.76,0,0,0-.79.033.978.978,0,0,0-.263.323,1.44,1.44,0,0,0-.131.411,2.335,2.335,0,0,0-.042.422v1.893h-.975Z"/><path d="M271.757,57.89a2.569,2.569,0,0,0-1.034-.228,1.232,1.232,0,0,0-.263.029.789.789,0,0,0-.259.114.622.622,0,0,0-.2.227.758.758,0,0,0-.078.36.407.407,0,0,0,.1.278,1.137,1.137,0,0,0,.256.2,2.679,2.679,0,0,0,.362.165c.128.057.262.113.4.173a3.208,3.208,0,0,1,.41.194,1.475,1.475,0,0,1,.354.293,1.394,1.394,0,0,1,.256.4,1.713,1.713,0,0,1,.086.576,1.393,1.393,0,0,1-.559,1.218,2.349,2.349,0,0,1-1.345.37,2.926,2.926,0,0,1-.661-.063c-.185-.033-.4-.081-.643-.141l.1-.94a2.274,2.274,0,0,0,1.147.323,1.2,1.2,0,0,0,.605-.165.561.561,0,0,0,.3-.51.592.592,0,0,0-.085-.323.847.847,0,0,0-.255-.224,6.333,6.333,0,0,0-.764-.349,2.512,2.512,0,0,1-.4-.209,1.938,1.938,0,0,1-.366-.271,1.466,1.466,0,0,1-.256-.4,1.408,1.408,0,0,1-.1-.551,1.441,1.441,0,0,1,.557-1.247,2.132,2.132,0,0,1,1.215-.352,3.817,3.817,0,0,1,1.215.185Z"/><path d="M273.312,56.934h3v.82H274.33v1.3h1.81v.819h-1.81v1.478h2v.82h-3.013Z"/><path d="M277.513,56.934h1.1q.417,0,.841.006a2.593,2.593,0,0,1,.769.151,1.106,1.106,0,0,1,.568.418,1.5,1.5,0,0,1,.208.843,1.219,1.219,0,0,1-.276.8,1.162,1.162,0,0,1-.77.41v.015a.5.5,0,0,1,.337.192,1.467,1.467,0,0,1,.2.351l.814,2.048h-1.133l-.61-1.635a.953.953,0,0,0-.241-.421.741.741,0,0,0-.465-.121h-.326v2.177h-1.019Zm1.019,2.238h.333a2.767,2.767,0,0,0,.393-.029,1.01,1.01,0,0,0,.341-.1.657.657,0,0,0,.255-.217.78.78,0,0,0,.085-.388.741.741,0,0,0-.085-.382.646.646,0,0,0-.255-.206,1.162,1.162,0,0,0-.341-.089c-.133-.005-.263-.007-.393-.007h-.333Z"/><path d="M282.209,56.934h1.019v5.235h-1.019Z"/></g></g></svg>