<svg xmlns="http://www.w3.org/2000/svg" viewBox="0 0 328.167 83.018"><defs><style>.cls-1{fill:#fff;}.cls-2{fill:red;}</style></defs><g id="Ebene_2" data-name="Ebene 2"><g id="EN_-_KENNZEICHNUNG_quer_n_e_g_a_t_i_v" data-name="EN - KENNZEICHNUNG quer / n e g a t i v"><path class="cls-1" d="M1.1.768H3.222c1.823,0,3.49.527,3.49,2.53,0,1.955-1.427,2.663-3.226,2.663H2.779V9.139H1.1ZM2.779,4.642h.587c.84,0,1.6-.276,1.6-1.247s-.731-1.308-1.6-1.308H2.779Z"/><path class="cls-1" d="M7.807,2.962H9.234v1.4h.025A1.891,1.891,0,0,1,10.95,2.819a1.752,1.752,0,0,1,.491.048V4.486a1.633,1.633,0,0,0-.719-.132c-1.307,0-1.307,1.631-1.307,2.519V9.139H7.807Z"/><path class="cls-1" d="M15.054,2.819a3.093,3.093,0,0,1,3.238,3.274,3.052,3.052,0,0,1-3.238,3.19,3.049,3.049,0,0,1-3.226-3.19A3.09,3.09,0,0,1,15.054,2.819Zm0,5.217c1.236,0,1.559-1.1,1.559-2.135a1.575,1.575,0,1,0-3.106,0C13.507,6.92,13.831,8.036,15.054,8.036Z"/><path class="cls-1" d="M18.608,10.554c.864-.048.983-.216.983-1.175V2.962H21.2V9.6c0,.875-.252,2.207-1.859,2.207a3.182,3.182,0,0,1-.792-.1ZM19.591.3H21.2V1.835H19.591Z"/><path class="cls-1" d="M27.845,8.792a4.254,4.254,0,0,1-2.123.491,2.934,2.934,0,0,1-3.226-3.2c0-1.787.947-3.262,2.866-3.262,2.291,0,2.938,1.571,2.938,3.729H24.031a1.615,1.615,0,0,0,1.763,1.56,4.165,4.165,0,0,0,2.051-.624Zm-1.08-3.347c-.048-.779-.408-1.451-1.307-1.451a1.4,1.4,0,0,0-1.427,1.451Z"/><path class="cls-1" d="M33.569,4.294a2.423,2.423,0,0,0-1.091-.228c-1,0-1.631.791-1.631,1.955,0,1.139.539,2.015,1.667,2.015a3.4,3.4,0,0,0,1.235-.288l.072,1.331a5.231,5.231,0,0,1-1.607.2c-2.027,0-3.047-1.379-3.047-3.262a2.923,2.923,0,0,1,2.987-3.2,5.257,5.257,0,0,1,1.559.2Z"/><path class="cls-1" d="M35.419,4.138H34.232V2.962h1.187V1.727l1.607-.516V2.962h1.428V4.138H37.026V7.016c0,.528.144,1.02.756,1.02a1.436,1.436,0,0,0,.732-.168l.048,1.271a4.231,4.231,0,0,1-1.188.144,1.817,1.817,0,0,1-1.955-2Z"/><path class="cls-1" d="M43.483,4.138H42.3V2.962h1.187V2.1A1.889,1.889,0,0,1,45.45,0a5.663,5.663,0,0,1,1.175.132l-.131,1.331a1.249,1.249,0,0,0-.7-.215c-.54,0-.708.467-.708.947v.767h1.4V4.138h-1.4v5H43.483Z"/><path class="cls-1" d="M53.236,9.139H51.712V8.3h-.024a2.576,2.576,0,0,1-2.026.983c-1.463,0-2.1-1.032-2.1-2.423v-3.9H49.17v3.3c0,.755.012,1.775,1.043,1.775,1.164,0,1.415-1.26,1.415-2.051V2.962h1.608Z"/><path class="cls-1" d="M54.9,2.962h1.523V3.8h.024a2.306,2.306,0,0,1,2.027-.983c1.463,0,2.1,1.031,2.1,2.422v3.9H58.96v-3.3c0-.756-.011-1.775-1.043-1.775-1.163,0-1.415,1.259-1.415,2.051V9.139H54.9Z"/><path class="cls-1" d="M66.341,8.443h-.024a2.294,2.294,0,0,1-1.895.84c-1.895,0-2.591-1.559-2.591-3.25s.7-3.214,2.591-3.214a2.195,2.195,0,0,1,1.847.863h.023V.144H67.9V9.139H66.341Zm-1.475-.407c1.067,0,1.415-1.128,1.415-2s-.408-1.967-1.44-1.967S63.51,5.206,63.51,6.033C63.51,6.884,63.81,8.036,64.866,8.036Z"/><path class="cls-1" d="M74.512,8.792a4.248,4.248,0,0,1-2.122.491,2.935,2.935,0,0,1-3.227-3.2c0-1.787.948-3.262,2.867-3.262,2.29,0,2.938,1.571,2.938,3.729H70.7a1.616,1.616,0,0,0,1.763,1.56,4.162,4.162,0,0,0,2.051-.624ZM73.433,5.445c-.048-.779-.408-1.451-1.308-1.451A1.4,1.4,0,0,0,70.7,5.445Z"/><path class="cls-1" d="M80.345,8.443h-.024a2.294,2.294,0,0,1-1.895.84c-1.895,0-2.591-1.559-2.591-3.25s.7-3.214,2.591-3.214a2.191,2.191,0,0,1,1.846.863H80.3V.144H81.9V9.139H80.345ZM78.87,8.036c1.067,0,1.415-1.128,1.415-2s-.408-1.967-1.44-1.967-1.331,1.14-1.331,1.967C77.514,6.884,77.814,8.036,78.87,8.036Z"/><path class="cls-1" d="M86.9.144h1.607v3.61h.024a2.164,2.164,0,0,1,1.846-.935c1.9,0,2.591,1.511,2.591,3.214s-.695,3.25-2.591,3.25a2.258,2.258,0,0,1-1.894-.9h-.024v.755H86.9Zm3.034,7.892c1.056,0,1.356-1.152,1.356-2,0-.827-.289-1.967-1.331-1.967s-1.44,1.1-1.44,1.967S88.866,8.036,89.933,8.036Z"/><path class="cls-1" d="M96.8,7.472h.024l1.487-4.51h1.631L97.625,9.091c-.516,1.367-.888,2.711-2.567,2.711a4.1,4.1,0,0,1-1.14-.168l.109-1.188a2.337,2.337,0,0,0,.827.108,1,1,0,0,0,1.044-1.1L93.535,2.962H95.31Z"/><path class="cls-1" d="M29.9,30.513a1.889,1.889,0,0,0,1.123.308,1.253,1.253,0,0,0,.814-.264,1.01,1.01,0,0,0,.327-.81A.8.8,0,0,0,31.8,29.1a2.367,2.367,0,0,0-.373-.257c-.139-.081-.283-.16-.43-.239s-.284-.175-.419-.271a2.238,2.238,0,0,1-.38-.3,1.074,1.074,0,0,1-.362-.817,1.239,1.239,0,0,1,.472-1.009,1.821,1.821,0,0,1,1.132-.359,4.182,4.182,0,0,1,.465.029,3.252,3.252,0,0,1,.533.142l-.082.47a1.969,1.969,0,0,0-.924-.195,2.032,2.032,0,0,0-.384.037,1.08,1.08,0,0,0-.359.158.775.775,0,0,0-.252.271.862.862,0,0,0-.1.437.614.614,0,0,0,.1.344,1.05,1.05,0,0,0,.259.279,3.55,3.55,0,0,0,.38.239l.423.249a2.916,2.916,0,0,1,.8.568,1.308,1.308,0,0,1,.27.393,1.352,1.352,0,0,1,.092.517,1.3,1.3,0,0,1-.529,1.132,1.953,1.953,0,0,1-1.135.349,2.712,2.712,0,0,1-1.146-.226Z"/><path class="cls-1" d="M36.734,27.857a1.923,1.923,0,0,0-.8-.2,1.266,1.266,0,0,0-1.022.441,1.743,1.743,0,0,0-.373,1.161,1.722,1.722,0,0,0,.366,1.12,1.175,1.175,0,0,0,.98.481,2.118,2.118,0,0,0,.838-.173l.043.442a3.018,3.018,0,0,1-.951.134,1.59,1.59,0,0,1-1.33-.608,2.225,2.225,0,0,1-.443-1.4,2.063,2.063,0,0,1,.507-1.448,1.722,1.722,0,0,1,1.322-.557,2.643,2.643,0,0,1,.568.051c.078.015.145.03.2.047s.095.037.124.051Z"/><path class="cls-1" d="M38.24,25.548h.453v2.445h.015a1.353,1.353,0,0,1,.45-.533,1.3,1.3,0,0,1,.7-.2,1.1,1.1,0,0,1,1.011.451,2.274,2.274,0,0,1,.255,1.176v2.29h-.454V28.891a3.851,3.851,0,0,0-.028-.48,1.087,1.087,0,0,0-.124-.382.74.74,0,0,0-.728-.367.93.93,0,0,0-.854.473,1.967,1.967,0,0,0-.245.991v2.05H38.24Z"/><path class="cls-1" d="M46.808,31.176h-.554l-1.008-3.312h-.017l-1.008,3.312h-.554l-1.192-3.825h.5l.972,3.313h.014L45,27.351h.553l.98,3.313h.014l1.025-3.313h.458Z"/><path class="cls-1" d="M51.9,31.058a3.059,3.059,0,0,1-1.075.21,1.523,1.523,0,0,1-1.3-.579,2.37,2.37,0,0,1-.383-1.425,2.325,2.325,0,0,1,.436-1.448,1.359,1.359,0,0,1,1.125-.557,1.292,1.292,0,0,1,1.135.565,2.447,2.447,0,0,1,.341,1.333V29.4H49.64a1.637,1.637,0,0,0,.312,1.029,1.063,1.063,0,0,0,.91.437,1.814,1.814,0,0,0,.569-.1,1.878,1.878,0,0,0,.472-.187ZM51.681,29a1.911,1.911,0,0,0-.213-.922.811.811,0,0,0-.737-.413.964.964,0,0,0-.793.421,1.511,1.511,0,0,0-.3.914Z"/><path class="cls-1" d="M54.211,26.329h-.454V25.7h.454Zm-.454,1.022h.454v3.825h-.454Z"/><path class="cls-1" d="M55.665,30.781l2.23-3.027H55.682v-.4h2.745v.4l-2.3,3.019h2.3v.4H55.665Z"/><path class="cls-1" d="M62.409,31.058a3.069,3.069,0,0,1-1.076.21,1.521,1.521,0,0,1-1.3-.579,2.363,2.363,0,0,1-.384-1.425,2.332,2.332,0,0,1,.436-1.448,1.359,1.359,0,0,1,1.125-.557,1.292,1.292,0,0,1,1.135.565,2.447,2.447,0,0,1,.341,1.333V29.4H60.145a1.631,1.631,0,0,0,.313,1.029,1.06,1.06,0,0,0,.909.437,1.809,1.809,0,0,0,.569-.1,1.9,1.9,0,0,0,.473-.187ZM62.187,29a1.911,1.911,0,0,0-.214-.922.809.809,0,0,0-.736-.413.961.961,0,0,0-.793.421,1.512,1.512,0,0,0-.3.914Z"/><path class="cls-1" d="M64.263,28.205q0-.531-.029-.854h.454v.732H64.7a1.658,1.658,0,0,1,.369-.574.81.81,0,0,1,.582-.25,1.526,1.526,0,0,1,.32.044v.491a1.216,1.216,0,0,0-.334-.044.765.765,0,0,0-.444.136,1.015,1.015,0,0,0-.283.366,1.913,1.913,0,0,0-.146.489,3.088,3.088,0,0,0-.05.542v1.893h-.453Z"/><path class="cls-1" d="M67.8,26.329h-.453V25.7H67.8Zm-.453,1.022H67.8v3.825h-.453Z"/><path class="cls-1" d="M69.315,30.623a2.011,2.011,0,0,0,.964.242.908.908,0,0,0,.581-.187.593.593,0,0,0,.241-.5.647.647,0,0,0-.269-.536,3.2,3.2,0,0,0-.618-.337c-.111-.054-.217-.111-.319-.172a2.691,2.691,0,0,1-.291-.2,1.1,1.1,0,0,1-.206-.279.767.767,0,0,1-.077-.352.905.905,0,0,1,.375-.811,1.482,1.482,0,0,1,.829-.235,3.7,3.7,0,0,1,.415.03,2.5,2.5,0,0,1,.5.142l-.043.411a2.163,2.163,0,0,0-.824-.18,1.046,1.046,0,0,0-.564.132.465.465,0,0,0-.171.191.654.654,0,0,0-.064.315.358.358,0,0,0,.082.224.8.8,0,0,0,.209.18c.088.051.187.1.3.158s.22.106.327.165a2.059,2.059,0,0,1,.632.422,1.114,1.114,0,0,1,.16,1.232,1.068,1.068,0,0,1-.312.338,1.627,1.627,0,0,1-.864.249,2.983,2.983,0,0,1-1.034-.182Z"/><path class="cls-1" d="M75.514,27.857a1.922,1.922,0,0,0-.8-.2A1.267,1.267,0,0,0,73.7,28.1a1.747,1.747,0,0,0-.372,1.161,1.722,1.722,0,0,0,.365,1.12,1.175,1.175,0,0,0,.98.481,2.114,2.114,0,0,0,.838-.173l.043.442a3.01,3.01,0,0,1-.951.134,1.59,1.59,0,0,1-1.33-.608,2.231,2.231,0,0,1-.443-1.4,2.072,2.072,0,0,1,.507-1.448,1.723,1.723,0,0,1,1.323-.557,2.656,2.656,0,0,1,.568.051c.077.015.145.03.2.047s.095.037.124.051Z"/><path class="cls-1" d="M77.021,25.548h.453v2.445h.014a1.369,1.369,0,0,1,.45-.533,1.309,1.309,0,0,1,.7-.2,1.1,1.1,0,0,1,1.01.451,2.264,2.264,0,0,1,.256,1.176v2.29h-.454V28.891a3.851,3.851,0,0,0-.028-.48,1.109,1.109,0,0,0-.125-.382.739.739,0,0,0-.728-.367.929.929,0,0,0-.853.473,1.967,1.967,0,0,0-.245.991v2.05h-.453Z"/><path class="cls-1" d="M84.262,31.058a3.069,3.069,0,0,1-1.076.21,1.521,1.521,0,0,1-1.3-.579,2.363,2.363,0,0,1-.384-1.425,2.326,2.326,0,0,1,.437-1.448,1.356,1.356,0,0,1,1.124-.557,1.29,1.29,0,0,1,1.135.565,2.447,2.447,0,0,1,.341,1.333V29.4H82a1.631,1.631,0,0,0,.313,1.029,1.06,1.06,0,0,0,.909.437,1.809,1.809,0,0,0,.569-.1,1.887,1.887,0,0,0,.473-.187ZM84.04,29a1.911,1.911,0,0,0-.214-.922.809.809,0,0,0-.736-.413.961.961,0,0,0-.793.421A1.512,1.512,0,0,0,82,29Z"/><path class="cls-1" d="M88.612,25.94h2.479v.447H89.11V28.26h1.882v.447H89.11v2.022h2.07v.447H88.612Z"/><path class="cls-1" d="M93.352,26.329H92.9V25.7h.454ZM92.9,27.351h.454v3.825H92.9Z"/><path class="cls-1" d="M98.081,31.176h-.454v-.608h-.014a1.2,1.2,0,0,1-1.156.7,1.32,1.32,0,0,1-1.139-.579,2.463,2.463,0,0,1-.387-1.425,2.5,2.5,0,0,1,.359-1.44,1.307,1.307,0,0,1,1.167-.565,1.289,1.289,0,0,1,.482.084,1.077,1.077,0,0,1,.348.208,1.03,1.03,0,0,1,.326.442h.014V25.548h.454Zm-2.652-1.912a3,3,0,0,0,.05.547,2.12,2.12,0,0,0,.174.529,1.132,1.132,0,0,0,.341.367.858.858,0,0,0,.534.158.867.867,0,0,0,.523-.158,1.1,1.1,0,0,0,.338-.382,2.357,2.357,0,0,0,.238-1.061,3.265,3.265,0,0,0-.049-.558,2.013,2.013,0,0,0-.189-.511,1.116,1.116,0,0,0-.338-.389.925.925,0,0,0-.523-.144.915.915,0,0,0-.534.144.99.99,0,0,0-.341.374,1.841,1.841,0,0,0-.174.511A3.262,3.262,0,0,0,95.429,29.264Z"/><path class="cls-1" d="M102.839,30.861a2.337,2.337,0,0,1-.382,1.367,1.592,1.592,0,0,1-1.353.568,3.212,3.212,0,0,1-.67-.08c-.2-.051-.349-.091-.451-.121l.04-.47a2.336,2.336,0,0,0,1.091.268,1.364,1.364,0,0,0,.7-.164.924.924,0,0,0,.388-.421,1.865,1.865,0,0,0,.167-.622q.029-.351.029-.758h-.015a1.2,1.2,0,0,1-1.125.748,1.318,1.318,0,0,1-1.221-.645,1.824,1.824,0,0,1-.255-.615,2.843,2.843,0,0,1,.27-2.092,1.307,1.307,0,0,1,1.167-.565,2.251,2.251,0,0,1,.642.084,1.219,1.219,0,0,1,.515.437h.014v-.43h.453Zm-2.652-1.6a1.97,1.97,0,0,0,.246,1.028.887.887,0,0,0,.825.481.942.942,0,0,0,.879-.5,2.12,2.12,0,0,0,.249-1.014,2.475,2.475,0,0,0-.231-1.154,1.065,1.065,0,0,0-1.4-.3,1,1,0,0,0-.341.374,1.874,1.874,0,0,0-.174.511A3.361,3.361,0,0,0,100.187,29.264Z"/><path class="cls-1" d="M107.15,31.058a3.059,3.059,0,0,1-1.075.21,1.523,1.523,0,0,1-1.3-.579,2.37,2.37,0,0,1-.383-1.425,2.332,2.332,0,0,1,.436-1.448,1.359,1.359,0,0,1,1.125-.557,1.292,1.292,0,0,1,1.135.565,2.447,2.447,0,0,1,.341,1.333V29.4h-2.539a1.637,1.637,0,0,0,.312,1.029,1.063,1.063,0,0,0,.91.437,1.809,1.809,0,0,0,.569-.1,1.878,1.878,0,0,0,.472-.187ZM106.928,29a1.911,1.911,0,0,0-.213-.922.81.81,0,0,0-.736-.413.961.961,0,0,0-.793.421,1.505,1.505,0,0,0-.3.914Z"/><path class="cls-1" d="M109.005,28.249c0-.293-.01-.593-.029-.9h.443v.681h.014a2.391,2.391,0,0,1,.152-.271,1.042,1.042,0,0,1,.217-.245,1.025,1.025,0,0,1,.34-.191,1.616,1.616,0,0,1,.485-.066,1.144,1.144,0,0,1,.981.422,1.783,1.783,0,0,1,.283,1.048v2.447h-.453V28.847a1.662,1.662,0,0,0-.2-.869.788.788,0,0,0-.685-.316.938.938,0,0,0-.861.448,1.438,1.438,0,0,0-.181.444,2.322,2.322,0,0,0-.057.506v2.116h-.453Z"/><path class="cls-1" d="M113.477,29.264a2.307,2.307,0,0,1,.422-1.4,1.524,1.524,0,0,1,1.306-.609,1.547,1.547,0,0,1,1.322.609,2.573,2.573,0,0,1,0,2.784,1.549,1.549,0,0,1-1.322.616,1.526,1.526,0,0,1-1.306-.616A2.312,2.312,0,0,1,113.477,29.264Zm.5,0a1.882,1.882,0,0,0,.32,1.127,1.036,1.036,0,0,0,.912.474,1.071,1.071,0,0,0,.925-.474,1.943,1.943,0,0,0,.306-1.127,2,2,0,0,0-.306-1.142,1.081,1.081,0,0,0-.925-.46,1.045,1.045,0,0,0-.912.46A1.939,1.939,0,0,0,113.975,29.264Z"/><path class="cls-1" d="M118.238,30.623a2.011,2.011,0,0,0,.964.242.908.908,0,0,0,.581-.187.593.593,0,0,0,.241-.5.646.646,0,0,0-.27-.536,3.163,3.163,0,0,0-.617-.337c-.111-.054-.217-.111-.319-.172a2.691,2.691,0,0,1-.291-.2,1.1,1.1,0,0,1-.206-.279.767.767,0,0,1-.077-.352.905.905,0,0,1,.375-.811,1.482,1.482,0,0,1,.829-.235,3.7,3.7,0,0,1,.415.03,2.5,2.5,0,0,1,.5.142l-.043.411a2.163,2.163,0,0,0-.824-.18,1.046,1.046,0,0,0-.564.132.465.465,0,0,0-.171.191.654.654,0,0,0-.064.315.358.358,0,0,0,.082.224.782.782,0,0,0,.209.18c.088.051.187.1.3.158s.22.106.327.165a2.071,2.071,0,0,1,.632.422,1.119,1.119,0,0,1,.16,1.232,1.068,1.068,0,0,1-.312.338,1.627,1.627,0,0,1-.864.249,2.983,2.983,0,0,1-1.034-.182Z"/><path class="cls-1" d="M121.743,30.623a2.014,2.014,0,0,0,.964.242.91.91,0,0,0,.582-.187.6.6,0,0,0,.24-.5.647.647,0,0,0-.269-.536,3.222,3.222,0,0,0-.617-.337c-.112-.054-.218-.111-.32-.172a2.78,2.78,0,0,1-.29-.2,1.074,1.074,0,0,1-.206-.279.755.755,0,0,1-.078-.352.9.9,0,0,1,.376-.811,1.48,1.48,0,0,1,.829-.235,3.73,3.73,0,0,1,.415.03,2.489,2.489,0,0,1,.5.142l-.042.411a2.172,2.172,0,0,0-.825-.18,1.051,1.051,0,0,0-.564.132.463.463,0,0,0-.17.191.654.654,0,0,0-.064.315.357.357,0,0,0,.081.224.788.788,0,0,0,.21.18c.087.051.187.1.3.158s.22.106.326.165a2.059,2.059,0,0,1,.632.422,1.114,1.114,0,0,1,.16,1.232,1.054,1.054,0,0,1-.311.338,1.633,1.633,0,0,1-.865.249,2.973,2.973,0,0,1-1.033-.182Z"/><path class="cls-1" d="M128.016,31.058a3.069,3.069,0,0,1-1.076.21,1.519,1.519,0,0,1-1.3-.579,2.363,2.363,0,0,1-.384-1.425,2.332,2.332,0,0,1,.436-1.448,1.359,1.359,0,0,1,1.125-.557,1.292,1.292,0,0,1,1.135.565,2.447,2.447,0,0,1,.341,1.333V29.4h-2.539a1.637,1.637,0,0,0,.312,1.029,1.063,1.063,0,0,0,.91.437,1.809,1.809,0,0,0,.569-.1,1.9,1.9,0,0,0,.473-.187ZM127.793,29a1.911,1.911,0,0,0-.213-.922.809.809,0,0,0-.736-.413.961.961,0,0,0-.793.421,1.512,1.512,0,0,0-.3.914Z"/><path class="cls-1" d="M129.87,28.249c0-.293-.01-.593-.029-.9h.443v.681h.014a2.4,2.4,0,0,1,.153-.271,1.037,1.037,0,0,1,.216-.245,1.025,1.025,0,0,1,.34-.191,1.625,1.625,0,0,1,.485-.066,1.144,1.144,0,0,1,.981.422,1.783,1.783,0,0,1,.283,1.048v2.447H132.3V28.847a1.662,1.662,0,0,0-.2-.869.788.788,0,0,0-.685-.316.937.937,0,0,0-.86.448,1.44,1.44,0,0,0-.182.444,2.322,2.322,0,0,0-.056.506v2.116h-.454Z"/><path class="cls-1" d="M134.344,30.623a2.014,2.014,0,0,0,.964.242.91.91,0,0,0,.582-.187.6.6,0,0,0,.24-.5.647.647,0,0,0-.269-.536,3.222,3.222,0,0,0-.617-.337c-.112-.054-.218-.111-.32-.172a2.78,2.78,0,0,1-.29-.2,1.074,1.074,0,0,1-.206-.279.755.755,0,0,1-.078-.352.9.9,0,0,1,.376-.811,1.48,1.48,0,0,1,.829-.235,3.73,3.73,0,0,1,.415.03,2.489,2.489,0,0,1,.5.142l-.042.411a2.171,2.171,0,0,0-.824-.18,1.052,1.052,0,0,0-.565.132.463.463,0,0,0-.17.191.654.654,0,0,0-.064.315.363.363,0,0,0,.081.224.788.788,0,0,0,.21.18c.087.051.187.1.3.158s.22.106.326.165a2.059,2.059,0,0,1,.632.422,1.114,1.114,0,0,1,.16,1.232,1.054,1.054,0,0,1-.311.338,1.633,1.633,0,0,1-.865.249,2.973,2.973,0,0,1-1.033-.182Z"/><path class="cls-1" d="M140.543,27.857a1.915,1.915,0,0,0-.8-.2,1.263,1.263,0,0,0-1.022.441,1.743,1.743,0,0,0-.373,1.161,1.722,1.722,0,0,0,.366,1.12,1.173,1.173,0,0,0,.979.481,2.123,2.123,0,0,0,.839-.173l.042.442a3.01,3.01,0,0,1-.951.134,1.591,1.591,0,0,1-1.33-.608,2.231,2.231,0,0,1-.443-1.4,2.072,2.072,0,0,1,.507-1.448,1.723,1.723,0,0,1,1.323-.557,2.65,2.65,0,0,1,.568.051c.078.015.145.03.2.047s.1.037.124.051Z"/><path class="cls-1" d="M142.05,25.548h.453v2.445h.015a1.361,1.361,0,0,1,.45-.533,1.305,1.305,0,0,1,.7-.2,1.106,1.106,0,0,1,1.012.451,2.3,2.3,0,0,1,.254,1.176v2.29h-.454V28.891a3.851,3.851,0,0,0-.028-.48,1.087,1.087,0,0,0-.124-.382.74.74,0,0,0-.728-.367.927.927,0,0,0-.853.473,1.968,1.968,0,0,0-.246.991v2.05h-.453Z"/><path class="cls-1" d="M148.935,30.564h-.014a1.122,1.122,0,0,1-.489.514,1.449,1.449,0,0,1-1.314.062.984.984,0,0,1-.38-.286,1.2,1.2,0,0,1-.216-.665,1.173,1.173,0,0,1,.224-.757,1.21,1.21,0,0,1,.561-.4,3.031,3.031,0,0,1,.741-.165c.263-.014.515-.022.756-.022h.089v-.2q.021-.988-.846-.989a1.968,1.968,0,0,0-1.091.317v-.458a2.643,2.643,0,0,1,1.089-.262q1.317-.014,1.3,1.426v1.689a4.976,4.976,0,0,0,.038.8h-.45Zm-.042-1.315h-.131c-.2,0-.4,0-.6.014a2.139,2.139,0,0,0-.568.129.885.885,0,0,0-.409.275.742.742,0,0,0-.167.507.588.588,0,0,0,.234.526.861.861,0,0,0,.537.165,1.071,1.071,0,0,0,.633-.165.953.953,0,0,0,.33-.375,1.328,1.328,0,0,0,.121-.459c.012-.157.018-.285.018-.386Z"/><path class="cls-1" d="M151.456,27.754h-.748v-.4h.748v-.278c0-.205.01-.406.028-.6a1.458,1.458,0,0,1,.111-.51.769.769,0,0,1,.3-.37.954.954,0,0,1,.542-.132c.078,0,.158,0,.241.008a.46.46,0,0,1,.187.066l-.028.413a.742.742,0,0,0-.362-.084.5.5,0,0,0-.345.106.6.6,0,0,0-.167.294,1.536,1.536,0,0,0-.043.366c0,.135-.007.264-.007.389v.333h.835v.4h-.835v3.422h-.454Z"/><path class="cls-1" d="M155.823,27.754h-.843v2.48a.8.8,0,0,0,.118.444.4.4,0,0,0,.377.187.9.9,0,0,0,.422-.092l.029.39c-.054.019-.13.041-.227.065a1.339,1.339,0,0,1-.333.04.9.9,0,0,1-.47-.106.676.676,0,0,1-.252-.279,1.4,1.4,0,0,1-.1-.4c-.014-.151-.022-.315-.022-.491V27.754H153.8v-.4h.726v-.923l.454-.165v1.088h.843Z"/><path class="cls-1" d="M33.455,36.87a1.763,1.763,0,0,0-.547-.188,5.136,5.136,0,0,0-.586-.036,1.917,1.917,0,0,0-1.519.638,2.73,2.73,0,0,0-.008,3.249,1.885,1.885,0,0,0,1.527.638,3.531,3.531,0,0,0,.586-.055,1.5,1.5,0,0,0,.547-.172l.028.449a1.71,1.71,0,0,1-.557.17,3.833,3.833,0,0,1-.6.055,2.47,2.47,0,0,1-1.876-.751,2.756,2.756,0,0,1-.681-1.96,2.807,2.807,0,0,1,.688-1.957,2.456,2.456,0,0,1,1.869-.751c.163,0,.365.012.6.036a1.72,1.72,0,0,1,.557.157Z"/><path class="cls-1" d="M35.043,39.614a2.308,2.308,0,0,1,.423-1.4,1.523,1.523,0,0,1,1.3-.609,1.547,1.547,0,0,1,1.323.609,2.579,2.579,0,0,1,0,2.784,1.549,1.549,0,0,1-1.323.616,1.525,1.525,0,0,1-1.3-.616A2.313,2.313,0,0,1,35.043,39.614Zm.5,0a1.876,1.876,0,0,0,.32,1.127,1.033,1.033,0,0,0,.911.474,1.071,1.071,0,0,0,.925-.474A1.943,1.943,0,0,0,38,39.614a2,2,0,0,0-.306-1.142,1.081,1.081,0,0,0-.925-.46,1.042,1.042,0,0,0-.911.46A1.932,1.932,0,0,0,35.542,39.614Z"/><path class="cls-1" d="M40.088,38.6c0-.293-.01-.593-.029-.9H40.5v.681h.014a2.391,2.391,0,0,1,.152-.271,1.042,1.042,0,0,1,.217-.245,1.025,1.025,0,0,1,.34-.191,1.616,1.616,0,0,1,.485-.066,1.144,1.144,0,0,1,.981.422,1.783,1.783,0,0,1,.283,1.048v2.447h-.453V39.2a1.662,1.662,0,0,0-.2-.869.791.791,0,0,0-.685-.316.938.938,0,0,0-.861.448,1.438,1.438,0,0,0-.181.444,2.322,2.322,0,0,0-.056.506v2.116h-.454Z"/><path class="cls-1" d="M45.158,38.1h-.749v-.4h.749v-.278c0-.2.009-.406.028-.6a1.458,1.458,0,0,1,.11-.51.769.769,0,0,1,.3-.37.959.959,0,0,1,.542-.131c.078,0,.158,0,.241.007a.475.475,0,0,1,.187.066l-.028.413a.739.739,0,0,0-.362-.084.5.5,0,0,0-.345.106.6.6,0,0,0-.167.294,1.492,1.492,0,0,0-.043.366c-.005.135-.007.264-.007.389V37.7h.835v.4h-.835v3.422h-.453Z"/><path class="cls-1" d="M50.414,41.408a3.069,3.069,0,0,1-1.076.21,1.517,1.517,0,0,1-1.3-.579,2.363,2.363,0,0,1-.384-1.425,2.326,2.326,0,0,1,.436-1.447,1.357,1.357,0,0,1,1.125-.558,1.292,1.292,0,0,1,1.135.565,2.449,2.449,0,0,1,.341,1.333v.242H48.15a1.635,1.635,0,0,0,.312,1.029,1.063,1.063,0,0,0,.91.437,1.809,1.809,0,0,0,.569-.1,1.865,1.865,0,0,0,.473-.187Zm-.223-2.061a1.911,1.911,0,0,0-.213-.922.809.809,0,0,0-.736-.413.961.961,0,0,0-.793.421,1.512,1.512,0,0,0-.3.914Zm-.712-3.122h.572L49.139,37.3h-.333Z"/><path class="cls-1" d="M55.2,41.526h-.454v-.608H54.73a1.2,1.2,0,0,1-1.157.7,1.317,1.317,0,0,1-1.138-.579,2.463,2.463,0,0,1-.387-1.425,2.5,2.5,0,0,1,.358-1.44,1.308,1.308,0,0,1,1.167-.565,1.291,1.291,0,0,1,.483.084,1.088,1.088,0,0,1,.348.208,1.03,1.03,0,0,1,.326.442h.014V35.9H55.2Zm-2.653-1.912a3.083,3.083,0,0,0,.05.547,2.163,2.163,0,0,0,.175.529,1.121,1.121,0,0,0,.341.367.852.852,0,0,0,.534.158.861.861,0,0,0,.523-.158,1.1,1.1,0,0,0,.338-.382,2.351,2.351,0,0,0,.238-1.061,3.178,3.178,0,0,0-.05-.558,2.063,2.063,0,0,0-.188-.511,1.116,1.116,0,0,0-.338-.389.925.925,0,0,0-.523-.144.915.915,0,0,0-.534.144.982.982,0,0,0-.341.374,1.875,1.875,0,0,0-.175.511A3.361,3.361,0,0,0,52.545,39.614Z"/><path class="cls-1" d="M59.509,41.408a3.059,3.059,0,0,1-1.075.21,1.52,1.52,0,0,1-1.3-.579,2.37,2.37,0,0,1-.383-1.425,2.32,2.32,0,0,1,.436-1.447,1.357,1.357,0,0,1,1.125-.558,1.292,1.292,0,0,1,1.135.565,2.449,2.449,0,0,1,.341,1.333v.242H57.246a1.635,1.635,0,0,0,.312,1.029,1.063,1.063,0,0,0,.91.437,1.814,1.814,0,0,0,.569-.1,1.841,1.841,0,0,0,.472-.187Zm-.222-2.061a1.911,1.911,0,0,0-.213-.922.811.811,0,0,0-.737-.413.964.964,0,0,0-.793.421,1.511,1.511,0,0,0-.3.914Zm-.713-3.122h.573L58.234,37.3H57.9Z"/><path class="cls-1" d="M61.363,38.555c0-.354-.009-.639-.029-.854h.455v.733H61.8a1.634,1.634,0,0,1,.369-.575.808.808,0,0,1,.582-.25,1.535,1.535,0,0,1,.32.044v.491a1.221,1.221,0,0,0-.334-.044.763.763,0,0,0-.444.136,1,1,0,0,0-.284.367,1.892,1.892,0,0,0-.145.488,3,3,0,0,0-.05.542v1.893h-.454Z"/><path class="cls-1" d="M66.574,40.914H66.56a1.109,1.109,0,0,1-.49.514,1.447,1.447,0,0,1-1.313.062.971.971,0,0,1-.379-.285,1.188,1.188,0,0,1-.217-.666,1.173,1.173,0,0,1,.224-.757,1.215,1.215,0,0,1,.561-.4,3.04,3.04,0,0,1,.742-.165c.262-.014.514-.022.755-.022h.089V39q.021-.988-.846-.989a1.963,1.963,0,0,0-1.091.318v-.459a2.659,2.659,0,0,1,1.089-.262q1.317-.014,1.3,1.426v1.689a5.087,5.087,0,0,0,.039.8h-.45ZM66.532,39.6H66.4q-.3,0-.6.014a2.13,2.13,0,0,0-.568.129.886.886,0,0,0-.409.276.742.742,0,0,0-.167.506.585.585,0,0,0,.235.526.858.858,0,0,0,.536.165,1.071,1.071,0,0,0,.633-.165.964.964,0,0,0,.331-.375,1.32,1.32,0,0,0,.12-.459c.012-.157.018-.285.018-.386Z"/><path class="cls-1" d="M70.378,38.1h-.843v2.48a.8.8,0,0,0,.117.444.4.4,0,0,0,.377.187.9.9,0,0,0,.423-.091l.029.389c-.055.019-.13.041-.227.065a1.339,1.339,0,0,1-.333.04.9.9,0,0,1-.471-.106.69.69,0,0,1-.252-.279,1.369,1.369,0,0,1-.095-.4c-.015-.151-.021-.315-.021-.491V38.1h-.727v-.4h.727v-.923l.453-.165V37.7h.843Z"/><path class="cls-1" d="M72.322,36.679h-.453v-.63h.453ZM71.869,37.7h.453v3.825h-.453Z"/><path class="cls-1" d="M73.835,39.614a2.307,2.307,0,0,1,.422-1.4,1.524,1.524,0,0,1,1.306-.609,1.547,1.547,0,0,1,1.322.609,2.579,2.579,0,0,1,0,2.784,1.549,1.549,0,0,1-1.322.616A1.526,1.526,0,0,1,74.257,41,2.312,2.312,0,0,1,73.835,39.614Zm.5,0a1.876,1.876,0,0,0,.32,1.127,1.035,1.035,0,0,0,.911.474,1.072,1.072,0,0,0,.926-.474,1.943,1.943,0,0,0,.306-1.127,2,2,0,0,0-.306-1.142,1.082,1.082,0,0,0-.926-.46,1.044,1.044,0,0,0-.911.46A1.932,1.932,0,0,0,74.333,39.614Z"/><path class="cls-1" d="M78.879,38.6c0-.293-.009-.593-.028-.9h.442v.681h.015a2.246,2.246,0,0,1,.152-.271,1.06,1.06,0,0,1,.216-.245,1.025,1.025,0,0,1,.34-.191,1.625,1.625,0,0,1,.485-.066,1.144,1.144,0,0,1,.981.422,1.783,1.783,0,0,1,.284,1.048v2.447h-.454V39.2a1.672,1.672,0,0,0-.195-.869.793.793,0,0,0-.686-.316.937.937,0,0,0-.86.448,1.414,1.414,0,0,0-.181.444,2.263,2.263,0,0,0-.057.506v2.116h-.454Z"/><path class="cls-1" d="M85.949,40.973a2.011,2.011,0,0,0,.964.242.91.91,0,0,0,.581-.187.6.6,0,0,0,.241-.495.645.645,0,0,0-.27-.535,3.193,3.193,0,0,0-.617-.338c-.111-.054-.217-.111-.319-.172a2.691,2.691,0,0,1-.291-.2,1.1,1.1,0,0,1-.206-.279.752.752,0,0,1-.077-.352.9.9,0,0,1,.375-.811,1.482,1.482,0,0,1,.829-.235,3.7,3.7,0,0,1,.415.03,2.5,2.5,0,0,1,.5.142l-.043.411a2.163,2.163,0,0,0-.824-.18,1.037,1.037,0,0,0-.564.133.456.456,0,0,0-.171.19.66.66,0,0,0-.064.315.363.363,0,0,0,.082.225.8.8,0,0,0,.209.179c.088.051.187.1.3.158s.22.106.327.165a2.089,2.089,0,0,1,.632.422,1.119,1.119,0,0,1,.16,1.232,1.068,1.068,0,0,1-.312.338,1.627,1.627,0,0,1-.864.249,3,3,0,0,1-1.034-.181Z"/><path class="cls-1" d="M92.625,40.625a8.936,8.936,0,0,0,.031.9h-.443v-.681H92.2a1.268,1.268,0,0,1-.138.253,1.15,1.15,0,0,1-.224.256,1.032,1.032,0,0,1-.343.18,1.291,1.291,0,0,1-.494.084,1.132,1.132,0,0,1-.971-.421,1.707,1.707,0,0,1-.29-1.052V37.7h.453v2.326a1.507,1.507,0,0,0,.21.858.732.732,0,0,0,.672.33.983.983,0,0,0,.529-.135.889.889,0,0,0,.334-.33,1.375,1.375,0,0,0,.181-.452,2.166,2.166,0,0,0,.053-.48V37.7h.454Z"/><path class="cls-1" d="M94.951,36.679H94.5v-.63h.454ZM94.5,37.7h.454v3.825H94.5Z"/><path class="cls-1" d="M96.465,40.973a2.017,2.017,0,0,0,.964.242.91.91,0,0,0,.582-.187.592.592,0,0,0,.24-.495A.644.644,0,0,0,97.982,40a3.224,3.224,0,0,0-.617-.338c-.112-.054-.218-.111-.32-.172a2.78,2.78,0,0,1-.29-.2,1.1,1.1,0,0,1-.206-.279.752.752,0,0,1-.078-.352.906.906,0,0,1,.376-.811,1.48,1.48,0,0,1,.829-.235,3.73,3.73,0,0,1,.415.03,2.489,2.489,0,0,1,.5.142l-.042.411a2.171,2.171,0,0,0-.824-.18,1.043,1.043,0,0,0-.565.133.454.454,0,0,0-.17.19.66.66,0,0,0-.064.315.368.368,0,0,0,.081.225.8.8,0,0,0,.21.179c.087.051.187.1.3.158s.22.106.326.165a2.077,2.077,0,0,1,.632.422,1.114,1.114,0,0,1,.16,1.232,1.054,1.054,0,0,1-.311.338,1.632,1.632,0,0,1-.864.249,3,3,0,0,1-1.034-.181Z"/><path class="cls-1" d="M99.971,40.973a2.011,2.011,0,0,0,.964.242.91.91,0,0,0,.581-.187.6.6,0,0,0,.241-.495.645.645,0,0,0-.27-.535,3.193,3.193,0,0,0-.617-.338c-.111-.054-.217-.111-.319-.172a2.691,2.691,0,0,1-.291-.2,1.1,1.1,0,0,1-.206-.279.752.752,0,0,1-.077-.352.9.9,0,0,1,.375-.811,1.482,1.482,0,0,1,.829-.235,3.7,3.7,0,0,1,.415.03,2.5,2.5,0,0,1,.5.142l-.043.411a2.163,2.163,0,0,0-.824-.18,1.037,1.037,0,0,0-.564.133.456.456,0,0,0-.171.19.66.66,0,0,0-.064.315.363.363,0,0,0,.082.225.782.782,0,0,0,.209.179c.088.051.187.1.3.158s.22.106.327.165a2.089,2.089,0,0,1,.632.422,1.119,1.119,0,0,1,.16,1.232,1.068,1.068,0,0,1-.312.338,1.627,1.627,0,0,1-.864.249,3,3,0,0,1-1.034-.181Z"/><path class="cls-1" d="M106.243,41.408a3.06,3.06,0,0,1-1.076.21,1.519,1.519,0,0,1-1.3-.579,2.363,2.363,0,0,1-.383-1.425,2.32,2.32,0,0,1,.436-1.447,1.357,1.357,0,0,1,1.124-.558,1.292,1.292,0,0,1,1.136.565,2.449,2.449,0,0,1,.341,1.333v.242h-2.54a1.629,1.629,0,0,0,.313,1.029,1.063,1.063,0,0,0,.91.437,1.814,1.814,0,0,0,.569-.1,1.841,1.841,0,0,0,.472-.187Zm-.222-2.061a1.911,1.911,0,0,0-.213-.922.811.811,0,0,0-.737-.413.964.964,0,0,0-.793.421,1.512,1.512,0,0,0-.3.914Z"/><path class="cls-1" d="M33.455,47.22a1.763,1.763,0,0,0-.547-.188A5.136,5.136,0,0,0,32.322,47a1.917,1.917,0,0,0-1.519.638,2.73,2.73,0,0,0-.008,3.249,1.885,1.885,0,0,0,1.527.638,3.531,3.531,0,0,0,.586-.055,1.5,1.5,0,0,0,.547-.172l.028.449a1.734,1.734,0,0,1-.557.171,3.944,3.944,0,0,1-.6.054,2.466,2.466,0,0,1-1.876-.751,2.756,2.756,0,0,1-.681-1.96,2.807,2.807,0,0,1,.688-1.957,2.456,2.456,0,0,1,1.869-.751c.163,0,.365.012.6.036a1.72,1.72,0,0,1,.557.157Z"/><path class="cls-1" d="M35.043,49.964a2.308,2.308,0,0,1,.423-1.4,1.523,1.523,0,0,1,1.3-.609,1.547,1.547,0,0,1,1.323.609,2.58,2.58,0,0,1,0,2.785,1.551,1.551,0,0,1-1.323.615,1.527,1.527,0,0,1-1.3-.615A2.318,2.318,0,0,1,35.043,49.964Zm.5,0a1.876,1.876,0,0,0,.32,1.127,1.031,1.031,0,0,0,.911.474,1.069,1.069,0,0,0,.925-.474A1.943,1.943,0,0,0,38,49.964a2,2,0,0,0-.306-1.142,1.084,1.084,0,0,0-.925-.46,1.044,1.044,0,0,0-.911.46A1.932,1.932,0,0,0,35.542,49.964Z"/><path class="cls-1" d="M40.088,48.949c0-.293-.01-.593-.029-.9H40.5v.681h.014a2.391,2.391,0,0,1,.152-.271,1.062,1.062,0,0,1,.217-.245,1.025,1.025,0,0,1,.34-.191,1.616,1.616,0,0,1,.485-.066,1.144,1.144,0,0,1,.981.422,1.783,1.783,0,0,1,.283,1.048v2.447h-.453V49.547a1.662,1.662,0,0,0-.2-.869.791.791,0,0,0-.685-.316.938.938,0,0,0-.861.448,1.438,1.438,0,0,0-.181.444,2.322,2.322,0,0,0-.056.506v2.116h-.454Z"/><path class="cls-1" d="M45.158,48.454h-.749v-.4h.749v-.278c0-.205.009-.406.028-.6a1.452,1.452,0,0,1,.11-.509.767.767,0,0,1,.3-.371.967.967,0,0,1,.542-.131c.078,0,.158,0,.241.007a.492.492,0,0,1,.187.066l-.028.413a.739.739,0,0,0-.362-.084.5.5,0,0,0-.345.106.6.6,0,0,0-.167.294,1.492,1.492,0,0,0-.043.366c-.005.135-.007.264-.007.389v.333h.835v.4h-.835v3.422h-.453Z"/><path class="cls-1" d="M50.414,51.758a3.069,3.069,0,0,1-1.076.21,1.517,1.517,0,0,1-1.3-.579,2.363,2.363,0,0,1-.384-1.425,2.326,2.326,0,0,1,.436-1.447,1.357,1.357,0,0,1,1.125-.558,1.292,1.292,0,0,1,1.135.565,2.449,2.449,0,0,1,.341,1.333V50.1H48.15a1.635,1.635,0,0,0,.312,1.029,1.058,1.058,0,0,0,.91.437,1.809,1.809,0,0,0,.569-.1,1.865,1.865,0,0,0,.473-.187ZM50.191,49.7a1.911,1.911,0,0,0-.213-.922.809.809,0,0,0-.736-.413.961.961,0,0,0-.793.421,1.512,1.512,0,0,0-.3.914Z"/><path class="cls-1" d="M55.2,51.876h-.454v-.607H54.73a1.2,1.2,0,0,1-1.157.7,1.317,1.317,0,0,1-1.138-.579,2.463,2.463,0,0,1-.387-1.425,2.5,2.5,0,0,1,.358-1.44,1.308,1.308,0,0,1,1.167-.565,1.291,1.291,0,0,1,.483.084,1.106,1.106,0,0,1,.348.208,1.03,1.03,0,0,1,.326.442h.014V46.249H55.2Zm-2.653-1.912a3.083,3.083,0,0,0,.05.547,2.163,2.163,0,0,0,.175.529,1.121,1.121,0,0,0,.341.367.852.852,0,0,0,.534.158.861.861,0,0,0,.523-.158,1.092,1.092,0,0,0,.338-.382,2.351,2.351,0,0,0,.238-1.061,3.178,3.178,0,0,0-.05-.558,2.063,2.063,0,0,0-.188-.511,1.125,1.125,0,0,0-.338-.389.925.925,0,0,0-.523-.144.915.915,0,0,0-.534.144.982.982,0,0,0-.341.374,1.875,1.875,0,0,0-.175.511A3.361,3.361,0,0,0,52.545,49.964Z"/><path class="cls-1" d="M59.509,51.758a3.059,3.059,0,0,1-1.075.21,1.52,1.52,0,0,1-1.3-.579,2.37,2.37,0,0,1-.383-1.425,2.32,2.32,0,0,1,.436-1.447,1.357,1.357,0,0,1,1.125-.558,1.292,1.292,0,0,1,1.135.565,2.449,2.449,0,0,1,.341,1.333V50.1H57.246a1.635,1.635,0,0,0,.312,1.029,1.058,1.058,0,0,0,.91.437,1.814,1.814,0,0,0,.569-.1,1.841,1.841,0,0,0,.472-.187ZM59.287,49.7a1.911,1.911,0,0,0-.213-.922.811.811,0,0,0-.737-.413.964.964,0,0,0-.793.421,1.511,1.511,0,0,0-.3.914Z"/><path class="cls-1" d="M61.363,48.905c0-.354-.009-.639-.029-.854h.455v.733H61.8a1.634,1.634,0,0,1,.369-.575.808.808,0,0,1,.582-.25,1.535,1.535,0,0,1,.32.044v.491a1.221,1.221,0,0,0-.334-.044.763.763,0,0,0-.444.136,1,1,0,0,0-.284.367,1.892,1.892,0,0,0-.145.488,3,3,0,0,0-.05.542v1.893h-.454Z"/><path class="cls-1" d="M66.574,51.264H66.56a1.109,1.109,0,0,1-.49.514,1.447,1.447,0,0,1-1.313.062.971.971,0,0,1-.379-.285,1.188,1.188,0,0,1-.217-.666,1.173,1.173,0,0,1,.224-.757,1.215,1.215,0,0,1,.561-.4,3.04,3.04,0,0,1,.742-.165c.262-.014.514-.022.755-.022h.089v-.2q.021-.989-.846-.989a1.963,1.963,0,0,0-1.091.318v-.459a2.659,2.659,0,0,1,1.089-.262q1.317-.014,1.3,1.426v1.689a5.087,5.087,0,0,0,.039.8h-.45Zm-.042-1.315H66.4q-.3,0-.6.014a2.13,2.13,0,0,0-.568.129.886.886,0,0,0-.409.276.743.743,0,0,0-.167.507.584.584,0,0,0,.235.525.858.858,0,0,0,.536.165,1.071,1.071,0,0,0,.633-.165.964.964,0,0,0,.331-.375,1.32,1.32,0,0,0,.12-.459c.012-.157.018-.285.018-.386Z"/><path class="cls-1" d="M68.44,51.481l2.229-3.027H68.457v-.4H71.2v.4l-2.3,3.02h2.3v.4H68.44Z"/><path class="cls-1" d="M73.154,47.029H72.7V46.4h.454ZM72.7,48.051h.454v3.825H72.7Z"/><path class="cls-1" d="M74.667,49.964a2.307,2.307,0,0,1,.422-1.4,1.523,1.523,0,0,1,1.305-.609,1.547,1.547,0,0,1,1.323.609,2.58,2.58,0,0,1,0,2.785,1.551,1.551,0,0,1-1.323.615,1.527,1.527,0,0,1-1.305-.615A2.317,2.317,0,0,1,74.667,49.964Zm.5,0a1.876,1.876,0,0,0,.32,1.127,1.031,1.031,0,0,0,.911.474,1.069,1.069,0,0,0,.925-.474,1.943,1.943,0,0,0,.306-1.127,2,2,0,0,0-.306-1.142,1.084,1.084,0,0,0-.925-.46,1.044,1.044,0,0,0-.911.46A1.932,1.932,0,0,0,75.165,49.964Z"/><path class="cls-1" d="M79.711,48.949c0-.293-.009-.593-.028-.9h.442v.681h.015a2.246,2.246,0,0,1,.152-.271,1.081,1.081,0,0,1,.216-.245,1.025,1.025,0,0,1,.34-.191,1.625,1.625,0,0,1,.485-.066,1.144,1.144,0,0,1,.981.422,1.783,1.783,0,0,1,.284,1.048v2.447h-.454V49.547a1.672,1.672,0,0,0-.2-.869.793.793,0,0,0-.686-.316.937.937,0,0,0-.86.448,1.414,1.414,0,0,0-.181.444,2.263,2.263,0,0,0-.057.506v2.116h-.454Z"/><path class="cls-1" d="M86.953,51.758a3.069,3.069,0,0,1-1.076.21,1.517,1.517,0,0,1-1.3-.579,2.363,2.363,0,0,1-.384-1.425,2.326,2.326,0,0,1,.436-1.447,1.357,1.357,0,0,1,1.125-.558,1.292,1.292,0,0,1,1.135.565,2.449,2.449,0,0,1,.341,1.333V50.1H84.689A1.635,1.635,0,0,0,85,51.128a1.058,1.058,0,0,0,.91.437,1.809,1.809,0,0,0,.569-.1,1.865,1.865,0,0,0,.473-.187ZM86.73,49.7a1.911,1.911,0,0,0-.213-.922.809.809,0,0,0-.736-.413.961.961,0,0,0-.793.421,1.512,1.512,0,0,0-.3.914Z"/><path class="cls-1" d="M91.312,51.213a1.883,1.883,0,0,0,1.122.308,1.248,1.248,0,0,0,.814-.264,1.007,1.007,0,0,0,.327-.81.8.8,0,0,0-.363-.645,2.367,2.367,0,0,0-.373-.257c-.139-.081-.283-.16-.43-.238s-.284-.176-.419-.272a2.238,2.238,0,0,1-.38-.3,1.076,1.076,0,0,1-.362-.817,1.235,1.235,0,0,1,.472-1.008,1.817,1.817,0,0,1,1.132-.36,4.439,4.439,0,0,1,.465.029,3.252,3.252,0,0,1,.533.142l-.082.47A1.982,1.982,0,0,0,92.844,47a2.032,2.032,0,0,0-.384.036,1.1,1.1,0,0,0-.359.158.784.784,0,0,0-.252.271.864.864,0,0,0-.1.437.62.62,0,0,0,.1.345,1.046,1.046,0,0,0,.259.278,3.4,3.4,0,0,0,.38.239l.423.249a2.937,2.937,0,0,1,.8.568,1.321,1.321,0,0,1,.27.393,1.337,1.337,0,0,1,.092.517,1.306,1.306,0,0,1-.529,1.133,1.959,1.959,0,0,1-1.135.348,2.729,2.729,0,0,1-1.146-.225Z"/><path class="cls-1" d="M97.022,51.876h-.535L95.23,48.051h.5l1.02,3.313h.018l1.072-3.313h.479Z"/><path class="cls-1" d="M100.108,47.029h-.453V46.4h.453Zm-.453,1.022h.453v3.825h-.453Z"/><path class="cls-1" d="M101.563,51.481l2.229-3.027h-2.213v-.4h2.746v.4l-2.305,3.02h2.305v.4h-2.762Z"/><path class="cls-1" d="M105.479,51.481l2.229-3.027H105.5v-.4h2.746v.4l-2.3,3.02h2.3v.4h-2.762Z"/><path class="cls-1" d="M112.222,51.758a3.069,3.069,0,0,1-1.076.21,1.518,1.518,0,0,1-1.3-.579,2.363,2.363,0,0,1-.384-1.425,2.326,2.326,0,0,1,.436-1.447,1.357,1.357,0,0,1,1.125-.558,1.292,1.292,0,0,1,1.135.565,2.449,2.449,0,0,1,.341,1.333V50.1h-2.539a1.629,1.629,0,0,0,.313,1.029,1.055,1.055,0,0,0,.909.437,1.809,1.809,0,0,0,.569-.1,1.865,1.865,0,0,0,.473-.187ZM112,49.7a1.911,1.911,0,0,0-.214-.922.809.809,0,0,0-.736-.413.961.961,0,0,0-.793.421,1.512,1.512,0,0,0-.3.914Z"/><path class="cls-1" d="M114.076,48.905q0-.531-.029-.854h.454v.733h.015a1.634,1.634,0,0,1,.369-.575.808.808,0,0,1,.582-.25,1.545,1.545,0,0,1,.32.044v.491a1.221,1.221,0,0,0-.334-.044.763.763,0,0,0-.444.136,1,1,0,0,0-.284.367,1.892,1.892,0,0,0-.145.488,3,3,0,0,0-.05.542v1.893h-.454Z"/><path class="cls-1" d="M119.287,51.264h-.014a1.114,1.114,0,0,1-.49.514,1.447,1.447,0,0,1-1.313.062.971.971,0,0,1-.379-.285,1.188,1.188,0,0,1-.217-.666,1.173,1.173,0,0,1,.224-.757,1.215,1.215,0,0,1,.561-.4,3.042,3.042,0,0,1,.741-.165c.263-.014.515-.022.756-.022h.089v-.2q.021-.989-.846-.989a1.963,1.963,0,0,0-1.091.318v-.459a2.659,2.659,0,0,1,1.089-.262q1.316-.014,1.3,1.426v1.689a5.087,5.087,0,0,0,.039.8h-.45Zm-.042-1.315h-.132q-.3,0-.6.014a2.13,2.13,0,0,0-.568.129.886.886,0,0,0-.409.276.743.743,0,0,0-.167.507.586.586,0,0,0,.234.525.863.863,0,0,0,.537.165,1.071,1.071,0,0,0,.633-.165.953.953,0,0,0,.33-.375,1.3,1.3,0,0,0,.121-.459c.012-.157.018-.285.018-.386Z"/><path class="cls-1" d="M33.455,57.569a1.816,1.816,0,0,0-.547-.188,5.376,5.376,0,0,0-.586-.036,1.921,1.921,0,0,0-1.519.639,2.73,2.73,0,0,0-.008,3.249,1.894,1.894,0,0,0,1.527.639,3.653,3.653,0,0,0,.586-.056,1.48,1.48,0,0,0,.547-.173l.028.449a1.734,1.734,0,0,1-.557.171,3.957,3.957,0,0,1-.6.055,2.473,2.473,0,0,1-1.876-.751,2.758,2.758,0,0,1-.681-1.961,2.8,2.8,0,0,1,.688-1.956,2.456,2.456,0,0,1,1.869-.751c.163,0,.365.012.6.036a1.7,1.7,0,0,1,.557.156Z"/><path class="cls-1" d="M35.043,60.313a2.31,2.31,0,0,1,.423-1.4,1.522,1.522,0,0,1,1.3-.608,1.547,1.547,0,0,1,1.323.608,2.58,2.58,0,0,1,0,2.785,1.552,1.552,0,0,1-1.323.616,1.528,1.528,0,0,1-1.3-.616A2.318,2.318,0,0,1,35.043,60.313Zm.5,0a1.877,1.877,0,0,0,.32,1.128,1.031,1.031,0,0,0,.911.474,1.069,1.069,0,0,0,.925-.474A1.944,1.944,0,0,0,38,60.313a2.006,2.006,0,0,0-.306-1.142,1.086,1.086,0,0,0-.925-.46,1.046,1.046,0,0,0-.911.46A1.936,1.936,0,0,0,35.542,60.313Z"/><path class="cls-1" d="M40.088,59.3q0-.439-.029-.9H40.5v.682h.014a2.241,2.241,0,0,1,.152-.272,1.042,1.042,0,0,1,.217-.245,1.008,1.008,0,0,1,.34-.191,1.616,1.616,0,0,1,.485-.066,1.144,1.144,0,0,1,.981.422,1.78,1.78,0,0,1,.283,1.047v2.448h-.453V59.9a1.662,1.662,0,0,0-.2-.869.794.794,0,0,0-.685-.317.941.941,0,0,0-.861.449,1.418,1.418,0,0,0-.181.444,2.315,2.315,0,0,0-.056.506v2.116h-.454Z"/><path class="cls-1" d="M45.158,58.8h-.749v-.4h.749v-.278q0-.309.028-.6a1.458,1.458,0,0,1,.11-.51.769.769,0,0,1,.3-.37.959.959,0,0,1,.542-.132c.078,0,.158,0,.241.008a.476.476,0,0,1,.187.065L46.535,57a.739.739,0,0,0-.362-.084.5.5,0,0,0-.345.106.6.6,0,0,0-.167.294,1.478,1.478,0,0,0-.043.365c-.005.135-.007.265-.007.389V58.4h.835v.4h-.835v3.423h-.453Z"/><path class="cls-1" d="M50.414,62.108a3.069,3.069,0,0,1-1.076.21,1.522,1.522,0,0,1-1.3-.579,2.366,2.366,0,0,1-.384-1.426,2.329,2.329,0,0,1,.436-1.447,1.359,1.359,0,0,1,1.125-.557,1.287,1.287,0,0,1,1.135.565,2.448,2.448,0,0,1,.341,1.334v.241H48.15a1.63,1.63,0,0,0,.312,1.028,1.059,1.059,0,0,0,.91.438,2.641,2.641,0,0,0,1.042-.287Zm-.223-2.062a1.907,1.907,0,0,0-.213-.921.81.81,0,0,0-.736-.414.964.964,0,0,0-.793.421,1.514,1.514,0,0,0-.3.914Z"/><path class="cls-1" d="M55.2,62.226h-.454v-.608H54.73a1.2,1.2,0,0,1-1.157.7,1.322,1.322,0,0,1-1.138-.579,2.466,2.466,0,0,1-.387-1.426,2.494,2.494,0,0,1,.358-1.439,1.305,1.305,0,0,1,1.167-.565,1.271,1.271,0,0,1,.483.084,1.088,1.088,0,0,1,.348.208,1.023,1.023,0,0,1,.326.441h.014V56.6H55.2Zm-2.653-1.913a3.094,3.094,0,0,0,.05.548,2.155,2.155,0,0,0,.175.528,1.092,1.092,0,0,0,.341.367.852.852,0,0,0,.534.159.861.861,0,0,0,.523-.159,1.088,1.088,0,0,0,.338-.381,2.358,2.358,0,0,0,.238-1.062,3.178,3.178,0,0,0-.05-.558,2.071,2.071,0,0,0-.188-.51,1.125,1.125,0,0,0-.338-.389.926.926,0,0,0-.523-.145.915.915,0,0,0-.534.145.982.982,0,0,0-.341.374,1.852,1.852,0,0,0-.175.511A3.358,3.358,0,0,0,52.545,60.313Z"/><path class="cls-1" d="M59.509,62.108a3.059,3.059,0,0,1-1.075.21,1.525,1.525,0,0,1-1.3-.579,2.373,2.373,0,0,1-.383-1.426,2.322,2.322,0,0,1,.436-1.447,1.359,1.359,0,0,1,1.125-.557,1.287,1.287,0,0,1,1.135.565,2.448,2.448,0,0,1,.341,1.334v.241H57.246a1.63,1.63,0,0,0,.312,1.028,1.059,1.059,0,0,0,.91.438,1.843,1.843,0,0,0,.569-.1,1.8,1.8,0,0,0,.472-.188Zm-.222-2.062a1.907,1.907,0,0,0-.213-.921.811.811,0,0,0-.737-.414.967.967,0,0,0-.793.421,1.513,1.513,0,0,0-.3.914Z"/><path class="cls-1" d="M61.363,59.254c0-.353-.009-.638-.029-.853h.455v.732H61.8a1.63,1.63,0,0,1,.369-.574.8.8,0,0,1,.582-.25,1.535,1.535,0,0,1,.32.044v.491a1.22,1.22,0,0,0-.334-.045.77.77,0,0,0-.444.137,1,1,0,0,0-.284.366,1.911,1.911,0,0,0-.145.489,3,3,0,0,0-.05.542v1.893h-.454Z"/><path class="cls-1" d="M66.574,61.614H66.56a1.111,1.111,0,0,1-.49.513,1.437,1.437,0,0,1-.688.191,1.458,1.458,0,0,1-.625-.128.981.981,0,0,1-.379-.285,1.257,1.257,0,0,1,.007-1.424,1.213,1.213,0,0,1,.561-.4,3.04,3.04,0,0,1,.742-.165q.393-.023.755-.022h.089v-.2q.021-.988-.846-.99a1.98,1.98,0,0,0-1.091.319v-.459a2.659,2.659,0,0,1,1.089-.262q1.317-.015,1.3,1.426v1.689a5.094,5.094,0,0,0,.039.8h-.45ZM66.532,60.3H66.4q-.3,0-.6.015a2.092,2.092,0,0,0-.568.129.877.877,0,0,0-.409.275.745.745,0,0,0-.167.507.586.586,0,0,0,.235.526.858.858,0,0,0,.536.165,1.071,1.071,0,0,0,.633-.165.964.964,0,0,0,.331-.375,1.325,1.325,0,0,0,.12-.459c.012-.158.018-.286.018-.386Z"/><path class="cls-1" d="M68.44,61.831,70.669,58.8H68.457v-.4H71.2v.4l-2.3,3.02h2.3v.4H68.44Z"/><path class="cls-1" d="M73.154,57.378H72.7v-.629h.454ZM72.7,58.4h.454v3.825H72.7Z"/><path class="cls-1" d="M77.839,61.325a8.926,8.926,0,0,0,.031.9h-.443v-.681h-.014a1.3,1.3,0,0,1-.139.252,1.124,1.124,0,0,1-.223.257,1.031,1.031,0,0,1-.343.179,1.271,1.271,0,0,1-.494.085,1.135,1.135,0,0,1-.971-.421,1.7,1.7,0,0,1-.29-1.053V58.4h.453v2.326a1.506,1.506,0,0,0,.21.857.729.729,0,0,0,.672.331.983.983,0,0,0,.529-.135.9.9,0,0,0,.334-.33A1.387,1.387,0,0,0,77.332,61a2.195,2.195,0,0,0,.053-.481V58.4h.454Z"/><path class="cls-1" d="M79.711,59.3q0-.439-.028-.9h.442v.682h.015a2.114,2.114,0,0,1,.152-.272,1.06,1.06,0,0,1,.216-.245,1.008,1.008,0,0,1,.34-.191,1.625,1.625,0,0,1,.485-.066,1.144,1.144,0,0,1,.981.422,1.78,1.78,0,0,1,.284,1.047v2.448h-.454V59.9a1.672,1.672,0,0,0-.2-.869.8.8,0,0,0-.686-.317.939.939,0,0,0-.86.449,1.4,1.4,0,0,0-.181.444,2.256,2.256,0,0,0-.057.506v2.116h-.454Z"/><path class="cls-1" d="M86.781,61.672a1.989,1.989,0,0,0,.964.243.915.915,0,0,0,.581-.187.593.593,0,0,0,.241-.5.641.641,0,0,0-.27-.535,3.112,3.112,0,0,0-.617-.338c-.111-.054-.217-.111-.319-.172a2.841,2.841,0,0,1-.291-.2,1.109,1.109,0,0,1-.206-.278.779.779,0,0,1-.077-.354.909.909,0,0,1,.375-.811,1.482,1.482,0,0,1,.829-.234,3.911,3.911,0,0,1,.415.029,2.57,2.57,0,0,1,.5.143l-.043.41a2.2,2.2,0,0,0-.824-.18,1.046,1.046,0,0,0-.564.133.465.465,0,0,0-.171.191.657.657,0,0,0-.064.315.367.367,0,0,0,.082.225.8.8,0,0,0,.209.179c.088.051.187.1.3.158s.22.106.327.165a2.089,2.089,0,0,1,.632.422,1.119,1.119,0,0,1,.16,1.232,1.068,1.068,0,0,1-.312.338,1.627,1.627,0,0,1-.864.249,3.007,3.007,0,0,1-1.034-.182Z"/><path class="cls-1" d="M91.853,62.226h-.535L90.061,58.4h.5l1.02,3.312H91.6L92.674,58.4h.479Z"/><path class="cls-1" d="M94.94,57.378h-.454v-.629h.454ZM94.486,58.4h.454v3.825h-.454Z"/><path class="cls-1" d="M96.394,61.831,98.623,58.8H96.41v-.4h2.746v.4l-2.305,3.02h2.305v.4H96.394Z"/><path class="cls-1" d="M100.654,59.254c0-.353-.009-.638-.029-.853h.455v.732h.014a1.63,1.63,0,0,1,.369-.574.8.8,0,0,1,.582-.25,1.535,1.535,0,0,1,.32.044v.491a1.22,1.22,0,0,0-.334-.045.77.77,0,0,0-.444.137,1,1,0,0,0-.284.366,1.911,1.911,0,0,0-.145.489,3.088,3.088,0,0,0-.05.542v1.893h-.454Z"/><path class="cls-1" d="M105.865,61.614h-.014a1.111,1.111,0,0,1-.49.513,1.437,1.437,0,0,1-.688.191,1.458,1.458,0,0,1-.625-.128.981.981,0,0,1-.379-.285,1.257,1.257,0,0,1,.007-1.424,1.213,1.213,0,0,1,.561-.4,3.04,3.04,0,0,1,.742-.165q.393-.023.755-.022h.089v-.2q.021-.988-.846-.99a1.98,1.98,0,0,0-1.091.319v-.459a2.659,2.659,0,0,1,1.089-.262q1.317-.015,1.3,1.426v1.689a5.094,5.094,0,0,0,.039.8h-.45Zm-.042-1.316h-.132q-.3,0-.6.015a2.092,2.092,0,0,0-.568.129.877.877,0,0,0-.409.275.745.745,0,0,0-.167.507.586.586,0,0,0,.235.526.858.858,0,0,0,.536.165,1.071,1.071,0,0,0,.633-.165.964.964,0,0,0,.331-.375,1.325,1.325,0,0,0,.12-.459c.012-.158.018-.286.018-.386Z"/><path class="cls-1" d="M29.836,82.262a1.882,1.882,0,0,0,1.123.309,1.249,1.249,0,0,0,.813-.264,1,1,0,0,0,.328-.81.8.8,0,0,0-.363-.645,2.439,2.439,0,0,0-.373-.258c-.139-.08-.283-.16-.43-.238s-.284-.176-.419-.272a2.185,2.185,0,0,1-.38-.3,1.074,1.074,0,0,1-.362-.817,1.24,1.24,0,0,1,.472-1.009,1.815,1.815,0,0,1,1.132-.359,4.412,4.412,0,0,1,.465.028,3.469,3.469,0,0,1,.533.143l-.082.47a1.969,1.969,0,0,0-.924-.195,1.88,1.88,0,0,0-.384.038,1.1,1.1,0,0,0-.359.157.784.784,0,0,0-.252.271.862.862,0,0,0-.1.437.612.612,0,0,0,.1.344,1.019,1.019,0,0,0,.259.279,3.257,3.257,0,0,0,.38.238q.2.121.423.25a2.916,2.916,0,0,1,.8.568,1.308,1.308,0,0,1,.27.393,1.348,1.348,0,0,1,.092.517,1.3,1.3,0,0,1-.529,1.132,1.953,1.953,0,0,1-1.135.349,2.727,2.727,0,0,1-1.146-.226Z"/><path class="cls-1" d="M38.073,82.926H37.52l-1.008-3.312h-.018l-1.008,3.312h-.553L33.74,79.1h.5l.972,3.313h.014L36.263,79.1h.554l.979,3.313h.015L38.836,79.1h.458Z"/><path class="cls-1" d="M41.14,78.079h-.454V77.45h.454ZM40.686,79.1h.454v3.825h-.454Z"/><path class="cls-1" d="M42.654,82.373a2.017,2.017,0,0,0,.964.243.911.911,0,0,0,.582-.188.6.6,0,0,0,.24-.495.647.647,0,0,0-.269-.536,3.278,3.278,0,0,0-.617-.337c-.112-.054-.218-.111-.32-.173a2.628,2.628,0,0,1-.29-.2,1.074,1.074,0,0,1-.206-.279.752.752,0,0,1-.078-.352.9.9,0,0,1,.376-.81,1.473,1.473,0,0,1,.829-.236,3.73,3.73,0,0,1,.415.03,2.625,2.625,0,0,1,.5.141l-.042.412a2.151,2.151,0,0,0-.824-.179,1.053,1.053,0,0,0-.565.131.463.463,0,0,0-.17.191.654.654,0,0,0-.064.315.361.361,0,0,0,.081.224.77.77,0,0,0,.21.18c.087.051.187.1.3.158s.22.106.326.165a2.041,2.041,0,0,1,.632.422,1.114,1.114,0,0,1,.16,1.232,1.03,1.03,0,0,1-.311.337,1.633,1.633,0,0,1-.864.25,2.975,2.975,0,0,1-1.034-.182Z"/><path class="cls-1" d="M46.16,82.373a2.011,2.011,0,0,0,.964.243.91.91,0,0,0,.581-.188.6.6,0,0,0,.241-.495.648.648,0,0,0-.27-.536,3.278,3.278,0,0,0-.617-.337c-.111-.054-.217-.111-.319-.173a2.549,2.549,0,0,1-.291-.2,1.1,1.1,0,0,1-.206-.279.752.752,0,0,1-.077-.352.9.9,0,0,1,.375-.81,1.475,1.475,0,0,1,.829-.236,3.7,3.7,0,0,1,.415.03,2.634,2.634,0,0,1,.5.141l-.043.412a2.143,2.143,0,0,0-.824-.179,1.046,1.046,0,0,0-.564.131.465.465,0,0,0-.171.191.654.654,0,0,0-.064.315.356.356,0,0,0,.082.224.75.75,0,0,0,.209.18c.088.051.187.1.3.158s.22.106.327.165a2.053,2.053,0,0,1,.632.422,1.119,1.119,0,0,1,.16,1.232,1.043,1.043,0,0,1-.312.337,1.628,1.628,0,0,1-.864.25,2.979,2.979,0,0,1-1.034-.182Z"/><path class="cls-1" d="M56.147,78.27a1.714,1.714,0,0,0-.546-.187,4.748,4.748,0,0,0-.586-.038,1.923,1.923,0,0,0-1.52.639,2.73,2.73,0,0,0-.007,3.248,1.881,1.881,0,0,0,1.527.639,3.531,3.531,0,0,0,.586-.055,1.5,1.5,0,0,0,.546-.172l.029.448a1.685,1.685,0,0,1-.557.171,3.854,3.854,0,0,1-.6.055,2.467,2.467,0,0,1-1.877-.752,2.753,2.753,0,0,1-.681-1.959,2.809,2.809,0,0,1,.688-1.957,2.459,2.459,0,0,1,1.87-.751q.245,0,.6.036a1.728,1.728,0,0,1,.557.157Z"/><path class="cls-1" d="M57.923,81.014a2.3,2.3,0,0,1,.423-1.4,1.523,1.523,0,0,1,1.305-.609,1.55,1.55,0,0,1,1.323.609,2.58,2.58,0,0,1,0,2.785,1.554,1.554,0,0,1-1.323.615,1.527,1.527,0,0,1-1.305-.615A2.311,2.311,0,0,1,57.923,81.014Zm.5,0a1.876,1.876,0,0,0,.321,1.127,1.036,1.036,0,0,0,.911.475,1.074,1.074,0,0,0,.925-.475,1.943,1.943,0,0,0,.306-1.127,2,2,0,0,0-.306-1.142,1.08,1.08,0,0,0-.925-.459,1.041,1.041,0,0,0-.911.459A1.928,1.928,0,0,0,58.421,81.014Z"/><path class="cls-1" d="M62.968,80q0-.439-.029-.9h.443v.681H63.4a2.246,2.246,0,0,1,.152-.271,1.081,1.081,0,0,1,.556-.436,1.627,1.627,0,0,1,.486-.066,1.145,1.145,0,0,1,.981.421,1.789,1.789,0,0,1,.283,1.049v2.447H65.4V80.6a1.679,1.679,0,0,0-.2-.87.788.788,0,0,0-.685-.314.936.936,0,0,0-.861.447,1.442,1.442,0,0,0-.181.443,2.269,2.269,0,0,0-.057.506v2.117h-.453Z"/><path class="cls-1" d="M68.038,79.5H67.29v-.4h.748v-.278q0-.307.028-.6a1.491,1.491,0,0,1,.11-.509.761.761,0,0,1,.3-.37.955.955,0,0,1,.541-.132c.078,0,.158,0,.241.007a.5.5,0,0,1,.188.067l-.028.414a.735.735,0,0,0-.363-.084.5.5,0,0,0-.345.1.6.6,0,0,0-.166.293,1.5,1.5,0,0,0-.043.367c0,.135-.007.264-.007.389V79.1h.835v.4h-.835v3.422h-.454Z"/><path class="cls-1" d="M73.293,82.807a3.038,3.038,0,0,1-1.075.211,1.517,1.517,0,0,1-1.3-.579,2.363,2.363,0,0,1-.384-1.425,2.326,2.326,0,0,1,.436-1.447,1.355,1.355,0,0,1,1.125-.558,1.292,1.292,0,0,1,1.135.565,2.444,2.444,0,0,1,.341,1.333v.242H71.03a1.635,1.635,0,0,0,.312,1.029,1.066,1.066,0,0,0,.91.438,1.783,1.783,0,0,0,.569-.1,1.917,1.917,0,0,0,.472-.187Zm-.222-2.06a1.911,1.911,0,0,0-.213-.922.805.805,0,0,0-.736-.412.958.958,0,0,0-.793.42,1.507,1.507,0,0,0-.3.914Z"/><path class="cls-1" d="M78.078,82.926h-.453v-.607H77.61a1.2,1.2,0,0,1-1.156.7,1.317,1.317,0,0,1-1.139-.579,2.463,2.463,0,0,1-.387-1.425,2.5,2.5,0,0,1,.359-1.44,1.473,1.473,0,0,1,1.65-.481,1.082,1.082,0,0,1,.347.208,1.03,1.03,0,0,1,.326.442h.015V77.3h.453Zm-2.652-1.912a3,3,0,0,0,.05.547,2.12,2.12,0,0,0,.174.529,1.156,1.156,0,0,0,.341.368.858.858,0,0,0,.534.158.867.867,0,0,0,.523-.158,1.1,1.1,0,0,0,.338-.383,2.368,2.368,0,0,0,.239-1.061,3.277,3.277,0,0,0-.05-.558,2.013,2.013,0,0,0-.189-.511,1.137,1.137,0,0,0-.338-.39.924.924,0,0,0-.523-.142.915.915,0,0,0-.534.142.994.994,0,0,0-.341.375,1.841,1.841,0,0,0-.174.511A3.254,3.254,0,0,0,75.426,81.014Z"/><path class="cls-1" d="M82.389,82.807a3.039,3.039,0,0,1-1.076.211,1.519,1.519,0,0,1-1.3-.579,2.363,2.363,0,0,1-.383-1.425,2.32,2.32,0,0,1,.436-1.447,1.354,1.354,0,0,1,1.124-.558,1.292,1.292,0,0,1,1.136.565,2.444,2.444,0,0,1,.341,1.333v.242h-2.54a1.629,1.629,0,0,0,.313,1.029,1.066,1.066,0,0,0,.91.438,1.788,1.788,0,0,0,.569-.1,1.917,1.917,0,0,0,.472-.187Zm-.222-2.06a1.911,1.911,0,0,0-.213-.922.806.806,0,0,0-.737-.412.961.961,0,0,0-.793.42,1.514,1.514,0,0,0-.3.914Z"/><path class="cls-1" d="M84.243,79.955c0-.355-.01-.639-.029-.854h.454v.732h.015a1.643,1.643,0,0,1,.369-.575.807.807,0,0,1,.582-.249,1.545,1.545,0,0,1,.32.044v.49a1.222,1.222,0,0,0-.334-.043.762.762,0,0,0-.444.135,1.01,1.01,0,0,0-.284.367,1.923,1.923,0,0,0-.145.489,3.006,3.006,0,0,0-.05.543v1.892h-.454Z"/><path class="cls-1" d="M89.455,82.314H89.44a1.119,1.119,0,0,1-.489.515,1.465,1.465,0,0,1-.689.189,1.434,1.434,0,0,1-.624-.129.956.956,0,0,1-.38-.285,1.258,1.258,0,0,1,.007-1.422,1.229,1.229,0,0,1,.561-.4,3.04,3.04,0,0,1,.742-.165c.263-.014.515-.022.756-.022h.088v-.2q.023-.988-.846-.988a1.955,1.955,0,0,0-1.09.316V79.27a2.657,2.657,0,0,1,1.088-.261q1.317-.014,1.3,1.425v1.69a5.093,5.093,0,0,0,.038.8h-.449ZM89.412,81h-.131c-.2,0-.4,0-.6.014a2.177,2.177,0,0,0-.569.129.877.877,0,0,0-.408.275.74.74,0,0,0-.167.507.589.589,0,0,0,.234.526.859.859,0,0,0,.537.166,1.07,1.07,0,0,0,.632-.166.969.969,0,0,0,.331-.375,1.328,1.328,0,0,0,.121-.459c.011-.157.017-.285.017-.386Z"/><path class="cls-1" d="M93.258,79.5h-.843v2.48a.8.8,0,0,0,.117.444.4.4,0,0,0,.377.188.911.911,0,0,0,.423-.092l.029.389c-.055.019-.13.041-.227.065a1.345,1.345,0,0,1-.333.04.9.9,0,0,1-.471-.106.69.69,0,0,1-.252-.279,1.4,1.4,0,0,1-.1-.4c-.014-.151-.021-.315-.021-.491V79.5h-.726v-.4h.726v-.923l.454-.166V79.1h.843Z"/><path class="cls-1" d="M95.2,78.079h-.453V77.45H95.2ZM94.749,79.1H95.2v3.825h-.453Z"/><path class="cls-1" d="M96.715,81.014a2.307,2.307,0,0,1,.422-1.4,1.523,1.523,0,0,1,1.3-.609,1.547,1.547,0,0,1,1.323.609,2.58,2.58,0,0,1,0,2.785,1.551,1.551,0,0,1-1.323.615,1.527,1.527,0,0,1-1.3-.615A2.317,2.317,0,0,1,96.715,81.014Zm.5,0a1.876,1.876,0,0,0,.32,1.127,1.038,1.038,0,0,0,.911.475,1.075,1.075,0,0,0,.926-.475,1.943,1.943,0,0,0,.306-1.127,2,2,0,0,0-.306-1.142,1.081,1.081,0,0,0-.926-.459,1.043,1.043,0,0,0-.911.459A1.928,1.928,0,0,0,97.213,81.014Z"/><path class="cls-1" d="M101.76,80q0-.439-.029-.9h.443v.681h.014a2.246,2.246,0,0,1,.152-.271,1.081,1.081,0,0,1,.556-.436,1.627,1.627,0,0,1,.486-.066,1.145,1.145,0,0,1,.981.421,1.789,1.789,0,0,1,.283,1.049v2.447h-.454V80.6a1.679,1.679,0,0,0-.195-.87.788.788,0,0,0-.685-.314.936.936,0,0,0-.861.447,1.442,1.442,0,0,0-.181.443,2.269,2.269,0,0,0-.057.506v2.117h-.453Z"/><path class="cls-2" d="M21.267,25.71a28.707,28.707,0,0,0-10.614-1.738h0A28.707,28.707,0,0,0,.037,25.71s-.356,7.7,1.151,12.048a16.091,16.091,0,0,0,9.462,9.8h0a16.093,16.093,0,0,0,9.462-9.8C21.622,33.406,21.267,25.71,21.267,25.71Z"/><polygon class="cls-1" points="17.706 32.345 17.706 36.585 12.759 36.585 12.759 41.532 8.518 41.532 8.518 36.585 3.571 36.585 3.571 32.345 8.518 32.345 8.518 27.398 12.757 27.398 12.759 32.345 17.706 32.345"/><path class="cls-1" d="M177.217,25.935h2.41v.446h-1.912v1.873h1.825V28.7h-1.825V31.17h-.5Z"/><path class="cls-1" d="M183.63,31.051a3.038,3.038,0,0,1-1.075.211,1.52,1.52,0,0,1-1.3-.579,2.372,2.372,0,0,1-.383-1.425,2.326,2.326,0,0,1,.436-1.447,1.355,1.355,0,0,1,1.125-.558,1.289,1.289,0,0,1,1.135.565,2.449,2.449,0,0,1,.341,1.333v.242h-2.539a1.635,1.635,0,0,0,.312,1.029,1.063,1.063,0,0,0,.91.437,1.786,1.786,0,0,0,.569-.1,1.806,1.806,0,0,0,.472-.187Zm-.222-2.06a1.925,1.925,0,0,0-.213-.922.81.81,0,0,0-.737-.412.961.961,0,0,0-.792.42,1.505,1.505,0,0,0-.3.914Z"/><path class="cls-1" d="M188.416,31.17h-.455v-.607h-.013a1.2,1.2,0,0,1-1.156.7,1.32,1.32,0,0,1-1.14-.579,2.463,2.463,0,0,1-.387-1.425,2.505,2.505,0,0,1,.359-1.44,1.473,1.473,0,0,1,1.65-.481,1.088,1.088,0,0,1,.348.208,1.033,1.033,0,0,1,.326.442h.014V25.542h.454Zm-2.653-1.912a3.083,3.083,0,0,0,.05.547,2.19,2.19,0,0,0,.174.529,1.138,1.138,0,0,0,.342.368.966.966,0,0,0,1.056,0,1.112,1.112,0,0,0,.339-.382,2.374,2.374,0,0,0,.238-1.062,3.265,3.265,0,0,0-.049-.558,2.107,2.107,0,0,0-.189-.511,1.149,1.149,0,0,0-.339-.39,1.053,1.053,0,0,0-1.056,0,1,1,0,0,0-.342.375,1.909,1.909,0,0,0-.174.511A3.352,3.352,0,0,0,185.763,29.258Z"/><path class="cls-1" d="M192.726,31.051a3.042,3.042,0,0,1-1.075.211,1.519,1.519,0,0,1-1.3-.579,2.365,2.365,0,0,1-.384-1.425,2.327,2.327,0,0,1,.437-1.447,1.352,1.352,0,0,1,1.125-.558,1.292,1.292,0,0,1,1.135.565,2.449,2.449,0,0,1,.34,1.333v.242h-2.539a1.636,1.636,0,0,0,.313,1.029,1.063,1.063,0,0,0,.91.437,1.775,1.775,0,0,0,.568-.1,1.8,1.8,0,0,0,.473-.187Zm-.223-2.06a1.925,1.925,0,0,0-.212-.922.81.81,0,0,0-.737-.412.963.963,0,0,0-.793.42,1.512,1.512,0,0,0-.3.914Z"/><path class="cls-1" d="M194.58,28.2c0-.355-.009-.639-.029-.854h.454v.733h.015a1.648,1.648,0,0,1,.369-.576.8.8,0,0,1,.582-.249,1.545,1.545,0,0,1,.32.044v.492a1.179,1.179,0,0,0-.334-.044.76.76,0,0,0-.444.135.993.993,0,0,0-.284.367,1.988,1.988,0,0,0-.146.488,3.087,3.087,0,0,0-.049.543V31.17h-.454Z"/><path class="cls-1" d="M199.792,30.558h-.014a1.124,1.124,0,0,1-.489.515,1.453,1.453,0,0,1-1.314.061.993.993,0,0,1-.38-.285,1.2,1.2,0,0,1-.216-.666,1.18,1.18,0,0,1,.224-.758,1.23,1.23,0,0,1,.561-.4,2.986,2.986,0,0,1,.741-.164q.393-.023.756-.023h.089v-.2q.021-.988-.846-.988a1.966,1.966,0,0,0-1.091.316v-.458a2.643,2.643,0,0,1,1.089-.262q1.317-.014,1.3,1.426v1.689a4.864,4.864,0,0,0,.038.8h-.45Zm-.042-1.315h-.131q-.3,0-.6.014a2.139,2.139,0,0,0-.568.129.9.9,0,0,0-.41.276.742.742,0,0,0-.167.506.588.588,0,0,0,.235.526.861.861,0,0,0,.537.165,1.073,1.073,0,0,0,.633-.165.975.975,0,0,0,.33-.375,1.322,1.322,0,0,0,.121-.459c.012-.156.018-.285.018-.386Z"/><path class="cls-1" d="M202,25.542h.455V31.17H202Z"/><path class="cls-1" d="M206.932,25.935h1.256a2.468,2.468,0,0,1,1.954.725,2.833,2.833,0,0,1,.581,1.883,2.407,2.407,0,0,1-.822,2.019,3.347,3.347,0,0,1-2.082.608h-.887Zm.5,4.789h.416a2.036,2.036,0,0,0,2.381-2.208,2.139,2.139,0,0,0-.6-1.677,2.257,2.257,0,0,0-1.463-.458h-.737Z"/><path class="cls-1" d="M215,31.051a3.043,3.043,0,0,1-1.076.211,1.517,1.517,0,0,1-1.3-.579,2.365,2.365,0,0,1-.384-1.425,2.326,2.326,0,0,1,.436-1.447,1.355,1.355,0,0,1,1.125-.558,1.289,1.289,0,0,1,1.135.565,2.441,2.441,0,0,1,.341,1.333v.242h-2.539a1.635,1.635,0,0,0,.312,1.029,1.063,1.063,0,0,0,.911.437,1.78,1.78,0,0,0,.568-.1,1.829,1.829,0,0,0,.473-.187Zm-.223-2.06a1.914,1.914,0,0,0-.213-.922.808.808,0,0,0-.736-.412.962.962,0,0,0-.793.42,1.505,1.505,0,0,0-.3.914Z"/><path class="cls-1" d="M216.807,27.345h.454l-.031.7h.014c.031-.054.074-.129.131-.224a1.323,1.323,0,0,1,.22-.257,1.4,1.4,0,0,1,.341-.224,1.509,1.509,0,0,1,1.674.481,2.655,2.655,0,0,1,.348,1.44,2.514,2.514,0,0,1-.376,1.425,1.352,1.352,0,0,1-1.152.579,1.149,1.149,0,0,1-1.155-.741h-.014v2.225h-.454Zm2.653,1.913a4.4,4.4,0,0,0-.036-.573,1.6,1.6,0,0,0-.181-.511.867.867,0,0,0-.338-.375.972.972,0,0,0-.544-.142.883.883,0,0,0-.513.142,1.136,1.136,0,0,0-.342.39,1.712,1.712,0,0,0-.18.511,2.531,2.531,0,0,0-.065.558,2.244,2.244,0,0,0,.245,1.062,1.1,1.1,0,0,0,.342.382.822.822,0,0,0,.513.157.9.9,0,0,0,.544-.157.969.969,0,0,0,.338-.368,1.808,1.808,0,0,0,.181-.529A4.041,4.041,0,0,0,219.46,29.258Z"/><path class="cls-1" d="M223.737,30.558h-.014a1.114,1.114,0,0,1-.489.515,1.453,1.453,0,0,1-1.314.061.981.981,0,0,1-.379-.285,1.261,1.261,0,0,1,.007-1.424,1.23,1.23,0,0,1,.561-.4,2.986,2.986,0,0,1,.741-.164q.395-.023.756-.023h.089v-.2q.021-.988-.846-.988a1.966,1.966,0,0,0-1.091.316v-.458a2.643,2.643,0,0,1,1.089-.262q1.317-.014,1.3,1.426v1.689a4.976,4.976,0,0,0,.038.8h-.45Zm-.042-1.315h-.131q-.3,0-.6.014a2.139,2.139,0,0,0-.568.129.886.886,0,0,0-.409.276.737.737,0,0,0-.167.506.588.588,0,0,0,.234.526.863.863,0,0,0,.537.165,1.071,1.071,0,0,0,.633-.165.966.966,0,0,0,.33-.375,1.322,1.322,0,0,0,.121-.459c.012-.156.018-.285.018-.386Z"/><path class="cls-1" d="M225.947,28.2c0-.355-.009-.639-.029-.854h.455v.733h.014a1.648,1.648,0,0,1,.369-.576.8.8,0,0,1,.582-.249,1.545,1.545,0,0,1,.32.044v.492a1.179,1.179,0,0,0-.334-.044.762.762,0,0,0-.444.135.993.993,0,0,0-.284.367,1.945,1.945,0,0,0-.145.488,3,3,0,0,0-.05.543V31.17h-.454Z"/><path class="cls-1" d="M230.625,27.748h-.843v2.48a.8.8,0,0,0,.117.444.4.4,0,0,0,.377.187.9.9,0,0,0,.423-.091l.028.389c-.054.019-.13.041-.227.065a1.288,1.288,0,0,1-.333.04.892.892,0,0,1-.47-.106.683.683,0,0,1-.252-.279,1.4,1.4,0,0,1-.1-.4c-.014-.151-.021-.315-.021-.491V27.748H228.6v-.4h.727v-.923l.454-.165v1.088h.843Z"/><path class="cls-1" d="M236.663,31.17V28.625a2.4,2.4,0,0,0-.03-.393.809.809,0,0,0-.144-.3.617.617,0,0,0-.248-.209,1.042,1.042,0,0,0-.4-.065.95.95,0,0,0-.711.33,1.556,1.556,0,0,0-.326,1.067V31.17h-.453V28.625a2.278,2.278,0,0,0-.033-.393.826.826,0,0,0-.145-.3.617.617,0,0,0-.248-.209,1.038,1.038,0,0,0-.4-.065.95.95,0,0,0-.711.33,1.551,1.551,0,0,0-.325,1.067V31.17h-.455V28.243c0-.293-.009-.592-.029-.9h.457v.645l.015.008a1.6,1.6,0,0,1,.141-.235.855.855,0,0,1,.209-.238,1.285,1.285,0,0,1,.336-.2,1.465,1.465,0,0,1,.5-.074,1.556,1.556,0,0,1,.292.03.886.886,0,0,1,.3.12.82.82,0,0,1,.263.241,1.1,1.1,0,0,1,.157.416h.015a1.341,1.341,0,0,1,.456-.573,1.289,1.289,0,0,1,.764-.234,1.158,1.158,0,0,1,.894.36,1.348,1.348,0,0,1,.307.923V31.17Z"/><path class="cls-1" d="M241.435,31.051a3.042,3.042,0,0,1-1.075.211,1.519,1.519,0,0,1-1.3-.579,2.365,2.365,0,0,1-.384-1.425,2.327,2.327,0,0,1,.437-1.447,1.352,1.352,0,0,1,1.125-.558,1.292,1.292,0,0,1,1.135.565,2.449,2.449,0,0,1,.34,1.333v.242h-2.539a1.636,1.636,0,0,0,.313,1.029,1.063,1.063,0,0,0,.91.437,1.775,1.775,0,0,0,.568-.1,1.8,1.8,0,0,0,.473-.187Zm-.223-2.06a1.925,1.925,0,0,0-.212-.922.81.81,0,0,0-.737-.412.963.963,0,0,0-.793.42,1.512,1.512,0,0,0-.3.914Z"/><path class="cls-1" d="M243.289,28.243c0-.293-.009-.592-.029-.9h.444v.682h.013a2.33,2.33,0,0,1,.153-.272,1.076,1.076,0,0,1,.215-.245,1.018,1.018,0,0,1,.34-.19,1.6,1.6,0,0,1,.486-.067,1.141,1.141,0,0,1,.981.422,1.783,1.783,0,0,1,.283,1.048V31.17h-.453V28.841a1.672,1.672,0,0,0-.2-.869.791.791,0,0,0-.687-.315.935.935,0,0,0-.859.447,1.4,1.4,0,0,0-.182.443,2.27,2.27,0,0,0-.056.507V31.17h-.454Z"/><path class="cls-1" d="M249.641,27.748H248.8v2.48a.788.788,0,0,0,.118.444.4.4,0,0,0,.376.187.9.9,0,0,0,.423-.091l.029.389c-.054.019-.13.041-.227.065a1.294,1.294,0,0,1-.333.04.9.9,0,0,1-.471-.106.7.7,0,0,1-.252-.279,1.4,1.4,0,0,1-.095-.4c-.014-.151-.022-.315-.022-.491V27.748h-.726v-.4h.726v-.923l.454-.165v1.088h.843Z"/><path class="cls-1" d="M253.516,29.258a2.307,2.307,0,0,1,.422-1.4,1.52,1.52,0,0,1,1.305-.609,1.546,1.546,0,0,1,1.323.609,2.579,2.579,0,0,1,0,2.784,1.55,1.55,0,0,1-1.323.616,1.525,1.525,0,0,1-1.305-.616A2.316,2.316,0,0,1,253.516,29.258Zm.5,0a1.889,1.889,0,0,0,.32,1.127,1.035,1.035,0,0,0,.912.474,1.068,1.068,0,0,0,.925-.474,1.936,1.936,0,0,0,.306-1.127,1.994,1.994,0,0,0-.306-1.142,1.079,1.079,0,0,0-.925-.459,1.045,1.045,0,0,0-.912.459A1.946,1.946,0,0,0,254.013,29.258Z"/><path class="cls-1" d="M258.872,27.748h-.748v-.4h.748v-.278q0-.308.028-.6a1.475,1.475,0,0,1,.11-.509.773.773,0,0,1,.3-.371.967.967,0,0,1,.542-.131c.078,0,.158,0,.241.007a.5.5,0,0,1,.188.066l-.028.414a.732.732,0,0,0-.363-.085.5.5,0,0,0-.345.106.61.61,0,0,0-.167.294,1.545,1.545,0,0,0-.042.367c-.005.133-.007.263-.007.388v.333h.835v.4h-.835V31.17h-.454Z"/><path class="cls-1" d="M264.366,25.935h2.479v.446h-1.982v1.873h1.883V28.7h-1.883v2.023h2.071v.446h-2.568Z"/><path class="cls-1" d="M271.062,27.851a1.917,1.917,0,0,0-.8-.194,1.263,1.263,0,0,0-1.022.44,1.744,1.744,0,0,0-.373,1.161,1.725,1.725,0,0,0,.365,1.12,1.175,1.175,0,0,0,.98.481,2.134,2.134,0,0,0,.838-.172l.042.44a2.98,2.98,0,0,1-.95.135,1.59,1.59,0,0,1-1.33-.608,2.233,2.233,0,0,1-.443-1.4,2.059,2.059,0,0,1,.507-1.447,1.717,1.717,0,0,1,1.323-.558,2.705,2.705,0,0,1,.567.051,1.787,1.787,0,0,1,.2.048.893.893,0,0,1,.124.051Z"/><path class="cls-1" d="M272.282,29.258a2.3,2.3,0,0,1,.422-1.4,1.519,1.519,0,0,1,1.3-.609,1.548,1.548,0,0,1,1.324.609,2.579,2.579,0,0,1,0,2.784,1.552,1.552,0,0,1-1.324.616,1.523,1.523,0,0,1-1.3-.616A2.31,2.31,0,0,1,272.282,29.258Zm.5,0a1.882,1.882,0,0,0,.32,1.127,1.033,1.033,0,0,0,.911.474,1.069,1.069,0,0,0,.926-.474,1.943,1.943,0,0,0,.306-1.127,2,2,0,0,0-.306-1.142,1.081,1.081,0,0,0-.926-.459,1.043,1.043,0,0,0-.911.459A1.939,1.939,0,0,0,272.779,29.258Z"/><path class="cls-1" d="M277.325,28.243c0-.293-.009-.592-.029-.9h.444v.682h.013a2.33,2.33,0,0,1,.153-.272,1.057,1.057,0,0,1,.216-.245,1,1,0,0,1,.339-.19,1.6,1.6,0,0,1,.486-.067,1.141,1.141,0,0,1,.981.422,1.783,1.783,0,0,1,.283,1.048V31.17h-.453V28.841a1.672,1.672,0,0,0-.195-.869.791.791,0,0,0-.687-.315.935.935,0,0,0-.859.447,1.42,1.42,0,0,0-.182.443,2.27,2.27,0,0,0-.056.507V31.17h-.454Z"/><path class="cls-1" d="M281.8,29.258a2.307,2.307,0,0,1,.422-1.4,1.522,1.522,0,0,1,1.3-.609,1.546,1.546,0,0,1,1.323.609,2.579,2.579,0,0,1,0,2.784,1.55,1.55,0,0,1-1.323.616,1.526,1.526,0,0,1-1.3-.616A2.316,2.316,0,0,1,281.8,29.258Zm.5,0a1.883,1.883,0,0,0,.321,1.127,1.033,1.033,0,0,0,.911.474,1.071,1.071,0,0,0,.926-.474,1.943,1.943,0,0,0,.305-1.127,2,2,0,0,0-.305-1.142,1.082,1.082,0,0,0-.926-.459,1.043,1.043,0,0,0-.911.459A1.939,1.939,0,0,0,282.3,29.258Z"/><path class="cls-1" d="M291.388,31.17V28.625a2.517,2.517,0,0,0-.029-.393.8.8,0,0,0-.145-.3.6.6,0,0,0-.248-.209,1.033,1.033,0,0,0-.395-.065.949.949,0,0,0-.711.33,1.556,1.556,0,0,0-.326,1.067V31.17h-.453V28.625a2.179,2.179,0,0,0-.034-.393.841.841,0,0,0-.144-.3.63.63,0,0,0-.248-.209,1.044,1.044,0,0,0-.4-.065.952.952,0,0,0-.711.33,1.556,1.556,0,0,0-.325,1.067V31.17h-.454V28.243q0-.439-.029-.9h.457v.645l.014.008a1.708,1.708,0,0,1,.142-.235.839.839,0,0,1,.209-.238,1.269,1.269,0,0,1,.336-.2,1.465,1.465,0,0,1,.5-.074,1.565,1.565,0,0,1,.292.03.894.894,0,0,1,.3.12.828.828,0,0,1,.262.241,1.1,1.1,0,0,1,.158.416h.014a1.341,1.341,0,0,1,.456-.573,1.289,1.289,0,0,1,.764-.234,1.159,1.159,0,0,1,.895.36,1.348,1.348,0,0,1,.306.923V31.17Z"/><path class="cls-1" d="M294.132,26.323h-.454v-.63h.454Zm-.454,1.022h.454V31.17h-.454Z"/><path class="cls-1" d="M298.34,27.851a1.913,1.913,0,0,0-.795-.194,1.263,1.263,0,0,0-1.022.44,1.744,1.744,0,0,0-.373,1.161,1.725,1.725,0,0,0,.365,1.12,1.177,1.177,0,0,0,.981.481,2.129,2.129,0,0,0,.837-.172l.042.44a2.976,2.976,0,0,1-.95.135,1.591,1.591,0,0,1-1.33-.608,2.233,2.233,0,0,1-.443-1.4,2.064,2.064,0,0,1,.508-1.447,1.715,1.715,0,0,1,1.322-.558,2.705,2.705,0,0,1,.567.051,1.787,1.787,0,0,1,.2.048.893.893,0,0,1,.124.051Z"/><path class="cls-1" d="M304.115,25.935h.567L306.7,31.17h-.523l-.547-1.4h-2.56l-.544,1.4h-.486Zm.248.49-1.105,2.9h2.2Z"/><path class="cls-1" d="M308.417,27.748h-.748v-.4h.748v-.278q0-.308.029-.6a1.475,1.475,0,0,1,.11-.509.773.773,0,0,1,.3-.371.967.967,0,0,1,.542-.131c.078,0,.158,0,.241.007a.5.5,0,0,1,.188.066l-.029.414a.726.726,0,0,0-.362-.085.5.5,0,0,0-.345.106.61.61,0,0,0-.167.294,1.545,1.545,0,0,0-.043.367c0,.133-.006.263-.006.388v.333h.835v.4h-.835V31.17h-.455Z"/><path class="cls-1" d="M311.366,27.748h-.748v-.4h.748v-.278q0-.308.028-.6a1.475,1.475,0,0,1,.11-.509.779.779,0,0,1,.3-.371.967.967,0,0,1,.542-.131c.078,0,.158,0,.241.007a.491.491,0,0,1,.188.066l-.028.414a.732.732,0,0,0-.363-.085.5.5,0,0,0-.344.106.6.6,0,0,0-.167.294,1.5,1.5,0,0,0-.043.367c0,.133-.007.263-.007.388v.333h.835v.4h-.835V31.17h-.454Z"/><path class="cls-1" d="M316.266,30.558h-.014a1.114,1.114,0,0,1-.489.515,1.451,1.451,0,0,1-1.313.061.993.993,0,0,1-.38-.285,1.193,1.193,0,0,1-.216-.666,1.174,1.174,0,0,1,.224-.758,1.227,1.227,0,0,1,.56-.4,3.006,3.006,0,0,1,.741-.164q.394-.023.756-.023h.089v-.2q.022-.988-.846-.988a1.963,1.963,0,0,0-1.09.316v-.458a2.638,2.638,0,0,1,1.088-.262q1.317-.014,1.3,1.426v1.689a4.976,4.976,0,0,0,.038.8h-.45Zm-.042-1.315h-.131q-.3,0-.6.014a2.147,2.147,0,0,0-.569.129.892.892,0,0,0-.409.276.742.742,0,0,0-.167.506.588.588,0,0,0,.234.526.866.866,0,0,0,.538.165,1.07,1.07,0,0,0,.632-.165.958.958,0,0,0,.33-.375,1.3,1.3,0,0,0,.122-.459c.011-.156.017-.285.017-.386Z"/><path class="cls-1" d="M318.93,26.323h-.454v-.63h.454Zm-.454,1.022h.454V31.17h-.454Z"/><path class="cls-1" d="M320.728,28.2c0-.355-.009-.639-.028-.854h.454v.733h.014a1.636,1.636,0,0,1,.37-.576.8.8,0,0,1,.582-.249,1.535,1.535,0,0,1,.319.044v.492a1.179,1.179,0,0,0-.334-.044.757.757,0,0,0-.443.135,1,1,0,0,0-.285.367,1.945,1.945,0,0,0-.145.488,3.09,3.09,0,0,0-.05.543V31.17h-.454Z"/><path class="cls-1" d="M323.529,30.617a2,2,0,0,0,.965.242.91.91,0,0,0,.581-.187.6.6,0,0,0,.241-.5.651.651,0,0,0-.27-.536,3.3,3.3,0,0,0-.617-.337c-.111-.054-.218-.111-.319-.173a2.549,2.549,0,0,1-.291-.2,1.074,1.074,0,0,1-.206-.279.755.755,0,0,1-.078-.352.9.9,0,0,1,.376-.81,1.47,1.47,0,0,1,.829-.236,3.714,3.714,0,0,1,.415.03,2.563,2.563,0,0,1,.5.141l-.043.411a2.184,2.184,0,0,0-.824-.178,1.052,1.052,0,0,0-.565.132.463.463,0,0,0-.171.19.67.67,0,0,0-.063.315.361.361,0,0,0,.081.224.8.8,0,0,0,.21.18c.088.052.186.1.3.158s.22.106.327.165a2.1,2.1,0,0,1,.632.422,1.119,1.119,0,0,1,.16,1.232,1.035,1.035,0,0,1-.313.337,1.618,1.618,0,0,1-.863.25,3.006,3.006,0,0,1-1.034-.181Z"/><path class="cls-1" d="M327.555,30.541h.612l-.573,1.633h-.459Z"/><path class="cls-1" d="M177.284,36.285h2.479v.446h-1.982V38.6h1.883v.446h-1.883v2.024h2.071v.446h-2.568Z"/><path class="cls-1" d="M184.5,41.52h-.455v-.607h-.013a1.2,1.2,0,0,1-1.157.7,1.322,1.322,0,0,1-1.139-.579,2.465,2.465,0,0,1-.387-1.425,2.509,2.509,0,0,1,.359-1.441,1.3,1.3,0,0,1,1.167-.564,1.275,1.275,0,0,1,.483.084,1.088,1.088,0,0,1,.348.208,1.032,1.032,0,0,1,.326.441h.014V35.892h.454Zm-2.653-1.912a3.092,3.092,0,0,0,.05.547,2.2,2.2,0,0,0,.174.529,1.135,1.135,0,0,0,.342.367.966.966,0,0,0,1.056,0,1.094,1.094,0,0,0,.339-.382,2.37,2.37,0,0,0,.238-1.061,3.276,3.276,0,0,0-.049-.559,2.115,2.115,0,0,0-.189-.51,1.14,1.14,0,0,0-.339-.39,1.046,1.046,0,0,0-1.056,0,1,1,0,0,0-.342.375,1.885,1.885,0,0,0-.174.511A3.352,3.352,0,0,0,181.847,39.608Z"/><path class="cls-1" d="M189.214,40.619a8.954,8.954,0,0,0,.032.9H188.8v-.681h-.013a1.322,1.322,0,0,1-.139.252,1.154,1.154,0,0,1-.224.257,1.041,1.041,0,0,1-.343.18,1.305,1.305,0,0,1-.493.084,1.13,1.13,0,0,1-.971-.422,1.7,1.7,0,0,1-.291-1.051V37.7h.454V40.02a1.5,1.5,0,0,0,.21.858.727.727,0,0,0,.671.33.972.972,0,0,0,.529-.135.875.875,0,0,0,.334-.33,1.355,1.355,0,0,0,.182-.451,2.229,2.229,0,0,0,.053-.481V37.7h.453Z"/><path class="cls-1" d="M193.5,38.2a1.922,1.922,0,0,0-.8-.2,1.265,1.265,0,0,0-1.023.441,1.947,1.947,0,0,0-.008,2.281,1.177,1.177,0,0,0,.981.48,2.137,2.137,0,0,0,.838-.171l.042.44a2.98,2.98,0,0,1-.95.135A1.594,1.594,0,0,1,191.25,41a2.234,2.234,0,0,1-.443-1.4,2.062,2.062,0,0,1,.508-1.447,1.711,1.711,0,0,1,1.322-.558,2.716,2.716,0,0,1,.568.051,1.636,1.636,0,0,1,.2.048,1.037,1.037,0,0,1,.124.05Z"/><path class="cls-1" d="M197.127,40.908h-.013a1.126,1.126,0,0,1-.489.514,1.449,1.449,0,0,1-1.314.062.993.993,0,0,1-.38-.285,1.2,1.2,0,0,1-.216-.666,1.176,1.176,0,0,1,.224-.758,1.226,1.226,0,0,1,.561-.4,3.031,3.031,0,0,1,.741-.164c.262-.014.514-.022.756-.022h.088v-.2q.022-.99-.845-.989a1.968,1.968,0,0,0-1.091.317v-.458a2.643,2.643,0,0,1,1.089-.262q1.317-.015,1.3,1.426v1.688a4.876,4.876,0,0,0,.038.8h-.451Zm-.042-1.316h-.13q-.3,0-.6.015a2.056,2.056,0,0,0-.568.129.886.886,0,0,0-.41.275.745.745,0,0,0-.167.507.587.587,0,0,0,.235.525.855.855,0,0,0,.537.165,1.068,1.068,0,0,0,.633-.165.961.961,0,0,0,.33-.375,1.317,1.317,0,0,0,.121-.459c.012-.156.017-.285.017-.385Z"/><path class="cls-1" d="M200.932,38.1h-.843v2.481a.79.79,0,0,0,.118.444.394.394,0,0,0,.376.186.909.909,0,0,0,.423-.09l.029.388c-.054.02-.13.041-.227.066a1.339,1.339,0,0,1-.333.04.888.888,0,0,1-.471-.107.694.694,0,0,1-.252-.278,1.409,1.409,0,0,1-.095-.4c-.014-.152-.022-.316-.022-.491V38.1h-.726v-.4h.726v-.923l.454-.165V37.7h.843Z"/><path class="cls-1" d="M202.876,36.672h-.454v-.63h.454Zm-.454,1.023h.454V41.52h-.454Z"/><path class="cls-1" d="M204.389,39.608a2.31,2.31,0,0,1,.422-1.4,1.522,1.522,0,0,1,1.305-.608,1.548,1.548,0,0,1,1.323.608,2.58,2.58,0,0,1,0,2.785,1.553,1.553,0,0,1-1.323.616A1.528,1.528,0,0,1,204.811,41,2.316,2.316,0,0,1,204.389,39.608Zm.5,0a1.883,1.883,0,0,0,.321,1.127,1.031,1.031,0,0,0,.911.473,1.067,1.067,0,0,0,.925-.473,1.936,1.936,0,0,0,.306-1.127,2,2,0,0,0-.306-1.143,1.082,1.082,0,0,0-.925-.459,1.044,1.044,0,0,0-.911.459A1.945,1.945,0,0,0,204.886,39.608Z"/><path class="cls-1" d="M209.433,38.592q0-.439-.028-.9h.443v.681h.014a2.557,2.557,0,0,1,.152-.271,1.06,1.06,0,0,1,.216-.245,1.01,1.01,0,0,1,.34-.191,1.6,1.6,0,0,1,.485-.066,1.144,1.144,0,0,1,.982.422,1.788,1.788,0,0,1,.283,1.048V41.52h-.453V39.191a1.672,1.672,0,0,0-.2-.869.79.79,0,0,0-.686-.316.939.939,0,0,0-.86.448,1.408,1.408,0,0,0-.181.443,2.271,2.271,0,0,0-.057.507V41.52h-.454Z"/><path class="cls-1" d="M218.988,40.908h-.014a1.116,1.116,0,0,1-.489.514,1.449,1.449,0,0,1-1.314.062.981.981,0,0,1-.379-.285,1.261,1.261,0,0,1,.007-1.424,1.231,1.231,0,0,1,.561-.4,3.031,3.031,0,0,1,.741-.164c.263-.014.515-.022.756-.022h.089v-.2q.021-.99-.846-.989a1.968,1.968,0,0,0-1.091.317v-.458A2.643,2.643,0,0,1,218.1,37.6q1.317-.015,1.3,1.426v1.688a4.989,4.989,0,0,0,.038.8h-.45Zm-.042-1.316h-.131q-.3,0-.6.015a2.064,2.064,0,0,0-.568.129.877.877,0,0,0-.409.275.74.74,0,0,0-.167.507.586.586,0,0,0,.234.525.857.857,0,0,0,.537.165,1.064,1.064,0,0,0,.633-.165.953.953,0,0,0,.33-.375,1.317,1.317,0,0,0,.121-.459c.012-.156.018-.285.018-.385Z"/><path class="cls-1" d="M221.2,38.592c0-.293-.009-.592-.029-.9h.444v.681h.013a2.4,2.4,0,0,1,.153-.271A1.037,1.037,0,0,1,222,37.86a1,1,0,0,1,.339-.191,1.6,1.6,0,0,1,.486-.066,1.141,1.141,0,0,1,.981.422,1.781,1.781,0,0,1,.283,1.048V41.52h-.453V39.191a1.672,1.672,0,0,0-.195-.869.792.792,0,0,0-.687-.316.936.936,0,0,0-.859.448,1.41,1.41,0,0,0-.182.443,2.27,2.27,0,0,0-.056.507V41.52H221.2Z"/><path class="cls-1" d="M228.887,41.52h-.454v-.607h-.014a1.2,1.2,0,0,1-1.156.7,1.321,1.321,0,0,1-1.139-.579,2.465,2.465,0,0,1-.387-1.425,2.517,2.517,0,0,1,.358-1.441,1.305,1.305,0,0,1,1.168-.564,1.275,1.275,0,0,1,.483.084,1.093,1.093,0,0,1,.347.208,1.015,1.015,0,0,1,.326.441h.015V35.892h.453Zm-2.652-1.912a3,3,0,0,0,.05.547,2.2,2.2,0,0,0,.173.529,1.145,1.145,0,0,0,.342.367.968.968,0,0,0,1.057,0,1.094,1.094,0,0,0,.339-.382,2.37,2.37,0,0,0,.238-1.061,3.279,3.279,0,0,0-.05-.559,2.112,2.112,0,0,0-.188-.51,1.14,1.14,0,0,0-.339-.39,1.048,1.048,0,0,0-1.057,0,1,1,0,0,0-.342.375,1.884,1.884,0,0,0-.173.511A3.254,3.254,0,0,0,226.235,39.608Z"/><path class="cls-1" d="M233.452,36.285h1.306q1.449-.027,1.489,1.355a1.093,1.093,0,0,1-.33.817,1.42,1.42,0,0,1-.795.392v.015a.624.624,0,0,1,.422.194.742.742,0,0,1,.124.191,2.476,2.476,0,0,1,.11.245l.862,2.026h-.551l-.735-1.77a1.235,1.235,0,0,0-.424-.608.564.564,0,0,0-.249-.085c-.092-.005-.2-.007-.319-.007h-.413v2.47h-.5Zm.5,2.319h.531a1.686,1.686,0,0,0,.862-.209.813.813,0,0,0,.407-.753,1.1,1.1,0,0,0-.1-.511.619.619,0,0,0-.277-.271,1.115,1.115,0,0,0-.411-.11c-.154-.013-.319-.019-.5-.019h-.517Z"/><path class="cls-1" d="M240.626,41.4a3.038,3.038,0,0,1-1.075.211,1.519,1.519,0,0,1-1.3-.579,2.365,2.365,0,0,1-.384-1.425,2.324,2.324,0,0,1,.436-1.447,1.352,1.352,0,0,1,1.125-.558,1.289,1.289,0,0,1,1.135.564A2.443,2.443,0,0,1,240.9,39.5v.243h-2.539a1.637,1.637,0,0,0,.312,1.029,1.06,1.06,0,0,0,.91.436,2.608,2.608,0,0,0,1.041-.286ZM240.4,39.34a1.916,1.916,0,0,0-.213-.922.81.81,0,0,0-.736-.412.964.964,0,0,0-.793.42,1.507,1.507,0,0,0-.3.914Z"/><path class="cls-1" d="M242.2,40.966a1.978,1.978,0,0,0,.965.242.911.911,0,0,0,.581-.186.6.6,0,0,0,.241-.495.649.649,0,0,0-.27-.536,3.247,3.247,0,0,0-.617-.337c-.111-.054-.218-.112-.319-.173a2.683,2.683,0,0,1-.291-.2,1.062,1.062,0,0,1-.206-.28.748.748,0,0,1-.078-.351.906.906,0,0,1,.376-.811,1.47,1.47,0,0,1,.829-.235,3.928,3.928,0,0,1,.415.029,2.566,2.566,0,0,1,.5.142l-.043.411a2.185,2.185,0,0,0-.824-.179,1.052,1.052,0,0,0-.565.132.472.472,0,0,0-.171.191.667.667,0,0,0-.063.315.365.365,0,0,0,.081.224.783.783,0,0,0,.21.179c.088.052.186.105.3.159s.22.106.327.165a2.117,2.117,0,0,1,.632.421,1.121,1.121,0,0,1,.16,1.233,1.035,1.035,0,0,1-.313.337,1.618,1.618,0,0,1-.863.25,3.007,3.007,0,0,1-1.034-.182Z"/><path class="cls-1" d="M248.469,41.4a3.038,3.038,0,0,1-1.075.211,1.523,1.523,0,0,1-1.3-.579,2.372,2.372,0,0,1-.383-1.425,2.318,2.318,0,0,1,.436-1.447,1.35,1.35,0,0,1,1.125-.558,1.289,1.289,0,0,1,1.135.564,2.452,2.452,0,0,1,.341,1.333v.243h-2.539a1.637,1.637,0,0,0,.312,1.029,1.06,1.06,0,0,0,.91.436,2.608,2.608,0,0,0,1.041-.286Zm-.222-2.061a1.928,1.928,0,0,0-.213-.922.812.812,0,0,0-.737-.412.966.966,0,0,0-.793.42,1.513,1.513,0,0,0-.3.914Z"/><path class="cls-1" d="M252.45,40.908h-.014a1.116,1.116,0,0,1-.489.514,1.449,1.449,0,0,1-1.314.062.993.993,0,0,1-.38-.285,1.191,1.191,0,0,1-.215-.666,1.176,1.176,0,0,1,.223-.758,1.231,1.231,0,0,1,.561-.4,3.031,3.031,0,0,1,.741-.164c.263-.014.515-.022.756-.022h.089v-.2q.021-.99-.846-.989a1.968,1.968,0,0,0-1.091.317v-.458a2.643,2.643,0,0,1,1.089-.262q1.317-.015,1.3,1.426v1.688a4.989,4.989,0,0,0,.038.8h-.45Zm-.042-1.316h-.131c-.2,0-.4.005-.6.015a2.064,2.064,0,0,0-.568.129.877.877,0,0,0-.409.275.74.74,0,0,0-.167.507.586.586,0,0,0,.234.525.857.857,0,0,0,.537.165,1.064,1.064,0,0,0,.633-.165.953.953,0,0,0,.33-.375,1.317,1.317,0,0,0,.121-.459c.012-.156.018-.285.018-.385Z"/><path class="cls-1" d="M254.66,38.548c0-.354-.009-.638-.029-.853h.454v.732h.015a1.643,1.643,0,0,1,.369-.575.8.8,0,0,1,.582-.249,1.545,1.545,0,0,1,.32.044v.491a1.216,1.216,0,0,0-.334-.044.76.76,0,0,0-.444.136,1,1,0,0,0-.284.366,1.97,1.97,0,0,0-.145.488,3.014,3.014,0,0,0-.05.543V41.52h-.454Z"/><path class="cls-1" d="M260.019,38.2a1.918,1.918,0,0,0-.8-.2,1.263,1.263,0,0,0-1.022.441,1.947,1.947,0,0,0-.008,2.281,1.174,1.174,0,0,0,.98.48,2.133,2.133,0,0,0,.838-.171l.042.44a2.98,2.98,0,0,1-.95.135,1.591,1.591,0,0,1-1.33-.609,2.228,2.228,0,0,1-.443-1.4,2.057,2.057,0,0,1,.507-1.447,1.714,1.714,0,0,1,1.323-.558,2.705,2.705,0,0,1,.567.051,1.593,1.593,0,0,1,.2.048.913.913,0,0,1,.124.05Z"/><path class="cls-1" d="M261.524,35.892h.454v2.444h.014a1.368,1.368,0,0,1,.451-.532,1.3,1.3,0,0,1,.7-.2,1.1,1.1,0,0,1,1.011.451,2.272,2.272,0,0,1,.255,1.176v2.29h-.453V39.235a3.874,3.874,0,0,0-.029-.481,1.089,1.089,0,0,0-.125-.381.737.737,0,0,0-.728-.367.927.927,0,0,0-.853.473,1.966,1.966,0,0,0-.245.99V41.52h-.454Z"/><path class="cls-1" d="M269,36.285h2.48v.446H269.5V38.6h1.883v.446H269.5v2.024h2.072v.446H269Z"/><path class="cls-1" d="M274.888,36.285h.568l2.014,5.235h-.522l-.547-1.4H273.84l-.544,1.4h-.486Zm.248.49-1.1,2.9h2.2Z"/><path class="cls-1" d="M278.931,36.285h2.48v.446h-1.983V38.6h1.883v.446h-1.883v2.024H281.5v.446h-2.569Z"/><path class="cls-1" d="M283.284,36.285h1.306q1.449-.027,1.489,1.355a1.1,1.1,0,0,1-.329.817,1.426,1.426,0,0,1-.8.392v.015a.624.624,0,0,1,.422.194.742.742,0,0,1,.124.191,2.476,2.476,0,0,1,.11.245l.862,2.026h-.551l-.735-1.77a1.235,1.235,0,0,0-.424-.608.564.564,0,0,0-.249-.085c-.092-.005-.2-.007-.319-.007h-.413v2.47h-.5Zm.5,2.319h.531a1.684,1.684,0,0,0,.862-.209.813.813,0,0,0,.407-.753,1.1,1.1,0,0,0-.1-.511.619.619,0,0,0-.277-.271,1.115,1.115,0,0,0-.411-.11c-.154-.013-.319-.019-.5-.019h-.517Z"/><path class="cls-1" d="M179.974,47.591a2.585,2.585,0,0,0-1.034-.227,1.232,1.232,0,0,0-.263.029.813.813,0,0,0-.26.113.624.624,0,0,0-.2.228.757.757,0,0,0-.078.359.4.4,0,0,0,.1.279,1.166,1.166,0,0,0,.256.2,2.808,2.808,0,0,0,.362.165l.4.173a3.008,3.008,0,0,1,.409.194,1.48,1.48,0,0,1,.355.293,1.432,1.432,0,0,1,.256.4,1.749,1.749,0,0,1,.086.577,1.394,1.394,0,0,1-.559,1.217,2.35,2.35,0,0,1-1.346.37,2.944,2.944,0,0,1-.661-.062c-.184-.033-.4-.081-.642-.142l.095-.939a2.29,2.29,0,0,0,1.148.323,1.207,1.207,0,0,0,.6-.165.562.562,0,0,0,.3-.511.588.588,0,0,0-.085-.322.842.842,0,0,0-.256-.225,6.248,6.248,0,0,0-.763-.348,2.607,2.607,0,0,1-.4-.209,1.894,1.894,0,0,1-.365-.272,1.445,1.445,0,0,1-.256-.4,1.408,1.408,0,0,1-.1-.551,1.439,1.439,0,0,1,.557-1.247,2.133,2.133,0,0,1,1.215-.353,3.817,3.817,0,0,1,1.215.186Z"/><path class="cls-1" d="M181.763,48.738h-.718v-.733h.718v-.773l.974-.322v1.1h.867v.733h-.867v1.808a.827.827,0,0,0,.093.434.379.379,0,0,0,.366.206.826.826,0,0,0,.444-.106l.028.791a2.432,2.432,0,0,1-.72.091,1.1,1.1,0,0,1-1.185-1.251Z"/><path class="cls-1" d="M184.64,48.21a3.213,3.213,0,0,1,1.3-.293,1.41,1.41,0,0,1,1.615,1.627v.5q0,.564.017.967.014.429.043.865h-.861a5.082,5.082,0,0,1-.042-.579H186.7a1.227,1.227,0,0,1-.487.487,1.332,1.332,0,0,1-.672.183,1.476,1.476,0,0,1-.894-.3,1,1,0,0,1-.412-.85,1.2,1.2,0,0,1,.187-.7,1.058,1.058,0,0,1,.452-.4,2,2,0,0,1,.618-.187,5.947,5.947,0,0,1,.638-.036h.54a.851.851,0,0,0-.206-.653.925.925,0,0,0-.638-.183,1.849,1.849,0,0,0-1.155.422Zm.526,2.545a.386.386,0,0,0,.18.353.73.73,0,0,0,.438.122.788.788,0,0,0,.681-.346,1.414,1.414,0,0,0,.206-.8h-.589a1,1,0,0,0-.174.016,1.43,1.43,0,0,0-.359.088.617.617,0,0,0-.266.206A.523.523,0,0,0,185.166,50.755Z"/><path class="cls-1" d="M189.082,48.738h-.718v-.733h.718v-.773l.973-.322v1.1h.867v.733h-.867v1.808a.837.837,0,0,0,.093.434.379.379,0,0,0,.366.206.824.824,0,0,0,.444-.106l.029.791a2.444,2.444,0,0,1-.721.091,1.1,1.1,0,0,1-1.184-1.251Z"/><path class="cls-1" d="M194.8,51.656a2.481,2.481,0,0,1-1.286.306,1.78,1.78,0,0,1-1.957-2,2.343,2.343,0,0,1,.437-1.447,1.557,1.557,0,0,1,1.3-.594,1.535,1.535,0,0,1,1.417.652,3.286,3.286,0,0,1,.366,1.681h-2.591a.984.984,0,0,0,.327.714,1.058,1.058,0,0,0,.742.266,1.831,1.831,0,0,0,.669-.122,2.859,2.859,0,0,0,.575-.272Zm-.653-2.093a1.137,1.137,0,0,0-.2-.641.706.706,0,0,0-.594-.272.821.821,0,0,0-.622.258,1.1,1.1,0,0,0-.245.655Z"/><path class="cls-1" d="M201.093,47.591a2.585,2.585,0,0,0-1.034-.227,1.232,1.232,0,0,0-.263.029.808.808,0,0,0-.259.113.617.617,0,0,0-.2.228.757.757,0,0,0-.078.359.4.4,0,0,0,.1.279,1.166,1.166,0,0,0,.256.2,2.808,2.808,0,0,0,.362.165l.4.173a3.078,3.078,0,0,1,.41.194,1.475,1.475,0,0,1,.354.293,1.388,1.388,0,0,1,.256.4,1.723,1.723,0,0,1,.086.577,1.391,1.391,0,0,1-.559,1.217,2.349,2.349,0,0,1-1.345.37,2.947,2.947,0,0,1-.662-.062c-.184-.033-.4-.081-.642-.142l.1-.939a2.284,2.284,0,0,0,1.147.323,1.213,1.213,0,0,0,.6-.165.561.561,0,0,0,.3-.511.588.588,0,0,0-.085-.322.85.85,0,0,0-.255-.225,6.337,6.337,0,0,0-.764-.348,2.607,2.607,0,0,1-.4-.209,1.925,1.925,0,0,1-.365-.272,1.445,1.445,0,0,1-.256-.4,1.408,1.408,0,0,1-.1-.551,1.441,1.441,0,0,1,.557-1.247,2.133,2.133,0,0,1,1.215-.353,3.817,3.817,0,0,1,1.215.186Z"/><path class="cls-1" d="M205.565,51.656a2.486,2.486,0,0,1-1.286.306,1.78,1.78,0,0,1-1.957-2,2.343,2.343,0,0,1,.436-1.447,1.558,1.558,0,0,1,1.3-.594,1.534,1.534,0,0,1,1.417.652,3.286,3.286,0,0,1,.366,1.681h-2.591a.985.985,0,0,0,.328.714,1.058,1.058,0,0,0,.742.266,1.835,1.835,0,0,0,.669-.122,2.885,2.885,0,0,0,.575-.272Zm-.653-2.093a1.137,1.137,0,0,0-.2-.641.705.705,0,0,0-.593-.272.82.82,0,0,0-.622.258,1.107,1.107,0,0,0-.246.655Z"/><path class="cls-1" d="M209.275,48.837A1.078,1.078,0,0,0,209,48.73a1.774,1.774,0,0,0-.383-.036.891.891,0,0,0-.714.331,1.348,1.348,0,0,0-.276.9,1.48,1.48,0,0,0,.255.894.87.87,0,0,0,.756.371,1.329,1.329,0,0,0,.422-.07,1.672,1.672,0,0,0,.327-.114l.042.832a1.97,1.97,0,0,1-.436.088,3.15,3.15,0,0,1-.536.04,1.657,1.657,0,0,1-1.375-.587,2.179,2.179,0,0,1-.473-1.454,2.143,2.143,0,0,1,.473-1.428,1.646,1.646,0,0,1,1.338-.576,3.015,3.015,0,0,1,.946.127Z"/><path class="cls-1" d="M210.313,48.005h.865v.879h.014a1.3,1.3,0,0,1,.319-.623.914.914,0,0,1,.706-.344,1.537,1.537,0,0,1,.3.03v1.012a.963.963,0,0,0-.436-.08.6.6,0,0,0-.452.165.965.965,0,0,0-.237.414,2.022,2.022,0,0,0-.089.508c-.009.176-.014.339-.014.488v1.417h-.974Z"/><path class="cls-1" d="M216.19,51.656a2.486,2.486,0,0,1-1.286.306,1.78,1.78,0,0,1-1.957-2,2.343,2.343,0,0,1,.436-1.447,1.558,1.558,0,0,1,1.3-.594,1.534,1.534,0,0,1,1.417.652,3.286,3.286,0,0,1,.366,1.681h-2.591a.985.985,0,0,0,.328.714,1.058,1.058,0,0,0,.742.266,1.835,1.835,0,0,0,.669-.122,2.885,2.885,0,0,0,.575-.272Zm-.653-2.093a1.137,1.137,0,0,0-.2-.641.705.705,0,0,0-.593-.272.82.82,0,0,0-.622.258,1.107,1.107,0,0,0-.246.655Z"/><path class="cls-1" d="M217.792,48.738h-.717v-.733h.717v-.773l.974-.322v1.1h.867v.733h-.867v1.808a.827.827,0,0,0,.093.434.379.379,0,0,0,.366.206.824.824,0,0,0,.444-.106l.029.791a2.444,2.444,0,0,1-.721.091,1.1,1.1,0,0,1-1.185-1.251Z"/><path class="cls-1" d="M220.668,48.21a3.213,3.213,0,0,1,1.3-.293,1.41,1.41,0,0,1,1.615,1.627v.5q0,.564.017.967c.01.286.023.574.043.865h-.86a4.861,4.861,0,0,1-.042-.579h-.015a1.218,1.218,0,0,1-.486.487,1.335,1.335,0,0,1-.672.183,1.477,1.477,0,0,1-.9-.3,1,1,0,0,1-.412-.85,1.2,1.2,0,0,1,.188-.7,1.049,1.049,0,0,1,.451-.4,2,2,0,0,1,.618-.187,5.979,5.979,0,0,1,.639-.036h.54a.855.855,0,0,0-.206-.653.929.929,0,0,0-.639-.183,1.844,1.844,0,0,0-1.154.422Zm.526,2.545a.385.385,0,0,0,.181.353.725.725,0,0,0,.437.122.79.79,0,0,0,.682-.346,1.422,1.422,0,0,0,.206-.8h-.59a1,1,0,0,0-.174.016,1.412,1.412,0,0,0-.358.088.614.614,0,0,0-.267.206A.523.523,0,0,0,221.194,50.755Z"/><path class="cls-1" d="M224.813,48.005h.865v.879h.014a1.3,1.3,0,0,1,.319-.623.914.914,0,0,1,.706-.344,1.537,1.537,0,0,1,.3.03v1.012a.963.963,0,0,0-.436-.08.6.6,0,0,0-.452.165.965.965,0,0,0-.237.414,2.022,2.022,0,0,0-.089.508c-.009.176-.014.339-.014.488v1.417h-.974Z"/><path class="cls-1" d="M227.846,46.341h.974v.96h-.974Zm0,1.664h.974v3.866h-.974Z"/><path class="cls-1" d="M230.184,48.21a3.213,3.213,0,0,1,1.3-.293,1.41,1.41,0,0,1,1.615,1.627v.5q0,.564.017.967.013.429.043.865H232.3a5.082,5.082,0,0,1-.042-.579h-.014a1.227,1.227,0,0,1-.487.487,1.332,1.332,0,0,1-.672.183,1.476,1.476,0,0,1-.894-.3,1,1,0,0,1-.412-.85,1.2,1.2,0,0,1,.187-.7,1.055,1.055,0,0,1,.451-.4,2.009,2.009,0,0,1,.619-.187,5.947,5.947,0,0,1,.638-.036h.54a.851.851,0,0,0-.206-.653.925.925,0,0,0-.638-.183,1.849,1.849,0,0,0-1.155.422Zm.525,2.545a.387.387,0,0,0,.181.353.728.728,0,0,0,.438.122.788.788,0,0,0,.681-.346,1.414,1.414,0,0,0,.206-.8h-.59a.994.994,0,0,0-.173.016,1.43,1.43,0,0,0-.359.088.617.617,0,0,0-.266.206A.524.524,0,0,0,230.709,50.755Z"/><path class="cls-1" d="M234.625,48.738h-.717v-.733h.717v-.773l.974-.322v1.1h.867v.733H235.6v1.808a.827.827,0,0,0,.093.434.379.379,0,0,0,.366.206.824.824,0,0,0,.444-.106l.029.791a2.444,2.444,0,0,1-.721.091,1.1,1.1,0,0,1-1.185-1.251Z"/><path class="cls-1" d="M239.892,48.738h-.719v-.733h.719v-.539a1.4,1.4,0,0,1,.313-.952,1.109,1.109,0,0,1,.878-.359,3.41,3.41,0,0,1,.713.08l-.078.829a.983.983,0,0,0-.159-.1.772.772,0,0,0-.264-.037.359.359,0,0,0-.333.181.859.859,0,0,0-.095.411v.482h.851v.733h-.851v3.133h-.975Z"/><path class="cls-1" d="M242.328,49.965a2.031,2.031,0,0,1,.564-1.509,2.08,2.08,0,0,1,2.794,0,2.06,2.06,0,0,1,.562,1.509,2.017,2.017,0,0,1-.512,1.41,2.077,2.077,0,0,1-2.894,0A2.009,2.009,0,0,1,242.328,49.965Zm1.017-.121a1.45,1.45,0,0,0,.018.228c.01.084.021.163.036.239a1.457,1.457,0,0,0,.145.438.818.818,0,0,0,.29.308.743.743,0,0,0,.452.129.872.872,0,0,0,.471-.121.851.851,0,0,0,.291-.31,1.349,1.349,0,0,0,.146-.437,3.2,3.2,0,0,0,.035-.474,1.4,1.4,0,0,0-.227-.8.834.834,0,0,0-.716-.346.807.807,0,0,0-.7.352A1.339,1.339,0,0,0,243.345,49.844Z"/><path class="cls-1" d="M247.288,48.005h.865v.879h.014a1.294,1.294,0,0,1,.319-.623.914.914,0,0,1,.706-.344,1.545,1.545,0,0,1,.3.03v1.012a.967.967,0,0,0-.437-.08.6.6,0,0,0-.451.165.965.965,0,0,0-.237.414,2.022,2.022,0,0,0-.089.508c-.01.176-.015.339-.015.488v1.417h-.973Z"/><path class="cls-1" d="M252.581,46.635h3v.821H253.6v1.3h1.811v.82H253.6V51.05h1.995v.821h-3.012Z"/><path class="cls-1" d="M259.272,51.437h-.015a1.415,1.415,0,0,1-1.149.525,1.335,1.335,0,0,1-1.214-.623,2.61,2.61,0,0,1-.354-1.41,2.579,2.579,0,0,1,.354-1.411,1.343,1.343,0,0,1,1.214-.6,1.329,1.329,0,0,1,1.117.54h.019V46.243h.973v5.628h-.945Zm-1.715-1.509a1.914,1.914,0,0,0,.177.827.866.866,0,0,0,.252.3.585.585,0,0,0,.393.129.636.636,0,0,0,.414-.129.835.835,0,0,0,.259-.3,1.389,1.389,0,0,0,.145-.407,2.553,2.553,0,0,0,.036-.42,1.816,1.816,0,0,0-.195-.823.971.971,0,0,0-.269-.3.712.712,0,0,0-.4-.11.669.669,0,0,0-.638.411,1.454,1.454,0,0,0-.124.4A2.087,2.087,0,0,0,257.557,49.928Z"/><path class="cls-1" d="M264.914,51.871h-.922v-.525h-.015a1.513,1.513,0,0,1-1.227.616,1.1,1.1,0,0,1-.96-.436,1.766,1.766,0,0,1-.313-1.08V48.005h.975v2.07a1.2,1.2,0,0,0,.013.172c0,.058,0,.121.007.187a1.759,1.759,0,0,0,.065.366.691.691,0,0,0,.191.272.513.513,0,0,0,.355.114.669.669,0,0,0,.442-.144.806.806,0,0,0,.252-.322,1.263,1.263,0,0,0,.131-.415,2.835,2.835,0,0,0,.032-.407V48.005h.974Z"/><path class="cls-1" d="M268.6,48.837a1.078,1.078,0,0,0-.277-.107,1.774,1.774,0,0,0-.383-.036.891.891,0,0,0-.714.331,1.354,1.354,0,0,0-.276.9,1.48,1.48,0,0,0,.256.894.869.869,0,0,0,.755.371,1.329,1.329,0,0,0,.422-.07A1.672,1.672,0,0,0,268.71,51l.042.832a1.958,1.958,0,0,1-.436.088,3.142,3.142,0,0,1-.536.04,1.657,1.657,0,0,1-1.375-.587,2.179,2.179,0,0,1-.473-1.454,2.143,2.143,0,0,1,.473-1.428,1.648,1.648,0,0,1,1.339-.576,3.008,3.008,0,0,1,.945.127Z"/><path class="cls-1" d="M269.78,48.21a3.209,3.209,0,0,1,1.3-.293,1.411,1.411,0,0,1,1.615,1.627v.5c0,.376.006.7.016.967q.015.429.043.865h-.86a5.082,5.082,0,0,1-.042-.579h-.015a1.218,1.218,0,0,1-.486.487,1.332,1.332,0,0,1-.672.183,1.472,1.472,0,0,1-.894-.3,1,1,0,0,1-.413-.85,1.2,1.2,0,0,1,.188-.7,1.055,1.055,0,0,1,.451-.4,2,2,0,0,1,.618-.187,5.979,5.979,0,0,1,.639-.036h.54a.851.851,0,0,0-.206-.653.929.929,0,0,0-.639-.183,1.848,1.848,0,0,0-1.154.422Zm.525,2.545a.387.387,0,0,0,.181.353.727.727,0,0,0,.437.122.788.788,0,0,0,.682-.346,1.414,1.414,0,0,0,.206-.8h-.59a1.015,1.015,0,0,0-.174.016,1.412,1.412,0,0,0-.358.088.626.626,0,0,0-.267.206A.523.523,0,0,0,270.305,50.755Z"/><path class="cls-1" d="M274.221,48.738H273.5v-.733h.718v-.773l.974-.322v1.1h.867v.733H275.2v1.808a.827.827,0,0,0,.093.434.379.379,0,0,0,.366.206.826.826,0,0,0,.444-.106l.028.791a2.432,2.432,0,0,1-.72.091,1.1,1.1,0,0,1-1.185-1.251Z"/><path class="cls-1" d="M276.957,46.341h.973v.96h-.973Zm0,1.664h.973v3.866h-.973Z"/><path class="cls-1" d="M278.89,49.965a2.031,2.031,0,0,1,.565-1.509,2.08,2.08,0,0,1,2.794,0,2.059,2.059,0,0,1,.561,1.509,2.017,2.017,0,0,1-.512,1.41,2.076,2.076,0,0,1-2.893,0A2.005,2.005,0,0,1,278.89,49.965Zm1.018-.121a1.58,1.58,0,0,0,.017.228c.01.084.022.163.036.239a1.486,1.486,0,0,0,.146.438.81.81,0,0,0,.29.308.739.739,0,0,0,.451.129.873.873,0,0,0,.472-.121.851.851,0,0,0,.291-.31,1.348,1.348,0,0,0,.145-.437,3.074,3.074,0,0,0,.036-.474,1.407,1.407,0,0,0-.227-.8.836.836,0,0,0-.717-.346.805.805,0,0,0-.7.352A1.339,1.339,0,0,0,279.908,49.844Z"/><path class="cls-1" d="M283.829,48.005h.921v.528h.015A1.451,1.451,0,0,1,286,47.917a1.146,1.146,0,0,1,.971.429,1.824,1.824,0,0,1,.3,1.084v2.441h-.973V49.805c0-.125,0-.253-.011-.385a1.03,1.03,0,0,0-.072-.352.537.537,0,0,0-.18-.279.641.641,0,0,0-.372-.095.65.65,0,0,0-.418.128.968.968,0,0,0-.263.323,1.506,1.506,0,0,0-.131.411,2.335,2.335,0,0,0-.042.422v1.893h-.974Z"/><path class="cls-1" d="M288.656,50.82h1.052l-.659,1.875h-.857Z"/><path class="cls-1" d="M177.159,56.985h1.1q.419,0,.841.007a2.575,2.575,0,0,1,.77.15,1.1,1.1,0,0,1,.567.418,1.5,1.5,0,0,1,.209.843,1.229,1.229,0,0,1-.276.8,1.175,1.175,0,0,1-.771.41v.014a.5.5,0,0,1,.337.192,1.434,1.434,0,0,1,.2.351l.815,2.048H179.82l-.611-1.635a.93.93,0,0,0-.241-.42.732.732,0,0,0-.465-.122h-.326V62.22h-1.018Zm1.018,2.238h.333a2.781,2.781,0,0,0,.394-.029,1.017,1.017,0,0,0,.341-.1.672.672,0,0,0,.255-.217.79.79,0,0,0,.084-.387.758.758,0,0,0-.084-.383.669.669,0,0,0-.255-.206,1.2,1.2,0,0,0-.341-.089c-.133,0-.264-.007-.394-.007h-.333Z"/><path class="cls-1" d="M184.857,62.005a2.486,2.486,0,0,1-1.286.307,1.78,1.78,0,0,1-1.957-2,2.343,2.343,0,0,1,.436-1.447,1.555,1.555,0,0,1,1.3-.594,1.536,1.536,0,0,1,1.417.651,3.29,3.29,0,0,1,.366,1.682h-2.591a.985.985,0,0,0,.328.714,1.058,1.058,0,0,0,.742.266,1.835,1.835,0,0,0,.669-.122,3,3,0,0,0,.575-.272Zm-.653-2.092a1.137,1.137,0,0,0-.2-.641.7.7,0,0,0-.593-.272.816.816,0,0,0-.622.257,1.11,1.11,0,0,0-.246.656Z"/><path class="cls-1" d="M188.366,59.168a2.781,2.781,0,0,0-.424-.128,2.5,2.5,0,0,0-.483-.04.928.928,0,0,0-.39.083.367.367,0,0,0-.206.345c0,.147.1.249.278.308.085.034.181.067.286.1s.21.064.315.1a2.221,2.221,0,0,1,.33.136,1.48,1.48,0,0,1,.271.213.867.867,0,0,1,.2.307,1.333,1.333,0,0,1,.07.458,1.1,1.1,0,0,1-.493.968,2.083,2.083,0,0,1-1.114.293,4.388,4.388,0,0,1-1.128-.164l.059-.825a2.064,2.064,0,0,0,1,.257.98.98,0,0,0,.427-.107.372.372,0,0,0,.235-.367.416.416,0,0,0-.07-.249.531.531,0,0,0-.2-.144c-.177-.068-.378-.132-.6-.194a2.462,2.462,0,0,1-.316-.128,1.086,1.086,0,0,1-.286-.194.838.838,0,0,1-.195-.3,1.14,1.14,0,0,1,.387-1.343,1.824,1.824,0,0,1,1.032-.286,4.478,4.478,0,0,1,.61.036,4.714,4.714,0,0,1,.475.107Z"/><path class="cls-1" d="M192.585,62.005a2.481,2.481,0,0,1-1.286.307,1.78,1.78,0,0,1-1.957-2,2.343,2.343,0,0,1,.437-1.447,1.554,1.554,0,0,1,1.3-.594,1.537,1.537,0,0,1,1.417.651,3.29,3.29,0,0,1,.366,1.682h-2.591a.984.984,0,0,0,.327.714,1.06,1.06,0,0,0,.742.266,1.831,1.831,0,0,0,.669-.122,2.971,2.971,0,0,0,.575-.272Zm-.653-2.092a1.137,1.137,0,0,0-.2-.641.7.7,0,0,0-.594-.272.819.819,0,0,0-.622.257,1.116,1.116,0,0,0-.245.656Z"/><path class="cls-1" d="M194.032,58.56a3.208,3.208,0,0,1,1.3-.293,1.411,1.411,0,0,1,1.616,1.627v.494c0,.376.006.7.016.968s.024.573.043.864h-.86a5.067,5.067,0,0,1-.042-.579h-.015a1.212,1.212,0,0,1-.486.487,1.336,1.336,0,0,1-.672.184,1.472,1.472,0,0,1-.894-.3,1,1,0,0,1-.413-.849,1.2,1.2,0,0,1,.188-.7,1.055,1.055,0,0,1,.451-.4,1.976,1.976,0,0,1,.618-.187,5.738,5.738,0,0,1,.639-.037h.54a.849.849,0,0,0-.206-.652.929.929,0,0,0-.639-.183,1.847,1.847,0,0,0-1.154.421Zm.525,2.545a.389.389,0,0,0,.181.353.727.727,0,0,0,.437.122.791.791,0,0,0,.682-.346,1.417,1.417,0,0,0,.206-.8h-.59a1.015,1.015,0,0,0-.174.016,1.371,1.371,0,0,0-.358.088.618.618,0,0,0-.267.206A.523.523,0,0,0,194.557,61.105Z"/><path class="cls-1" d="M198.176,58.355h.866v.879h.013a1.3,1.3,0,0,1,.32-.623.909.909,0,0,1,.706-.344,1.614,1.614,0,0,1,.3.029v1.013a.949.949,0,0,0-.436-.08.6.6,0,0,0-.451.165.953.953,0,0,0-.238.413,2.022,2.022,0,0,0-.088.509c-.01.176-.015.339-.015.487V62.22h-.974Z"/><path class="cls-1" d="M203.478,59.187a1.043,1.043,0,0,0-.277-.107,1.708,1.708,0,0,0-.383-.037.892.892,0,0,0-.714.332,1.347,1.347,0,0,0-.276.9,1.491,1.491,0,0,0,.255.894.871.871,0,0,0,.756.371,1.33,1.33,0,0,0,.422-.071,1.678,1.678,0,0,0,.327-.113l.042.832a2.017,2.017,0,0,1-.436.088,3.248,3.248,0,0,1-.536.04,1.66,1.66,0,0,1-1.375-.587,2.181,2.181,0,0,1-.473-1.454,2.146,2.146,0,0,1,.473-1.429,1.648,1.648,0,0,1,1.339-.575,3.008,3.008,0,0,1,.945.127Z"/><path class="cls-1" d="M204.494,56.592h.974v2.29h.014a1.345,1.345,0,0,1,1.178-.615,1.147,1.147,0,0,1,.972.429,1.819,1.819,0,0,1,.3,1.084v2.44h-.973V60.155c0-.125,0-.253-.011-.385a1.06,1.06,0,0,0-.071-.353.545.545,0,0,0-.181-.279.76.76,0,0,0-.79.033.972.972,0,0,0-.263.324,1.5,1.5,0,0,0-.131.411,2.326,2.326,0,0,0-.042.422V62.22h-.974Z"/><path class="cls-1" d="M211.55,58.56a3.213,3.213,0,0,1,1.3-.293,1.41,1.41,0,0,1,1.615,1.627v.494c0,.376.006.7.017.968s.023.573.043.864h-.861a5.067,5.067,0,0,1-.042-.579h-.014a1.212,1.212,0,0,1-.486.487,1.336,1.336,0,0,1-.672.184,1.478,1.478,0,0,1-.9-.3,1,1,0,0,1-.412-.849,1.2,1.2,0,0,1,.187-.7,1.058,1.058,0,0,1,.452-.4,1.968,1.968,0,0,1,.618-.187,5.711,5.711,0,0,1,.639-.037h.54a.849.849,0,0,0-.207-.652.925.925,0,0,0-.638-.183,1.843,1.843,0,0,0-1.154.421Zm.526,2.545a.389.389,0,0,0,.18.353.73.73,0,0,0,.438.122.789.789,0,0,0,.681-.346,1.425,1.425,0,0,0,.207-.8h-.59a1,1,0,0,0-.174.016,1.388,1.388,0,0,0-.359.088.609.609,0,0,0-.266.206A.523.523,0,0,0,212.076,61.105Z"/><path class="cls-1" d="M215.673,58.355h.922v.527h.015a1.446,1.446,0,0,1,1.23-.615,1.147,1.147,0,0,1,.972.429,1.826,1.826,0,0,1,.3,1.084v2.44h-.974V60.155c0-.125,0-.253-.011-.385a1.013,1.013,0,0,0-.071-.353.544.544,0,0,0-.18-.279.762.762,0,0,0-.791.033.982.982,0,0,0-.262.324,1.43,1.43,0,0,0-.131.411,2.326,2.326,0,0,0-.042.422V62.22h-.975Z"/><path class="cls-1" d="M222.861,61.787h-.015a1.416,1.416,0,0,1-1.149.525,1.338,1.338,0,0,1-1.214-.623,2.621,2.621,0,0,1-.355-1.41,2.585,2.585,0,0,1,.355-1.411,1.478,1.478,0,0,1,2.331-.062h.019V56.592h.973V62.22h-.945Zm-1.715-1.509a1.917,1.917,0,0,0,.177.827.866.866,0,0,0,.252.3.585.585,0,0,0,.393.129.636.636,0,0,0,.414-.129.835.835,0,0,0,.259-.3,1.429,1.429,0,0,0,.145-.407,2.563,2.563,0,0,0,.036-.42,1.8,1.8,0,0,0-.2-.823.968.968,0,0,0-.268-.3.712.712,0,0,0-.4-.111.67.67,0,0,0-.638.412,1.443,1.443,0,0,0-.124.4A2.071,2.071,0,0,0,221.146,60.278Z"/><path class="cls-1" d="M227.263,56.985h1.019V62.22h-1.019Z"/><path class="cls-1" d="M229.461,58.355h.922v.527h.015a1.446,1.446,0,0,1,1.23-.615,1.147,1.147,0,0,1,.972.429,1.826,1.826,0,0,1,.3,1.084v2.44h-.974V60.155c0-.125,0-.253-.01-.385a1.036,1.036,0,0,0-.072-.353.537.537,0,0,0-.18-.279.76.76,0,0,0-.79.033.972.972,0,0,0-.263.324,1.43,1.43,0,0,0-.131.411,2.326,2.326,0,0,0-.042.422V62.22h-.975Z"/><path class="cls-1" d="M234.158,58.355h.922v.527h.014a1.448,1.448,0,0,1,1.231-.615,1.146,1.146,0,0,1,.971.429,1.819,1.819,0,0,1,.3,1.084v2.44h-.973V60.155c0-.125,0-.253-.011-.385a1.036,1.036,0,0,0-.071-.353.545.545,0,0,0-.181-.279.76.76,0,0,0-.79.033.984.984,0,0,0-.263.324,1.5,1.5,0,0,0-.131.411,2.326,2.326,0,0,0-.042.422V62.22h-.974Z"/><path class="cls-1" d="M238.613,60.315a2.032,2.032,0,0,1,.564-1.51,2.083,2.083,0,0,1,2.794,0,2.062,2.062,0,0,1,.562,1.51,2.02,2.02,0,0,1-.512,1.41,2.077,2.077,0,0,1-2.894,0A2.013,2.013,0,0,1,238.613,60.315Zm1.017-.121a1.438,1.438,0,0,0,.018.227c.01.084.021.163.036.24a1.424,1.424,0,0,0,.146.437.806.806,0,0,0,.29.309.737.737,0,0,0,.451.129.87.87,0,0,0,.471-.121.85.85,0,0,0,.291-.31,1.323,1.323,0,0,0,.146-.438,3.191,3.191,0,0,0,.035-.473,1.409,1.409,0,0,0-.226-.8.839.839,0,0,0-.717-.346.8.8,0,0,0-.7.353A1.331,1.331,0,0,0,239.63,60.194Z"/><path class="cls-1" d="M243.055,58.355h1.077l.963,2.817h.015l.918-2.817H247L245.62,62.22h-1.132Z"/><path class="cls-1" d="M248,58.56a3.2,3.2,0,0,1,1.3-.293,1.41,1.41,0,0,1,1.615,1.627v.494c0,.376.006.7.017.968s.024.573.043.864h-.86a4.847,4.847,0,0,1-.042-.579h-.015a1.212,1.212,0,0,1-.486.487,1.336,1.336,0,0,1-.672.184,1.478,1.478,0,0,1-.895-.3,1,1,0,0,1-.412-.849,1.2,1.2,0,0,1,.188-.7,1.049,1.049,0,0,1,.451-.4,1.968,1.968,0,0,1,.618-.187,5.738,5.738,0,0,1,.639-.037h.54a.853.853,0,0,0-.206-.652.929.929,0,0,0-.639-.183,1.845,1.845,0,0,0-1.154.421Zm.525,2.545a.387.387,0,0,0,.181.353.725.725,0,0,0,.437.122.792.792,0,0,0,.682-.346,1.425,1.425,0,0,0,.206-.8h-.59a1,1,0,0,0-.174.016,1.371,1.371,0,0,0-.358.088.607.607,0,0,0-.267.206A.523.523,0,0,0,248.525,61.105Z"/><path class="cls-1" d="M252.441,59.087h-.718v-.732h.718v-.773l.974-.323v1.1h.867v.732h-.867V60.9a.839.839,0,0,0,.092.434.383.383,0,0,0,.367.206.817.817,0,0,0,.444-.107l.028.791a2.4,2.4,0,0,1-.721.092,1.1,1.1,0,0,1-1.184-1.251Z"/><path class="cls-1" d="M255.176,56.691h.974v.96h-.974Zm0,1.664h.974V62.22h-.974Z"/><path class="cls-1" d="M257.11,60.315a2.032,2.032,0,0,1,.564-1.51,2.083,2.083,0,0,1,2.794,0,2.062,2.062,0,0,1,.562,1.51,2.02,2.02,0,0,1-.512,1.41,2.076,2.076,0,0,1-2.893,0A2.009,2.009,0,0,1,257.11,60.315Zm1.017-.121a1.438,1.438,0,0,0,.018.227c.01.084.022.163.036.24a1.424,1.424,0,0,0,.146.437.806.806,0,0,0,.29.309.737.737,0,0,0,.451.129.817.817,0,0,0,.763-.431,1.345,1.345,0,0,0,.145-.438,3.062,3.062,0,0,0,.035-.473,1.409,1.409,0,0,0-.226-.8.839.839,0,0,0-.717-.346.8.8,0,0,0-.7.353A1.338,1.338,0,0,0,258.127,60.194Z"/><path class="cls-1" d="M262.048,58.355h.922v.527h.015a1.446,1.446,0,0,1,1.23-.615,1.147,1.147,0,0,1,.972.429,1.826,1.826,0,0,1,.3,1.084v2.44h-.974V60.155c0-.125,0-.253-.011-.385a1.013,1.013,0,0,0-.071-.353.544.544,0,0,0-.18-.279.762.762,0,0,0-.791.033.982.982,0,0,0-.262.324,1.43,1.43,0,0,0-.131.411,2.326,2.326,0,0,0-.042.422V62.22h-.975Z"/><path class="cls-1" d="M271.757,57.941a2.569,2.569,0,0,0-1.034-.228,1.172,1.172,0,0,0-.263.03.766.766,0,0,0-.259.113.63.63,0,0,0-.2.227.758.758,0,0,0-.078.36.407.407,0,0,0,.1.278,1.137,1.137,0,0,0,.256.2,2.561,2.561,0,0,0,.362.165c.128.057.262.114.4.173a3.084,3.084,0,0,1,.41.2,1.452,1.452,0,0,1,.354.293,1.388,1.388,0,0,1,.256.4,1.717,1.717,0,0,1,.086.576,1.392,1.392,0,0,1-.559,1.218,2.349,2.349,0,0,1-1.345.37,2.932,2.932,0,0,1-.661-.062c-.185-.034-.4-.082-.643-.142l.1-.94a2.285,2.285,0,0,0,1.147.324,1.213,1.213,0,0,0,.605-.165.563.563,0,0,0,.3-.511.586.586,0,0,0-.085-.322.85.85,0,0,0-.255-.225,6.492,6.492,0,0,0-.764-.349,2.469,2.469,0,0,1-.4-.209,1.938,1.938,0,0,1-.366-.271,1.435,1.435,0,0,1-.256-.4,1.4,1.4,0,0,1-.1-.55,1.441,1.441,0,0,1,.557-1.247,2.125,2.125,0,0,1,1.215-.353,3.817,3.817,0,0,1,1.215.186Z"/><path class="cls-1" d="M273.312,56.985h3v.82H274.33v1.3h1.81v.819h-1.81V61.4h2v.82h-3.013Z"/><path class="cls-1" d="M277.513,56.985h1.1q.417,0,.841.007a2.562,2.562,0,0,1,.769.15,1.106,1.106,0,0,1,.568.418A1.5,1.5,0,0,1,281,58.4a1.223,1.223,0,0,1-.276.8,1.17,1.17,0,0,1-.77.41v.014a.5.5,0,0,1,.337.192,1.467,1.467,0,0,1,.2.351l.814,2.048h-1.133l-.61-1.635a.949.949,0,0,0-.241-.42.734.734,0,0,0-.465-.122h-.326V62.22h-1.019Zm1.019,2.238h.333a2.767,2.767,0,0,0,.393-.029,1.01,1.01,0,0,0,.341-.1.657.657,0,0,0,.255-.217.778.778,0,0,0,.085-.387.747.747,0,0,0-.085-.383.655.655,0,0,0-.255-.206,1.194,1.194,0,0,0-.341-.089c-.133,0-.263-.007-.393-.007h-.333Z"/><path class="cls-1" d="M282.209,56.985h1.019V62.22h-1.019Z"/></g></g></svg>