<?xml version="1.0" encoding="UTF-8" standalone="no"?>
<!-- Created with Inkscape (http://www.inkscape.org/) -->

<svg
   version="1.1"
   id="svg431"
   xml:space="preserve"
   width="1726.3867"
   height="933.33331"
   viewBox="0 0 1726.3867 933.33331"
   sodipodi:docname="FutuRaM_Logo_WHITE-EPS.eps"
   xmlns:inkscape="http://www.inkscape.org/namespaces/inkscape"
   xmlns:sodipodi="http://sodipodi.sourceforge.net/DTD/sodipodi-0.dtd"
   xmlns="http://www.w3.org/2000/svg"
   xmlns:svg="http://www.w3.org/2000/svg"><defs
     id="defs435" /><sodipodi:namedview
     id="namedview433"
     pagecolor="#ffffff"
     bordercolor="#666666"
     borderopacity="1.0"
     inkscape:pageshadow="2"
     inkscape:pageopacity="0.0"
     inkscape:pagecheckerboard="0" /><g
     id="g437"
     inkscape:groupmode="layer"
     inkscape:label="ink_ext_XXXXXX"
     transform="matrix(1.3333333,0,0,-1.3333333,0,933.33333)"><g
       id="g439"
       transform="scale(0.1)"><path
         d="m 7773.78,3820.57 c -57.76,-60.1 -160.23,-90.14 -307.42,-90.14 h -262.7 v 631.63 h 276.67 c 139.74,0 238.02,-27.74 294.84,-83.17 56.82,-55.43 85.25,-132.05 85.25,-229.86 0,-92.22 -28.88,-168.39 -86.64,-228.46 z m 369.62,-93.64 c 61.01,84.31 91.53,198.2 91.53,341.66 0,134.15 -27.94,245.01 -83.86,332.57 -55.88,87.56 -134.38,152.79 -235.47,195.64 -101.08,42.85 -219.13,64.29 -354.21,64.29 H 6845.92 V 2704.74 h 357.74 v 726.63 h 349.35 c 2.77,0 5.11,0 6.99,0 1.84,0 4.17,0 6.98,0 l 377.31,-726.63 h 399.64 l -441.58,821.66 c 99.67,49.38 180.04,116.22 241.05,200.53"
         style="fill:#ffffff;fill-opacity:1;fill-rule:nonzero;stroke:none"
         id="path441" /><path
         d="m 9269.01,3042.9 c -36.35,-34.47 -77.34,-59.87 -122.97,-76.15 -45.68,-16.3 -83.84,-24.46 -114.61,-24.46 -65.2,0 -112.72,13.74 -142.52,41.23 -29.82,27.47 -44.7,69.62 -44.7,126.47 0,54.96 21.88,100.61 65.65,136.93 43.79,36.33 98.3,63.82 163.51,82.45 65.2,18.64 130.41,29.35 195.64,32.13 z m 392.66,-68.46 c -17.71,8.39 -29.82,28.16 -36.34,59.38 -6.51,31.21 -9.78,81.75 -9.78,151.62 v 377.29 c 0,135.07 -20.5,243.85 -61.48,326.29 -40.99,82.45 -99.2,142.3 -174.68,179.57 -75.45,37.26 -165.37,55.9 -269.7,55.9 -86.64,0 -172.09,-10.25 -256.41,-30.75 -84.33,-20.49 -168.39,-51.23 -252.23,-92.22 l 30.74,-282.28 c 74.51,36.35 141.35,63.12 200.53,80.36 59.15,17.22 119.94,25.86 182.34,25.86 89.45,0 152.79,-18.19 190.06,-54.51 37.27,-36.33 57.76,-94.56 61.48,-174.68 -52.18,-1.88 -112.5,-7.91 -180.95,-18.16 -68.48,-10.27 -137.88,-26.33 -208.22,-48.21 -70.34,-21.91 -135.54,-51.71 -195.64,-89.45 -60.09,-37.71 -108.53,-84.78 -145.32,-141.12 -36.8,-56.38 -55.21,-124.16 -55.21,-203.31 0,-88.53 18.16,-163.98 54.51,-226.38 36.33,-62.43 85.23,-110.19 146.72,-143.24 61.48,-33.05 129.49,-49.6 204.02,-49.6 83.84,0 164.68,14.19 242.46,42.6 77.79,28.41 139.49,68.23 185.14,119.5 17.7,-32.63 40.99,-61.04 69.88,-85.26 28.85,-24.24 63.59,-43.09 104.1,-56.59 40.52,-13.5 86.87,-20.25 139.05,-20.25 h 125.77 l 30.72,285.06 h -44.71 c -33.52,0 -59.16,4.2 -76.85,12.58"
         style="fill:#ffffff;fill-opacity:1;fill-rule:nonzero;stroke:none"
         id="path443" /><path
         d="m 12049.8,2704.74 -271.1,1956.35 h -293.4 l -475.1,-891.53 -478,891.53 h -293.4 L 9967.68,2704.74 h 371.72 l 167.1,1309.23 503.7,-898.4 500.9,900.27 167,-1311.1 h 371.7"
         style="fill:#ffffff;fill-opacity:1;fill-rule:nonzero;stroke:none"
         id="path445" /><path
         d="M 12947.9,7000 H 5947.87 V 0 H 12947.9 V 7000 Z M 12770,6822.15 V 177.852 H 6125.72 V 6822.15 H 12770"
         style="fill:#ffffff;fill-opacity:1;fill-rule:nonzero;stroke:none"
         id="path447" /><path
         d="m 0,2704.74 h 357.711 v 846.82 H 1011.7 V 3898.1 H 357.711 v 416.44 h 846.819 v 346.55 H 0 V 2704.74"
         style="fill:#ffffff;fill-opacity:1;fill-rule:nonzero;stroke:none"
         id="path449" /><path
         d="m 2258.16,3086.85 c -20.7,-24.46 -43.19,-45.79 -67.76,-63.5 -51.71,-37.27 -116.69,-55.91 -194.95,-55.91 -97.83,0 -168.39,31.44 -211.72,94.34 -43.32,62.87 -64.95,159.07 -64.95,288.56 v 751.79 h -346.57 v -751.79 c 0,-131.36 19.08,-247.57 57.29,-348.65 38.18,-101.09 100.61,-180.51 187.25,-238.27 86.64,-57.76 202.64,-86.62 347.96,-86.62 71.73,0 143.68,18.16 215.89,54.49 36.26,18.24 67.63,37.31 94.14,57.2 l 5.77,-83.75 H 2604.7 V 4102.13 H 2258.16 V 3086.85"
         style="fill:#ffffff;fill-opacity:1;fill-rule:nonzero;stroke:none"
         id="path451" /><path
         d="m 3412.37,4445.9 -346.57,-36.35 v -307.42 h -167.67 l -30.75,-285.06 H 3065.8 V 3042.9 c 0,-60.57 13.05,-118.78 39.13,-174.68 26.08,-55.87 66.59,-101.77 121.58,-137.63 54.95,-35.85 126.24,-53.79 213.8,-53.79 h 248.74 l 30.74,285.06 h -95.03 c -65.21,0 -112.72,3.95 -142.52,11.89 -29.82,7.89 -48.9,27.46 -57.29,58.68 -8.39,31.21 -12.58,82.2 -12.58,153.01 v 631.63 h 307.42 v 285.06 h -307.42 v 343.77"
         style="fill:#ffffff;fill-opacity:1;fill-rule:nonzero;stroke:none"
         id="path453" /><path
         d="M 4874.03,4102.13 V 3086.85 c -20.7,-24.46 -43.19,-45.79 -67.77,-63.5 -51.7,-37.27 -116.68,-55.91 -194.94,-55.91 -97.83,0 -168.4,31.44 -211.72,94.34 -43.32,62.87 -64.96,159.07 -64.96,288.56 v 751.79 h -346.56 v -751.79 c 0,-131.36 19.08,-247.57 57.29,-348.65 38.18,-101.09 100.61,-180.51 187.25,-238.27 86.64,-57.76 202.64,-86.62 347.96,-86.62 71.73,0 143.68,18.16 215.88,54.49 36.27,18.24 67.63,37.31 94.15,57.2 l 5.77,-83.75 h 324.19 v 1397.39 h -346.54"
         style="fill:#ffffff;fill-opacity:1;fill-rule:nonzero;stroke:none"
         id="path455" /></g></g></svg>
