<svg xmlns="http://www.w3.org/2000/svg" viewBox="0 0 180.863 134.966"><defs><style>.cls-1{fill:#fff;}.cls-2{fill:red;}</style></defs><g id="Ebene_2" data-name="Ebene 2"><g id="En_-_KENNZEICHNUNG_hoch_n_e_g_a_t_i_v" data-name="En - KENNZEICHNUNG  hoch / n e g a t i v"><path class="cls-1" d="M1.2.768H3.324c1.823,0,3.49.527,3.49,2.53,0,1.955-1.427,2.663-3.226,2.663H2.88V9.139H1.2ZM2.88,4.642h.588c.839,0,1.595-.276,1.595-1.247S4.332,2.087,3.468,2.087H2.88Z"/><path class="cls-1" d="M7.909,2.962H9.336v1.4H9.36a1.892,1.892,0,0,1,1.691-1.547,1.755,1.755,0,0,1,.492.048V4.486a1.638,1.638,0,0,0-.72-.132c-1.307,0-1.307,1.631-1.307,2.519V9.139H7.909Z"/><path class="cls-1" d="M15.156,2.819a3.093,3.093,0,0,1,3.238,3.274,3.052,3.052,0,0,1-3.238,3.19,3.049,3.049,0,0,1-3.227-3.19A3.091,3.091,0,0,1,15.156,2.819Zm0,5.217c1.235,0,1.559-1.1,1.559-2.135a1.575,1.575,0,1,0-3.107,0C13.608,6.92,13.932,8.036,15.156,8.036Z"/><path class="cls-1" d="M18.709,10.554c.864-.048.984-.216.984-1.175V2.962H21.3V9.6c0,.875-.252,2.207-1.859,2.207a3.173,3.173,0,0,1-.791-.1ZM19.693.3H21.3V1.835H19.693Z"/><path class="cls-1" d="M27.946,8.792a4.248,4.248,0,0,1-2.122.491,2.935,2.935,0,0,1-3.227-3.2c0-1.787.948-3.262,2.867-3.262,2.29,0,2.938,1.571,2.938,3.729h-4.27A1.616,1.616,0,0,0,25.9,8.108a4.162,4.162,0,0,0,2.05-.624ZM26.867,5.445c-.048-.779-.408-1.451-1.307-1.451a1.4,1.4,0,0,0-1.428,1.451Z"/><path class="cls-1" d="M33.671,4.294a2.426,2.426,0,0,0-1.091-.228c-1,0-1.632.791-1.632,1.955,0,1.139.54,2.015,1.667,2.015a3.408,3.408,0,0,0,1.236-.288l.071,1.331a5.231,5.231,0,0,1-1.607.2c-2.026,0-3.046-1.379-3.046-3.262a2.922,2.922,0,0,1,2.986-3.2,5.257,5.257,0,0,1,1.559.2Z"/><path class="cls-1" d="M35.521,4.138H34.334V2.962h1.187V1.727l1.607-.516V2.962h1.427V4.138H37.128V7.016c0,.528.144,1.02.755,1.02a1.436,1.436,0,0,0,.732-.168l.048,1.271a4.223,4.223,0,0,1-1.187.144,1.816,1.816,0,0,1-1.955-2Z"/><path class="cls-1" d="M43.584,4.138H42.4V2.962h1.187V2.1A1.889,1.889,0,0,1,45.552,0a5.671,5.671,0,0,1,1.175.132L46.6,1.463a1.249,1.249,0,0,0-.7-.215c-.539,0-.707.467-.707.947v.767h1.4V4.138h-1.4v5H43.584Z"/><path class="cls-1" d="M53.337,9.139H51.814V8.3H51.79a2.578,2.578,0,0,1-2.027.983c-1.463,0-2.1-1.032-2.1-2.423v-3.9h1.607v3.3c0,.755.012,1.775,1.043,1.775,1.164,0,1.415-1.26,1.415-2.051V2.962h1.607Z"/><path class="cls-1" d="M55,2.962H56.52V3.8h.023a2.307,2.307,0,0,1,2.027-.983c1.464,0,2.1,1.031,2.1,2.422v3.9H59.062v-3.3c0-.756-.012-1.775-1.043-1.775-1.164,0-1.415,1.259-1.415,2.051V9.139H55Z"/><path class="cls-1" d="M66.442,8.443h-.024a2.291,2.291,0,0,1-1.9.84c-1.895,0-2.59-1.559-2.59-3.25s.7-3.214,2.59-3.214a2.192,2.192,0,0,1,1.847.863h.024V.144H68V9.139H66.442Zm-1.475-.407c1.068,0,1.415-1.128,1.415-2s-.407-1.967-1.439-1.967-1.331,1.14-1.331,1.967C63.612,6.884,63.912,8.036,64.967,8.036Z"/><path class="cls-1" d="M74.614,8.792a4.252,4.252,0,0,1-2.123.491,2.934,2.934,0,0,1-3.226-3.2c0-1.787.947-3.262,2.866-3.262,2.291,0,2.939,1.571,2.939,3.729H70.8a1.615,1.615,0,0,0,1.763,1.56,4.169,4.169,0,0,0,2.051-.624ZM73.535,5.445c-.049-.779-.409-1.451-1.308-1.451A1.4,1.4,0,0,0,70.8,5.445Z"/><path class="cls-1" d="M80.446,8.443h-.024a2.293,2.293,0,0,1-1.895.84c-1.895,0-2.59-1.559-2.59-3.25s.7-3.214,2.59-3.214a2.192,2.192,0,0,1,1.847.863H80.4V.144h1.607V9.139H80.446Zm-1.475-.407c1.068,0,1.415-1.128,1.415-2s-.407-1.967-1.439-1.967-1.331,1.14-1.331,1.967C77.616,6.884,77.916,8.036,78.971,8.036Z"/><path class="cls-1" d="M87,.144h1.607v3.61h.023a2.166,2.166,0,0,1,1.847-.935c1.9,0,2.591,1.511,2.591,3.214s-.7,3.25-2.591,3.25a2.256,2.256,0,0,1-1.894-.9h-.025v.755H87Zm3.034,7.892c1.055,0,1.355-1.152,1.355-2,0-.827-.288-1.967-1.331-1.967s-1.439,1.1-1.439,1.967S88.967,8.036,90.035,8.036Z"/><path class="cls-1" d="M96.9,7.472h.023l1.488-4.51h1.631L97.726,9.091c-.516,1.367-.888,2.711-2.566,2.711a4.1,4.1,0,0,1-1.14-.168l.108-1.188a2.347,2.347,0,0,0,.828.108A1,1,0,0,0,96,9.451L93.636,2.962h1.776Z"/><path class="cls-1" d="M29.9,30.711a1.889,1.889,0,0,0,1.123.309,1.248,1.248,0,0,0,.813-.265,1.007,1.007,0,0,0,.327-.81A.8.8,0,0,0,31.8,29.3a2.377,2.377,0,0,0-.372-.257q-.21-.121-.43-.238c-.144-.086-.285-.176-.419-.272a2.2,2.2,0,0,1-.38-.3,1.077,1.077,0,0,1-.363-.817,1.241,1.241,0,0,1,.472-1.008,1.818,1.818,0,0,1,1.133-.36,4.471,4.471,0,0,1,.465.029,3.241,3.241,0,0,1,.532.142l-.081.47a1.983,1.983,0,0,0-.925-.194,2.048,2.048,0,0,0-.384.036,1.1,1.1,0,0,0-.358.158.777.777,0,0,0-.253.271.864.864,0,0,0-.1.437.62.62,0,0,0,.1.345,1.046,1.046,0,0,0,.259.278,3.346,3.346,0,0,0,.38.239l.423.249a2.922,2.922,0,0,1,.8.568,1.3,1.3,0,0,1,.27.393,1.336,1.336,0,0,1,.093.517,1.308,1.308,0,0,1-.529,1.133,1.961,1.961,0,0,1-1.135.348,2.726,2.726,0,0,1-1.146-.225Z"/><path class="cls-1" d="M36.734,28.055a1.915,1.915,0,0,0-.8-.2,1.263,1.263,0,0,0-1.022.441,1.744,1.744,0,0,0-.373,1.161,1.72,1.72,0,0,0,.366,1.12,1.171,1.171,0,0,0,.979.481,2.139,2.139,0,0,0,.839-.172l.042.441a3.01,3.01,0,0,1-.951.134,1.591,1.591,0,0,1-1.33-.608,2.231,2.231,0,0,1-.443-1.4,2.069,2.069,0,0,1,.507-1.447,1.72,1.72,0,0,1,1.323-.558,2.722,2.722,0,0,1,.568.051c.077.015.145.031.2.048a1.148,1.148,0,0,1,.124.05Z"/><path class="cls-1" d="M38.24,25.747h.454v2.444h.014a1.369,1.369,0,0,1,.45-.533,1.308,1.308,0,0,1,.7-.2,1.1,1.1,0,0,1,1.011.451,2.274,2.274,0,0,1,.255,1.176v2.29h-.453V29.089a3.851,3.851,0,0,0-.028-.48,1.109,1.109,0,0,0-.125-.382.74.74,0,0,0-.728-.367.928.928,0,0,0-.853.473,1.967,1.967,0,0,0-.245.991v2.05H38.24Z"/><path class="cls-1" d="M46.808,31.374h-.554l-1.007-3.312h-.018l-1.008,3.312h-.554l-1.192-3.825h.5l.972,3.313h.014L45,27.549h.554l.979,3.313h.014l1.026-3.313h.458Z"/><path class="cls-1" d="M51.9,31.256a3.069,3.069,0,0,1-1.076.21,1.519,1.519,0,0,1-1.3-.579,2.356,2.356,0,0,1-.383-1.425,2.314,2.314,0,0,1,.436-1.447,1.354,1.354,0,0,1,1.124-.558,1.29,1.29,0,0,1,1.135.565,2.449,2.449,0,0,1,.341,1.333V29.6H49.64a1.629,1.629,0,0,0,.313,1.029,1.055,1.055,0,0,0,.909.437,1.809,1.809,0,0,0,.569-.1,1.85,1.85,0,0,0,.473-.187ZM51.682,29.2a1.911,1.911,0,0,0-.214-.922.809.809,0,0,0-.736-.413.961.961,0,0,0-.793.421,1.512,1.512,0,0,0-.3.914Z"/><path class="cls-1" d="M54.211,26.527h-.453V25.9h.453Zm-.453,1.022h.453v3.825h-.453Z"/><path class="cls-1" d="M55.666,30.979,57.9,27.952H55.682v-.4h2.746v.4l-2.3,3.02h2.3v.4H55.666Z"/><path class="cls-1" d="M62.409,31.256a3.06,3.06,0,0,1-1.076.21,1.519,1.519,0,0,1-1.3-.579,2.37,2.37,0,0,1-.383-1.425,2.32,2.32,0,0,1,.436-1.447,1.357,1.357,0,0,1,1.124-.558,1.292,1.292,0,0,1,1.136.565,2.449,2.449,0,0,1,.341,1.333V29.6H60.146a1.635,1.635,0,0,0,.312,1.029,1.058,1.058,0,0,0,.91.437,1.814,1.814,0,0,0,.569-.1,1.841,1.841,0,0,0,.472-.187ZM62.187,29.2a1.911,1.911,0,0,0-.213-.922.811.811,0,0,0-.737-.413.964.964,0,0,0-.793.421,1.511,1.511,0,0,0-.3.914Z"/><path class="cls-1" d="M64.263,28.4q0-.531-.029-.854h.454v.733H64.7a1.634,1.634,0,0,1,.369-.575.808.808,0,0,1,.582-.25,1.545,1.545,0,0,1,.32.044v.491a1.221,1.221,0,0,0-.334-.044.77.77,0,0,0-.444.136,1,1,0,0,0-.284.367,1.9,1.9,0,0,0-.145.488,3,3,0,0,0-.05.542v1.893h-.454Z"/><path class="cls-1" d="M67.8,26.527h-.454V25.9H67.8Zm-.454,1.022H67.8v3.825h-.454Z"/><path class="cls-1" d="M69.315,30.821a1.994,1.994,0,0,0,.964.242.91.91,0,0,0,.582-.187.6.6,0,0,0,.241-.5.648.648,0,0,0-.27-.535,3.224,3.224,0,0,0-.617-.338c-.111-.053-.217-.111-.319-.172a2.691,2.691,0,0,1-.291-.2,1.1,1.1,0,0,1-.206-.279.752.752,0,0,1-.078-.352.908.908,0,0,1,.376-.811,1.482,1.482,0,0,1,.829-.235,3.714,3.714,0,0,1,.415.03,2.489,2.489,0,0,1,.5.142l-.042.411a2.171,2.171,0,0,0-.824-.18,1.043,1.043,0,0,0-.565.133.467.467,0,0,0-.17.19.661.661,0,0,0-.064.316.367.367,0,0,0,.081.224.768.768,0,0,0,.21.179c.087.052.187.1.3.158s.22.106.326.165a2.065,2.065,0,0,1,.632.422.993.993,0,0,1,.277.73.977.977,0,0,1-.117.5,1.043,1.043,0,0,1-.311.338,1.632,1.632,0,0,1-.864.249,3,3,0,0,1-1.034-.181Z"/><path class="cls-1" d="M75.515,28.055a1.923,1.923,0,0,0-.8-.2A1.265,1.265,0,0,0,73.7,28.3a1.744,1.744,0,0,0-.373,1.161,1.72,1.72,0,0,0,.366,1.12,1.171,1.171,0,0,0,.979.481,2.139,2.139,0,0,0,.839-.172l.042.441a3.008,3.008,0,0,1-.95.134,1.59,1.59,0,0,1-1.33-.608,2.225,2.225,0,0,1-.443-1.4,2.064,2.064,0,0,1,.506-1.447,1.722,1.722,0,0,1,1.323-.558,2.716,2.716,0,0,1,.568.051c.078.015.145.031.2.048a1.148,1.148,0,0,1,.124.05Z"/><path class="cls-1" d="M77.021,25.747h.454v2.444h.014a1.361,1.361,0,0,1,.45-.533,1.308,1.308,0,0,1,.7-.2,1.1,1.1,0,0,1,1.011.451,2.274,2.274,0,0,1,.255,1.176v2.29h-.453V29.089a3.845,3.845,0,0,0-.029-.48,1.087,1.087,0,0,0-.124-.382.74.74,0,0,0-.728-.367.927.927,0,0,0-.853.473,1.956,1.956,0,0,0-.245.991v2.05h-.454Z"/><path class="cls-1" d="M84.262,31.256a3.059,3.059,0,0,1-1.075.21,1.52,1.52,0,0,1-1.3-.579,2.37,2.37,0,0,1-.383-1.425,2.32,2.32,0,0,1,.436-1.447,1.357,1.357,0,0,1,1.125-.558,1.292,1.292,0,0,1,1.135.565,2.449,2.449,0,0,1,.341,1.333V29.6H82a1.635,1.635,0,0,0,.312,1.029,1.058,1.058,0,0,0,.91.437,1.814,1.814,0,0,0,.569-.1,1.841,1.841,0,0,0,.472-.187ZM84.04,29.2a1.911,1.911,0,0,0-.213-.922.811.811,0,0,0-.737-.413.964.964,0,0,0-.793.421,1.511,1.511,0,0,0-.3.914Z"/><path class="cls-1" d="M88.613,26.139h2.479v.446H89.11v1.873h1.883v.447H89.11v2.023h2.071v.446H88.613Z"/><path class="cls-1" d="M93.353,26.527H92.9V25.9h.454ZM92.9,27.549h.454v3.825H92.9Z"/><path class="cls-1" d="M98.082,31.374h-.455v-.607h-.013a1.2,1.2,0,0,1-1.157.7,1.32,1.32,0,0,1-1.139-.579,2.463,2.463,0,0,1-.387-1.425,2.5,2.5,0,0,1,.359-1.44,1.473,1.473,0,0,1,1.65-.481,1.117,1.117,0,0,1,.348.208,1.048,1.048,0,0,1,.326.442h.013V25.747h.455Zm-2.653-1.912a3.083,3.083,0,0,0,.05.547,2.161,2.161,0,0,0,.174.529,1.135,1.135,0,0,0,.342.367.847.847,0,0,0,.533.158.859.859,0,0,0,.523-.158,1.092,1.092,0,0,0,.338-.382,2.351,2.351,0,0,0,.238-1.061,3.274,3.274,0,0,0-.049-.558,2.027,2.027,0,0,0-.189-.511A1.125,1.125,0,0,0,97.051,28a.923.923,0,0,0-.523-.144A.91.91,0,0,0,96,28a.993.993,0,0,0-.342.374,1.874,1.874,0,0,0-.174.511A3.361,3.361,0,0,0,95.429,29.462Z"/><path class="cls-1" d="M102.839,31.06a2.333,2.333,0,0,1-.382,1.366,1.591,1.591,0,0,1-1.352.568,3.213,3.213,0,0,1-.671-.08c-.2-.051-.349-.091-.45-.121l.039-.47a2.327,2.327,0,0,0,1.091.268,1.354,1.354,0,0,0,.7-.164.909.909,0,0,0,.388-.421,1.841,1.841,0,0,0,.167-.622q.029-.351.029-.758h-.015a1.193,1.193,0,0,1-1.125.748,1.315,1.315,0,0,1-1.22-.645,1.847,1.847,0,0,1-.256-.615,2.859,2.859,0,0,1,.27-2.092,1.308,1.308,0,0,1,1.167-.565,2.263,2.263,0,0,1,.643.084,1.217,1.217,0,0,1,.514.437h.014v-.43h.453Zm-2.652-1.6a1.976,1.976,0,0,0,.246,1.029.891.891,0,0,0,.825.481.945.945,0,0,0,.879-.5,2.12,2.12,0,0,0,.249-1.014,2.468,2.468,0,0,0-.231-1.153,1.064,1.064,0,0,0-1.4-.3,1,1,0,0,0-.34.374,1.875,1.875,0,0,0-.175.511A3.361,3.361,0,0,0,100.187,29.462Z"/><path class="cls-1" d="M107.151,31.256a3.069,3.069,0,0,1-1.076.21,1.518,1.518,0,0,1-1.3-.579,2.363,2.363,0,0,1-.384-1.425,2.327,2.327,0,0,1,.437-1.447,1.354,1.354,0,0,1,1.124-.558,1.292,1.292,0,0,1,1.135.565,2.449,2.449,0,0,1,.341,1.333V29.6h-2.539a1.629,1.629,0,0,0,.313,1.029,1.056,1.056,0,0,0,.909.437,1.8,1.8,0,0,0,.569-.1,1.85,1.85,0,0,0,.473-.187Zm-.223-2.061a1.911,1.911,0,0,0-.213-.922.809.809,0,0,0-.736-.413.961.961,0,0,0-.793.421,1.512,1.512,0,0,0-.3.914Z"/><path class="cls-1" d="M109.005,28.447c0-.293-.009-.593-.029-.9h.443v.681h.014a2.557,2.557,0,0,1,.152-.271,1.062,1.062,0,0,1,.217-.245,1.025,1.025,0,0,1,.34-.191,1.625,1.625,0,0,1,.485-.066,1.144,1.144,0,0,1,.981.422,1.783,1.783,0,0,1,.283,1.048v2.447h-.453V29.045a1.672,1.672,0,0,0-.2-.869.794.794,0,0,0-.686-.316.939.939,0,0,0-.86.448,1.44,1.44,0,0,0-.182.444,2.322,2.322,0,0,0-.057.506v2.116h-.453Z"/><path class="cls-1" d="M113.477,29.462a2.308,2.308,0,0,1,.423-1.4,1.522,1.522,0,0,1,1.3-.609,1.548,1.548,0,0,1,1.323.609,2.58,2.58,0,0,1,0,2.785,1.55,1.55,0,0,1-1.323.615,1.523,1.523,0,0,1-1.3-.615A2.318,2.318,0,0,1,113.477,29.462Zm.5,0a1.882,1.882,0,0,0,.32,1.127,1.035,1.035,0,0,0,.912.474,1.069,1.069,0,0,0,.925-.474,1.943,1.943,0,0,0,.306-1.127,2,2,0,0,0-.306-1.142,1.084,1.084,0,0,0-.925-.46,1.048,1.048,0,0,0-.912.46A1.939,1.939,0,0,0,113.975,29.462Z"/><path class="cls-1" d="M118.238,30.821a1.988,1.988,0,0,0,.964.242.912.912,0,0,0,.582-.187.6.6,0,0,0,.24-.5.642.642,0,0,0-.27-.535,3.164,3.164,0,0,0-.617-.338c-.111-.053-.217-.111-.319-.172a2.678,2.678,0,0,1-.29-.2,1.074,1.074,0,0,1-.206-.279.752.752,0,0,1-.078-.352.908.908,0,0,1,.376-.811,1.478,1.478,0,0,1,.829-.235,3.73,3.73,0,0,1,.415.03,2.489,2.489,0,0,1,.5.142l-.042.411a2.171,2.171,0,0,0-.824-.18,1.041,1.041,0,0,0-.565.133.463.463,0,0,0-.171.19.662.662,0,0,0-.063.316.361.361,0,0,0,.081.224.768.768,0,0,0,.21.179c.087.052.186.1.3.158s.219.106.326.165a2.077,2.077,0,0,1,.632.422,1,1,0,0,1,.277.73.987.987,0,0,1-.117.5,1.046,1.046,0,0,1-.312.338,1.627,1.627,0,0,1-.864.249,3,3,0,0,1-1.033-.181Z"/><path class="cls-1" d="M121.744,30.821a1.988,1.988,0,0,0,.964.242.91.91,0,0,0,.581-.187.6.6,0,0,0,.241-.5.648.648,0,0,0-.27-.535,3.224,3.224,0,0,0-.617-.338c-.111-.053-.218-.111-.319-.172a2.691,2.691,0,0,1-.291-.2,1.074,1.074,0,0,1-.206-.279.752.752,0,0,1-.077-.352.9.9,0,0,1,.375-.811,1.482,1.482,0,0,1,.829-.235,3.714,3.714,0,0,1,.415.03,2.5,2.5,0,0,1,.5.142l-.043.411a2.168,2.168,0,0,0-.825-.18,1.042,1.042,0,0,0-.564.133.467.467,0,0,0-.17.19.661.661,0,0,0-.064.316.363.363,0,0,0,.082.224.748.748,0,0,0,.209.179c.088.052.187.1.3.158s.22.106.327.165a2.072,2.072,0,0,1,.631.422,1.117,1.117,0,0,1,.161,1.232,1.057,1.057,0,0,1-.312.338,1.627,1.627,0,0,1-.864.249,3,3,0,0,1-1.034-.181Z"/><path class="cls-1" d="M128.016,31.256a3.069,3.069,0,0,1-1.076.21,1.518,1.518,0,0,1-1.3-.579,2.37,2.37,0,0,1-.384-1.425,2.327,2.327,0,0,1,.437-1.447,1.354,1.354,0,0,1,1.124-.558,1.3,1.3,0,0,1,1.136.565,2.458,2.458,0,0,1,.341,1.333V29.6h-2.54a1.629,1.629,0,0,0,.313,1.029,1.056,1.056,0,0,0,.909.437,1.8,1.8,0,0,0,.569-.1,1.835,1.835,0,0,0,.473-.187Zm-.223-2.061a1.922,1.922,0,0,0-.212-.922.812.812,0,0,0-.737-.413.963.963,0,0,0-.793.421,1.512,1.512,0,0,0-.3.914Z"/><path class="cls-1" d="M129.871,28.447c0-.293-.01-.593-.03-.9h.444v.681h.013a2.4,2.4,0,0,1,.153-.271,1.057,1.057,0,0,1,.216-.245,1.035,1.035,0,0,1,.34-.191,1.627,1.627,0,0,1,.486-.066,1.143,1.143,0,0,1,.98.422,1.776,1.776,0,0,1,.283,1.048v2.447H132.3V29.045a1.672,1.672,0,0,0-.195-.869.794.794,0,0,0-.686-.316.939.939,0,0,0-.86.448,1.465,1.465,0,0,0-.182.444,2.322,2.322,0,0,0-.056.506v2.116h-.453Z"/><path class="cls-1" d="M134.344,30.821a1.991,1.991,0,0,0,.964.242.91.91,0,0,0,.582-.187.6.6,0,0,0,.24-.5.642.642,0,0,0-.269-.535,3.224,3.224,0,0,0-.617-.338c-.112-.053-.217-.111-.32-.172a2.78,2.78,0,0,1-.29-.2,1.1,1.1,0,0,1-.206-.279.752.752,0,0,1-.078-.352.908.908,0,0,1,.376-.811,1.48,1.48,0,0,1,.829-.235,3.714,3.714,0,0,1,.415.03,2.489,2.489,0,0,1,.5.142l-.042.411a2.167,2.167,0,0,0-.824-.18,1.037,1.037,0,0,0-.564.133.456.456,0,0,0-.171.19.661.661,0,0,0-.064.316.367.367,0,0,0,.081.224.768.768,0,0,0,.21.179c.087.052.187.1.3.158s.22.106.326.165a2.077,2.077,0,0,1,.632.422,1.114,1.114,0,0,1,.16,1.232,1.043,1.043,0,0,1-.311.338,1.633,1.633,0,0,1-.865.249,3,3,0,0,1-1.033-.181Z"/><path class="cls-1" d="M140.543,28.055a1.914,1.914,0,0,0-.794-.2,1.264,1.264,0,0,0-1.023.441,1.744,1.744,0,0,0-.373,1.161,1.72,1.72,0,0,0,.366,1.12,1.172,1.172,0,0,0,.98.481,2.138,2.138,0,0,0,.838-.172l.043.441a3.02,3.02,0,0,1-.952.134,1.591,1.591,0,0,1-1.33-.608,2.231,2.231,0,0,1-.442-1.4,2.06,2.06,0,0,1,.507-1.447,1.718,1.718,0,0,1,1.322-.558,2.709,2.709,0,0,1,.568.051c.078.015.145.031.2.048s.095.036.124.05Z"/><path class="cls-1" d="M142.05,25.747h.453v2.444h.015a1.369,1.369,0,0,1,.45-.533,1.308,1.308,0,0,1,.7-.2,1.1,1.1,0,0,1,1.012.451,2.274,2.274,0,0,1,.254,1.176v2.29h-.453V29.089a4.053,4.053,0,0,0-.028-.48,1.13,1.13,0,0,0-.124-.382.742.742,0,0,0-.729-.367.928.928,0,0,0-.853.473,1.978,1.978,0,0,0-.246.991v2.05h-.453Z"/><path class="cls-1" d="M148.935,30.762h-.014a1.112,1.112,0,0,1-.489.514,1.447,1.447,0,0,1-1.313.062.983.983,0,0,1-.38-.285,1.185,1.185,0,0,1-.216-.666,1.167,1.167,0,0,1,.224-.757,1.214,1.214,0,0,1,.56-.4,3.052,3.052,0,0,1,.741-.165c.263-.014.515-.022.756-.022h.089v-.2q.022-.988-.846-.989a1.957,1.957,0,0,0-1.09.318v-.459a2.654,2.654,0,0,1,1.088-.262q1.317-.014,1.3,1.426v1.689a4.976,4.976,0,0,0,.038.8h-.45Zm-.042-1.315h-.131q-.3,0-.6.014a2.147,2.147,0,0,0-.569.129.892.892,0,0,0-.409.276.743.743,0,0,0-.167.507.586.586,0,0,0,.234.525.866.866,0,0,0,.538.165,1.07,1.07,0,0,0,.632-.165.945.945,0,0,0,.33-.375,1.28,1.28,0,0,0,.121-.459c.012-.157.018-.285.018-.386Z"/><path class="cls-1" d="M151.457,27.952h-.749v-.4h.749v-.278c0-.205.009-.406.028-.6a1.475,1.475,0,0,1,.11-.509.766.766,0,0,1,.3-.37.959.959,0,0,1,.542-.132c.078,0,.158,0,.241.007a.5.5,0,0,1,.188.066l-.029.413a.736.736,0,0,0-.362-.083.5.5,0,0,0-.345.105.614.614,0,0,0-.167.294,1.542,1.542,0,0,0-.043.366c0,.135-.006.264-.006.389v.333h.835v.4h-.835v3.422h-.454Z"/><path class="cls-1" d="M155.824,27.952h-.843v2.48a.8.8,0,0,0,.117.444.4.4,0,0,0,.377.187.9.9,0,0,0,.423-.091l.028.389c-.053.019-.13.041-.226.065a1.3,1.3,0,0,1-.333.04.893.893,0,0,1-.471-.106.694.694,0,0,1-.252-.278,1.416,1.416,0,0,1-.1-.4c-.013-.151-.021-.315-.021-.491V27.952H153.8v-.4h.727v-.923l.454-.165v1.088h.843Z"/><path class="cls-1" d="M33.456,37.068a1.772,1.772,0,0,0-.547-.188,5.15,5.15,0,0,0-.586-.036,1.921,1.921,0,0,0-1.52.638,2.732,2.732,0,0,0-.007,3.249,1.887,1.887,0,0,0,1.527.639,3.541,3.541,0,0,0,.586-.056,1.492,1.492,0,0,0,.547-.172l.028.449a1.734,1.734,0,0,1-.557.171,3.965,3.965,0,0,1-.6.054,2.468,2.468,0,0,1-1.877-.751,2.756,2.756,0,0,1-.681-1.96,2.812,2.812,0,0,1,.688-1.957,2.459,2.459,0,0,1,1.87-.751,5.942,5.942,0,0,1,.6.037,1.7,1.7,0,0,1,.557.156Z"/><path class="cls-1" d="M35.044,39.812a2.309,2.309,0,0,1,.422-1.4,1.52,1.52,0,0,1,1.3-.608,1.544,1.544,0,0,1,1.323.608,2.58,2.58,0,0,1,0,2.785,1.549,1.549,0,0,1-1.323.615,1.524,1.524,0,0,1-1.3-.615A2.317,2.317,0,0,1,35.044,39.812Zm.5,0a1.871,1.871,0,0,0,.32,1.127,1.036,1.036,0,0,0,.911.475,1.073,1.073,0,0,0,.926-.475,1.939,1.939,0,0,0,.306-1.127A2,2,0,0,0,37.7,38.67a1.084,1.084,0,0,0-.926-.46,1.046,1.046,0,0,0-.911.46A1.932,1.932,0,0,0,35.542,39.812Z"/><path class="cls-1" d="M40.088,38.8q0-.439-.028-.9H40.5v.682h.015a2.1,2.1,0,0,1,.152-.271,1.064,1.064,0,0,1,.216-.246,1.006,1.006,0,0,1,.34-.19,1.593,1.593,0,0,1,.485-.066,1.141,1.141,0,0,1,.981.421,1.783,1.783,0,0,1,.284,1.048v2.448h-.454V39.4a1.672,1.672,0,0,0-.2-.869.793.793,0,0,0-.686-.316.939.939,0,0,0-.86.448,1.414,1.414,0,0,0-.181.444,2.263,2.263,0,0,0-.057.506v2.117h-.454Z"/><path class="cls-1" d="M45.158,38.3H44.41v-.4h.748v-.278a5.9,5.9,0,0,1,.029-.6,1.458,1.458,0,0,1,.109-.509.762.762,0,0,1,.3-.37.955.955,0,0,1,.541-.132c.078,0,.158,0,.241.007a.5.5,0,0,1,.188.066l-.028.414a.732.732,0,0,0-.363-.084.494.494,0,0,0-.344.106.6.6,0,0,0-.167.293,1.492,1.492,0,0,0-.043.366c-.005.135-.007.264-.007.389V37.9h.835v.4h-.835v3.423h-.454Z"/><path class="cls-1" d="M50.414,41.606a3.042,3.042,0,0,1-1.076.21,1.519,1.519,0,0,1-1.3-.579,2.356,2.356,0,0,1-.383-1.425,2.32,2.32,0,0,1,.436-1.447,1.356,1.356,0,0,1,1.124-.557,1.291,1.291,0,0,1,1.136.564,2.45,2.45,0,0,1,.34,1.334v.241H48.15a1.628,1.628,0,0,0,.313,1.029,1.061,1.061,0,0,0,.91.438,1.806,1.806,0,0,0,.568-.1,1.835,1.835,0,0,0,.473-.187Zm-.222-2.061a1.9,1.9,0,0,0-.213-.921.811.811,0,0,0-.737-.414.964.964,0,0,0-.793.421,1.512,1.512,0,0,0-.3.914Zm-.713-3.122h.573L49.139,37.5h-.332Z"/><path class="cls-1" d="M55.2,41.725h-.453v-.608H54.73a1.2,1.2,0,0,1-1.156.7,1.319,1.319,0,0,1-1.139-.579,2.463,2.463,0,0,1-.387-1.425,2.505,2.505,0,0,1,.359-1.44,1.3,1.3,0,0,1,1.167-.564,1.279,1.279,0,0,1,.483.084,1.065,1.065,0,0,1,.347.208,1.023,1.023,0,0,1,.326.441h.015V36.1H55.2Zm-2.652-1.913a3.083,3.083,0,0,0,.05.547,2.106,2.106,0,0,0,.174.529,1.132,1.132,0,0,0,.341.367.852.852,0,0,0,.534.159.861.861,0,0,0,.523-.159,1.1,1.1,0,0,0,.338-.381,2.359,2.359,0,0,0,.239-1.062,3.277,3.277,0,0,0-.05-.558,2.027,2.027,0,0,0-.189-.511,1.134,1.134,0,0,0-.338-.389.925.925,0,0,0-.523-.144.915.915,0,0,0-.534.144,1,1,0,0,0-.341.374,1.841,1.841,0,0,0-.174.511A3.361,3.361,0,0,0,52.546,39.812Z"/><path class="cls-1" d="M59.51,41.606a3.046,3.046,0,0,1-1.076.21,1.519,1.519,0,0,1-1.3-.579,2.356,2.356,0,0,1-.383-1.425,2.314,2.314,0,0,1,.436-1.447,1.353,1.353,0,0,1,1.124-.557,1.288,1.288,0,0,1,1.135.564,2.45,2.45,0,0,1,.341,1.334v.241H57.246a1.628,1.628,0,0,0,.313,1.029,1.058,1.058,0,0,0,.909.438,1.812,1.812,0,0,0,.569-.1,1.85,1.85,0,0,0,.473-.187Zm-.222-2.061a1.9,1.9,0,0,0-.214-.921.808.808,0,0,0-.736-.414.961.961,0,0,0-.793.421,1.512,1.512,0,0,0-.3.914Zm-.713-3.122h.572L58.235,37.5H57.9Z"/><path class="cls-1" d="M61.364,38.753q0-.531-.029-.854h.454v.733H61.8a1.663,1.663,0,0,1,.369-.575.8.8,0,0,1,.582-.249,1.4,1.4,0,0,1,.32.044v.49a1.216,1.216,0,0,0-.334-.044.775.775,0,0,0-.444.136,1.01,1.01,0,0,0-.283.367,1.946,1.946,0,0,0-.146.488,3.108,3.108,0,0,0-.05.543v1.893h-.453Z"/><path class="cls-1" d="M66.575,41.112h-.014a1.119,1.119,0,0,1-.49.514,1.447,1.447,0,0,1-1.313.062.966.966,0,0,1-.38-.285,1.26,1.26,0,0,1,.007-1.423,1.222,1.222,0,0,1,.561-.4,3.087,3.087,0,0,1,.742-.165q.394-.021.756-.021h.088v-.2q.022-.989-.845-.989a1.974,1.974,0,0,0-1.091.318v-.459a2.642,2.642,0,0,1,1.089-.261q1.315-.015,1.3,1.425v1.689a5.236,5.236,0,0,0,.038.8h-.449ZM66.532,39.8H66.4q-.3,0-.6.015a2.138,2.138,0,0,0-.569.128.878.878,0,0,0-.408.276.738.738,0,0,0-.167.507.586.586,0,0,0,.234.525.861.861,0,0,0,.537.166,1.07,1.07,0,0,0,.632-.166.96.96,0,0,0,.331-.374,1.333,1.333,0,0,0,.121-.46c.011-.157.017-.285.017-.386Z"/><path class="cls-1" d="M70.378,38.3h-.842v2.48a.8.8,0,0,0,.117.445.4.4,0,0,0,.377.187.9.9,0,0,0,.423-.092l.028.389c-.054.019-.129.041-.227.065a1.288,1.288,0,0,1-.333.04.9.9,0,0,1-.471-.106.684.684,0,0,1-.251-.278,1.383,1.383,0,0,1-.1-.4c-.014-.151-.021-.315-.021-.49V38.3h-.727v-.4h.727v-.923l.454-.165V37.9h.842Z"/><path class="cls-1" d="M72.323,36.877h-.454v-.629h.454ZM71.869,37.9h.454v3.826h-.454Z"/><path class="cls-1" d="M73.835,39.812a2.31,2.31,0,0,1,.423-1.4,1.52,1.52,0,0,1,1.305-.608,1.545,1.545,0,0,1,1.323.608,2.58,2.58,0,0,1,0,2.785,1.55,1.55,0,0,1-1.323.615,1.524,1.524,0,0,1-1.305-.615A2.318,2.318,0,0,1,73.835,39.812Zm.5,0a1.872,1.872,0,0,0,.321,1.127,1.034,1.034,0,0,0,.911.475,1.072,1.072,0,0,0,.925-.475,1.939,1.939,0,0,0,.306-1.127,2,2,0,0,0-.306-1.142,1.084,1.084,0,0,0-.925-.46,1.044,1.044,0,0,0-.911.46A1.932,1.932,0,0,0,74.333,39.812Z"/><path class="cls-1" d="M78.88,38.8q0-.439-.029-.9h.443v.682h.014a2.23,2.23,0,0,1,.152-.271,1.046,1.046,0,0,1,.217-.246,1.006,1.006,0,0,1,.34-.19,1.584,1.584,0,0,1,.485-.066,1.141,1.141,0,0,1,.981.421,1.783,1.783,0,0,1,.283,1.048v2.448h-.453V39.4a1.662,1.662,0,0,0-.2-.869.791.791,0,0,0-.685-.316.94.94,0,0,0-.861.448,1.438,1.438,0,0,0-.181.444,2.322,2.322,0,0,0-.057.506v2.117H78.88Z"/><path class="cls-1" d="M85.949,41.171a2,2,0,0,0,.964.243.916.916,0,0,0,.582-.187.6.6,0,0,0,.24-.5.644.644,0,0,0-.269-.535,3.224,3.224,0,0,0-.617-.338c-.112-.053-.218-.111-.32-.172a2.636,2.636,0,0,1-.29-.2,1.069,1.069,0,0,1-.206-.278.759.759,0,0,1-.078-.353.906.906,0,0,1,.376-.811,1.479,1.479,0,0,1,.829-.234,3.691,3.691,0,0,1,.415.029,2.557,2.557,0,0,1,.5.142l-.042.411a2.171,2.171,0,0,0-.824-.18,1.043,1.043,0,0,0-.565.133.46.46,0,0,0-.17.19.661.661,0,0,0-.064.316.367.367,0,0,0,.081.224.768.768,0,0,0,.21.179c.087.052.187.1.3.158s.22.107.326.165a2.077,2.077,0,0,1,.632.422,1.114,1.114,0,0,1,.16,1.232,1.043,1.043,0,0,1-.311.338,1.633,1.633,0,0,1-.865.249,3,3,0,0,1-1.033-.181Z"/><path class="cls-1" d="M92.625,40.824c0,.29.006.591.032.9h-.444v-.682H92.2a1.22,1.22,0,0,1-.138.253,1.175,1.175,0,0,1-.223.257,1.045,1.045,0,0,1-.344.179,1.286,1.286,0,0,1-.493.084,1.128,1.128,0,0,1-.971-.421,1.7,1.7,0,0,1-.291-1.052V37.9h.454v2.326a1.516,1.516,0,0,0,.209.858.732.732,0,0,0,.672.331.985.985,0,0,0,.53-.136.9.9,0,0,0,.334-.33,1.392,1.392,0,0,0,.181-.451,2.243,2.243,0,0,0,.053-.481V37.9h.453Z"/><path class="cls-1" d="M94.951,36.877H94.5v-.629h.453ZM94.5,37.9h.453v3.826H94.5Z"/><path class="cls-1" d="M96.465,41.171a2.006,2.006,0,0,0,.964.243.916.916,0,0,0,.582-.187.593.593,0,0,0,.24-.5.639.639,0,0,0-.269-.535,3.224,3.224,0,0,0-.617-.338c-.112-.053-.217-.111-.32-.172a2.636,2.636,0,0,1-.29-.2,1.092,1.092,0,0,1-.206-.278.772.772,0,0,1-.078-.353.908.908,0,0,1,.376-.811,1.479,1.479,0,0,1,.829-.234,3.676,3.676,0,0,1,.415.029,2.557,2.557,0,0,1,.5.142l-.042.411a2.167,2.167,0,0,0-.824-.18,1.037,1.037,0,0,0-.564.133.456.456,0,0,0-.171.19.661.661,0,0,0-.064.316.367.367,0,0,0,.081.224.768.768,0,0,0,.21.179c.087.052.187.1.3.158s.22.107.326.165a2.065,2.065,0,0,1,.632.422,1.109,1.109,0,0,1,.16,1.232,1.043,1.043,0,0,1-.311.338,1.632,1.632,0,0,1-.864.249,3,3,0,0,1-1.034-.181Z"/><path class="cls-1" d="M99.971,41.171a2,2,0,0,0,.964.243.911.911,0,0,0,.581-.187.6.6,0,0,0,.241-.5.647.647,0,0,0-.269-.535,3.224,3.224,0,0,0-.617-.338c-.112-.053-.218-.111-.32-.172a2.648,2.648,0,0,1-.291-.2,1.092,1.092,0,0,1-.206-.278.759.759,0,0,1-.077-.353.908.908,0,0,1,.375-.811,1.484,1.484,0,0,1,.829-.234,3.661,3.661,0,0,1,.415.029,2.566,2.566,0,0,1,.5.142l-.043.411a2.163,2.163,0,0,0-.824-.18,1.039,1.039,0,0,0-.564.133.46.46,0,0,0-.17.19.661.661,0,0,0-.065.316.369.369,0,0,0,.082.224.762.762,0,0,0,.209.179c.088.052.188.1.3.158s.221.107.327.165a2.089,2.089,0,0,1,.632.422,1.119,1.119,0,0,1,.16,1.232,1.055,1.055,0,0,1-.311.338,1.633,1.633,0,0,1-.865.249,3.006,3.006,0,0,1-1.034-.181Z"/><path class="cls-1" d="M106.244,41.606a3.047,3.047,0,0,1-1.077.21,1.516,1.516,0,0,1-1.3-.579,2.363,2.363,0,0,1-.384-1.425,2.326,2.326,0,0,1,.436-1.447,1.356,1.356,0,0,1,1.124-.557,1.289,1.289,0,0,1,1.136.564,2.45,2.45,0,0,1,.341,1.334v.241H103.98a1.627,1.627,0,0,0,.312,1.029,1.061,1.061,0,0,0,.91.438,1.812,1.812,0,0,0,.569-.1,1.865,1.865,0,0,0,.473-.187Zm-.223-2.061a1.9,1.9,0,0,0-.213-.921.808.808,0,0,0-.736-.414.961.961,0,0,0-.793.421,1.512,1.512,0,0,0-.3.914Z"/><path class="cls-1" d="M33.456,47.418a1.772,1.772,0,0,0-.547-.188,5.15,5.15,0,0,0-.586-.036,1.924,1.924,0,0,0-1.52.638,2.732,2.732,0,0,0-.007,3.249,1.887,1.887,0,0,0,1.527.639,3.642,3.642,0,0,0,.586-.055,1.512,1.512,0,0,0,.547-.173l.028.449a1.734,1.734,0,0,1-.557.171,3.965,3.965,0,0,1-.6.054,2.468,2.468,0,0,1-1.877-.751,2.756,2.756,0,0,1-.681-1.96,2.807,2.807,0,0,1,.688-1.956,2.452,2.452,0,0,1,1.87-.751,5.9,5.9,0,0,1,.6.036,1.7,1.7,0,0,1,.557.156Z"/><path class="cls-1" d="M35.044,50.162a2.309,2.309,0,0,1,.422-1.4,1.522,1.522,0,0,1,1.3-.608,1.547,1.547,0,0,1,1.323.608,2.58,2.58,0,0,1,0,2.785,1.549,1.549,0,0,1-1.323.615,1.524,1.524,0,0,1-1.3-.615A2.317,2.317,0,0,1,35.044,50.162Zm.5,0a1.877,1.877,0,0,0,.32,1.128,1.035,1.035,0,0,0,.911.474,1.072,1.072,0,0,0,.926-.474,1.944,1.944,0,0,0,.306-1.128A2,2,0,0,0,37.7,49.02a1.081,1.081,0,0,0-.926-.459,1.043,1.043,0,0,0-.911.459A1.932,1.932,0,0,0,35.542,50.162Z"/><path class="cls-1" d="M40.088,49.147q0-.44-.028-.9H40.5v.682h.015a2.1,2.1,0,0,1,.152-.271,1.04,1.04,0,0,1,.216-.245.991.991,0,0,1,.34-.191,1.593,1.593,0,0,1,.485-.066,1.141,1.141,0,0,1,.981.421,1.783,1.783,0,0,1,.284,1.048v2.448h-.454V49.746a1.674,1.674,0,0,0-.2-.87.79.79,0,0,0-.686-.315.936.936,0,0,0-.86.447,1.414,1.414,0,0,0-.181.444,2.263,2.263,0,0,0-.057.506v2.117h-.454Z"/><path class="cls-1" d="M45.158,48.652H44.41v-.4h.748v-.278a5.9,5.9,0,0,1,.029-.6,1.458,1.458,0,0,1,.109-.509.767.767,0,0,1,.3-.37.955.955,0,0,1,.541-.132c.078,0,.158,0,.241.007a.5.5,0,0,1,.188.066l-.028.414a.743.743,0,0,0-.363-.084.494.494,0,0,0-.344.106.6.6,0,0,0-.167.293,1.492,1.492,0,0,0-.043.366c-.005.135-.007.264-.007.389v.333h.835v.4h-.835v3.423h-.454Z"/><path class="cls-1" d="M50.414,51.956a3.042,3.042,0,0,1-1.076.21,1.519,1.519,0,0,1-1.3-.579,2.356,2.356,0,0,1-.383-1.425,2.32,2.32,0,0,1,.436-1.447,1.356,1.356,0,0,1,1.124-.557,1.291,1.291,0,0,1,1.136.564,2.45,2.45,0,0,1,.34,1.334V50.3H48.15a1.628,1.628,0,0,0,.313,1.029,1.061,1.061,0,0,0,.91.438,1.832,1.832,0,0,0,.568-.1,1.869,1.869,0,0,0,.473-.188ZM50.192,49.9a1.9,1.9,0,0,0-.213-.921.808.808,0,0,0-.737-.413.961.961,0,0,0-.793.42,1.514,1.514,0,0,0-.3.914Z"/><path class="cls-1" d="M55.2,52.075h-.453v-.608H54.73a1.2,1.2,0,0,1-1.156.7,1.319,1.319,0,0,1-1.139-.579,2.463,2.463,0,0,1-.387-1.425,2.505,2.505,0,0,1,.359-1.44,1.3,1.3,0,0,1,1.167-.564,1.279,1.279,0,0,1,.483.084,1.065,1.065,0,0,1,.347.208,1.023,1.023,0,0,1,.326.441h.015V46.447H55.2Zm-2.652-1.913a3.083,3.083,0,0,0,.05.547,2.106,2.106,0,0,0,.174.529,1.132,1.132,0,0,0,.341.367.852.852,0,0,0,.534.159.861.861,0,0,0,.523-.159,1.1,1.1,0,0,0,.338-.381,2.359,2.359,0,0,0,.239-1.062,3.277,3.277,0,0,0-.05-.558,2.027,2.027,0,0,0-.189-.511,1.134,1.134,0,0,0-.338-.389.925.925,0,0,0-.523-.143.915.915,0,0,0-.534.143.994.994,0,0,0-.341.375,1.823,1.823,0,0,0-.174.51A3.361,3.361,0,0,0,52.546,50.162Z"/><path class="cls-1" d="M59.51,51.956a3.046,3.046,0,0,1-1.076.21,1.519,1.519,0,0,1-1.3-.579,2.356,2.356,0,0,1-.383-1.425,2.314,2.314,0,0,1,.436-1.447,1.353,1.353,0,0,1,1.124-.557,1.288,1.288,0,0,1,1.135.564,2.45,2.45,0,0,1,.341,1.334V50.3H57.246a1.628,1.628,0,0,0,.313,1.029,1.058,1.058,0,0,0,.909.438,1.838,1.838,0,0,0,.569-.1,1.885,1.885,0,0,0,.473-.188ZM59.288,49.9a1.9,1.9,0,0,0-.214-.921.805.805,0,0,0-.736-.413.958.958,0,0,0-.793.42,1.514,1.514,0,0,0-.3.914Z"/><path class="cls-1" d="M61.364,49.1q0-.531-.029-.854h.454v.733H61.8a1.663,1.663,0,0,1,.369-.575.8.8,0,0,1,.582-.249,1.463,1.463,0,0,1,.32.044v.49a1.216,1.216,0,0,0-.334-.044.775.775,0,0,0-.444.136,1.01,1.01,0,0,0-.283.367,1.946,1.946,0,0,0-.146.488,3.108,3.108,0,0,0-.05.543v1.893h-.453Z"/><path class="cls-1" d="M66.575,51.462h-.014a1.126,1.126,0,0,1-.49.515,1.45,1.45,0,0,1-.689.189,1.427,1.427,0,0,1-.624-.128.966.966,0,0,1-.38-.285,1.26,1.26,0,0,1,.007-1.423,1.229,1.229,0,0,1,.561-.4,3.04,3.04,0,0,1,.742-.164q.394-.023.756-.022h.088v-.2q.022-.988-.845-.988a1.965,1.965,0,0,0-1.091.317v-.459a2.642,2.642,0,0,1,1.089-.261q1.315-.015,1.3,1.425v1.689a5.23,5.23,0,0,0,.038.8h-.449Zm-.043-1.315H66.4q-.3,0-.6.015a2.1,2.1,0,0,0-.569.129.869.869,0,0,0-.408.275.738.738,0,0,0-.167.507.586.586,0,0,0,.234.525.861.861,0,0,0,.537.166,1.07,1.07,0,0,0,.632-.166.96.96,0,0,0,.331-.374,1.327,1.327,0,0,0,.121-.46c.011-.157.017-.285.017-.386Z"/><path class="cls-1" d="M68.44,51.679l2.23-3.027H68.457v-.4H71.2v.4L68.9,51.672H71.2v.4H68.44Z"/><path class="cls-1" d="M73.154,47.227H72.7V46.6h.453ZM72.7,48.249h.453v3.826H72.7Z"/><path class="cls-1" d="M74.667,50.162a2.309,2.309,0,0,1,.422-1.4,1.523,1.523,0,0,1,1.306-.608,1.546,1.546,0,0,1,1.322.608,2.58,2.58,0,0,1,0,2.785,1.548,1.548,0,0,1-1.322.615,1.525,1.525,0,0,1-1.306-.615A2.317,2.317,0,0,1,74.667,50.162Zm.5,0a1.877,1.877,0,0,0,.32,1.128,1.035,1.035,0,0,0,.911.474,1.072,1.072,0,0,0,.926-.474,1.944,1.944,0,0,0,.306-1.128,2,2,0,0,0-.306-1.142,1.081,1.081,0,0,0-.926-.459,1.043,1.043,0,0,0-.911.459A1.932,1.932,0,0,0,75.165,50.162Z"/><path class="cls-1" d="M79.712,49.147q0-.44-.029-.9h.443v.682h.014a2.23,2.23,0,0,1,.152-.271,1.022,1.022,0,0,1,.217-.245.991.991,0,0,1,.34-.191,1.584,1.584,0,0,1,.485-.066,1.141,1.141,0,0,1,.981.421,1.783,1.783,0,0,1,.283,1.048v2.448h-.453V49.746a1.664,1.664,0,0,0-.2-.87.788.788,0,0,0-.685-.315.938.938,0,0,0-.861.447,1.438,1.438,0,0,0-.181.444,2.322,2.322,0,0,0-.056.506v2.117h-.454Z"/><path class="cls-1" d="M86.953,51.956a3.042,3.042,0,0,1-1.076.21,1.519,1.519,0,0,1-1.3-.579,2.363,2.363,0,0,1-.383-1.425,2.32,2.32,0,0,1,.436-1.447,1.356,1.356,0,0,1,1.124-.557,1.289,1.289,0,0,1,1.136.564,2.45,2.45,0,0,1,.341,1.334V50.3h-2.54A1.628,1.628,0,0,0,85,51.326a1.061,1.061,0,0,0,.91.438,1.832,1.832,0,0,0,.568-.1,1.869,1.869,0,0,0,.473-.188ZM86.731,49.9a1.9,1.9,0,0,0-.213-.921.807.807,0,0,0-.737-.413.961.961,0,0,0-.793.42,1.514,1.514,0,0,0-.3.914Z"/><path class="cls-1" d="M91.312,51.411a1.882,1.882,0,0,0,1.123.309,1.253,1.253,0,0,0,.813-.264,1.01,1.01,0,0,0,.327-.811A.8.8,0,0,0,93.212,50a2.447,2.447,0,0,0-.372-.257c-.14-.08-.283-.16-.43-.238s-.285-.176-.419-.272a2.244,2.244,0,0,1-.38-.3,1.076,1.076,0,0,1-.362-.818,1.237,1.237,0,0,1,.471-1.008,1.811,1.811,0,0,1,1.133-.359,4.442,4.442,0,0,1,.465.028,3.241,3.241,0,0,1,.532.142l-.081.47a1.983,1.983,0,0,0-.925-.194,2.048,2.048,0,0,0-.384.036,1.1,1.1,0,0,0-.358.158.8.8,0,0,0-.253.272.858.858,0,0,0-.1.436.617.617,0,0,0,.1.345,1.031,1.031,0,0,0,.259.278,3.346,3.346,0,0,0,.38.239c.136.081.276.164.423.249a2.922,2.922,0,0,1,.8.568,1.3,1.3,0,0,1,.27.393,1.336,1.336,0,0,1,.093.517,1.307,1.307,0,0,1-.529,1.133,1.961,1.961,0,0,1-1.135.348,2.729,2.729,0,0,1-1.146-.225Z"/><path class="cls-1" d="M97.022,52.075h-.535L95.23,48.249h.5l1.02,3.313h.018l1.072-3.313h.479Z"/><path class="cls-1" d="M100.109,47.227h-.454V46.6h.454Zm-.454,1.022h.454v3.826h-.454Z"/><path class="cls-1" d="M101.563,51.679l2.229-3.027H101.58v-.4h2.745v.4l-2.305,3.02h2.305v.4h-2.762Z"/><path class="cls-1" d="M105.479,51.679l2.229-3.027H105.5v-.4h2.745v.4l-2.3,3.02h2.3v.4h-2.762Z"/><path class="cls-1" d="M112.222,51.956a3.042,3.042,0,0,1-1.076.21,1.519,1.519,0,0,1-1.3-.579,2.37,2.37,0,0,1-.384-1.425,2.327,2.327,0,0,1,.437-1.447,1.353,1.353,0,0,1,1.124-.557,1.291,1.291,0,0,1,1.136.564,2.459,2.459,0,0,1,.341,1.334V50.3h-2.54a1.628,1.628,0,0,0,.313,1.029,1.059,1.059,0,0,0,.909.438,1.844,1.844,0,0,0,.57-.1,1.876,1.876,0,0,0,.472-.188ZM112,49.9a1.915,1.915,0,0,0-.213-.921.808.808,0,0,0-.737-.413.959.959,0,0,0-.793.42,1.514,1.514,0,0,0-.3.914Z"/><path class="cls-1" d="M114.077,49.1q0-.531-.03-.854h.454v.733h.015a1.634,1.634,0,0,1,.369-.575.8.8,0,0,1,.582-.249,1.471,1.471,0,0,1,.32.044v.49a1.216,1.216,0,0,0-.334-.044.77.77,0,0,0-.444.136,1,1,0,0,0-.284.367,1.945,1.945,0,0,0-.145.488,3.014,3.014,0,0,0-.05.543v1.893h-.453Z"/><path class="cls-1" d="M119.288,51.462h-.015a1.124,1.124,0,0,1-.489.515,1.453,1.453,0,0,1-.689.189,1.429,1.429,0,0,1-.625-.128.962.962,0,0,1-.379-.285,1.26,1.26,0,0,1,.007-1.423,1.229,1.229,0,0,1,.561-.4,3.04,3.04,0,0,1,.742-.164q.395-.023.756-.022h.088v-.2q.021-.988-.846-.988a1.97,1.97,0,0,0-1.091.317v-.459a2.645,2.645,0,0,1,1.089-.261q1.317-.015,1.3,1.425v1.689a5.106,5.106,0,0,0,.038.8h-.449Zm-.043-1.315h-.131c-.2,0-.4.005-.6.015a2.1,2.1,0,0,0-.568.129.869.869,0,0,0-.408.275.738.738,0,0,0-.167.507.586.586,0,0,0,.234.525.858.858,0,0,0,.536.166,1.071,1.071,0,0,0,.633-.166.968.968,0,0,0,.331-.374,1.325,1.325,0,0,0,.12-.46c.012-.157.018-.285.018-.386Z"/><path class="cls-1" d="M33.456,57.767a1.8,1.8,0,0,0-.547-.187,5.162,5.162,0,0,0-.586-.037,1.924,1.924,0,0,0-1.52.639,2.732,2.732,0,0,0-.007,3.249,1.893,1.893,0,0,0,1.527.639,3.653,3.653,0,0,0,.586-.056,1.493,1.493,0,0,0,.547-.173l.028.45a1.734,1.734,0,0,1-.557.17,3.854,3.854,0,0,1-.6.055,2.475,2.475,0,0,1-1.877-.751,2.758,2.758,0,0,1-.681-1.961,2.809,2.809,0,0,1,.688-1.956,2.459,2.459,0,0,1,1.87-.751q.245,0,.6.036a1.7,1.7,0,0,1,.557.157Z"/><path class="cls-1" d="M35.044,60.511a2.3,2.3,0,0,1,.422-1.4,1.52,1.52,0,0,1,1.3-.609,1.545,1.545,0,0,1,1.323.609,2.579,2.579,0,0,1,0,2.784,1.552,1.552,0,0,1-1.323.616,1.528,1.528,0,0,1-1.3-.616A2.317,2.317,0,0,1,35.044,60.511Zm.5,0a1.877,1.877,0,0,0,.32,1.128,1.031,1.031,0,0,0,.911.474,1.067,1.067,0,0,0,.926-.474,1.944,1.944,0,0,0,.306-1.128A2,2,0,0,0,37.7,59.37a1.084,1.084,0,0,0-.926-.46,1.046,1.046,0,0,0-.911.46A1.931,1.931,0,0,0,35.542,60.511Z"/><path class="cls-1" d="M40.088,59.5c0-.293-.009-.593-.028-.9H40.5v.682h.015a2.114,2.114,0,0,1,.152-.272,1.06,1.06,0,0,1,.216-.245,1.006,1.006,0,0,1,.34-.19,1.592,1.592,0,0,1,.485-.067,1.144,1.144,0,0,1,.981.422,1.78,1.78,0,0,1,.284,1.047v2.448h-.454V60.1a1.672,1.672,0,0,0-.2-.869.8.8,0,0,0-.686-.316.937.937,0,0,0-.86.448,1.4,1.4,0,0,0-.181.444,2.256,2.256,0,0,0-.057.506v2.116h-.454Z"/><path class="cls-1" d="M45.158,59H44.41v-.4h.748v-.278a5.916,5.916,0,0,1,.029-.6,1.458,1.458,0,0,1,.109-.51.771.771,0,0,1,.3-.37.955.955,0,0,1,.541-.132c.078,0,.158,0,.241.008a.465.465,0,0,1,.188.066l-.028.413a.743.743,0,0,0-.363-.084.494.494,0,0,0-.344.106.6.6,0,0,0-.167.294,1.484,1.484,0,0,0-.043.365c-.005.135-.007.265-.007.389V58.6h.835V59h-.835v3.423h-.454Z"/><path class="cls-1" d="M50.414,62.306a3.064,3.064,0,0,1-1.076.21,1.524,1.524,0,0,1-1.3-.579,2.359,2.359,0,0,1-.383-1.426,2.324,2.324,0,0,1,.436-1.447,1.361,1.361,0,0,1,1.124-.557,1.291,1.291,0,0,1,1.136.565,2.448,2.448,0,0,1,.34,1.334v.241H48.15a1.625,1.625,0,0,0,.313,1.028,1.059,1.059,0,0,0,.91.438,1.8,1.8,0,0,0,.568-.1,1.835,1.835,0,0,0,.473-.187Zm-.222-2.061a1.9,1.9,0,0,0-.213-.921.809.809,0,0,0-.737-.414.962.962,0,0,0-.793.421,1.512,1.512,0,0,0-.3.914Z"/><path class="cls-1" d="M55.2,62.424h-.453v-.608H54.73a1.2,1.2,0,0,1-1.156.7,1.323,1.323,0,0,1-1.139-.579,2.466,2.466,0,0,1-.387-1.426,2.5,2.5,0,0,1,.359-1.439,1.473,1.473,0,0,1,1.65-.481,1.082,1.082,0,0,1,.347.208,1.025,1.025,0,0,1,.326.442h.015V56.8H55.2Zm-2.652-1.913a3.094,3.094,0,0,0,.05.548,2.112,2.112,0,0,0,.174.528,1.126,1.126,0,0,0,.341.368.858.858,0,0,0,.534.158.867.867,0,0,0,.523-.158,1.106,1.106,0,0,0,.338-.381,2.366,2.366,0,0,0,.239-1.063,3.265,3.265,0,0,0-.05-.557,2.027,2.027,0,0,0-.189-.511,1.125,1.125,0,0,0-.338-.389.925.925,0,0,0-.523-.144.915.915,0,0,0-.534.144,1,1,0,0,0-.341.374,1.841,1.841,0,0,0-.174.511A3.358,3.358,0,0,0,52.546,60.511Z"/><path class="cls-1" d="M59.51,62.306a3.069,3.069,0,0,1-1.076.21,1.524,1.524,0,0,1-1.3-.579,2.359,2.359,0,0,1-.383-1.426,2.318,2.318,0,0,1,.436-1.447,1.359,1.359,0,0,1,1.124-.557,1.288,1.288,0,0,1,1.135.565,2.448,2.448,0,0,1,.341,1.334v.241H57.246a1.625,1.625,0,0,0,.313,1.028,1.056,1.056,0,0,0,.909.438,1.809,1.809,0,0,0,.569-.1,1.85,1.85,0,0,0,.473-.187Zm-.222-2.061a1.9,1.9,0,0,0-.214-.921.806.806,0,0,0-.736-.414.959.959,0,0,0-.793.421,1.512,1.512,0,0,0-.3.914Z"/><path class="cls-1" d="M61.364,59.453q0-.531-.029-.854h.454v.733H61.8a1.663,1.663,0,0,1,.369-.575.806.806,0,0,1,.582-.25,1.526,1.526,0,0,1,.32.044v.491A1.216,1.216,0,0,0,62.74,59a.767.767,0,0,0-.444.136,1.006,1.006,0,0,0-.283.366,1.953,1.953,0,0,0-.146.489,3.088,3.088,0,0,0-.05.542v1.893h-.453Z"/><path class="cls-1" d="M66.575,61.812h-.014a1.119,1.119,0,0,1-.49.514,1.447,1.447,0,0,1-1.313.062.985.985,0,0,1-.38-.285,1.261,1.261,0,0,1,.007-1.424,1.22,1.22,0,0,1,.561-.4,3.04,3.04,0,0,1,.742-.164c.263-.016.515-.023.756-.023h.088v-.2q.022-.989-.845-.989a1.966,1.966,0,0,0-1.091.318v-.459a2.659,2.659,0,0,1,1.089-.262q1.315-.014,1.3,1.426v1.69a5.21,5.21,0,0,0,.038.8h-.449ZM66.532,60.5H66.4c-.2,0-.4,0-.6.014a2.138,2.138,0,0,0-.569.129.878.878,0,0,0-.408.276.736.736,0,0,0-.167.506.588.588,0,0,0,.234.526.861.861,0,0,0,.537.165,1.07,1.07,0,0,0,.632-.165.96.96,0,0,0,.331-.374,1.339,1.339,0,0,0,.121-.46c.011-.157.017-.285.017-.386Z"/><path class="cls-1" d="M68.44,62.029,70.67,59H68.457v-.4H71.2V59L68.9,62.021H71.2v.4H68.44Z"/><path class="cls-1" d="M73.154,57.577H72.7v-.63h.453ZM72.7,58.6h.453v3.825H72.7Z"/><path class="cls-1" d="M77.839,61.523a8.933,8.933,0,0,0,.032.9h-.444v-.68h-.014a1.29,1.29,0,0,1-.138.252,1.194,1.194,0,0,1-.223.256,1.018,1.018,0,0,1-.344.179,1.266,1.266,0,0,1-.493.085,1.13,1.13,0,0,1-.971-.421,1.7,1.7,0,0,1-.291-1.053V58.6h.454v2.326a1.518,1.518,0,0,0,.209.858.733.733,0,0,0,.672.33.978.978,0,0,0,.529-.135.882.882,0,0,0,.334-.33,1.389,1.389,0,0,0,.182-.451,2.25,2.25,0,0,0,.053-.481V58.6h.453Z"/><path class="cls-1" d="M79.712,59.5c0-.293-.01-.593-.029-.9h.443v.682h.014a2.241,2.241,0,0,1,.152-.272,1.042,1.042,0,0,1,.217-.245,1.006,1.006,0,0,1,.34-.19,1.582,1.582,0,0,1,.485-.067,1.144,1.144,0,0,1,.981.422,1.78,1.78,0,0,1,.283,1.047v2.448h-.453V60.1a1.662,1.662,0,0,0-.2-.869.793.793,0,0,0-.685-.316.938.938,0,0,0-.861.448,1.428,1.428,0,0,0-.181.444,2.315,2.315,0,0,0-.056.506v2.116h-.454Z"/><path class="cls-1" d="M86.781,61.871a2.005,2.005,0,0,0,.964.242.916.916,0,0,0,.582-.187.6.6,0,0,0,.24-.5A.644.644,0,0,0,88.3,60.9a3.224,3.224,0,0,0-.617-.338c-.112-.054-.218-.111-.32-.172a2.78,2.78,0,0,1-.29-.2,1.086,1.086,0,0,1-.206-.278.766.766,0,0,1-.078-.354.906.906,0,0,1,.376-.81,1.472,1.472,0,0,1,.829-.235,3.73,3.73,0,0,1,.415.03,2.489,2.489,0,0,1,.5.142l-.042.41a2.209,2.209,0,0,0-.824-.179,1.061,1.061,0,0,0-.565.132.463.463,0,0,0-.17.191.657.657,0,0,0-.064.315.37.37,0,0,0,.081.225.825.825,0,0,0,.21.18c.087.05.187.1.3.157s.22.106.326.165a2.077,2.077,0,0,1,.632.422,1.114,1.114,0,0,1,.16,1.232,1.054,1.054,0,0,1-.311.338,1.633,1.633,0,0,1-.865.249,2.973,2.973,0,0,1-1.033-.182Z"/><path class="cls-1" d="M91.854,62.424h-.536L90.062,58.6h.5l1.02,3.313H91.6L92.675,58.6h.478Z"/><path class="cls-1" d="M94.94,57.577h-.453v-.63h.453ZM94.487,58.6h.453v3.825h-.453Z"/><path class="cls-1" d="M96.394,62.029,98.624,59H96.411v-.4h2.745V59l-2.305,3.02h2.305v.4H96.394Z"/><path class="cls-1" d="M100.655,59.453q0-.531-.03-.854h.455v.733h.014a1.634,1.634,0,0,1,.369-.575.806.806,0,0,1,.582-.25,1.526,1.526,0,0,1,.32.044v.491a1.216,1.216,0,0,0-.334-.044.765.765,0,0,0-.444.136,1,1,0,0,0-.284.366,1.952,1.952,0,0,0-.145.489,3.088,3.088,0,0,0-.05.542v1.893h-.453Z"/><path class="cls-1" d="M105.866,61.812h-.015a1.112,1.112,0,0,1-.489.514,1.449,1.449,0,0,1-1.314.062.981.981,0,0,1-.379-.285,1.261,1.261,0,0,1,.007-1.424,1.22,1.22,0,0,1,.561-.4,3.04,3.04,0,0,1,.742-.164c.263-.016.515-.023.756-.023h.088v-.2q.021-.989-.846-.989a1.971,1.971,0,0,0-1.091.318v-.459a2.662,2.662,0,0,1,1.089-.262q1.317-.014,1.3,1.426v1.69a5.086,5.086,0,0,0,.038.8h-.449Zm-.043-1.315h-.131c-.2,0-.4,0-.6.014a2.139,2.139,0,0,0-.568.129.878.878,0,0,0-.408.276.736.736,0,0,0-.167.506.588.588,0,0,0,.234.526.86.86,0,0,0,.536.165,1.071,1.071,0,0,0,.633-.165.968.968,0,0,0,.331-.374,1.336,1.336,0,0,0,.12-.46c.012-.157.018-.285.018-.386Z"/><path class="cls-1" d="M29.837,82.46a1.881,1.881,0,0,0,1.122.309,1.253,1.253,0,0,0,.814-.264,1.007,1.007,0,0,0,.327-.81.8.8,0,0,0-.363-.645,2.449,2.449,0,0,0-.372-.258c-.14-.08-.283-.16-.43-.238s-.285-.176-.419-.271a2.2,2.2,0,0,1-.38-.3,1.076,1.076,0,0,1-.363-.816,1.243,1.243,0,0,1,.472-1.009,1.811,1.811,0,0,1,1.132-.36,4.213,4.213,0,0,1,.466.029,3.372,3.372,0,0,1,.532.142l-.082.47a1.964,1.964,0,0,0-.924-.194,1.894,1.894,0,0,0-.384.037,1.108,1.108,0,0,0-.359.157.784.784,0,0,0-.252.271.864.864,0,0,0-.1.437.617.617,0,0,0,.1.345,1.046,1.046,0,0,0,.259.278,3.343,3.343,0,0,0,.38.238q.2.121.423.25a2.883,2.883,0,0,1,.8.569,1.274,1.274,0,0,1,.27.392,1.336,1.336,0,0,1,.093.517,1.308,1.308,0,0,1-.529,1.133,1.964,1.964,0,0,1-1.135.348,2.726,2.726,0,0,1-1.146-.225Z"/><path class="cls-1" d="M38.074,83.124H37.52l-1.008-3.312h-.017l-1.008,3.312h-.554L33.741,79.3h.5l.972,3.313h.014L36.264,79.3h.553l.98,3.313h.014L38.836,79.3h.458Z"/><path class="cls-1" d="M41.14,78.277h-.453v-.629h.453ZM40.687,79.3h.453v3.825h-.453Z"/><path class="cls-1" d="M42.655,82.571a2.011,2.011,0,0,0,.964.243.908.908,0,0,0,.581-.188.593.593,0,0,0,.241-.5.646.646,0,0,0-.27-.536,3.217,3.217,0,0,0-.617-.337,3.6,3.6,0,0,1-.319-.173,2.549,2.549,0,0,1-.291-.2,1.1,1.1,0,0,1-.206-.279.764.764,0,0,1-.077-.352.9.9,0,0,1,.375-.81,1.483,1.483,0,0,1,.829-.236,3.7,3.7,0,0,1,.415.03,2.634,2.634,0,0,1,.5.141l-.043.413a2.126,2.126,0,0,0-.824-.18,1.037,1.037,0,0,0-.564.132.463.463,0,0,0-.171.19.659.659,0,0,0-.064.316.354.354,0,0,0,.082.223.748.748,0,0,0,.209.18c.088.052.187.1.3.158s.22.106.327.165a2.071,2.071,0,0,1,.632.422,1.119,1.119,0,0,1,.16,1.232,1.043,1.043,0,0,1-.312.337,1.628,1.628,0,0,1-.864.25,3.006,3.006,0,0,1-1.034-.181Z"/><path class="cls-1" d="M46.16,82.571a2.014,2.014,0,0,0,.964.243.911.911,0,0,0,.582-.188.6.6,0,0,0,.24-.5.647.647,0,0,0-.269-.536,3.278,3.278,0,0,0-.617-.337,3.483,3.483,0,0,1-.32-.173,2.628,2.628,0,0,1-.29-.2,1.074,1.074,0,0,1-.206-.279.752.752,0,0,1-.078-.352.9.9,0,0,1,.376-.81,1.481,1.481,0,0,1,.829-.236,3.73,3.73,0,0,1,.415.03,2.625,2.625,0,0,1,.5.141l-.042.413a2.135,2.135,0,0,0-.825-.18,1.042,1.042,0,0,0-.564.132.46.46,0,0,0-.17.19.659.659,0,0,0-.064.316.353.353,0,0,0,.081.223.753.753,0,0,0,.21.18c.087.052.187.1.3.158s.221.106.327.165a2.059,2.059,0,0,1,.632.422,1,1,0,0,1,.277.729.985.985,0,0,1-.117.5,1.03,1.03,0,0,1-.311.337,1.634,1.634,0,0,1-.865.25,3,3,0,0,1-1.033-.181Z"/><path class="cls-1" d="M56.148,78.468a1.711,1.711,0,0,0-.547-.187,4.726,4.726,0,0,0-.586-.037,1.917,1.917,0,0,0-1.519.638,2.728,2.728,0,0,0-.008,3.248,1.881,1.881,0,0,0,1.527.639,3.531,3.531,0,0,0,.586-.055,1.505,1.505,0,0,0,.547-.172l.028.449a1.734,1.734,0,0,1-.557.171,3.954,3.954,0,0,1-.6.054,2.458,2.458,0,0,1-1.876-.752,2.752,2.752,0,0,1-.682-1.959,2.813,2.813,0,0,1,.688-1.957,2.459,2.459,0,0,1,1.87-.751q.245,0,.6.036a1.72,1.72,0,0,1,.557.157Z"/><path class="cls-1" d="M57.924,81.212a2.309,2.309,0,0,1,.422-1.4,1.523,1.523,0,0,1,1.305-.609,1.547,1.547,0,0,1,1.323.609,2.58,2.58,0,0,1,0,2.785,1.546,1.546,0,0,1-1.323.615,1.522,1.522,0,0,1-1.305-.615A2.315,2.315,0,0,1,57.924,81.212Zm.5,0a1.876,1.876,0,0,0,.32,1.127,1.038,1.038,0,0,0,.911.475,1.075,1.075,0,0,0,.926-.475,1.943,1.943,0,0,0,.306-1.127,2,2,0,0,0-.306-1.142,1.081,1.081,0,0,0-.926-.459,1.043,1.043,0,0,0-.911.459A1.93,1.93,0,0,0,58.422,81.212Z"/><path class="cls-1" d="M62.968,80.2q0-.44-.029-.9h.443v.681H63.4a2.4,2.4,0,0,1,.153-.271,1.057,1.057,0,0,1,.216-.245,1.025,1.025,0,0,1,.34-.191,1.625,1.625,0,0,1,.485-.066,1.143,1.143,0,0,1,.981.421,1.791,1.791,0,0,1,.283,1.049v2.447H65.4V80.8a1.679,1.679,0,0,0-.195-.87.79.79,0,0,0-.686-.314.936.936,0,0,0-.86.447,1.418,1.418,0,0,0-.181.443,2.269,2.269,0,0,0-.057.506v2.117h-.454Z"/><path class="cls-1" d="M68.039,79.7H67.29v-.4h.749v-.278q0-.307.028-.6a1.457,1.457,0,0,1,.11-.508.756.756,0,0,1,.3-.37.959.959,0,0,1,.542-.132c.078,0,.158,0,.241.007a.492.492,0,0,1,.187.066l-.028.414a.731.731,0,0,0-.362-.084.5.5,0,0,0-.345.105.608.608,0,0,0-.167.293,1.509,1.509,0,0,0-.043.368c0,.134-.007.263-.007.388V79.3h.835v.4h-.835v3.421h-.453Z"/><path class="cls-1" d="M73.294,83.005a3.047,3.047,0,0,1-1.076.211,1.517,1.517,0,0,1-1.3-.579,2.356,2.356,0,0,1-.383-1.425,2.322,2.322,0,0,1,.436-1.447,1.354,1.354,0,0,1,1.124-.558,1.293,1.293,0,0,1,1.136.565,2.447,2.447,0,0,1,.34,1.333v.242H71.03a1.629,1.629,0,0,0,.313,1.029,1.062,1.062,0,0,0,.909.438,1.779,1.779,0,0,0,.569-.1,1.872,1.872,0,0,0,.473-.187Zm-.222-2.06a1.914,1.914,0,0,0-.214-.922.806.806,0,0,0-.736-.412.962.962,0,0,0-.793.42,1.514,1.514,0,0,0-.3.914Z"/><path class="cls-1" d="M78.079,83.124h-.454v-.607h-.014a1.2,1.2,0,0,1-1.157.7,1.318,1.318,0,0,1-1.139-.579,2.468,2.468,0,0,1-.386-1.425,2.5,2.5,0,0,1,.358-1.44,1.3,1.3,0,0,1,1.167-.565,1.291,1.291,0,0,1,.483.084,1.117,1.117,0,0,1,.348.208,1.03,1.03,0,0,1,.326.442h.014V77.5h.454Zm-2.653-1.912a3.083,3.083,0,0,0,.05.547,2.212,2.212,0,0,0,.174.53,1.155,1.155,0,0,0,.342.367.855.855,0,0,0,.533.158.87.87,0,0,0,.524-.158,1.1,1.1,0,0,0,.338-.383,2.351,2.351,0,0,0,.238-1.061,3.277,3.277,0,0,0-.05-.558,2.049,2.049,0,0,0-.188-.511,1.137,1.137,0,0,0-.338-.39.935.935,0,0,0-.524-.142.919.919,0,0,0-.533.142.988.988,0,0,0-.342.375,1.909,1.909,0,0,0-.174.511A3.361,3.361,0,0,0,75.426,81.212Z"/><path class="cls-1" d="M82.39,83.005a3.047,3.047,0,0,1-1.076.211,1.514,1.514,0,0,1-1.3-.579,2.363,2.363,0,0,1-.384-1.425,2.329,2.329,0,0,1,.436-1.447,1.355,1.355,0,0,1,1.125-.558,1.292,1.292,0,0,1,1.135.565,2.447,2.447,0,0,1,.341,1.333v.242H80.126a1.635,1.635,0,0,0,.312,1.029,1.063,1.063,0,0,0,.91.438,1.783,1.783,0,0,0,.569-.1,1.9,1.9,0,0,0,.473-.187Zm-.223-2.06a1.914,1.914,0,0,0-.213-.922.806.806,0,0,0-.736-.412.96.96,0,0,0-.793.42,1.514,1.514,0,0,0-.3.914Z"/><path class="cls-1" d="M84.244,80.153c0-.355-.01-.639-.029-.854h.454v.733h.014a1.663,1.663,0,0,1,.369-.575.8.8,0,0,1,.582-.25,1.526,1.526,0,0,1,.32.044v.491a1.179,1.179,0,0,0-.334-.043.769.769,0,0,0-.444.134,1.014,1.014,0,0,0-.283.368,1.905,1.905,0,0,0-.146.488,3.1,3.1,0,0,0-.05.543v1.892h-.453Z"/><path class="cls-1" d="M89.455,82.512h-.014a1.121,1.121,0,0,1-.49.515,1.461,1.461,0,0,1-.688.189,1.442,1.442,0,0,1-.625-.129.953.953,0,0,1-.379-.285,1.254,1.254,0,0,1,.007-1.422,1.229,1.229,0,0,1,.561-.4,3.042,3.042,0,0,1,.741-.165c.263-.014.515-.022.756-.022h.089V80.6q.021-.989-.846-.988a1.961,1.961,0,0,0-1.091.316v-.459a2.657,2.657,0,0,1,1.089-.261q1.315-.012,1.3,1.425v1.69a5.087,5.087,0,0,0,.039.8h-.45ZM89.413,81.2h-.132q-.3,0-.6.014a2.17,2.17,0,0,0-.568.129.886.886,0,0,0-.409.276.745.745,0,0,0-.167.507.587.587,0,0,0,.234.525.863.863,0,0,0,.537.166,1.071,1.071,0,0,0,.633-.166.966.966,0,0,0,.33-.375,1.3,1.3,0,0,0,.121-.459c.012-.156.018-.285.018-.386Z"/><path class="cls-1" d="M93.258,79.7h-.842v2.479a.8.8,0,0,0,.117.444.4.4,0,0,0,.377.188.9.9,0,0,0,.423-.092l.028.389c-.054.019-.13.041-.227.065a1.288,1.288,0,0,1-.333.04.9.9,0,0,1-.471-.106.678.678,0,0,1-.251-.278,1.376,1.376,0,0,1-.1-.4c-.014-.151-.021-.315-.021-.491V79.7h-.727v-.4h.727v-.923l.454-.166V79.3h.842Z"/><path class="cls-1" d="M95.2,78.277h-.454v-.629H95.2ZM94.749,79.3H95.2v3.825h-.454Z"/><path class="cls-1" d="M96.715,81.212a2.309,2.309,0,0,1,.422-1.4,1.525,1.525,0,0,1,1.306-.609,1.547,1.547,0,0,1,1.322.609,2.58,2.58,0,0,1,0,2.785,1.545,1.545,0,0,1-1.322.615,1.524,1.524,0,0,1-1.306-.615A2.315,2.315,0,0,1,96.715,81.212Zm.5,0a1.876,1.876,0,0,0,.321,1.127,1.036,1.036,0,0,0,.911.475,1.074,1.074,0,0,0,.925-.475,1.943,1.943,0,0,0,.306-1.127,2,2,0,0,0-.306-1.142,1.08,1.08,0,0,0-.925-.459,1.041,1.041,0,0,0-.911.459A1.93,1.93,0,0,0,97.213,81.212Z"/><path class="cls-1" d="M101.76,80.2q0-.44-.029-.9h.443v.681h.014a2.557,2.557,0,0,1,.152-.271,1.062,1.062,0,0,1,.217-.245,1.025,1.025,0,0,1,.34-.191,1.625,1.625,0,0,1,.485-.066,1.145,1.145,0,0,1,.981.421,1.791,1.791,0,0,1,.283,1.049v2.447h-.453V80.8a1.689,1.689,0,0,0-.195-.87.791.791,0,0,0-.686-.314.936.936,0,0,0-.86.447,1.444,1.444,0,0,0-.182.443,2.329,2.329,0,0,0-.057.506v2.117h-.453Z"/><path class="cls-1" d="M29.913,98.589h2.41v.447H30.41v1.873h1.824v.446H30.41v2.47h-.5Z"/><path class="cls-1" d="M36.326,103.707a3.059,3.059,0,0,1-1.076.209,1.522,1.522,0,0,1-1.3-.579,2.37,2.37,0,0,1-.383-1.425A2.325,2.325,0,0,1,34,100.464a1.36,1.36,0,0,1,1.124-.556,1.287,1.287,0,0,1,1.136.564,2.453,2.453,0,0,1,.341,1.334v.241H34.063a1.635,1.635,0,0,0,.312,1.029,1.058,1.058,0,0,0,.91.437,2.608,2.608,0,0,0,1.041-.286Zm-.222-2.062a1.9,1.9,0,0,0-.213-.921.809.809,0,0,0-.737-.414.964.964,0,0,0-.793.421,1.511,1.511,0,0,0-.3.914Z"/><path class="cls-1" d="M41.11,103.825h-.453v-.609h-.014a1.2,1.2,0,0,1-1.157.7,1.322,1.322,0,0,1-1.139-.579,2.463,2.463,0,0,1-.387-1.425,2.505,2.505,0,0,1,.359-1.44,1.306,1.306,0,0,1,1.167-.564,1.275,1.275,0,0,1,.483.084,1.065,1.065,0,0,1,.347.208,1.03,1.03,0,0,1,.327.441h.014V98.2h.453Zm-2.652-1.913a3.083,3.083,0,0,0,.05.547,2.147,2.147,0,0,0,.174.529,1.132,1.132,0,0,0,.341.367.858.858,0,0,0,.534.158.87.87,0,0,0,.524-.158,1.1,1.1,0,0,0,.337-.381,2.349,2.349,0,0,0,.239-1.062,3.268,3.268,0,0,0-.05-.558,2.027,2.027,0,0,0-.189-.511,1.11,1.11,0,0,0-.337-.388.929.929,0,0,0-.524-.145.915.915,0,0,0-.534.145.984.984,0,0,0-.341.374,1.856,1.856,0,0,0-.174.51A3.369,3.369,0,0,0,38.458,101.912Z"/><path class="cls-1" d="M45.422,103.707a3.067,3.067,0,0,1-1.076.209,1.522,1.522,0,0,1-1.3-.579,2.356,2.356,0,0,1-.383-1.425,2.325,2.325,0,0,1,.436-1.448,1.36,1.36,0,0,1,1.124-.556,1.285,1.285,0,0,1,1.135.564,2.453,2.453,0,0,1,.341,1.334v.241H43.158a1.629,1.629,0,0,0,.313,1.029,1.056,1.056,0,0,0,.909.437,2.619,2.619,0,0,0,1.042-.286Zm-.222-2.062a1.9,1.9,0,0,0-.214-.921.808.808,0,0,0-.736-.414.963.963,0,0,0-.793.421,1.512,1.512,0,0,0-.3.914Z"/><path class="cls-1" d="M47.276,100.853q0-.531-.029-.854H47.7v.733h.014a1.649,1.649,0,0,1,.369-.574.808.808,0,0,1,.583-.25,1.462,1.462,0,0,1,.319.044v.491a1.215,1.215,0,0,0-.334-.045.775.775,0,0,0-.444.137,1,1,0,0,0-.283.366,1.934,1.934,0,0,0-.146.488,3.1,3.1,0,0,0-.05.542v1.894h-.453Z"/><path class="cls-1" d="M52.487,103.212h-.014a1.119,1.119,0,0,1-.49.514,1.452,1.452,0,0,1-1.313.063.975.975,0,0,1-.379-.286,1.257,1.257,0,0,1,.006-1.423,1.215,1.215,0,0,1,.561-.4,3.05,3.05,0,0,1,.742-.164c.263-.016.515-.022.756-.022h.088v-.2q.023-.989-.845-.989a1.977,1.977,0,0,0-1.091.318v-.459a2.642,2.642,0,0,1,1.089-.261q1.315-.015,1.3,1.425v1.69a5.094,5.094,0,0,0,.039.8h-.45Zm-.043-1.315h-.131q-.3,0-.6.015a2.063,2.063,0,0,0-.569.129.874.874,0,0,0-.408.275.74.74,0,0,0-.167.507.585.585,0,0,0,.234.525.861.861,0,0,0,.537.165,1.076,1.076,0,0,0,.633-.165.951.951,0,0,0,.33-.374,1.327,1.327,0,0,0,.121-.46c.011-.157.017-.285.017-.386Z"/><path class="cls-1" d="M54.7,98.2h.454v5.628H54.7Z"/><path class="cls-1" d="M59.627,98.589h1.255a2.469,2.469,0,0,1,1.955.725,2.841,2.841,0,0,1,.581,1.884,2.407,2.407,0,0,1-.822,2.018,3.335,3.335,0,0,1-2.082.609h-.887Zm.5,4.789h.415a2.036,2.036,0,0,0,2.381-2.209,2.136,2.136,0,0,0-.6-1.675,2.254,2.254,0,0,0-1.464-.458h-.735Z"/><path class="cls-1" d="M67.693,103.707a3.067,3.067,0,0,1-1.076.209,1.522,1.522,0,0,1-1.3-.579,2.356,2.356,0,0,1-.383-1.425,2.325,2.325,0,0,1,.436-1.448,1.36,1.36,0,0,1,1.124-.556,1.285,1.285,0,0,1,1.135.564,2.453,2.453,0,0,1,.341,1.334v.241H65.429a1.629,1.629,0,0,0,.313,1.029,1.056,1.056,0,0,0,.909.437,2.619,2.619,0,0,0,1.042-.286Zm-.222-2.062a1.9,1.9,0,0,0-.214-.921.808.808,0,0,0-.736-.414.963.963,0,0,0-.793.421,1.512,1.512,0,0,0-.3.914Z"/><path class="cls-1" d="M69.5,100h.454l-.032.7h.014l.131-.223a1.3,1.3,0,0,1,.221-.256,1.327,1.327,0,0,1,.341-.224,1.286,1.286,0,0,1,.493-.084,1.321,1.321,0,0,1,1.18.564,2.646,2.646,0,0,1,.348,1.44,2.514,2.514,0,0,1-.377,1.425,1.349,1.349,0,0,1-1.151.579,1.147,1.147,0,0,1-1.154-.741h-.014V105.4H69.5Zm2.652,1.913a4.6,4.6,0,0,0-.035-.573,1.607,1.607,0,0,0-.182-.51.851.851,0,0,0-.337-.374.968.968,0,0,0-.545-.145.877.877,0,0,0-.513.145,1.1,1.1,0,0,0-.341.388,1.714,1.714,0,0,0-.181.511,2.529,2.529,0,0,0-.064.558,2.244,2.244,0,0,0,.245,1.062,1.094,1.094,0,0,0,.341.381.823.823,0,0,0,.513.158.906.906,0,0,0,.545-.158.957.957,0,0,0,.337-.367,1.839,1.839,0,0,0,.182-.529A4.208,4.208,0,0,0,72.155,101.912Z"/><path class="cls-1" d="M76.433,103.212h-.015a1.112,1.112,0,0,1-.489.514,1.452,1.452,0,0,1-1.313.063.987.987,0,0,1-.38-.286,1.26,1.26,0,0,1,.007-1.423,1.215,1.215,0,0,1,.561-.4,3.04,3.04,0,0,1,.742-.164c.263-.016.515-.022.756-.022h.088v-.2q.022-.989-.846-.989a1.974,1.974,0,0,0-1.09.318v-.459a2.641,2.641,0,0,1,1.088-.261q1.317-.015,1.3,1.425v1.69a5.1,5.1,0,0,0,.038.8h-.449ZM76.39,101.9h-.131q-.3,0-.6.015a2.063,2.063,0,0,0-.569.129.869.869,0,0,0-.408.275.74.74,0,0,0-.167.507.585.585,0,0,0,.234.525.859.859,0,0,0,.537.165,1.07,1.07,0,0,0,.632-.165.946.946,0,0,0,.331-.374,1.327,1.327,0,0,0,.121-.46c.011-.157.017-.285.017-.386Z"/><path class="cls-1" d="M78.643,100.853q0-.531-.029-.854h.454v.733h.014a1.621,1.621,0,0,1,.369-.574.8.8,0,0,1,.582-.25,1.463,1.463,0,0,1,.32.044v.491a1.215,1.215,0,0,0-.334-.045.77.77,0,0,0-.444.137.987.987,0,0,0-.283.366,1.894,1.894,0,0,0-.146.488,3.1,3.1,0,0,0-.05.542v1.894h-.453Z"/><path class="cls-1" d="M83.32,100.4h-.843v2.48a.8.8,0,0,0,.117.445.4.4,0,0,0,.377.186.887.887,0,0,0,.423-.092l.029.39c-.055.02-.13.041-.227.065a1.3,1.3,0,0,1-.333.04.905.905,0,0,1-.471-.106.688.688,0,0,1-.252-.278,1.416,1.416,0,0,1-.1-.4c-.014-.151-.021-.314-.021-.49V100.4H81.3V100h.726v-.923l.454-.164V100h.843Z"/><path class="cls-1" d="M89.358,103.825v-2.546a2.4,2.4,0,0,0-.03-.393.817.817,0,0,0-.144-.3.625.625,0,0,0-.248-.209,1.037,1.037,0,0,0-.4-.066.956.956,0,0,0-.711.33,1.562,1.562,0,0,0-.326,1.068v2.117H87.05v-2.546a2.092,2.092,0,0,0-.034-.393.817.817,0,0,0-.144-.3.625.625,0,0,0-.248-.209,1.037,1.037,0,0,0-.4-.066.956.956,0,0,0-.711.33,1.562,1.562,0,0,0-.326,1.068v2.117h-.454V100.9c0-.294-.009-.594-.029-.9h.457v.645l.014.008a1.7,1.7,0,0,1,.143-.235.865.865,0,0,1,.208-.238,1.284,1.284,0,0,1,.336-.2,1.469,1.469,0,0,1,.5-.074,1.559,1.559,0,0,1,.292.029.932.932,0,0,1,.3.121.824.824,0,0,1,.262.24,1.109,1.109,0,0,1,.157.416h.015a1.332,1.332,0,0,1,.456-.572,1.3,1.3,0,0,1,.763-.234,1.161,1.161,0,0,1,.894.359,1.342,1.342,0,0,1,.307.924v2.634Z"/><path class="cls-1" d="M94.13,103.707a3.067,3.067,0,0,1-1.076.209,1.522,1.522,0,0,1-1.3-.579,2.356,2.356,0,0,1-.383-1.425,2.325,2.325,0,0,1,.436-1.448,1.36,1.36,0,0,1,1.124-.556,1.285,1.285,0,0,1,1.135.564,2.444,2.444,0,0,1,.341,1.334v.241H91.866a1.629,1.629,0,0,0,.313,1.029,1.056,1.056,0,0,0,.909.437,2.619,2.619,0,0,0,1.042-.286Zm-.222-2.062a1.9,1.9,0,0,0-.214-.921.808.808,0,0,0-.736-.414.963.963,0,0,0-.793.421,1.512,1.512,0,0,0-.3.914Z"/><path class="cls-1" d="M95.984,100.9c0-.293-.01-.593-.029-.9H96.4v.682h.014a2.157,2.157,0,0,1,.152-.271,1.042,1.042,0,0,1,.217-.245.991.991,0,0,1,.34-.191,1.584,1.584,0,0,1,.485-.066,1.14,1.14,0,0,1,.98.422,1.77,1.77,0,0,1,.284,1.046v2.449h-.453V101.5a1.673,1.673,0,0,0-.2-.87.794.794,0,0,0-.685-.316.939.939,0,0,0-.861.448,1.423,1.423,0,0,0-.181.445,2.313,2.313,0,0,0-.057.5v2.117h-.453Z"/><path class="cls-1" d="M102.335,100.4h-.842v2.48a.8.8,0,0,0,.117.445.4.4,0,0,0,.377.186.89.89,0,0,0,.423-.092l.029.39a2.318,2.318,0,0,1-.228.065,1.283,1.283,0,0,1-.333.04.9.9,0,0,1-.47-.106.674.674,0,0,1-.252-.278,1.416,1.416,0,0,1-.1-.4c-.014-.151-.02-.314-.02-.49V100.4h-.727V100h.727v-.923l.453-.164V100h.842Z"/><path class="cls-1" d="M106.21,101.912a2.309,2.309,0,0,1,.422-1.4,1.522,1.522,0,0,1,1.306-.608,1.542,1.542,0,0,1,1.322.608,2.579,2.579,0,0,1,0,2.784,1.545,1.545,0,0,1-1.322.616,1.525,1.525,0,0,1-1.306-.616A2.312,2.312,0,0,1,106.21,101.912Zm.5,0a1.877,1.877,0,0,0,.321,1.128,1.03,1.03,0,0,0,.911.473,1.068,1.068,0,0,0,.925-.473,1.944,1.944,0,0,0,.306-1.128,2.006,2.006,0,0,0-.306-1.142,1.084,1.084,0,0,0-.925-.46,1.044,1.044,0,0,0-.911.46A1.936,1.936,0,0,0,106.708,101.912Z"/><path class="cls-1" d="M111.567,100.4h-.749V100h.749v-.278q0-.308.028-.6a1.448,1.448,0,0,1,.11-.51.769.769,0,0,1,.3-.37.958.958,0,0,1,.541-.132c.079,0,.159,0,.242.008a.455.455,0,0,1,.187.065l-.028.413a.753.753,0,0,0-.362-.084.492.492,0,0,0-.345.107.6.6,0,0,0-.167.294,1.528,1.528,0,0,0-.043.365c0,.135-.007.264-.007.389V100h.835v.4h-.835v3.423h-.453Z"/><path class="cls-1" d="M117.06,98.589h2.48v.447h-1.982v1.873h1.882v.446h-1.882v2.023h2.07v.447H117.06Z"/><path class="cls-1" d="M123.756,100.505a1.934,1.934,0,0,0-.8-.195,1.269,1.269,0,0,0-1.022.441,1.751,1.751,0,0,0-.372,1.161,1.723,1.723,0,0,0,.365,1.121,1.174,1.174,0,0,0,.98.48,2.121,2.121,0,0,0,.839-.172l.042.442a3.043,3.043,0,0,1-.951.133,1.591,1.591,0,0,1-1.33-.608,2.225,2.225,0,0,1-.443-1.4,2.074,2.074,0,0,1,.507-1.448,1.726,1.726,0,0,1,1.323-.556,2.713,2.713,0,0,1,.567.05c.078.015.146.031.2.047s.1.037.125.051Z"/><path class="cls-1" d="M124.976,101.912a2.309,2.309,0,0,1,.422-1.4,1.52,1.52,0,0,1,1.306-.608,1.543,1.543,0,0,1,1.322.608,2.579,2.579,0,0,1,0,2.784,1.546,1.546,0,0,1-1.322.616,1.523,1.523,0,0,1-1.306-.616A2.312,2.312,0,0,1,124.976,101.912Zm.5,0a1.884,1.884,0,0,0,.32,1.128,1.032,1.032,0,0,0,.912.473,1.065,1.065,0,0,0,.924-.473,1.944,1.944,0,0,0,.307-1.128,2.007,2.007,0,0,0-.307-1.142,1.081,1.081,0,0,0-.924-.46,1.046,1.046,0,0,0-.912.46A1.943,1.943,0,0,0,125.474,101.912Z"/><path class="cls-1" d="M130.021,100.9c0-.293-.01-.593-.029-.9h.443v.682h.014a2.157,2.157,0,0,1,.152-.271,1.042,1.042,0,0,1,.217-.245.991.991,0,0,1,.34-.191,1.589,1.589,0,0,1,.485-.066,1.144,1.144,0,0,1,.981.422,1.777,1.777,0,0,1,.283,1.046v2.449h-.453V101.5a1.673,1.673,0,0,0-.2-.87.794.794,0,0,0-.685-.316.94.94,0,0,0-.861.448,1.423,1.423,0,0,0-.181.445,2.313,2.313,0,0,0-.057.5v2.117h-.453Z"/><path class="cls-1" d="M134.493,101.912a2.3,2.3,0,0,1,.423-1.4,1.517,1.517,0,0,1,1.3-.608,1.544,1.544,0,0,1,1.323.608,2.573,2.573,0,0,1,0,2.784,1.547,1.547,0,0,1-1.323.616,1.52,1.52,0,0,1-1.3-.616A2.306,2.306,0,0,1,134.493,101.912Zm.5,0a1.877,1.877,0,0,0,.32,1.128,1.032,1.032,0,0,0,.911.473,1.07,1.07,0,0,0,.926-.473,1.944,1.944,0,0,0,.306-1.128,2.006,2.006,0,0,0-.306-1.142,1.085,1.085,0,0,0-.926-.46,1.046,1.046,0,0,0-.911.46A1.936,1.936,0,0,0,134.991,101.912Z"/><path class="cls-1" d="M144.084,103.825v-2.546a2.4,2.4,0,0,0-.029-.393.817.817,0,0,0-.144-.3.632.632,0,0,0-.248-.209,1.046,1.046,0,0,0-.4-.066.955.955,0,0,0-.71.33,1.557,1.557,0,0,0-.326,1.068v2.117h-.453v-2.546a2.179,2.179,0,0,0-.034-.393.817.817,0,0,0-.144-.3.625.625,0,0,0-.248-.209,1.037,1.037,0,0,0-.4-.066.956.956,0,0,0-.711.33,1.562,1.562,0,0,0-.326,1.068v2.117h-.455V100.9c0-.294-.008-.594-.028-.9h.456v.645l.015.008a1.791,1.791,0,0,1,.142-.235.882.882,0,0,1,.208-.238,1.3,1.3,0,0,1,.336-.2,1.469,1.469,0,0,1,.5-.074,1.561,1.561,0,0,1,.293.029.918.918,0,0,1,.3.121.817.817,0,0,1,.263.24,1.109,1.109,0,0,1,.157.416h.015a1.325,1.325,0,0,1,.456-.572,1.3,1.3,0,0,1,.763-.234,1.165,1.165,0,0,1,.9.359,1.347,1.347,0,0,1,.307.924v2.634Z"/><path class="cls-1" d="M146.828,98.977h-.454v-.63h.454ZM146.374,100h.454v3.826h-.454Z"/><path class="cls-1" d="M151.036,100.505a1.938,1.938,0,0,0-.795-.195,1.268,1.268,0,0,0-1.023.441,1.746,1.746,0,0,0-.373,1.161,1.728,1.728,0,0,0,.365,1.121,1.177,1.177,0,0,0,.981.48,2.12,2.12,0,0,0,.838-.172l.042.442a3.037,3.037,0,0,1-.95.133,1.59,1.59,0,0,1-1.33-.608,2.232,2.232,0,0,1-.444-1.4,2.07,2.07,0,0,1,.508-1.448,1.724,1.724,0,0,1,1.322-.556,2.723,2.723,0,0,1,.568.05c.078.015.145.031.2.047s.095.037.124.051Z"/><path class="cls-1" d="M156.81,98.589h.567l2.015,5.236h-.522l-.547-1.4h-2.561l-.544,1.4h-.486Zm.248.491-1.1,2.894h2.2Z"/><path class="cls-1" d="M161.114,100.4h-.748V100h.748v-.278c0-.2.01-.405.028-.6a1.471,1.471,0,0,1,.11-.51.781.781,0,0,1,.3-.37.959.959,0,0,1,.542-.132c.078,0,.159,0,.242.008a.461.461,0,0,1,.187.065l-.028.413a.754.754,0,0,0-.363-.084.491.491,0,0,0-.344.107.6.6,0,0,0-.167.294,1.478,1.478,0,0,0-.043.365c0,.135-.007.264-.007.389V100h.835v.4h-.835v3.423h-.454Z"/><path class="cls-1" d="M164.062,100.4h-.748V100h.748v-.278c0-.2.01-.405.028-.6a1.448,1.448,0,0,1,.111-.51.769.769,0,0,1,.3-.37.954.954,0,0,1,.542-.132c.078,0,.158,0,.241.008a.461.461,0,0,1,.187.065l-.028.413a.753.753,0,0,0-.362-.084.492.492,0,0,0-.345.107.6.6,0,0,0-.167.294,1.528,1.528,0,0,0-.043.365c0,.135-.007.264-.007.389V100h.835v.4h-.835v3.423h-.454Z"/><path class="cls-1" d="M168.961,103.212h-.013a1.119,1.119,0,0,1-.49.514,1.451,1.451,0,0,1-1.313.063.994.994,0,0,1-.38-.286,1.2,1.2,0,0,1-.216-.666,1.173,1.173,0,0,1,.224-.757,1.207,1.207,0,0,1,.56-.4,3.05,3.05,0,0,1,.742-.164c.262-.016.514-.022.756-.022h.088v-.2q.022-.989-.845-.989a1.977,1.977,0,0,0-1.091.318v-.459a2.642,2.642,0,0,1,1.089-.261q1.317-.015,1.3,1.425v1.69a4.869,4.869,0,0,0,.038.8h-.451Zm-.042-1.315h-.13q-.3,0-.6.015a2.056,2.056,0,0,0-.568.129.886.886,0,0,0-.41.275.745.745,0,0,0-.167.507.585.585,0,0,0,.235.525.861.861,0,0,0,.537.165,1.076,1.076,0,0,0,.633-.165.951.951,0,0,0,.33-.374,1.327,1.327,0,0,0,.121-.46c.012-.157.017-.285.017-.386Z"/><path class="cls-1" d="M171.625,98.977h-.454v-.63h.454ZM171.171,100h.454v3.826h-.454Z"/><path class="cls-1" d="M173.424,100.853c0-.354-.008-.639-.028-.854h.454v.733h.015a1.621,1.621,0,0,1,.369-.574.8.8,0,0,1,.582-.25,1.471,1.471,0,0,1,.319.044v.491a1.21,1.21,0,0,0-.334-.045.767.767,0,0,0-.443.137.989.989,0,0,0-.284.366,1.934,1.934,0,0,0-.146.488,3.1,3.1,0,0,0-.05.542v1.894h-.454Z"/><path class="cls-1" d="M176.224,103.271a2,2,0,0,0,.965.242.915.915,0,0,0,.581-.186.6.6,0,0,0,.241-.5.647.647,0,0,0-.269-.536,3.254,3.254,0,0,0-.617-.338c-.112-.053-.218-.111-.32-.171a2.8,2.8,0,0,1-.291-.2,1.092,1.092,0,0,1-.206-.278.762.762,0,0,1-.078-.353.908.908,0,0,1,.376-.811,1.479,1.479,0,0,1,.829-.234,3.661,3.661,0,0,1,.415.029,2.437,2.437,0,0,1,.5.143l-.043.41a2.182,2.182,0,0,0-.824-.18,1.054,1.054,0,0,0-.565.133.467.467,0,0,0-.17.19.673.673,0,0,0-.064.316.367.367,0,0,0,.081.224.823.823,0,0,0,.21.18c.088.051.187.1.3.157s.221.107.327.165a2.12,2.12,0,0,1,.632.422,1.121,1.121,0,0,1,.16,1.233,1.053,1.053,0,0,1-.312.337,1.632,1.632,0,0,1-.864.249,3.006,3.006,0,0,1-1.034-.181Z"/><path class="cls-1" d="M180.25,103.2h.613l-.573,1.633h-.459Z"/><path class="cls-1" d="M29.979,108.939h2.479v.446H30.476v1.873h1.882v.447H30.476v2.023h2.07v.446H29.979Z"/><path class="cls-1" d="M37.2,114.174h-.454v-.608h-.014a1.2,1.2,0,0,1-1.157.7,1.322,1.322,0,0,1-1.138-.579,2.466,2.466,0,0,1-.387-1.426,2.5,2.5,0,0,1,.358-1.439,1.309,1.309,0,0,1,1.167-.565,1.291,1.291,0,0,1,.483.084,1.088,1.088,0,0,1,.348.208,1.025,1.025,0,0,1,.326.442h.014v-2.445H37.2Zm-2.653-1.913a3.094,3.094,0,0,0,.05.548,2.155,2.155,0,0,0,.175.528,1.1,1.1,0,0,0,.341.368.858.858,0,0,0,.534.158.867.867,0,0,0,.523-.158,1.106,1.106,0,0,0,.338-.381,2.365,2.365,0,0,0,.238-1.063,3.167,3.167,0,0,0-.05-.557,2.063,2.063,0,0,0-.188-.511,1.125,1.125,0,0,0-.338-.389.925.925,0,0,0-.523-.144.915.915,0,0,0-.534.144.982.982,0,0,0-.341.374,1.875,1.875,0,0,0-.175.511A3.358,3.358,0,0,0,34.542,112.261Z"/><path class="cls-1" d="M41.909,113.273c0,.291.006.592.031.9H41.5v-.68h-.014a1.29,1.29,0,0,1-.138.252,1.194,1.194,0,0,1-.223.256,1.018,1.018,0,0,1-.344.179,1.266,1.266,0,0,1-.493.085,1.133,1.133,0,0,1-.972-.421,1.707,1.707,0,0,1-.29-1.053v-2.443h.454v2.326a1.51,1.51,0,0,0,.209.858.732.732,0,0,0,.672.33.981.981,0,0,0,.529-.135.882.882,0,0,0,.334-.33,1.365,1.365,0,0,0,.181-.451,2.189,2.189,0,0,0,.054-.481v-2.117h.453Z"/><path class="cls-1" d="M46.191,110.855a1.938,1.938,0,0,0-.8-.2,1.27,1.27,0,0,0-1.023.441,1.751,1.751,0,0,0-.373,1.16,1.721,1.721,0,0,0,.366,1.121,1.172,1.172,0,0,0,.98.481,2.134,2.134,0,0,0,.838-.172l.043.441a3.018,3.018,0,0,1-.951.134,1.6,1.6,0,0,1-1.33-.608,2.228,2.228,0,0,1-.443-1.4,2.062,2.062,0,0,1,.507-1.447,1.727,1.727,0,0,1,1.323-.557,2.705,2.705,0,0,1,.567.051c.078.015.145.03.2.047a1.2,1.2,0,0,1,.124.051Z"/><path class="cls-1" d="M49.824,113.562H49.81a1.109,1.109,0,0,1-.49.514,1.447,1.447,0,0,1-1.313.062.981.981,0,0,1-.379-.285,1.257,1.257,0,0,1,.007-1.424,1.22,1.22,0,0,1,.561-.4,3.04,3.04,0,0,1,.742-.164c.262-.016.514-.023.755-.023h.089v-.195q.021-.989-.846-.989a1.971,1.971,0,0,0-1.091.318v-.459a2.659,2.659,0,0,1,1.089-.262q1.317-.013,1.3,1.426v1.69a5.081,5.081,0,0,0,.039.8h-.45Zm-.042-1.315H49.65c-.2,0-.4,0-.6.014a2.13,2.13,0,0,0-.568.129.886.886,0,0,0-.409.276.74.74,0,0,0-.167.506.586.586,0,0,0,.235.526.858.858,0,0,0,.536.165,1.071,1.071,0,0,0,.633-.165.968.968,0,0,0,.331-.374,1.336,1.336,0,0,0,.12-.46c.012-.157.018-.285.018-.386Z"/><path class="cls-1" d="M53.627,110.751h-.842v2.481a.8.8,0,0,0,.117.444.4.4,0,0,0,.377.187.9.9,0,0,0,.423-.092l.028.39c-.054.019-.129.041-.227.065a1.333,1.333,0,0,1-.333.04.908.908,0,0,1-.471-.106.681.681,0,0,1-.251-.279,1.384,1.384,0,0,1-.1-.4c-.014-.151-.021-.314-.021-.49v-2.237H51.6v-.4h.727v-.924l.454-.164v1.088h.842Z"/><path class="cls-1" d="M55.572,109.327h-.453v-.63h.453Zm-.453,1.022h.453v3.825h-.453Z"/><path class="cls-1" d="M57.085,112.261a2.3,2.3,0,0,1,.422-1.395,1.521,1.521,0,0,1,1.306-.609,1.544,1.544,0,0,1,1.322.609,2.579,2.579,0,0,1,0,2.784,1.551,1.551,0,0,1-1.322.616,1.528,1.528,0,0,1-1.306-.616A2.317,2.317,0,0,1,57.085,112.261Zm.5,0a1.877,1.877,0,0,0,.32,1.128,1.031,1.031,0,0,0,.911.474,1.067,1.067,0,0,0,.926-.474,1.944,1.944,0,0,0,.306-1.128,2,2,0,0,0-.306-1.141,1.084,1.084,0,0,0-.926-.46,1.046,1.046,0,0,0-.911.46A1.931,1.931,0,0,0,57.583,112.261Z"/><path class="cls-1" d="M62.129,111.247c0-.293-.009-.593-.028-.9h.442v.682h.015a2.114,2.114,0,0,1,.152-.272,1.06,1.06,0,0,1,.216-.245,1.006,1.006,0,0,1,.34-.19,1.592,1.592,0,0,1,.485-.067,1.144,1.144,0,0,1,.981.422,1.78,1.78,0,0,1,.284,1.047v2.448h-.454v-2.329a1.672,1.672,0,0,0-.195-.869.8.8,0,0,0-.686-.316.937.937,0,0,0-.86.448,1.4,1.4,0,0,0-.181.444,2.256,2.256,0,0,0-.057.506v2.116h-.454Z"/><path class="cls-1" d="M71.685,113.562h-.014a1.119,1.119,0,0,1-.49.514,1.447,1.447,0,0,1-1.313.062.981.981,0,0,1-.379-.285,1.257,1.257,0,0,1,.007-1.424,1.22,1.22,0,0,1,.561-.4,3.042,3.042,0,0,1,.741-.164c.263-.016.515-.023.756-.023h.089v-.195q.021-.989-.846-.989a1.971,1.971,0,0,0-1.091.318v-.459a2.659,2.659,0,0,1,1.089-.262q1.316-.013,1.3,1.426v1.69a5.081,5.081,0,0,0,.039.8h-.45Zm-.042-1.315h-.132c-.2,0-.4,0-.6.014a2.13,2.13,0,0,0-.568.129.886.886,0,0,0-.409.276.74.74,0,0,0-.167.506A.588.588,0,0,0,70,113.7a.863.863,0,0,0,.537.165,1.071,1.071,0,0,0,.633-.165.957.957,0,0,0,.33-.374,1.317,1.317,0,0,0,.121-.46c.012-.157.018-.285.018-.386Z"/><path class="cls-1" d="M73.9,111.247c0-.293-.01-.593-.029-.9h.443v.682h.014a2.251,2.251,0,0,1,.153-.272,1.063,1.063,0,0,1,.556-.435,1.587,1.587,0,0,1,.485-.067,1.144,1.144,0,0,1,.981.422,1.78,1.78,0,0,1,.283,1.047v2.448h-.453v-2.329a1.662,1.662,0,0,0-.2-.869.793.793,0,0,0-.685-.316.938.938,0,0,0-.861.448,1.428,1.428,0,0,0-.181.444,2.315,2.315,0,0,0-.056.506v2.116H73.9Z"/><path class="cls-1" d="M81.584,114.174H81.13v-.608h-.014a1.2,1.2,0,0,1-1.157.7,1.322,1.322,0,0,1-1.138-.579,2.466,2.466,0,0,1-.387-1.426,2.5,2.5,0,0,1,.358-1.439,1.309,1.309,0,0,1,1.167-.565,1.291,1.291,0,0,1,.483.084,1.077,1.077,0,0,1,.348.208,1.025,1.025,0,0,1,.326.442h.014v-2.445h.454Zm-2.652-1.913a3.093,3.093,0,0,0,.049.548,2.155,2.155,0,0,0,.175.528,1.115,1.115,0,0,0,.341.368.858.858,0,0,0,.534.158.867.867,0,0,0,.523-.158,1.106,1.106,0,0,0,.338-.381,2.365,2.365,0,0,0,.238-1.063,3.262,3.262,0,0,0-.049-.557,2.027,2.027,0,0,0-.189-.511,1.125,1.125,0,0,0-.338-.389.925.925,0,0,0-.523-.144.915.915,0,0,0-.534.144.99.99,0,0,0-.341.374,1.875,1.875,0,0,0-.175.511A3.356,3.356,0,0,0,78.932,112.261Z"/><path class="cls-1" d="M86.148,108.939h1.307q1.449-.027,1.488,1.355a1.091,1.091,0,0,1-.329.817,1.411,1.411,0,0,1-.8.392v.015a.624.624,0,0,1,.422.194.724.724,0,0,1,.124.191c.038.073.075.155.111.245l.862,2.026h-.551l-.736-1.77a1.246,1.246,0,0,0-.423-.608.572.572,0,0,0-.249-.084c-.092-.005-.2-.007-.32-.007h-.412v2.469h-.5Zm.5,2.319h.53a1.678,1.678,0,0,0,.863-.21.811.811,0,0,0,.406-.752,1.087,1.087,0,0,0-.1-.51.631.631,0,0,0-.278-.273,1.138,1.138,0,0,0-.409-.109c-.155-.013-.32-.019-.5-.019h-.516Z"/><path class="cls-1" d="M93.324,114.056a3.069,3.069,0,0,1-1.076.21,1.523,1.523,0,0,1-1.3-.579,2.359,2.359,0,0,1-.383-1.426A2.318,2.318,0,0,1,91,110.814a1.359,1.359,0,0,1,1.124-.557,1.288,1.288,0,0,1,1.135.565,2.448,2.448,0,0,1,.341,1.334v.241H91.06a1.625,1.625,0,0,0,.313,1.028,1.056,1.056,0,0,0,.909.438,1.809,1.809,0,0,0,.569-.1,1.85,1.85,0,0,0,.473-.187ZM93.1,112a1.9,1.9,0,0,0-.214-.921.806.806,0,0,0-.736-.414.959.959,0,0,0-.793.421,1.512,1.512,0,0,0-.3.914Z"/><path class="cls-1" d="M94.893,113.621a2,2,0,0,0,.964.242.918.918,0,0,0,.582-.187.6.6,0,0,0,.24-.5.644.644,0,0,0-.269-.535,3.2,3.2,0,0,0-.618-.338c-.111-.054-.216-.111-.319-.172a2.78,2.78,0,0,1-.29-.2,1.109,1.109,0,0,1-.206-.278.766.766,0,0,1-.078-.354.906.906,0,0,1,.376-.81,1.472,1.472,0,0,1,.829-.235,3.73,3.73,0,0,1,.415.03,2.489,2.489,0,0,1,.5.142l-.042.41a2.209,2.209,0,0,0-.824-.179,1.061,1.061,0,0,0-.565.132.463.463,0,0,0-.17.191.657.657,0,0,0-.064.315.364.364,0,0,0,.081.225.825.825,0,0,0,.21.18c.087.05.187.1.3.157s.22.106.326.165a2.077,2.077,0,0,1,.632.422,1.114,1.114,0,0,1,.16,1.232,1.054,1.054,0,0,1-.311.338,1.633,1.633,0,0,1-.865.249,2.973,2.973,0,0,1-1.033-.182Z"/><path class="cls-1" d="M101.167,114.056a3.074,3.074,0,0,1-1.077.21,1.521,1.521,0,0,1-1.3-.579,2.366,2.366,0,0,1-.384-1.426,2.331,2.331,0,0,1,.436-1.447,1.361,1.361,0,0,1,1.124-.557,1.29,1.29,0,0,1,1.136.565,2.448,2.448,0,0,1,.341,1.334v.241H98.9a1.624,1.624,0,0,0,.312,1.028,1.057,1.057,0,0,0,.91.438,1.809,1.809,0,0,0,.569-.1,1.865,1.865,0,0,0,.473-.187ZM100.944,112a1.9,1.9,0,0,0-.213-.921.807.807,0,0,0-.736-.414.959.959,0,0,0-.793.421,1.505,1.505,0,0,0-.3.914Z"/><path class="cls-1" d="M105.147,113.562h-.014a1.109,1.109,0,0,1-.49.514,1.445,1.445,0,0,1-1.312.062.985.985,0,0,1-.38-.285,1.257,1.257,0,0,1,.007-1.424,1.22,1.22,0,0,1,.561-.4,3.042,3.042,0,0,1,.741-.164c.263-.016.515-.023.756-.023h.089v-.195q.022-.989-.846-.989a1.969,1.969,0,0,0-1.091.318v-.459a2.662,2.662,0,0,1,1.089-.262q1.315-.013,1.3,1.426v1.69a5.081,5.081,0,0,0,.039.8h-.45Zm-.042-1.315h-.132c-.2,0-.4,0-.6.014a2.121,2.121,0,0,0-.568.129.881.881,0,0,0-.409.276.74.74,0,0,0-.167.506.588.588,0,0,0,.234.526.863.863,0,0,0,.537.165,1.071,1.071,0,0,0,.633-.165.949.949,0,0,0,.33-.374,1.3,1.3,0,0,0,.121-.46c.012-.157.018-.285.018-.386Z"/><path class="cls-1" d="M107.358,111.2q0-.531-.029-.854h.454v.733h.014a1.623,1.623,0,0,1,.37-.575.8.8,0,0,1,.582-.25,1.525,1.525,0,0,1,.319.044v.491a1.216,1.216,0,0,0-.334-.044.759.759,0,0,0-.443.136,1,1,0,0,0-.285.366,1.952,1.952,0,0,0-.145.489,3.088,3.088,0,0,0-.05.542v1.893h-.453Z"/><path class="cls-1" d="M112.715,110.855a1.93,1.93,0,0,0-.8-.2,1.266,1.266,0,0,0-1.022.441,1.745,1.745,0,0,0-.373,1.16,1.721,1.721,0,0,0,.366,1.121,1.171,1.171,0,0,0,.98.481,2.129,2.129,0,0,0,.837-.172l.043.441a3.01,3.01,0,0,1-.951.134,1.6,1.6,0,0,1-1.33-.608,2.233,2.233,0,0,1-.442-1.4,2.062,2.062,0,0,1,.507-1.447,1.724,1.724,0,0,1,1.322-.557,2.716,2.716,0,0,1,.568.051c.077.015.145.03.2.047a1.115,1.115,0,0,1,.124.051Z"/><path class="cls-1" d="M114.222,108.546h.453v2.445h.015a1.369,1.369,0,0,1,.45-.533,1.314,1.314,0,0,1,.7-.2,1.1,1.1,0,0,1,1.011.451,2.274,2.274,0,0,1,.255,1.176v2.29h-.453v-2.285a3.845,3.845,0,0,0-.029-.48,1.068,1.068,0,0,0-.125-.382.739.739,0,0,0-.727-.367.928.928,0,0,0-.854.473,1.967,1.967,0,0,0-.245.991v2.05h-.453Z"/><path class="cls-1" d="M121.7,108.939h2.478v.446H122.2v1.873h1.883v.447H122.2v2.023h2.07v.446H121.7Z"/><path class="cls-1" d="M127.585,108.939h.569l2.013,5.235h-.522l-.547-1.4h-2.56l-.544,1.4h-.487Zm.248.49-1.1,2.895h2.2Z"/><path class="cls-1" d="M131.629,108.939h2.479v.446h-1.982v1.873h1.883v.447h-1.883v2.023H134.2v.446h-2.568Z"/><path class="cls-1" d="M135.981,108.939h1.307q1.447-.027,1.488,1.355a1.091,1.091,0,0,1-.329.817,1.411,1.411,0,0,1-.8.392v.015a.626.626,0,0,1,.422.194.724.724,0,0,1,.124.191,2.476,2.476,0,0,1,.11.245l.862,2.026h-.55l-.737-1.77a1.234,1.234,0,0,0-.423-.608.563.563,0,0,0-.249-.084c-.091-.005-.2-.007-.319-.007h-.413v2.469h-.5Zm.5,2.319h.531a1.678,1.678,0,0,0,.863-.21.813.813,0,0,0,.406-.752,1.087,1.087,0,0,0-.1-.51.636.636,0,0,0-.278-.273,1.138,1.138,0,0,0-.409-.109c-.156-.013-.321-.019-.5-.019h-.517Z"/><path class="cls-1" d="M32.668,120.246a2.557,2.557,0,0,0-1.033-.229,1.232,1.232,0,0,0-.263.029.818.818,0,0,0-.26.115.62.62,0,0,0-.2.227.746.746,0,0,0-.078.36.4.4,0,0,0,.1.278,1.19,1.19,0,0,0,.255.2,2.821,2.821,0,0,0,.363.164c.128.057.261.114.4.173a3.406,3.406,0,0,1,.409.194,1.5,1.5,0,0,1,.355.293,1.444,1.444,0,0,1,.256.4,1.707,1.707,0,0,1,.085.576,1.389,1.389,0,0,1-.558,1.217,2.343,2.343,0,0,1-1.346.371,2.991,2.991,0,0,1-.661-.063c-.184-.034-.4-.082-.642-.142l.095-.94a2.27,2.27,0,0,0,1.148.323,1.187,1.187,0,0,0,.6-.165.557.557,0,0,0,.3-.509.6.6,0,0,0-.085-.324.847.847,0,0,0-.256-.223,6.241,6.241,0,0,0-.763-.35,2.428,2.428,0,0,1-.4-.209,1.9,1.9,0,0,1-.367-.271,1.448,1.448,0,0,1-.255-.4,1.406,1.406,0,0,1-.1-.55,1.445,1.445,0,0,1,.558-1.248,2.13,2.13,0,0,1,1.215-.352,3.849,3.849,0,0,1,1.215.185Z"/><path class="cls-1" d="M34.458,121.392h-.717v-.732h.717v-.774l.974-.322v1.1H36.3v.732h-.868V123.2a.837.837,0,0,0,.092.433.379.379,0,0,0,.367.2.815.815,0,0,0,.444-.106l.028.792a2.458,2.458,0,0,1-.72.092,1.1,1.1,0,0,1-1.185-1.252Z"/><path class="cls-1" d="M37.335,120.865a3.178,3.178,0,0,1,1.3-.294,1.41,1.41,0,0,1,1.615,1.627v.5c0,.376.005.7.017.967.009.285.023.574.042.865h-.859a4.879,4.879,0,0,1-.043-.58H39.4a1.211,1.211,0,0,1-.487.488,1.343,1.343,0,0,1-.671.184,1.493,1.493,0,0,1-.9-.3,1,1,0,0,1-.412-.85,1.2,1.2,0,0,1,.189-.7,1.06,1.06,0,0,1,.45-.4,2.009,2.009,0,0,1,.619-.187,5.951,5.951,0,0,1,.639-.036h.539a.855.855,0,0,0-.206-.653.934.934,0,0,0-.639-.183,1.853,1.853,0,0,0-1.154.421Zm.525,2.545a.388.388,0,0,0,.182.352.723.723,0,0,0,.437.122.793.793,0,0,0,.681-.346,1.423,1.423,0,0,0,.206-.8h-.589a1.1,1.1,0,0,0-.174.014,1.379,1.379,0,0,0-.359.089.615.615,0,0,0-.266.2A.523.523,0,0,0,37.86,123.41Z"/><path class="cls-1" d="M41.777,121.392H41.06v-.732h.717v-.774l.974-.322v1.1h.868v.732h-.868V123.2a.837.837,0,0,0,.092.433.379.379,0,0,0,.366.2.819.819,0,0,0,.445-.106l.028.792a2.458,2.458,0,0,1-.72.092,1.1,1.1,0,0,1-1.185-1.252Z"/><path class="cls-1" d="M47.493,124.31a2.483,2.483,0,0,1-1.286.307,1.783,1.783,0,0,1-1.958-2.005,2.341,2.341,0,0,1,.437-1.447,1.56,1.56,0,0,1,1.3-.594,1.535,1.535,0,0,1,1.418.652,3.3,3.3,0,0,1,.366,1.682H45.179a.99.99,0,0,0,.327.714,1.065,1.065,0,0,0,.743.265,1.83,1.83,0,0,0,.668-.122,2.98,2.98,0,0,0,.576-.272Zm-.653-2.094a1.152,1.152,0,0,0-.2-.64.709.709,0,0,0-.594-.272.821.821,0,0,0-.623.257,1.115,1.115,0,0,0-.245.655Z"/><path class="cls-1" d="M53.789,120.246a2.566,2.566,0,0,0-1.034-.229,1.239,1.239,0,0,0-.263.029.818.818,0,0,0-.26.115.62.62,0,0,0-.2.227.746.746,0,0,0-.078.36.4.4,0,0,0,.1.278,1.2,1.2,0,0,0,.256.2,2.746,2.746,0,0,0,.362.164c.128.057.262.114.4.173a3.335,3.335,0,0,1,.409.194,1.5,1.5,0,0,1,.355.293,1.444,1.444,0,0,1,.256.4,1.707,1.707,0,0,1,.085.576,1.391,1.391,0,0,1-.557,1.217,2.348,2.348,0,0,1-1.347.371,2.991,2.991,0,0,1-.661-.063c-.184-.034-.4-.082-.642-.142l.095-.94a2.27,2.27,0,0,0,1.148.323,1.187,1.187,0,0,0,.6-.165.557.557,0,0,0,.3-.509.6.6,0,0,0-.085-.324.847.847,0,0,0-.256-.223,6.241,6.241,0,0,0-.763-.35,2.469,2.469,0,0,1-.4-.209,1.865,1.865,0,0,1-.366-.271,1.45,1.45,0,0,1-.256-.4,1.407,1.407,0,0,1-.1-.55,1.442,1.442,0,0,1,.557-1.248,2.132,2.132,0,0,1,1.215-.352,3.849,3.849,0,0,1,1.215.185Z"/><path class="cls-1" d="M58.261,124.31a2.481,2.481,0,0,1-1.286.307,1.782,1.782,0,0,1-1.957-2.005,2.341,2.341,0,0,1,.437-1.447,1.559,1.559,0,0,1,1.3-.594,1.533,1.533,0,0,1,1.417.652,3.283,3.283,0,0,1,.366,1.682h-2.59a.99.99,0,0,0,.327.714,1.065,1.065,0,0,0,.743.265,1.834,1.834,0,0,0,.668-.122,3,3,0,0,0,.575-.272Zm-.653-2.094a1.144,1.144,0,0,0-.2-.64.709.709,0,0,0-.594-.272.819.819,0,0,0-.622.257,1.109,1.109,0,0,0-.245.655Z"/><path class="cls-1" d="M61.972,121.491a1.132,1.132,0,0,0-.277-.107,1.769,1.769,0,0,0-.383-.037.893.893,0,0,0-.714.331,1.36,1.36,0,0,0-.277.9,1.485,1.485,0,0,0,.256.892.87.87,0,0,0,.756.371,1.333,1.333,0,0,0,.422-.07,1.614,1.614,0,0,0,.327-.113l.043.832a1.934,1.934,0,0,1-.437.088,3.155,3.155,0,0,1-.537.041,1.67,1.67,0,0,1-1.375-.587,2.188,2.188,0,0,1-.473-1.454,2.154,2.154,0,0,1,.473-1.43,1.65,1.65,0,0,1,1.339-.575,3.012,3.012,0,0,1,.946.128Z"/><path class="cls-1" d="M63.011,120.66h.865v.879h.014a1.282,1.282,0,0,1,.319-.623.915.915,0,0,1,.706-.345,1.609,1.609,0,0,1,.3.03v1.013a.945.945,0,0,0-.436-.081.6.6,0,0,0-.451.165.973.973,0,0,0-.238.413,2.076,2.076,0,0,0-.088.51q-.015.263-.015.486v1.418h-.973Z"/><path class="cls-1" d="M68.887,124.31a2.481,2.481,0,0,1-1.286.307,1.782,1.782,0,0,1-1.957-2.005,2.341,2.341,0,0,1,.437-1.447,1.559,1.559,0,0,1,1.3-.594,1.533,1.533,0,0,1,1.417.652,3.283,3.283,0,0,1,.366,1.682h-2.59a.99.99,0,0,0,.327.714,1.065,1.065,0,0,0,.743.265,1.834,1.834,0,0,0,.668-.122,3,3,0,0,0,.575-.272Zm-.653-2.094a1.144,1.144,0,0,0-.2-.64.709.709,0,0,0-.594-.272.819.819,0,0,0-.622.257,1.109,1.109,0,0,0-.245.655Z"/><path class="cls-1" d="M70.49,121.392h-.718v-.732h.718v-.774l.974-.322v1.1h.868v.732h-.868V123.2a.837.837,0,0,0,.092.433.379.379,0,0,0,.366.2.821.821,0,0,0,.445-.106l.028.792a2.463,2.463,0,0,1-.72.092,1.1,1.1,0,0,1-1.185-1.252Z"/><path class="cls-1" d="M73.367,120.865a3.177,3.177,0,0,1,1.3-.294,1.411,1.411,0,0,1,1.616,1.627v.5q0,.564.016.967c.01.285.024.574.043.865h-.86a5.067,5.067,0,0,1-.042-.58h-.015a1.208,1.208,0,0,1-.486.488,1.343,1.343,0,0,1-.671.184,1.491,1.491,0,0,1-.9-.3,1,1,0,0,1-.412-.85,1.2,1.2,0,0,1,.188-.7,1.068,1.068,0,0,1,.451-.4,2,2,0,0,1,.618-.187,5.965,5.965,0,0,1,.639-.036h.54a.855.855,0,0,0-.206-.653.934.934,0,0,0-.639-.183,1.851,1.851,0,0,0-1.154.421Zm.525,2.545a.389.389,0,0,0,.181.352.727.727,0,0,0,.437.122.793.793,0,0,0,.682-.346,1.423,1.423,0,0,0,.206-.8h-.589a1.117,1.117,0,0,0-.175.014,1.371,1.371,0,0,0-.358.089.624.624,0,0,0-.267.2A.527.527,0,0,0,73.892,123.41Z"/><path class="cls-1" d="M77.512,120.66h.865v.879h.015a1.271,1.271,0,0,1,.318-.623.915.915,0,0,1,.706-.345,1.628,1.628,0,0,1,.3.03v1.013a.95.95,0,0,0-.437-.081.592.592,0,0,0-.45.165.953.953,0,0,0-.238.413,2.076,2.076,0,0,0-.089.51c-.009.175-.014.337-.014.486v1.418h-.974Z"/><path class="cls-1" d="M80.545,119h.974v.96h-.974Zm0,1.664h.974v3.865h-.974Z"/><path class="cls-1" d="M82.883,120.865a3.178,3.178,0,0,1,1.3-.294A1.411,1.411,0,0,1,85.8,122.2v.5q0,.564.016.967c.01.285.024.574.043.865H85a5.067,5.067,0,0,1-.042-.58h-.015a1.2,1.2,0,0,1-.486.488,1.343,1.343,0,0,1-.671.184,1.491,1.491,0,0,1-.9-.3,1,1,0,0,1-.412-.85,1.2,1.2,0,0,1,.189-.7,1.06,1.06,0,0,1,.45-.4,2.011,2.011,0,0,1,.618-.187,5.983,5.983,0,0,1,.64-.036h.539a.855.855,0,0,0-.206-.653.934.934,0,0,0-.639-.183,1.853,1.853,0,0,0-1.154.421Zm.525,2.545a.389.389,0,0,0,.181.352.727.727,0,0,0,.437.122.793.793,0,0,0,.682-.346,1.423,1.423,0,0,0,.206-.8h-.589a1.127,1.127,0,0,0-.175.014,1.371,1.371,0,0,0-.358.089.624.624,0,0,0-.267.2A.527.527,0,0,0,83.408,123.41Z"/><path class="cls-1" d="M87.325,121.392h-.718v-.732h.718v-.774l.973-.322v1.1h.868v.732H88.3V123.2a.827.827,0,0,0,.093.433.379.379,0,0,0,.366.2.815.815,0,0,0,.444-.106l.028.792a2.453,2.453,0,0,1-.72.092,1.1,1.1,0,0,1-1.184-1.252Z"/><path class="cls-1" d="M92.591,121.392h-.719v-.732h.719v-.539a1.4,1.4,0,0,1,.313-.954,1.11,1.11,0,0,1,.877-.359,3.476,3.476,0,0,1,.714.081l-.078.828a.889.889,0,0,0-.16-.094.715.715,0,0,0-.262-.038.355.355,0,0,0-.334.18.864.864,0,0,0-.1.412v.483h.852v.732h-.852v3.133h-.974Z"/><path class="cls-1" d="M95.026,122.619a2.028,2.028,0,0,1,.565-1.509,2.08,2.08,0,0,1,2.794,0,2.058,2.058,0,0,1,.561,1.509,2.022,2.022,0,0,1-.511,1.411,2.076,2.076,0,0,1-2.893,0A2.012,2.012,0,0,1,95.026,122.619Zm1.018-.121a1.46,1.46,0,0,0,.018.228c.01.083.021.162.035.238a1.448,1.448,0,0,0,.146.438.806.806,0,0,0,.291.308.737.737,0,0,0,.451.129.82.82,0,0,0,.763-.429,1.378,1.378,0,0,0,.145-.438,3.075,3.075,0,0,0,.035-.474,1.412,1.412,0,0,0-.227-.805.836.836,0,0,0-.716-.346.806.806,0,0,0-.7.354A1.332,1.332,0,0,0,96.044,122.5Z"/><path class="cls-1" d="M99.987,120.66h.865v.879h.014a1.273,1.273,0,0,1,.319-.623.914.914,0,0,1,.7-.345,1.619,1.619,0,0,1,.3.03v1.013a.95.95,0,0,0-.437-.081.6.6,0,0,0-.45.165.973.973,0,0,0-.238.413,2.076,2.076,0,0,0-.089.51c-.009.175-.014.337-.014.486v1.418h-.973Z"/><path class="cls-1" d="M105.279,119.289h3v.82H106.3v1.3h1.811v.819H106.3v1.479h2v.82h-3.013Z"/><path class="cls-1" d="M111.971,124.091h-.014a1.423,1.423,0,0,1-1.15.526,1.342,1.342,0,0,1-1.214-.623,2.62,2.62,0,0,1-.355-1.412,2.584,2.584,0,0,1,.355-1.411,1.347,1.347,0,0,1,1.214-.6,1.328,1.328,0,0,1,1.117.539h.018V118.9h.975v5.629h-.946Zm-1.715-1.509a1.907,1.907,0,0,0,.177.828.872.872,0,0,0,.252.3.587.587,0,0,0,.393.129.641.641,0,0,0,.415-.129.837.837,0,0,0,.258-.3A1.373,1.373,0,0,0,111.9,123a2.661,2.661,0,0,0,.035-.419,1.8,1.8,0,0,0-.194-.823.964.964,0,0,0-.27-.3.714.714,0,0,0-.4-.11.671.671,0,0,0-.638.412,1.477,1.477,0,0,0-.124.4A2.071,2.071,0,0,0,110.256,122.582Z"/><path class="cls-1" d="M117.613,124.525h-.922V124h-.015a1.517,1.517,0,0,1-1.226.617,1.1,1.1,0,0,1-.961-.437,1.769,1.769,0,0,1-.313-1.081V120.66h.974v2.068a1.063,1.063,0,0,0,.015.172c0,.058,0,.121.006.187a1.936,1.936,0,0,0,.064.368.712.712,0,0,0,.191.271.513.513,0,0,0,.355.113.677.677,0,0,0,.443-.142.83.83,0,0,0,.251-.323,1.263,1.263,0,0,0,.132-.416,2.952,2.952,0,0,0,.031-.406V120.66h.975Z"/><path class="cls-1" d="M121.3,121.491a1.116,1.116,0,0,0-.277-.107,1.755,1.755,0,0,0-.383-.037.893.893,0,0,0-.714.331,1.359,1.359,0,0,0-.276.9,1.485,1.485,0,0,0,.255.892.87.87,0,0,0,.757.371,1.338,1.338,0,0,0,.422-.07,1.6,1.6,0,0,0,.326-.113l.043.832a1.923,1.923,0,0,1-.437.088,3.138,3.138,0,0,1-.537.041,1.671,1.671,0,0,1-1.375-.587,2.194,2.194,0,0,1-.473-1.454,2.159,2.159,0,0,1,.473-1.43,1.652,1.652,0,0,1,1.34-.575,3.006,3.006,0,0,1,.945.128Z"/><path class="cls-1" d="M122.478,120.865a3.182,3.182,0,0,1,1.3-.294A1.41,1.41,0,0,1,125.4,122.2v.5q0,.564.017.967c.009.285.024.574.043.865h-.86a5.1,5.1,0,0,1-.043-.58h-.014a1.211,1.211,0,0,1-.487.488,1.34,1.34,0,0,1-.671.184,1.488,1.488,0,0,1-.895-.3,1,1,0,0,1-.412-.85,1.2,1.2,0,0,1,.188-.7,1.06,1.06,0,0,1,.45-.4,2.009,2.009,0,0,1,.619-.187,5.951,5.951,0,0,1,.639-.036h.539a.851.851,0,0,0-.206-.653.931.931,0,0,0-.638-.183,1.856,1.856,0,0,0-1.155.421ZM123,123.41a.388.388,0,0,0,.182.352.725.725,0,0,0,.437.122.791.791,0,0,0,.681-.346,1.415,1.415,0,0,0,.206-.8h-.589a1.114,1.114,0,0,0-.174.014,1.389,1.389,0,0,0-.359.089.615.615,0,0,0-.266.2A.523.523,0,0,0,123,123.41Z"/><path class="cls-1" d="M126.92,121.392H126.2v-.732h.717v-.774l.974-.322v1.1h.867v.732h-.867V123.2a.827.827,0,0,0,.092.433.379.379,0,0,0,.366.2.813.813,0,0,0,.444-.106l.029.792a2.463,2.463,0,0,1-.72.092,1.1,1.1,0,0,1-1.185-1.252Z"/><path class="cls-1" d="M129.656,119h.973v.96h-.973Zm0,1.664h.973v3.865h-.973Z"/><path class="cls-1" d="M131.589,122.619a2.029,2.029,0,0,1,.566-1.509,2.08,2.08,0,0,1,2.794,0,2.057,2.057,0,0,1,.56,1.509,2.026,2.026,0,0,1-.51,1.411,1.908,1.908,0,0,1-1.453.587,1.889,1.889,0,0,1-1.441-.587A2.012,2.012,0,0,1,131.589,122.619Zm1.019-.121a1.59,1.59,0,0,0,.017.228c.01.083.022.162.036.238a1.475,1.475,0,0,0,.145.438.806.806,0,0,0,.291.308.739.739,0,0,0,.451.129.865.865,0,0,0,.472-.121.853.853,0,0,0,.291-.308,1.4,1.4,0,0,0,.146-.438,3.2,3.2,0,0,0,.035-.474,1.405,1.405,0,0,0-.228-.805.834.834,0,0,0-.716-.346.807.807,0,0,0-.7.354A1.332,1.332,0,0,0,132.608,122.5Z"/><path class="cls-1" d="M136.528,120.66h.922v.527h.013a1.449,1.449,0,0,1,1.231-.616,1.148,1.148,0,0,1,.972.428,1.836,1.836,0,0,1,.3,1.085v2.441h-.973v-2.067c0-.124,0-.251-.011-.384a1.03,1.03,0,0,0-.071-.352.535.535,0,0,0-.181-.279.754.754,0,0,0-.79.033.974.974,0,0,0-.262.322,1.519,1.519,0,0,0-.132.411,2.335,2.335,0,0,0-.042.422v1.894h-.973Z"/><path class="cls-1" d="M141.354,123.473h1.053l-.659,1.876h-.858Z"/><path class="cls-1" d="M29.854,129.638h1.1q.419,0,.84.008a2.594,2.594,0,0,1,.77.15,1.1,1.1,0,0,1,.568.418,1.516,1.516,0,0,1,.209.842,1.223,1.223,0,0,1-.277.8,1.17,1.17,0,0,1-.771.41v.016a.493.493,0,0,1,.338.189,1.445,1.445,0,0,1,.2.352l.814,2.048H32.515L31.9,133.24a.929.929,0,0,0-.241-.421.739.739,0,0,0-.465-.121h-.326v2.176H29.854Zm1.018,2.24h.333a2.517,2.517,0,0,0,.394-.03,1.027,1.027,0,0,0,.34-.1.66.66,0,0,0,.255-.218.776.776,0,0,0,.085-.387.747.747,0,0,0-.085-.383.657.657,0,0,0-.255-.207,1.293,1.293,0,0,0-.34-.088c-.133,0-.264-.008-.394-.008h-.333Z"/><path class="cls-1" d="M37.552,134.66a2.474,2.474,0,0,1-1.286.306,1.781,1.781,0,0,1-1.958-2,2.343,2.343,0,0,1,.437-1.447,1.555,1.555,0,0,1,1.3-.594,1.535,1.535,0,0,1,1.418.653,3.3,3.3,0,0,1,.366,1.681H35.238a.988.988,0,0,0,.327.713,1.056,1.056,0,0,0,.743.266,1.847,1.847,0,0,0,.668-.121,2.929,2.929,0,0,0,.576-.274Zm-.653-2.094a1.158,1.158,0,0,0-.2-.641.711.711,0,0,0-.594-.271.826.826,0,0,0-.623.258,1.109,1.109,0,0,0-.245.654Z"/><path class="cls-1" d="M41.06,131.822a2.747,2.747,0,0,0-.424-.128,2.5,2.5,0,0,0-.482-.04.9.9,0,0,0-.391.084.364.364,0,0,0-.206.344c0,.147.1.25.278.308.086.034.181.067.286.1s.21.062.315.1a2.178,2.178,0,0,1,.33.136,1.456,1.456,0,0,1,.271.213.865.865,0,0,1,.2.308,1.33,1.33,0,0,1,.069.458,1.1,1.1,0,0,1-.493.967,2.07,2.07,0,0,1-1.113.293,4.388,4.388,0,0,1-1.128-.164l.059-.826a2.054,2.054,0,0,0,1,.258.946.946,0,0,0,.426-.107.373.373,0,0,0,.236-.367.428.428,0,0,0-.07-.249.539.539,0,0,0-.2-.142,5.877,5.877,0,0,0-.6-.2,2.259,2.259,0,0,1-.316-.129,1.059,1.059,0,0,1-.286-.193.838.838,0,0,1-.2-.3,1.144,1.144,0,0,1,.388-1.343,1.831,1.831,0,0,1,1.031-.286,4.478,4.478,0,0,1,.61.036c.17.031.328.066.476.107Z"/><path class="cls-1" d="M45.28,134.66a2.471,2.471,0,0,1-1.286.306,1.78,1.78,0,0,1-1.957-2,2.343,2.343,0,0,1,.437-1.447,1.553,1.553,0,0,1,1.3-.594,1.533,1.533,0,0,1,1.417.653,3.279,3.279,0,0,1,.366,1.681h-2.59a.988.988,0,0,0,.327.713,1.056,1.056,0,0,0,.743.266,1.854,1.854,0,0,0,.668-.121,2.948,2.948,0,0,0,.575-.274Zm-.653-2.094a1.15,1.15,0,0,0-.2-.641.711.711,0,0,0-.594-.271.823.823,0,0,0-.622.258,1.1,1.1,0,0,0-.245.654Z"/><path class="cls-1" d="M46.728,131.214a3.2,3.2,0,0,1,1.3-.293,1.411,1.411,0,0,1,1.616,1.627v.494c0,.377.005.7.016.967q.015.429.043.865h-.86a5.052,5.052,0,0,1-.042-.579h-.015a1.227,1.227,0,0,1-.486.488,1.335,1.335,0,0,1-.672.183,1.483,1.483,0,0,1-.9-.3,1,1,0,0,1-.412-.85,1.2,1.2,0,0,1,.188-.7,1.054,1.054,0,0,1,.451-.4,2.019,2.019,0,0,1,.618-.185,5.5,5.5,0,0,1,.639-.037h.54a.854.854,0,0,0-.206-.653.929.929,0,0,0-.639-.183,1.852,1.852,0,0,0-1.154.422Zm.525,2.545a.389.389,0,0,0,.181.354.732.732,0,0,0,.437.121.79.79,0,0,0,.682-.346,1.422,1.422,0,0,0,.206-.8h-.59A1,1,0,0,0,48,133.1a1.332,1.332,0,0,0-.358.088.62.62,0,0,0-.267.206A.523.523,0,0,0,47.253,133.759Z"/><path class="cls-1" d="M50.873,131.009h.865v.879h.014a1.294,1.294,0,0,1,.319-.623.912.912,0,0,1,.705-.344,1.529,1.529,0,0,1,.3.03v1.013a.945.945,0,0,0-.436-.081.6.6,0,0,0-.451.165.969.969,0,0,0-.238.413,2.093,2.093,0,0,0-.089.509c-.009.176-.014.338-.014.487v1.417h-.973Z"/><path class="cls-1" d="M56.174,131.841a1.078,1.078,0,0,0-.277-.107,1.761,1.761,0,0,0-.383-.036.887.887,0,0,0-.714.331,1.354,1.354,0,0,0-.277.9,1.484,1.484,0,0,0,.256.893.87.87,0,0,0,.756.372,1.373,1.373,0,0,0,.423-.07,1.678,1.678,0,0,0,.326-.115l.043.833a1.991,1.991,0,0,1-.437.088,3.155,3.155,0,0,1-.537.04,1.669,1.669,0,0,1-1.375-.586,2.191,2.191,0,0,1-.473-1.455,2.148,2.148,0,0,1,.473-1.428,1.652,1.652,0,0,1,1.339-.576,3.044,3.044,0,0,1,.946.127Z"/><path class="cls-1" d="M57.191,129.247h.974v2.29h.014a1.342,1.342,0,0,1,1.178-.616,1.149,1.149,0,0,1,.972.428,1.835,1.835,0,0,1,.3,1.086v2.439h-.974v-2.065c0-.124,0-.253-.011-.386a1,1,0,0,0-.071-.351.544.544,0,0,0-.18-.28.659.659,0,0,0-.372-.094.642.642,0,0,0-.418.128.978.978,0,0,0-.263.323,1.472,1.472,0,0,0-.131.411,2.326,2.326,0,0,0-.042.422v1.892h-.974Z"/><path class="cls-1" d="M64.247,131.214a3.209,3.209,0,0,1,1.3-.293,1.41,1.41,0,0,1,1.615,1.627v.494c0,.377,0,.7.017.967.009.286.024.574.042.865h-.859a4.865,4.865,0,0,1-.043-.579h-.014a1.223,1.223,0,0,1-.487.488,1.331,1.331,0,0,1-.671.183,1.486,1.486,0,0,1-.9-.3,1,1,0,0,1-.412-.85,1.191,1.191,0,0,1,.189-.7,1.052,1.052,0,0,1,.45-.4,2.033,2.033,0,0,1,.619-.185,5.483,5.483,0,0,1,.639-.037h.539a.854.854,0,0,0-.206-.653.927.927,0,0,0-.639-.183,1.856,1.856,0,0,0-1.154.422Zm.525,2.545a.39.39,0,0,0,.182.354.73.73,0,0,0,.437.121.788.788,0,0,0,.681-.346,1.422,1.422,0,0,0,.206-.8h-.589a1,1,0,0,0-.174.016,1.339,1.339,0,0,0-.359.088.617.617,0,0,0-.266.206A.524.524,0,0,0,64.772,133.759Z"/><path class="cls-1" d="M68.37,131.009h.922v.528h.014a1.449,1.449,0,0,1,1.231-.616,1.148,1.148,0,0,1,.971.428,1.828,1.828,0,0,1,.3,1.086v2.439h-.974v-2.065c0-.124,0-.253-.011-.386a1,1,0,0,0-.071-.351.544.544,0,0,0-.18-.28.657.657,0,0,0-.372-.094.642.642,0,0,0-.418.128.963.963,0,0,0-.262.323,1.474,1.474,0,0,0-.132.411,2.326,2.326,0,0,0-.042.422v1.892H68.37Z"/><path class="cls-1" d="M75.557,134.441h-.015a1.416,1.416,0,0,1-1.149.525,1.335,1.335,0,0,1-1.214-.623,2.608,2.608,0,0,1-.355-1.41,2.577,2.577,0,0,1,.355-1.411,1.479,1.479,0,0,1,2.332-.062h.017v-2.213H76.5v5.627h-.945Zm-1.715-1.508a1.886,1.886,0,0,0,.178.826.865.865,0,0,0,.251.3.587.587,0,0,0,.393.129.641.641,0,0,0,.415-.129.843.843,0,0,0,.258-.3,1.357,1.357,0,0,0,.145-.408,2.539,2.539,0,0,0,.036-.418,1.8,1.8,0,0,0-.2-.824.959.959,0,0,0-.269-.3.712.712,0,0,0-.4-.11.67.67,0,0,0-.638.411,1.481,1.481,0,0,0-.124.4A2.09,2.09,0,0,0,73.842,132.933Z"/><path class="cls-1" d="M79.959,129.638h1.018v5.236H79.959Z"/><path class="cls-1" d="M82.157,131.009h.922v.528h.014a1.449,1.449,0,0,1,1.231-.616,1.148,1.148,0,0,1,.971.428,1.828,1.828,0,0,1,.3,1.086v2.439h-.974v-2.065c0-.124,0-.253-.011-.386a1.024,1.024,0,0,0-.07-.351.552.552,0,0,0-.181-.28.657.657,0,0,0-.372-.094.644.644,0,0,0-.418.128.963.963,0,0,0-.262.323,1.474,1.474,0,0,0-.132.411,2.326,2.326,0,0,0-.042.422v1.892h-.974Z"/><path class="cls-1" d="M86.853,131.009h.922v.528h.014a1.449,1.449,0,0,1,1.231-.616,1.148,1.148,0,0,1,.971.428,1.835,1.835,0,0,1,.3,1.086v2.439h-.974v-2.065c0-.124,0-.253-.011-.386a1,1,0,0,0-.071-.351.544.544,0,0,0-.18-.28.659.659,0,0,0-.372-.094.642.642,0,0,0-.418.128.978.978,0,0,0-.263.323,1.506,1.506,0,0,0-.131.411,2.326,2.326,0,0,0-.042.422v1.892h-.974Z"/><path class="cls-1" d="M91.307,132.969a2.031,2.031,0,0,1,.565-1.509,2.08,2.08,0,0,1,2.794,0,2.055,2.055,0,0,1,.561,1.509,2.023,2.023,0,0,1-.512,1.411,2.078,2.078,0,0,1-2.893,0A2.016,2.016,0,0,1,91.307,132.969Zm1.018-.121a1.479,1.479,0,0,0,.018.228c.01.084.021.163.035.239a1.48,1.48,0,0,0,.146.437.816.816,0,0,0,.291.309.737.737,0,0,0,.451.129.855.855,0,0,0,.471-.122.832.832,0,0,0,.291-.309,1.341,1.341,0,0,0,.146-.437,3.225,3.225,0,0,0,.035-.474,1.42,1.42,0,0,0-.227-.806.836.836,0,0,0-.716-.344.808.808,0,0,0-.7.352A1.346,1.346,0,0,0,92.325,132.848Z"/><path class="cls-1" d="M95.75,131.009h1.077l.964,2.819h.014l.918-2.819H99.7l-1.382,3.865H97.182Z"/><path class="cls-1" d="M100.694,131.214a3.206,3.206,0,0,1,1.3-.293,1.411,1.411,0,0,1,1.615,1.627v.494c0,.377.005.7.016.967q.015.429.042.865h-.859a5.052,5.052,0,0,1-.042-.579h-.015a1.227,1.227,0,0,1-.486.488,1.335,1.335,0,0,1-.672.183,1.481,1.481,0,0,1-.9-.3,1,1,0,0,1-.412-.85,1.2,1.2,0,0,1,.188-.7,1.06,1.06,0,0,1,.451-.4,2.036,2.036,0,0,1,.618-.185,5.5,5.5,0,0,1,.639-.037h.54a.854.854,0,0,0-.206-.653.932.932,0,0,0-.64-.183,1.854,1.854,0,0,0-1.153.422Zm.525,2.545a.391.391,0,0,0,.181.354.732.732,0,0,0,.437.121.79.79,0,0,0,.682-.346,1.422,1.422,0,0,0,.206-.8h-.59a1,1,0,0,0-.174.016,1.323,1.323,0,0,0-.358.088.626.626,0,0,0-.267.206A.523.523,0,0,0,101.219,133.759Z"/><path class="cls-1" d="M105.135,131.742h-.718v-.733h.718v-.773l.974-.322v1.095h.868v.733h-.868v1.808a.827.827,0,0,0,.093.434.377.377,0,0,0,.366.206.817.817,0,0,0,.444-.107l.029.791a2.436,2.436,0,0,1-.721.092,1.1,1.1,0,0,1-1.185-1.251Z"/><path class="cls-1" d="M107.872,129.345h.973v.961h-.973Zm0,1.664h.973v3.865h-.973Z"/><path class="cls-1" d="M109.8,132.969a2.032,2.032,0,0,1,.566-1.509,2.08,2.08,0,0,1,2.794,0,2.059,2.059,0,0,1,.56,1.509,2.022,2.022,0,0,1-.511,1.411,2.078,2.078,0,0,1-2.893,0A2.012,2.012,0,0,1,109.8,132.969Zm1.019-.121a1.612,1.612,0,0,0,.017.228c.01.084.022.163.035.239a1.509,1.509,0,0,0,.146.437.816.816,0,0,0,.291.309.739.739,0,0,0,.451.129.856.856,0,0,0,.472-.122.841.841,0,0,0,.291-.309,1.364,1.364,0,0,0,.145-.437,3.093,3.093,0,0,0,.036-.474,1.421,1.421,0,0,0-.228-.806.835.835,0,0,0-.716-.344.805.805,0,0,0-.7.352A1.339,1.339,0,0,0,110.823,132.848Z"/><path class="cls-1" d="M114.743,131.009h.922v.528h.014a1.449,1.449,0,0,1,1.231-.616,1.148,1.148,0,0,1,.971.428,1.828,1.828,0,0,1,.3,1.086v2.439h-.974v-2.065c0-.124,0-.253-.011-.386a1.024,1.024,0,0,0-.07-.351.559.559,0,0,0-.181-.28.659.659,0,0,0-.372-.094.642.642,0,0,0-.418.128.966.966,0,0,0-.263.323,1.506,1.506,0,0,0-.131.411,2.332,2.332,0,0,0-.043.422v1.892h-.973Z"/><path class="cls-1" d="M124.451,130.6a2.581,2.581,0,0,0-1.034-.227,1.184,1.184,0,0,0-.263.029.789.789,0,0,0-.259.114.611.611,0,0,0-.2.227.742.742,0,0,0-.078.359.411.411,0,0,0,.1.279,1.19,1.19,0,0,0,.256.2,2.951,2.951,0,0,0,.362.165c.128.055.262.114.4.173a3.387,3.387,0,0,1,.408.193,1.512,1.512,0,0,1,.355.294,1.41,1.41,0,0,1,.256.4,1.719,1.719,0,0,1,.085.576,1.386,1.386,0,0,1-.557,1.217,2.34,2.34,0,0,1-1.346.371,2.991,2.991,0,0,1-.661-.062c-.185-.033-.4-.081-.643-.142l.1-.94a2.285,2.285,0,0,0,1.147.324,1.185,1.185,0,0,0,.6-.166.56.56,0,0,0,.3-.51.6.6,0,0,0-.085-.322.866.866,0,0,0-.256-.225,6.337,6.337,0,0,0-.764-.348,2.6,2.6,0,0,1-.4-.209,1.87,1.87,0,0,1-.366-.272,1.445,1.445,0,0,1-.256-.4,1.41,1.41,0,0,1-.1-.55,1.44,1.44,0,0,1,.558-1.248,2.128,2.128,0,0,1,1.215-.353,3.819,3.819,0,0,1,1.214.186Z"/><path class="cls-1" d="M126.006,129.638h3v.82h-1.981v1.3h1.81v.82h-1.81v1.477h2v.82h-3.013Z"/><path class="cls-1" d="M130.208,129.638h1.1c.279,0,.56,0,.841.008a2.607,2.607,0,0,1,.77.15,1.1,1.1,0,0,1,.568.418,1.516,1.516,0,0,1,.209.842,1.223,1.223,0,0,1-.277.8,1.17,1.17,0,0,1-.771.41v.016a.493.493,0,0,1,.338.189,1.478,1.478,0,0,1,.2.352l.813,2.048h-1.131l-.611-1.634a.929.929,0,0,0-.241-.421.739.739,0,0,0-.465-.121h-.327v2.176h-1.017Zm1.017,2.24h.334a2.517,2.517,0,0,0,.394-.03,1.014,1.014,0,0,0,.339-.1.662.662,0,0,0,.256-.218.776.776,0,0,0,.085-.387.747.747,0,0,0-.085-.383.66.66,0,0,0-.256-.207,1.276,1.276,0,0,0-.339-.088c-.133,0-.264-.008-.394-.008h-.334Z"/><path class="cls-1" d="M134.9,129.638h1.017v5.236H134.9Z"/><path class="cls-2" d="M21.266,25.908A28.7,28.7,0,0,0,10.653,24.17h0A28.707,28.707,0,0,0,.037,25.908s-.356,7.7,1.151,12.048a16.091,16.091,0,0,0,9.462,9.8h0a16.093,16.093,0,0,0,9.462-9.8C21.622,33.6,21.266,25.908,21.266,25.908Z"/><polygon class="cls-1" points="17.705 32.543 17.705 36.783 12.758 36.783 12.758 41.73 8.518 41.73 8.518 36.783 3.571 36.783 3.571 32.543 8.518 32.543 8.518 27.597 12.757 27.597 12.758 32.543 17.705 32.543"/></g></g></svg>